<?xml version="1.0" encoding="UTF-8" standalone="no"?><!DOCTYPE svg PUBLIC "-//W3C//DTD SVG 1.1//EN" "http://www.w3.org/Graphics/SVG/1.1/DTD/svg11.dtd"><svg width="100%" height="100%" viewBox="0 0 420 596" version="1.1" xmlns="http://www.w3.org/2000/svg" xmlns:xlink="http://www.w3.org/1999/xlink" xml:space="preserve" xmlns:serif="http://www.serif.com/" style="fill-rule:evenodd;clip-rule:evenodd;stroke-linejoin:round;stroke-miterlimit:2;"><path d="M420.052,-0.015l0,595.892l-420.724,0l0,-595.892l420.724,-0Zm-345.652,36.783c0,-2.08 -0.384,-3.896 -1.152,-5.448c-0.768,-1.552 -1.792,-2.848 -3.072,-3.888c-1.28,-1.04 -2.728,-1.816 -4.344,-2.328c-1.616,-0.512 -3.288,-0.768 -5.016,-0.768c-1.696,0 -3.36,0.256 -4.992,0.768c-1.632,0.512 -3.08,1.288 -4.344,2.328c-1.264,1.04 -2.28,2.336 -3.048,3.888c-0.768,1.552 -1.152,3.368 -1.152,5.448c0,2.08 0.384,3.888 1.152,5.424c0.768,1.536 1.784,2.816 3.048,3.84c1.264,1.024 2.712,1.792 4.344,2.304c1.632,0.512 3.296,0.768 4.992,0.768c1.728,0 3.4,-0.256 5.016,-0.768c1.616,-0.512 3.064,-1.28 4.344,-2.304c1.28,-1.024 2.304,-2.304 3.072,-3.84c0.768,-1.536 1.152,-3.344 1.152,-5.424Zm-9.216,4.752c-0.64,0.64 -1.36,1.104 -2.16,1.392c-0.8,0.288 -1.536,0.432 -2.208,0.432c-0.64,0 -1.36,-0.152 -2.16,-0.456c-0.8,-0.304 -1.52,-0.776 -2.16,-1.416c-0.64,-0.64 -1.096,-1.36 -1.368,-2.16c-0.272,-0.8 -0.408,-1.648 -0.408,-2.544c0,-0.928 0.136,-1.808 0.408,-2.64c0.272,-0.832 0.728,-1.568 1.368,-2.208c0.64,-0.64 1.36,-1.104 2.16,-1.392c0.8,-0.288 1.52,-0.432 2.16,-0.432c0.672,0 1.408,0.144 2.208,0.432c0.8,0.288 1.52,0.752 2.16,1.392c0.64,0.64 1.096,1.376 1.368,2.208c0.272,0.832 0.408,1.712 0.408,2.64c0,0.896 -0.136,1.752 -0.408,2.568c-0.272,0.816 -0.728,1.544 -1.368,2.184Zm75.6,-4.752c0,-1.856 -0.288,-3.544 -0.864,-5.064c-0.576,-1.52 -1.392,-2.824 -2.448,-3.912c-1.056,-1.088 -2.336,-1.936 -3.84,-2.544c-1.504,-0.608 -3.168,-0.912 -4.992,-0.912c-1.472,0 -2.808,0.264 -4.008,0.792c-1.2,0.528 -2.264,1.256 -3.192,2.184l0,-2.592l-7.44,0l0,37.968l7.44,0l0,-16.128c1.888,1.696 4.288,2.544 7.2,2.544c1.824,0 3.488,-0.304 4.992,-0.912c1.504,-0.608 2.784,-1.448 3.84,-2.52c1.056,-1.072 1.872,-2.368 2.448,-3.888c0.576,-1.52 0.864,-3.192 0.864,-5.016Zm-9.216,4.752c-0.64,0.64 -1.296,1.128 -1.968,1.464c-0.672,0.336 -1.472,0.504 -2.4,0.504c-1.856,0 -3.456,-0.672 -4.8,-2.016c-0.416,-0.416 -0.736,-0.848 -0.96,-1.296l0,-6.96c0.224,-0.448 0.544,-0.88 0.96,-1.296c0.64,-0.64 1.376,-1.128 2.208,-1.464c0.832,-0.336 1.696,-0.504 2.592,-0.504c0.928,0 1.728,0.168 2.4,0.504c0.672,0.336 1.328,0.824 1.968,1.464c0.64,0.64 1.096,1.376 1.368,2.208c0.272,0.832 0.408,1.712 0.408,2.64c0,0.896 -0.136,1.752 -0.408,2.568c-0.272,0.816 -0.728,1.544 -1.368,2.184Zm-46.416,-4.848c0,1.856 0.288,3.544 0.864,5.064c0.576,1.52 1.392,2.824 2.448,3.912c1.056,1.088 2.336,1.936 3.84,2.544c1.504,0.608 3.168,0.912 4.992,0.912c1.44,0 2.768,-0.264 3.984,-0.792c1.216,-0.528 2.288,-1.24 3.216,-2.136l0,2.544l7.44,0l0,-24l-7.44,0l0,2.16c-0.928,-0.8 -1.992,-1.424 -3.192,-1.872c-1.2,-0.448 -2.536,-0.672 -4.008,-0.672c-1.824,0 -3.488,0.304 -4.992,0.912c-1.504,0.608 -2.784,1.448 -3.84,2.52c-1.056,1.072 -1.872,2.368 -2.448,3.888c-0.576,1.52 -0.864,3.192 -0.864,5.016Zm9.216,-4.752c0.64,-0.64 1.296,-1.128 1.968,-1.464c0.672,-0.336 1.472,-0.504 2.4,-0.504c1.856,0 3.456,0.672 4.8,2.016c0.416,0.416 0.736,0.848 0.96,1.296l0,6.96c-0.224,0.448 -0.544,0.88 -0.96,1.296c-0.64,0.64 -1.376,1.128 -2.208,1.464c-0.832,0.336 -1.696,0.504 -2.592,0.504c-0.928,0 -1.728,-0.168 -2.4,-0.504c-0.672,-0.336 -1.328,-0.824 -1.968,-1.464c-0.64,-0.64 -1.096,-1.376 -1.368,-2.208c-0.272,-0.832 -0.408,-1.712 -0.408,-2.64c0,-0.896 0.136,-1.752 0.408,-2.568c0.272,-0.816 0.728,-1.544 1.368,-2.184Zm227.818,279.149l1.484,0l0,-11.789l-1.484,0l0,3.883c-0.448,-0.406 -1.104,-0.609 -1.969,-0.609c-1.036,0 -1.93,0.444 -2.68,1.332c-0.75,0.888 -1.125,1.96 -1.125,3.215c0,1.25 0.326,2.25 0.977,3c0.651,0.75 1.5,1.125 2.547,1.125c0.984,0 1.734,-0.258 2.25,-0.773l0,0.617Zm0,-6.422l0,4.641c-0.083,0.167 -0.289,0.324 -0.617,0.473c-0.328,0.148 -0.609,0.223 -0.844,0.223c-1.833,0 -2.75,-1.008 -2.75,-3.023c0,-0.917 0.246,-1.672 0.738,-2.266c0.492,-0.594 1.137,-0.891 1.934,-0.891c0.651,0 1.164,0.281 1.539,0.844Zm-17.148,5.93c0.776,0.438 1.604,0.656 2.484,0.656c0.932,0 1.661,-0.212 2.188,-0.637c0.526,-0.424 0.789,-1.012 0.789,-1.762c0,-0.573 -0.148,-1.049 -0.445,-1.43c-0.297,-0.38 -0.771,-0.719 -1.422,-1.016l-1.062,-0.484c-0.609,-0.276 -0.914,-0.682 -0.914,-1.219c0,-0.255 0.121,-0.466 0.363,-0.633c0.242,-0.167 0.54,-0.25 0.895,-0.25c0.594,0 1.185,0.234 1.773,0.703l0.422,-1.375c-0.927,-0.385 -1.695,-0.578 -2.305,-0.578c-0.807,0 -1.461,0.193 -1.961,0.578c-0.5,0.385 -0.75,0.922 -0.75,1.609c0,0.266 0.043,0.514 0.129,0.746c0.086,0.232 0.216,0.451 0.391,0.656c0.174,0.206 0.38,0.389 0.617,0.551c0.237,0.161 0.697,0.398 1.379,0.711c0.885,0.396 1.328,0.87 1.328,1.422c0,0.771 -0.458,1.156 -1.375,1.156c-0.505,0 -1.172,-0.271 -2,-0.812l-0.523,1.406Zm-124.318,88.543l-158.64,0c-0,0 -0.96,-0.493 -3.12,1.44c-2.16,1.933 -1.92,2.88 -1.92,2.88l11.76,161.04c0,0 -0.348,6.786 6.24,12.24c6.588,5.454 13.92,6.24 13.92,6.24l106.56,0c0,0 8.689,-1.279 13.68,-7.92c4.991,-6.641 5.04,-10.8 5.04,-10.8l11.76,-160.08c0,0 0.863,-0.642 -1.68,-3.12c-2.543,-2.478 -3.6,-1.92 -3.6,-1.92Zm-29.827,23.448l-3.253,129.744c-0.07,2.797 -2.398,5.011 -5.195,4.941l-0.421,-0.011c-2.797,-0.07 -5.011,-2.398 -4.941,-5.195l3.253,-129.744c0.07,-2.797 2.398,-5.011 5.195,-4.941l0.421,0.011c2.797,0.07 5.011,2.398 4.941,5.195Zm-89.352,-0.527l4.089,129.721c0.088,2.796 -2.111,5.138 -4.907,5.226l-0.421,0.013c-2.796,0.088 -5.138,-2.111 -5.226,-4.907l-4.089,-129.721c-0.088,-2.796 2.111,-5.138 4.907,-5.226l0.421,-0.013c2.796,-0.088 5.138,2.111 5.226,4.907Zm45.007,0.374l0,129.785c0,2.798 -2.271,5.069 -5.069,5.069l-0.421,0c-2.798,0 -5.069,-2.271 -5.069,-5.069l0,-129.785c0,-2.798 2.271,-5.069 5.069,-5.069l0.421,0c2.798,0 5.069,2.271 5.069,5.069Zm189.904,-115.541c0,1.333 0.333,2.393 1,3.18c0.667,0.786 1.596,1.18 2.789,1.18c1.167,0 2.089,-0.389 2.766,-1.168c0.677,-0.779 1.016,-1.842 1.016,-3.191c0,-1.354 -0.331,-2.413 -0.992,-3.176c-0.661,-0.763 -1.591,-1.145 -2.789,-1.145c-1.135,0 -2.051,0.397 -2.746,1.191c-0.695,0.794 -1.043,1.837 -1.043,3.129Zm1.562,0c0,-0.969 0.202,-1.729 0.605,-2.281c0.404,-0.552 0.944,-0.828 1.621,-0.828c1.479,0 2.219,1.036 2.219,3.109c0,0.974 -0.197,1.742 -0.59,2.305c-0.393,0.562 -0.936,0.844 -1.629,0.844c-1.484,0 -2.227,-1.049 -2.227,-3.148Zm-4.047,-7.328c-0.255,0 -0.471,0.089 -0.648,0.266c-0.177,0.177 -0.266,0.393 -0.266,0.648c0,0.255 0.09,0.473 0.27,0.652c0.18,0.18 0.395,0.27 0.645,0.27c0.255,0 0.473,-0.09 0.652,-0.27c0.18,-0.18 0.27,-0.397 0.27,-0.652c0,-0.25 -0.09,-0.465 -0.27,-0.645c-0.18,-0.18 -0.397,-0.27 -0.652,-0.27Zm-0.812,11.531l1.484,0l0,-8.367l-2.633,0l0,1.25l1.148,0l0,7.117Zm-2.328,-7.688c-0.24,-0.193 -0.612,-0.38 -1.117,-0.562c-0.505,-0.182 -0.974,-0.273 -1.406,-0.273c-1.344,0 -2.402,0.404 -3.176,1.211c-0.773,0.807 -1.16,1.878 -1.16,3.211c0,1.307 0.372,2.344 1.117,3.109c0.745,0.766 1.688,1.148 2.828,1.148c1.177,0 2.164,-0.258 2.961,-0.773l-0.586,-1.25c-0.677,0.516 -1.349,0.773 -2.016,0.773c-0.859,0 -1.531,-0.257 -2.016,-0.77c-0.484,-0.513 -0.727,-1.259 -0.727,-2.238c0,-0.984 0.237,-1.759 0.711,-2.324c0.474,-0.565 1.115,-0.848 1.922,-0.848c0.37,0 0.746,0.068 1.129,0.203c0.383,0.135 0.65,0.279 0.801,0.43l0.734,-1.047Zm-22.078,7.187c0.776,0.438 1.604,0.656 2.484,0.656c0.932,0 1.661,-0.212 2.188,-0.637c0.526,-0.424 0.789,-1.012 0.789,-1.762c0,-0.573 -0.148,-1.049 -0.445,-1.43c-0.297,-0.38 -0.771,-0.719 -1.422,-1.016l-1.062,-0.484c-0.609,-0.276 -0.914,-0.682 -0.914,-1.219c0,-0.255 0.121,-0.466 0.363,-0.633c0.242,-0.167 0.54,-0.25 0.895,-0.25c0.594,0 1.185,0.234 1.773,0.703l0.422,-1.375c-0.927,-0.385 -1.695,-0.578 -2.305,-0.578c-0.807,0 -1.461,0.193 -1.961,0.578c-0.5,0.385 -0.75,0.922 -0.75,1.609c0,0.266 0.043,0.514 0.129,0.746c0.086,0.232 0.216,0.451 0.391,0.656c0.174,0.206 0.38,0.389 0.617,0.551c0.237,0.161 0.697,0.398 1.379,0.711c0.885,0.396 1.328,0.87 1.328,1.422c0,0.771 -0.458,1.156 -1.375,1.156c-0.505,0 -1.172,-0.271 -2,-0.812l-0.523,1.406Zm8.43,-7.867l-1.484,0l0,5.492c0,0.969 0.243,1.716 0.73,2.242c0.487,0.526 1.189,0.789 2.105,0.789c0.479,0 0.97,-0.137 1.473,-0.41c0.503,-0.273 0.837,-0.574 1.004,-0.902l0,1.156l1.484,0l0,-8.367l-1.484,0l0,5.875c-0.13,0.37 -0.398,0.695 -0.805,0.977c-0.406,0.281 -0.854,0.422 -1.344,0.422c-1.12,0 -1.68,-0.646 -1.68,-1.938l0,-5.336Zm-65.164,3.961c0.594,0.052 0.979,0.078 1.156,0.078c2.938,0 4.406,-1.286 4.406,-3.859c0,-2.224 -1.661,-3.336 -4.984,-3.336c-0.245,0 -0.958,0.026 -2.141,0.078l0,11.445l1.562,0l0,-4.406Zm0,-5.633c0.359,-0.052 0.643,-0.078 0.852,-0.078c2.068,0 3.102,0.698 3.102,2.094c0,1.526 -0.969,2.289 -2.906,2.289c-0.036,0 -0.385,-0.026 -1.047,-0.078l0,-4.227Zm30.859,6c0.078,-0.276 0.117,-0.578 0.117,-0.906c0,-1.068 -0.328,-1.924 -0.984,-2.57c-0.677,-0.672 -1.612,-1.008 -2.805,-1.008c-1.026,0 -1.914,0.372 -2.664,1.117c-0.839,0.833 -1.258,1.94 -1.258,3.32c0,1.328 0.409,2.385 1.227,3.172c0.734,0.714 1.628,1.07 2.68,1.07c0.729,0 1.391,-0.109 1.984,-0.328c0.474,-0.167 0.826,-0.365 1.055,-0.594l-0.625,-1.07c-0.568,0.495 -1.276,0.742 -2.125,0.742c-0.745,0 -1.354,-0.229 -1.828,-0.688c-0.536,-0.526 -0.805,-1.279 -0.805,-2.258l6.031,0Zm-3.602,-3.234c0.708,0 1.268,0.219 1.68,0.656c0.375,0.401 0.562,0.901 0.562,1.5l-4.633,0c0.057,-0.604 0.299,-1.109 0.727,-1.516c0.448,-0.427 1.003,-0.641 1.664,-0.641Zm17.047,3.234c0.078,-0.276 0.117,-0.578 0.117,-0.906c0,-1.068 -0.328,-1.924 -0.984,-2.57c-0.677,-0.672 -1.612,-1.008 -2.805,-1.008c-1.026,0 -1.914,0.372 -2.664,1.117c-0.839,0.833 -1.258,1.94 -1.258,3.32c0,1.328 0.409,2.385 1.227,3.172c0.734,0.714 1.628,1.07 2.68,1.07c0.729,0 1.391,-0.109 1.984,-0.328c0.474,-0.167 0.826,-0.365 1.055,-0.594l-0.625,-1.07c-0.568,0.495 -1.276,0.742 -2.125,0.742c-0.745,0 -1.354,-0.229 -1.828,-0.688c-0.536,-0.526 -0.805,-1.279 -0.805,-2.258l6.031,0Zm-3.602,-3.234c0.708,0 1.268,0.219 1.68,0.656c0.375,0.401 0.562,0.901 0.562,1.5l-4.633,0c0.057,-0.604 0.299,-1.109 0.727,-1.516c0.448,-0.427 1.003,-0.641 1.664,-0.641Zm-36.141,-279.083l-8.064,0l-6,14.352l-5.52,-14.352l-8.064,0l9.552,24l8.064,0l10.032,-24Zm-63.696,337.68l-0.48,-8.16c0,0 1.416,-2.262 -4.8,-11.76c-6.216,-9.498 -15.6,-8.64 -15.6,-8.64l-58.56,0c0,0 -7.841,-0.227 -13.2,5.76c-5.359,5.987 -7.44,13.44 -7.44,13.44l0,9.36l-30.24,0c0,0 -5.342,0.297 -8.88,3.84c-3.538,3.543 -4.56,6.72 -4.56,6.72c0,0 -0.995,3.268 -0.96,6.72c0.035,3.452 0.72,4.8 0.72,4.8c0,0 0.303,1.515 1.68,2.16c1.377,0.645 2.88,1.44 2.88,1.44l176.16,0c0,0 2.327,-0.676 3.36,-1.92c1.033,-1.244 1.68,-2.88 1.68,-2.88l0,-6.96c0,0 -0.898,-3.667 -3.36,-7.68c-2.531,-4.125 -10.32,-6.48 -10.32,-6.48l-28.08,0.24Zm-13.68,0l-72.96,0l0,-7.2c0,0 -0.284,-2.453 2.4,-4.8c2.684,-2.347 5.76,-2.88 5.76,-2.88l56.64,0c0,0 2.797,0.218 5.28,2.88c2.483,2.662 2.88,4.8 2.88,4.8l0,7.2Zm105.471,-53.69c0,1.682 0.961,2.523 2.883,2.523l0,-1.328c-0.417,0 -0.754,-0.129 -1.012,-0.387c-0.258,-0.258 -0.387,-0.611 -0.387,-1.059l0,-9.18l-1.484,0l0,9.43Zm-16.273,1.906c0.115,0.161 0.374,0.305 0.777,0.43c0.404,0.125 0.783,0.188 1.137,0.188c1.26,0 2.224,-0.402 2.891,-1.207c0.667,-0.805 1,-1.842 1,-3.113c0,-1.427 -0.331,-2.51 -0.992,-3.25c-0.661,-0.74 -1.586,-1.109 -2.773,-1.109c-0.797,0 -1.477,0.281 -2.039,0.844l0,-0.688l-1.484,0l0,11.648l1.484,0l0,-3.742Zm0,-6.102c0.177,-0.182 0.417,-0.346 0.719,-0.492c0.302,-0.146 0.557,-0.219 0.766,-0.219c0.964,0 1.664,0.245 2.102,0.734c0.437,0.49 0.656,1.263 0.656,2.32c0,2.083 -0.922,3.125 -2.766,3.125c-0.286,0 -0.581,-0.064 -0.883,-0.191c-0.302,-0.128 -0.5,-0.262 -0.594,-0.402l0,-4.875Zm-5.164,5.602c0.13,0.396 0.345,0.68 0.645,0.852c0.299,0.172 0.751,0.258 1.355,0.258l0,-0.742c-0.438,-0.245 -0.656,-0.734 -0.656,-1.469l0,-3c0,-1.203 -0.275,-2.081 -0.824,-2.633c-0.549,-0.552 -1.431,-0.828 -2.645,-0.828c-0.453,0 -0.928,0.082 -1.426,0.246c-0.497,0.164 -0.887,0.361 -1.168,0.59l0.625,1.242c0.5,-0.5 1.214,-0.75 2.141,-0.75c1.208,0 1.813,0.677 1.813,2.031c-0.396,-0.135 -0.75,-0.203 -1.063,-0.203c-1.151,0 -2.098,0.293 -2.84,0.879c-0.742,0.586 -1.113,1.303 -1.113,2.152c0,0.708 0.241,1.301 0.723,1.777c0.482,0.477 1.051,0.715 1.707,0.715c1.224,0 2.133,-0.372 2.727,-1.117Zm-0.141,-3.148l0,2.023c-0.578,0.714 -1.242,1.07 -1.992,1.07c-1.026,0 -1.539,-0.435 -1.539,-1.305c0,-0.526 0.237,-0.982 0.711,-1.367c0.474,-0.385 1.086,-0.578 1.836,-0.578c0.188,0 0.516,0.052 0.984,0.156Zm34.359,3.609c0.776,0.438 1.604,0.656 2.484,0.656c0.932,0 1.661,-0.212 2.188,-0.637c0.526,-0.424 0.789,-1.012 0.789,-1.762c0,-0.573 -0.148,-1.049 -0.445,-1.43c-0.297,-0.38 -0.771,-0.719 -1.422,-1.016l-1.062,-0.484c-0.609,-0.276 -0.914,-0.682 -0.914,-1.219c0,-0.255 0.121,-0.466 0.363,-0.633c0.242,-0.167 0.54,-0.25 0.895,-0.25c0.594,0 1.185,0.234 1.773,0.703l0.422,-1.375c-0.927,-0.385 -1.695,-0.578 -2.305,-0.578c-0.807,0 -1.461,0.193 -1.961,0.578c-0.5,0.385 -0.75,0.922 -0.75,1.609c0,0.266 0.043,0.514 0.129,0.746c0.086,0.232 0.216,0.451 0.391,0.656c0.174,0.206 0.38,0.389 0.617,0.551c0.237,0.161 0.697,0.398 1.379,0.711c0.885,0.396 1.328,0.87 1.328,1.422c0,0.771 -0.458,1.156 -1.375,1.156c-0.505,0 -1.172,-0.271 -2,-0.812l-0.523,1.406Zm9.284,-264.833l-4.704,-4.368l-0.144,0.144c-0.64,0.64 -1.376,1.128 -2.208,1.464c-0.832,0.336 -1.712,0.504 -2.64,0.504c-0.896,0 -1.68,-0.176 -2.352,-0.528c-0.672,-0.352 -1.328,-0.848 -1.968,-1.488c-0.64,-0.64 -1.096,-1.36 -1.368,-2.16c-0.272,-0.8 -0.408,-1.648 -0.408,-2.544c0,-0.928 0.136,-1.808 0.408,-2.64c0.272,-0.832 0.728,-1.568 1.368,-2.208c0.64,-0.64 1.296,-1.128 1.968,-1.464c0.672,-0.336 1.456,-0.504 2.352,-0.504c0.896,0 1.76,0.168 2.592,0.504c0.832,0.336 1.568,0.808 2.208,1.416l4.512,-4.512c-1.28,-1.024 -2.72,-1.784 -4.32,-2.28c-1.6,-0.496 -3.264,-0.744 -4.992,-0.744c-1.696,0 -3.36,0.256 -4.992,0.768c-1.632,0.512 -3.08,1.288 -4.344,2.328c-1.264,1.04 -2.28,2.336 -3.048,3.888c-0.768,1.552 -1.152,3.368 -1.152,5.448c0,2.08 0.384,3.888 1.152,5.424c0.768,1.536 1.784,2.816 3.048,3.84c1.264,1.024 2.712,1.792 4.344,2.304c1.632,0.512 3.296,0.768 4.992,0.768c1.824,0 3.568,-0.28 5.232,-0.84c1.664,-0.56 3.152,-1.4 4.464,-2.52Zm-56.472,18.072c-44.68,0 -80.954,35.844 -80.954,79.995c0,44.15 36.274,79.995 80.954,79.995c44.68,0 80.955,-35.844 80.955,-79.995c0,-44.15 -36.275,-79.995 -80.955,-79.995Zm17.622,103.123l-3.65,-0.003l-0.002,-3.532l3.653,3.535Zm-53.857,-52.127l-2.075,3.607l13.309,7.267l37.142,35.949l-11.339,19.647l13.614,20.692l0.62,-8.945l16.325,-0.871c0,0 4.273,-1.495 6.105,-6.011l11.027,10.672c-12.775,11.659 -29.811,18.781 -48.507,18.781c-39.598,0 -71.745,-31.943 -71.745,-71.287c0,-17.905 6.658,-34.278 17.646,-46.804l17.877,17.303Zm27.295,51.401l-34.164,-0.217c-5.789,0.092 -12.482,-5.837 -12.482,-5.837l13.134,23.188c3.305,8.616 11.237,9.341 11.237,9.341l22.365,-0.003l-0.088,-26.471Zm-22.372,-37.216l-25.242,-0.122l7.204,5.669l-7.828,14.71c0.459,15.399 21.723,13.55 21.723,13.55l9.496,-15.267l6.927,3.72l-12.279,-22.26Zm67.887,45.17c-0.896,-2.158 -2.188,-4.556 -3.977,-7.216l-3.482,-0.003l-41.594,-40.258l11.986,-20.701c3.529,-9.666 12.55,-11.207 12.824,-11.355c0.274,-0.148 1.157,-0.55 1.157,-0.55l-0.409,-0.011l-32.88,0.012c-5.744,1.766 -7.649,5.455 -7.649,5.455l-4.679,8.132l-16.393,-15.867c12.775,-11.659 29.811,-18.781 48.508,-18.781c39.597,0 71.745,31.943 71.745,71.288c0,17.905 -6.658,34.277 -17.646,46.804l-10.997,-10.643l14.024,-24.084c0,0 0.805,-5.979 -3.174,-12.459l-10.149,-15.491l-22.347,14.205l14.651,23.776c0,0 4.636,5.626 5.223,12.339l-4.743,-4.591Zm4.56,-65.925l-8.509,3.625l-10.528,-14.384c-13.09,-5.339 -21.264,12.515 -21.264,12.515l8.806,15.679l-6.68,4.405l26.247,0.075l11.929,-21.915Zm-62.135,-71.474c0,-2.08 -0.384,-3.896 -1.152,-5.448c-0.768,-1.552 -1.792,-2.848 -3.072,-3.888c-1.28,-1.04 -2.728,-1.816 -4.344,-2.328c-1.616,-0.512 -3.288,-0.768 -5.016,-0.768c-1.696,0 -3.36,0.256 -4.992,0.768c-1.632,0.512 -3.08,1.288 -4.344,2.328c-1.264,1.04 -2.28,2.336 -3.048,3.888c-0.768,1.552 -1.152,3.368 -1.152,5.448c0,2.08 0.384,3.888 1.152,5.424c0.768,1.536 1.784,2.816 3.048,3.84c1.264,1.024 2.712,1.792 4.344,2.304c1.632,0.512 3.296,0.768 4.992,0.768c1.728,0 3.4,-0.256 5.016,-0.768c1.616,-0.512 3.064,-1.28 4.344,-2.304c1.28,-1.024 2.304,-2.304 3.072,-3.84c0.768,-1.536 1.152,-3.344 1.152,-5.424Zm-9.216,4.752c-0.64,0.64 -1.36,1.104 -2.16,1.392c-0.8,0.288 -1.536,0.432 -2.208,0.432c-0.64,0 -1.36,-0.152 -2.16,-0.456c-0.8,-0.304 -1.52,-0.776 -2.16,-1.416c-0.64,-0.64 -1.096,-1.36 -1.368,-2.16c-0.272,-0.8 -0.408,-1.648 -0.408,-2.544c0,-0.928 0.136,-1.808 0.408,-2.64c0.272,-0.832 0.728,-1.568 1.368,-2.208c0.64,-0.64 1.36,-1.104 2.16,-1.392c0.8,-0.288 1.52,-0.432 2.16,-0.432c0.672,0 1.408,0.144 2.208,0.432c0.8,0.288 1.52,0.752 2.16,1.392c0.64,0.64 1.096,1.376 1.368,2.208c0.272,0.832 0.408,1.712 0.408,2.64c0,0.896 -0.136,1.752 -0.408,2.568c-0.272,0.816 -0.728,1.544 -1.368,2.184Zm218.064,-17.184c-1.12,0 -2.232,0.12 -3.336,0.36c-1.104,0.24 -2.104,0.632 -3,1.176c-0.896,0.544 -1.624,1.28 -2.184,2.208c-0.56,0.928 -0.84,2.08 -0.84,3.456c0,1.6 0.448,2.992 1.344,4.176c0.896,1.184 2.304,2.192 4.224,3.024l2.928,1.248c0.736,0.32 1.232,0.568 1.488,0.744c0.256,0.176 0.384,0.424 0.384,0.744c0,0.256 -0.08,0.448 -0.24,0.576c-0.16,0.128 -0.32,0.224 -0.48,0.288c-0.192,0.096 -0.416,0.144 -0.672,0.144c-0.608,0 -1.232,-0.064 -1.872,-0.192c-0.64,-0.128 -1.256,-0.28 -1.848,-0.456c-0.592,-0.176 -1.112,-0.368 -1.56,-0.576c-0.448,-0.208 -0.784,-0.408 -1.008,-0.6l-3.168,5.088c0.928,0.864 2.216,1.64 3.864,2.328c1.648,0.688 3.512,1.032 5.592,1.032c1.056,0 2.12,-0.128 3.192,-0.384c1.072,-0.256 2.032,-0.664 2.88,-1.224c0.848,-0.56 1.544,-1.288 2.088,-2.184c0.544,-0.896 0.816,-1.968 0.816,-3.216c0,-0.8 -0.064,-1.568 -0.192,-2.304c-0.128,-0.736 -0.392,-1.432 -0.792,-2.088c-0.4,-0.656 -0.96,-1.272 -1.68,-1.848c-0.72,-0.576 -1.656,-1.104 -2.808,-1.584l-2.928,-1.248c-0.64,-0.256 -1.176,-0.504 -1.608,-0.744c-0.432,-0.24 -0.648,-0.488 -0.648,-0.744c0,-0.256 0.144,-0.496 0.432,-0.72c0.288,-0.224 0.832,-0.336 1.632,-0.336c0.32,0 0.68,0.048 1.08,0.144c0.4,0.096 0.8,0.232 1.2,0.408c0.4,0.176 0.776,0.36 1.128,0.552c0.352,0.192 0.656,0.384 0.912,0.576l4.032,-4.896c-0.928,-0.864 -2.152,-1.568 -3.672,-2.112c-1.52,-0.544 -3.08,-0.816 -4.68,-0.816Zm-352.416,24.384l0,-32.976l-7.92,-0l0,19.344l-12.288,-19.344l-8.688,-0l0,32.976l7.92,0l0,-19.392l12.336,19.392l8.64,0Zm249.552,-12.048c0,1.856 0.288,3.544 0.864,5.064c0.576,1.52 1.392,2.824 2.448,3.912c1.056,1.088 2.336,1.936 3.84,2.544c1.504,0.608 3.168,0.912 4.992,0.912c1.44,0 2.768,-0.264 3.984,-0.792c1.216,-0.528 2.288,-1.24 3.216,-2.136l0,2.544l7.44,0l0,-24l-7.44,0l0,2.16c-0.928,-0.8 -1.992,-1.424 -3.192,-1.872c-1.2,-0.448 -2.536,-0.672 -4.008,-0.672c-1.824,0 -3.488,0.304 -4.992,0.912c-1.504,0.608 -2.784,1.448 -3.84,2.52c-1.056,1.072 -1.872,2.368 -2.448,3.888c-0.576,1.52 -0.864,3.192 -0.864,5.016Zm9.216,-4.752c0.64,-0.64 1.296,-1.128 1.968,-1.464c0.672,-0.336 1.472,-0.504 2.4,-0.504c1.856,0 3.456,0.672 4.8,2.016c0.416,0.416 0.736,0.848 0.96,1.296l0,6.96c-0.224,0.448 -0.544,0.88 -0.96,1.296c-0.64,0.64 -1.376,1.128 -2.208,1.464c-0.832,0.336 -1.696,0.504 -2.592,0.504c-0.928,0 -1.728,-0.168 -2.4,-0.504c-0.672,-0.336 -1.328,-0.824 -1.968,-1.464c-0.64,-0.64 -1.096,-1.376 -1.368,-2.208c-0.272,-0.832 -0.408,-1.712 -0.408,-2.64c0,-0.896 0.136,-1.752 0.408,-2.568c0.272,-0.816 0.728,-1.544 1.368,-2.184Zm46.416,4.752c0,-1.824 -0.288,-3.496 -0.864,-5.016c-0.576,-1.52 -1.392,-2.816 -2.448,-3.888c-1.056,-1.072 -2.336,-1.912 -3.84,-2.52c-1.504,-0.608 -3.168,-0.912 -4.992,-0.912c-1.504,0 -2.848,0.224 -4.032,0.672c-1.184,0.448 -2.24,1.072 -3.168,1.872l0,-11.808l-7.44,0l0,33.648l7.44,0l0,-2.544c0.928,0.896 1.992,1.608 3.192,2.136c1.2,0.528 2.536,0.792 4.008,0.792c1.824,0 3.488,-0.304 4.992,-0.912c1.504,-0.608 2.784,-1.456 3.84,-2.544c1.056,-1.088 1.872,-2.392 2.448,-3.912c0.576,-1.52 0.864,-3.208 0.864,-5.064Zm-9.216,-4.752c0.64,0.64 1.096,1.368 1.368,2.184c0.272,0.816 0.408,1.672 0.408,2.568c0,0.928 -0.136,1.808 -0.408,2.64c-0.272,0.832 -0.728,1.568 -1.368,2.208c-0.64,0.64 -1.296,1.128 -1.968,1.464c-0.672,0.336 -1.472,0.504 -2.4,0.504c-0.896,0 -1.76,-0.168 -2.592,-0.504c-0.832,-0.336 -1.568,-0.824 -2.208,-1.464c-0.416,-0.416 -0.736,-0.848 -0.96,-1.296l0,-6.96c0.224,-0.448 0.544,-0.88 0.96,-1.296c1.344,-1.344 2.944,-2.016 4.8,-2.016c0.928,0 1.728,0.168 2.4,0.504c0.672,0.336 1.328,0.824 1.968,1.464Zm45.984,8.304l0,-3.408c-0.064,-1.952 -0.448,-3.704 -1.152,-5.256c-0.704,-1.552 -1.664,-2.864 -2.88,-3.936c-1.216,-1.072 -2.64,-1.888 -4.272,-2.448c-1.632,-0.56 -3.392,-0.84 -5.28,-0.84c-1.696,0 -3.36,0.256 -4.992,0.768c-1.632,0.512 -3.08,1.288 -4.344,2.328c-1.264,1.04 -2.28,2.336 -3.048,3.888c-0.768,1.552 -1.152,3.368 -1.152,5.448c0,2.08 0.384,3.888 1.152,5.424c0.768,1.536 1.784,2.816 3.048,3.84c1.264,1.024 2.712,1.792 4.344,2.304c1.632,0.512 3.296,0.768 4.992,0.768c1.856,0 3.64,-0.296 5.352,-0.888c1.712,-0.592 3.224,-1.48 4.536,-2.664l-4.8,-4.272c-0.448,0.736 -1.152,1.288 -2.112,1.656c-0.96,0.368 -1.952,0.552 -2.976,0.552c-1.152,0 -2.168,-0.304 -3.048,-0.912c-0.88,-0.608 -1.592,-1.376 -2.136,-2.304l18.768,-0.048Zm-17.904,-8.304c0.64,-0.64 1.296,-1.128 1.968,-1.464c0.672,-0.336 1.456,-0.504 2.352,-0.504c0.928,0 1.728,0.168 2.4,0.504c0.672,0.336 1.328,0.824 1.968,1.464c0.352,0.352 0.648,0.752 0.888,1.2c0.24,0.448 0.44,0.912 0.6,1.392l-11.664,0c0.16,-0.48 0.36,-0.944 0.6,-1.392c0.24,-0.448 0.536,-0.848 0.888,-1.2Zm-75.12,16.8l0,-12.048c0,-1.824 -0.288,-3.496 -0.864,-5.016c-0.576,-1.52 -1.392,-2.816 -2.448,-3.888c-1.056,-1.072 -2.336,-1.912 -3.84,-2.52c-1.504,-0.608 -3.168,-0.912 -4.992,-0.912c-1.504,0 -2.848,0.224 -4.032,0.672c-1.184,0.448 -2.24,1.072 -3.168,1.872l0,-11.808l-7.44,0l0,33.648l7.44,0l0,-15.456c0.224,-0.448 0.544,-0.88 0.96,-1.296c1.344,-1.344 2.944,-2.016 4.8,-2.016c1.888,0 3.504,0.672 4.848,2.016c0.64,0.64 1.016,1.36 1.128,2.16c0.112,0.8 0.168,1.648 0.168,2.544l0,12.048l7.44,0Zm-51.264,-8.496l0,-3.408c-0.064,-1.952 -0.448,-3.704 -1.152,-5.256c-0.704,-1.552 -1.664,-2.864 -2.88,-3.936c-1.216,-1.072 -2.64,-1.888 -4.272,-2.448c-1.632,-0.56 -3.392,-0.84 -5.28,-0.84c-1.696,0 -3.36,0.256 -4.992,0.768c-1.632,0.512 -3.08,1.288 -4.344,2.328c-1.264,1.04 -2.28,2.336 -3.048,3.888c-0.768,1.552 -1.152,3.368 -1.152,5.448c0,2.08 0.384,3.888 1.152,5.424c0.768,1.536 1.784,2.816 3.048,3.84c1.264,1.024 2.712,1.792 4.344,2.304c1.632,0.512 3.296,0.768 4.992,0.768c1.856,0 3.64,-0.296 5.352,-0.888c1.712,-0.592 3.224,-1.48 4.536,-2.664l-4.8,-4.272c-0.448,0.736 -1.152,1.288 -2.112,1.656c-0.96,0.368 -1.952,0.552 -2.976,0.552c-1.152,0 -2.168,-0.304 -3.048,-0.912c-0.88,-0.608 -1.592,-1.376 -2.136,-2.304l18.768,-0.048Zm-17.904,-8.304c0.64,-0.64 1.296,-1.128 1.968,-1.464c0.672,-0.336 1.456,-0.504 2.352,-0.504c0.928,0 1.728,0.168 2.4,0.504c0.672,0.336 1.328,0.824 1.968,1.464c0.352,0.352 0.648,0.752 0.888,1.2c0.24,0.448 0.44,0.912 0.6,1.392l-11.664,0c0.16,-0.48 0.36,-0.944 0.6,-1.392c0.24,-0.448 0.536,-0.848 0.888,-1.2Zm133.968,16.8l0,-33.648l-7.44,-0l0,33.648l7.44,0Zm-201.648,-17.712l3.744,-5.328c-0.864,-0.448 -1.632,-0.784 -2.304,-1.008c-0.672,-0.224 -1.568,-0.336 -2.688,-0.336c-1.504,0 -2.848,0.224 -4.032,0.672c-1.184,0.448 -2.24,1.072 -3.168,1.872l0,-2.16l-7.44,0l0,24l7.44,0l0,-15.456c0.224,-0.448 0.544,-0.88 0.96,-1.296c1.344,-1.344 2.944,-2.016 4.8,-2.016c0.64,0 1.112,0.088 1.416,0.264c0.304,0.176 0.728,0.44 1.272,0.792Zm129.84,426.577c0.13,0.396 0.345,0.68 0.645,0.852c0.299,0.172 0.751,0.258 1.355,0.258l0,-0.742c-0.438,-0.245 -0.656,-0.734 -0.656,-1.469l0,-3c0,-1.203 -0.275,-2.081 -0.824,-2.633c-0.549,-0.552 -1.431,-0.828 -2.645,-0.828c-0.453,0 -0.928,0.082 -1.426,0.246c-0.497,0.164 -0.887,0.361 -1.168,0.59l0.625,1.242c0.5,-0.5 1.214,-0.75 2.141,-0.75c1.208,0 1.813,0.677 1.813,2.031c-0.396,-0.135 -0.75,-0.203 -1.062,-0.203c-1.151,0 -2.098,0.293 -2.84,0.879c-0.742,0.586 -1.113,1.303 -1.113,2.152c0,0.708 0.241,1.301 0.723,1.777c0.482,0.477 1.051,0.715 1.707,0.715c1.224,0 2.133,-0.372 2.727,-1.117Zm-0.141,-3.148l0,2.023c-0.578,0.714 -1.242,1.07 -1.992,1.07c-1.026,0 -1.539,-0.435 -1.539,-1.305c0,-0.526 0.237,-0.982 0.711,-1.367c0.474,-0.385 1.086,-0.578 1.836,-0.578c0.188,0 0.516,0.052 0.984,0.156Zm3.938,1.742c0,1.682 0.961,2.523 2.883,2.523l0,-1.328c-0.417,0 -0.754,-0.129 -1.012,-0.387c-0.258,-0.258 -0.387,-0.611 -0.387,-1.059l0,-9.18l-1.484,0l0,9.43Zm6.133,-9.164c-0.255,0 -0.471,0.089 -0.648,0.266c-0.177,0.177 -0.266,0.393 -0.266,0.648c0,0.255 0.09,0.473 0.27,0.652c0.18,0.18 0.395,0.27 0.645,0.27c0.255,0 0.473,-0.09 0.652,-0.27c0.18,-0.18 0.27,-0.397 0.27,-0.652c0,-0.25 -0.09,-0.465 -0.27,-0.645c-0.18,-0.18 -0.397,-0.27 -0.652,-0.27Zm-0.812,11.531l1.484,0l0,-8.367l-2.633,0l0,1.25l1.148,0l0,7.117Zm13.531,0l1.484,0l0,-5.594c0,-0.927 -0.237,-1.647 -0.711,-2.16c-0.474,-0.513 -1.143,-0.77 -2.008,-0.77c-0.479,0 -0.945,0.107 -1.398,0.32c-0.453,0.214 -0.763,0.479 -0.93,0.797c-0.479,-0.745 -1.318,-1.117 -2.516,-1.117c-0.859,0 -1.576,0.375 -2.148,1.125l-0.492,-0.969l-0.969,0l0,8.367l1.484,0l0,-6.172c0.141,-0.276 0.379,-0.529 0.715,-0.758c0.336,-0.229 0.652,-0.344 0.949,-0.344c0.51,0 0.921,0.118 1.23,0.355c0.31,0.237 0.465,0.561 0.465,0.973l0,5.945l1.484,0l0,-6.187c0.115,-0.281 0.328,-0.533 0.641,-0.754c0.312,-0.221 0.648,-0.332 1.008,-0.332c1.141,0 1.711,0.659 1.711,1.977l0,5.297Zm10.641,-4.039c0.078,-0.276 0.117,-0.578 0.117,-0.906c0,-1.068 -0.328,-1.924 -0.984,-2.57c-0.677,-0.672 -1.612,-1.008 -2.805,-1.008c-1.026,0 -1.914,0.372 -2.664,1.117c-0.839,0.833 -1.258,1.94 -1.258,3.32c0,1.328 0.409,2.385 1.227,3.172c0.734,0.714 1.628,1.07 2.68,1.07c0.729,0 1.391,-0.109 1.984,-0.328c0.474,-0.167 0.826,-0.365 1.055,-0.594l-0.625,-1.07c-0.568,0.495 -1.276,0.742 -2.125,0.742c-0.745,0 -1.354,-0.229 -1.828,-0.688c-0.536,-0.526 -0.805,-1.279 -0.805,-2.258l6.031,0Zm-3.602,-3.234c0.708,0 1.268,0.219 1.68,0.656c0.375,0.401 0.562,0.901 0.562,1.5l-4.633,0c0.057,-0.604 0.299,-1.109 0.727,-1.516c0.448,-0.427 1.003,-0.641 1.664,-0.641Zm10.43,7.273l1.484,0l0,-5.18c0,-2.229 -0.917,-3.344 -2.75,-3.344c-1.109,0 -1.909,0.411 -2.398,1.234l-0.469,-1.078l-1.016,0l0,8.367l1.484,0l0,-6.219c0.198,-0.297 0.482,-0.547 0.852,-0.75c0.37,-0.203 0.724,-0.305 1.062,-0.305c0.63,0 1.079,0.178 1.348,0.535c0.268,0.357 0.402,0.98 0.402,1.871l0,4.867Zm4.125,-7.195l0,4.75c0,0.75 0.228,1.371 0.684,1.863c0.456,0.492 1.014,0.738 1.676,0.738c0.734,0 1.409,-0.078 2.023,-0.234l-0.219,-1.305c-0.406,0.193 -0.799,0.289 -1.18,0.289c-0.526,0 -0.908,-0.148 -1.145,-0.445c-0.237,-0.297 -0.355,-0.797 -0.355,-1.5l0,-4.156l2.297,0l0,-1.172l-2.297,0l0,-2.32l-1.484,0.57l0,1.75l-0.969,0l0,1.172l0.969,0Zm5.266,2.992c0,1.333 0.333,2.393 1,3.18c0.667,0.786 1.596,1.18 2.789,1.18c1.167,0 2.089,-0.389 2.766,-1.168c0.677,-0.779 1.016,-1.842 1.016,-3.191c0,-1.354 -0.331,-2.413 -0.992,-3.176c-0.661,-0.763 -1.591,-1.145 -2.789,-1.145c-1.135,0 -2.051,0.397 -2.746,1.191c-0.695,0.794 -1.043,1.837 -1.043,3.129Zm1.562,0c0,-0.969 0.202,-1.729 0.605,-2.281c0.404,-0.552 0.944,-0.828 1.621,-0.828c1.479,0 2.219,1.036 2.219,3.109c0,0.974 -0.197,1.742 -0.59,2.305c-0.393,0.563 -0.936,0.844 -1.629,0.844c-1.484,0 -2.227,-1.049 -2.227,-3.148Zm7.023,3.703c0.776,0.437 1.604,0.656 2.484,0.656c0.932,0 1.661,-0.212 2.188,-0.637c0.526,-0.424 0.789,-1.012 0.789,-1.762c0,-0.573 -0.148,-1.049 -0.445,-1.43c-0.297,-0.38 -0.771,-0.719 -1.422,-1.016l-1.062,-0.484c-0.609,-0.276 -0.914,-0.682 -0.914,-1.219c0,-0.255 0.121,-0.466 0.363,-0.633c0.242,-0.167 0.54,-0.25 0.895,-0.25c0.594,0 1.185,0.234 1.773,0.703l0.422,-1.375c-0.927,-0.385 -1.695,-0.578 -2.305,-0.578c-0.807,0 -1.461,0.193 -1.961,0.578c-0.5,0.385 -0.75,0.922 -0.75,1.609c0,0.266 0.043,0.514 0.129,0.746c0.086,0.232 0.216,0.451 0.391,0.656c0.174,0.206 0.38,0.389 0.617,0.551c0.237,0.161 0.697,0.398 1.379,0.711c0.885,0.396 1.328,0.87 1.328,1.422c0,0.771 -0.458,1.156 -1.375,1.156c-0.505,0 -1.172,-0.271 -2,-0.812l-0.523,1.406Zm18.156,-7.188c-0.24,-0.193 -0.612,-0.38 -1.117,-0.563c-0.505,-0.182 -0.974,-0.273 -1.406,-0.273c-1.344,0 -2.402,0.404 -3.176,1.211c-0.773,0.807 -1.16,1.878 -1.16,3.211c0,1.307 0.372,2.344 1.117,3.109c0.745,0.766 1.688,1.148 2.828,1.148c1.177,0 2.164,-0.258 2.961,-0.773l-0.586,-1.25c-0.677,0.516 -1.349,0.773 -2.016,0.773c-0.859,0 -1.531,-0.257 -2.016,-0.77c-0.484,-0.513 -0.727,-1.259 -0.727,-2.238c0,-0.984 0.237,-1.759 0.711,-2.324c0.474,-0.565 1.115,-0.848 1.922,-0.848c0.37,0 0.746,0.068 1.129,0.203c0.383,0.135 0.65,0.279 0.801,0.43l0.734,-1.047Zm1.063,3.484c0,1.333 0.333,2.393 1,3.18c0.667,0.786 1.596,1.18 2.789,1.18c1.167,0 2.089,-0.389 2.766,-1.168c0.677,-0.779 1.016,-1.842 1.016,-3.191c0,-1.354 -0.331,-2.413 -0.992,-3.176c-0.661,-0.763 -1.591,-1.145 -2.789,-1.145c-1.135,0 -2.051,0.397 -2.746,1.191c-0.695,0.794 -1.043,1.837 -1.043,3.129Zm1.562,0c0,-0.969 0.202,-1.729 0.605,-2.281c0.404,-0.552 0.944,-0.828 1.621,-0.828c1.479,0 2.219,1.036 2.219,3.109c0,0.974 -0.197,1.742 -0.59,2.305c-0.393,0.563 -0.936,0.844 -1.629,0.844c-1.484,0 -2.227,-1.049 -2.227,-3.148Zm7.023,3.703c0.776,0.437 1.604,0.656 2.484,0.656c0.932,0 1.661,-0.212 2.187,-0.637c0.526,-0.424 0.789,-1.012 0.789,-1.762c0,-0.573 -0.148,-1.049 -0.445,-1.43c-0.297,-0.38 -0.771,-0.719 -1.422,-1.016l-1.062,-0.484c-0.609,-0.276 -0.914,-0.682 -0.914,-1.219c0,-0.255 0.121,-0.466 0.363,-0.633c0.242,-0.167 0.54,-0.25 0.895,-0.25c0.594,0 1.185,0.234 1.773,0.703l0.422,-1.375c-0.927,-0.385 -1.695,-0.578 -2.305,-0.578c-0.807,0 -1.461,0.193 -1.961,0.578c-0.5,0.385 -0.75,0.922 -0.75,1.609c0,0.266 0.043,0.514 0.129,0.746c0.086,0.232 0.216,0.451 0.391,0.656c0.174,0.206 0.38,0.389 0.617,0.551c0.237,0.161 0.697,0.398 1.379,0.711c0.885,0.396 1.328,0.87 1.328,1.422c0,0.771 -0.458,1.156 -1.375,1.156c-0.505,0 -1.172,-0.271 -2,-0.812l-0.523,1.406Zm8.555,-11.031c-0.255,0 -0.471,0.089 -0.648,0.266c-0.177,0.177 -0.266,0.393 -0.266,0.648c0,0.255 0.09,0.473 0.27,0.652c0.18,0.18 0.395,0.27 0.645,0.27c0.255,0 0.473,-0.09 0.652,-0.27c0.18,-0.18 0.27,-0.397 0.27,-0.652c0,-0.25 -0.09,-0.465 -0.27,-0.645c-0.18,-0.18 -0.397,-0.27 -0.652,-0.27Zm-0.813,11.531l1.484,0l0,-8.367l-2.633,0l0,1.25l1.148,0l0,7.117Zm9.148,-0.008l1.484,0l0,-11.789l-1.484,0l0,3.883c-0.448,-0.406 -1.104,-0.609 -1.969,-0.609c-1.036,0 -1.93,0.444 -2.68,1.332c-0.75,0.888 -1.125,1.96 -1.125,3.215c0,1.25 0.326,2.25 0.977,3c0.651,0.75 1.5,1.125 2.547,1.125c0.984,0 1.734,-0.258 2.25,-0.773l0,0.617Zm0,-6.422l0,4.641c-0.083,0.167 -0.289,0.324 -0.617,0.473c-0.328,0.148 -0.609,0.223 -0.844,0.223c-1.833,0 -2.75,-1.008 -2.75,-3.023c0,-0.917 0.246,-1.672 0.738,-2.266c0.492,-0.594 1.137,-0.891 1.934,-0.891c0.651,0 1.164,0.281 1.539,0.844Zm3.062,2.227c0,1.333 0.333,2.393 1,3.18c0.667,0.786 1.596,1.18 2.789,1.18c1.167,0 2.089,-0.389 2.766,-1.168c0.677,-0.779 1.016,-1.842 1.016,-3.191c0,-1.354 -0.331,-2.413 -0.992,-3.176c-0.661,-0.763 -1.591,-1.145 -2.789,-1.145c-1.135,0 -2.051,0.397 -2.746,1.191c-0.695,0.794 -1.043,1.837 -1.043,3.129Zm1.562,0c0,-0.969 0.202,-1.729 0.605,-2.281c0.404,-0.552 0.944,-0.828 1.621,-0.828c1.479,0 2.219,1.036 2.219,3.109c0,0.974 -0.197,1.742 -0.59,2.305c-0.393,0.563 -0.936,0.844 -1.629,0.844c-1.484,0 -2.227,-1.049 -2.227,-3.148Zm7.023,3.703c0.776,0.437 1.604,0.656 2.484,0.656c0.932,0 1.661,-0.212 2.188,-0.637c0.526,-0.424 0.789,-1.012 0.789,-1.762c0,-0.573 -0.148,-1.049 -0.445,-1.43c-0.297,-0.38 -0.771,-0.719 -1.422,-1.016l-1.062,-0.484c-0.609,-0.276 -0.914,-0.682 -0.914,-1.219c0,-0.255 0.121,-0.466 0.363,-0.633c0.242,-0.167 0.54,-0.25 0.895,-0.25c0.594,0 1.185,0.234 1.773,0.703l0.422,-1.375c-0.927,-0.385 -1.695,-0.578 -2.305,-0.578c-0.807,0 -1.461,0.193 -1.961,0.578c-0.5,0.385 -0.75,0.922 -0.75,1.609c0,0.266 0.043,0.514 0.129,0.746c0.086,0.232 0.216,0.451 0.391,0.656c0.174,0.206 0.38,0.389 0.617,0.551c0.237,0.161 0.697,0.398 1.379,0.711c0.885,0.396 1.328,0.87 1.328,1.422c0,0.771 -0.458,1.156 -1.375,1.156c-0.505,0 -1.172,-0.271 -2,-0.812l-0.523,1.406Zm8.734,-1.695c-0.323,0 -0.599,0.115 -0.828,0.344c-0.229,0.229 -0.344,0.505 -0.344,0.828c0,0.323 0.115,0.6 0.344,0.832c0.229,0.232 0.505,0.348 0.828,0.348c0.323,0 0.599,-0.116 0.828,-0.348c0.229,-0.232 0.344,-0.509 0.344,-0.832c0,-0.323 -0.115,-0.599 -0.344,-0.828c-0.229,-0.229 -0.505,-0.344 -0.828,-0.344Zm-77.945,-149.312c0.078,-0.276 0.117,-0.578 0.117,-0.906c0,-1.068 -0.328,-1.924 -0.984,-2.57c-0.677,-0.672 -1.612,-1.008 -2.805,-1.008c-1.026,0 -1.914,0.372 -2.664,1.117c-0.839,0.833 -1.258,1.94 -1.258,3.32c0,1.328 0.409,2.385 1.227,3.172c0.734,0.714 1.628,1.07 2.68,1.07c0.729,0 1.391,-0.109 1.984,-0.328c0.474,-0.167 0.826,-0.365 1.055,-0.594l-0.625,-1.07c-0.568,0.495 -1.276,0.742 -2.125,0.742c-0.745,0 -1.354,-0.229 -1.828,-0.688c-0.536,-0.526 -0.805,-1.279 -0.805,-2.258l6.031,0Zm-3.602,-3.234c0.708,0 1.268,0.219 1.68,0.656c0.375,0.401 0.562,0.901 0.562,1.5l-4.633,0c0.057,-0.604 0.299,-1.109 0.727,-1.516c0.448,-0.427 1.003,-0.641 1.664,-0.641Zm5.398,4.906c0,1.682 0.961,2.523 2.883,2.523l0,-1.328c-0.417,0 -0.754,-0.129 -1.012,-0.387c-0.258,-0.258 -0.387,-0.611 -0.387,-1.059l0,-9.18l-1.484,0l0,9.43Zm10.687,1.766c0.198,0.208 0.488,0.387 0.871,0.535c0.383,0.148 0.772,0.223 1.168,0.223c1.219,0 2.185,-0.4 2.898,-1.199c0.714,-0.799 1.07,-1.897 1.07,-3.293c0,-1.208 -0.355,-2.208 -1.066,-3c-0.711,-0.792 -1.639,-1.188 -2.785,-1.188c-0.375,0 -0.757,0.081 -1.145,0.242c-0.388,0.161 -0.652,0.339 -0.793,0.531l0,-4.047l-1.484,0l0,11.953l0.742,0l0.523,-0.758Zm0.219,-6.016c0.099,-0.125 0.311,-0.266 0.637,-0.422c0.326,-0.156 0.579,-0.234 0.762,-0.234c0.865,0 1.552,0.266 2.062,0.797c0.51,0.531 0.766,1.271 0.766,2.219c0,1.141 -0.219,1.953 -0.656,2.438c-0.438,0.484 -1.161,0.727 -2.172,0.727c-0.193,0 -0.474,-0.095 -0.844,-0.285c-0.37,-0.19 -0.555,-0.327 -0.555,-0.41l0,-4.828Zm12.156,5.656c0.13,0.396 0.345,0.68 0.645,0.852c0.299,0.172 0.751,0.258 1.355,0.258l0,-0.742c-0.438,-0.245 -0.656,-0.734 -0.656,-1.469l0,-3c0,-1.203 -0.275,-2.081 -0.824,-2.633c-0.549,-0.552 -1.431,-0.828 -2.645,-0.828c-0.453,0 -0.928,0.082 -1.426,0.246c-0.497,0.164 -0.887,0.361 -1.168,0.59l0.625,1.242c0.5,-0.5 1.214,-0.75 2.141,-0.75c1.208,0 1.813,0.677 1.813,2.031c-0.396,-0.135 -0.75,-0.203 -1.062,-0.203c-1.151,0 -2.098,0.293 -2.84,0.879c-0.742,0.586 -1.113,1.303 -1.113,2.152c0,0.708 0.241,1.301 0.723,1.777c0.482,0.477 1.051,0.715 1.707,0.715c1.224,0 2.133,-0.372 2.727,-1.117Zm-0.141,-3.148l0,2.023c-0.578,0.714 -1.242,1.07 -1.992,1.07c-1.026,0 -1.539,-0.435 -1.539,-1.305c0,-0.526 0.237,-0.982 0.711,-1.367c0.474,-0.385 1.086,-0.578 1.836,-0.578c0.188,0 0.516,0.052 0.984,0.156Zm8.969,4.109l1.484,0l0,-5.18c0,-2.229 -0.917,-3.344 -2.75,-3.344c-1.109,0 -1.909,0.411 -2.398,1.234l-0.469,-1.078l-1.016,0l0,8.367l1.484,0l0,-6.219c0.198,-0.297 0.482,-0.547 0.852,-0.75c0.37,-0.203 0.724,-0.305 1.062,-0.305c0.63,0 1.079,0.178 1.348,0.535c0.268,0.357 0.402,0.98 0.402,1.871l0,4.867Zm0.438,-11.656l-0.688,0c-0.141,0.401 -0.422,0.602 -0.844,0.602c-0.182,0 -0.454,-0.1 -0.816,-0.301c-0.362,-0.201 -0.757,-0.301 -1.184,-0.301c-0.359,0 -0.671,0.16 -0.934,0.48c-0.263,0.32 -0.431,0.699 -0.504,1.137l0.711,0c0.193,-0.401 0.474,-0.602 0.844,-0.602c0.161,0 0.439,0.1 0.832,0.301c0.393,0.201 0.754,0.301 1.082,0.301c0.724,0 1.224,-0.539 1.5,-1.617Zm2.609,7.453c0,1.333 0.333,2.393 1,3.18c0.667,0.786 1.596,1.18 2.789,1.18c1.167,0 2.089,-0.389 2.766,-1.168c0.677,-0.779 1.016,-1.842 1.016,-3.191c0,-1.354 -0.331,-2.413 -0.992,-3.176c-0.661,-0.763 -1.591,-1.145 -2.789,-1.145c-1.135,0 -2.051,0.397 -2.746,1.191c-0.695,0.794 -1.043,1.837 -1.043,3.129Zm1.562,0c0,-0.969 0.202,-1.729 0.605,-2.281c0.404,-0.552 0.944,-0.828 1.621,-0.828c1.479,0 2.219,1.036 2.219,3.109c0,0.974 -0.197,1.742 -0.59,2.305c-0.393,0.562 -0.936,0.844 -1.629,0.844c-1.484,0 -2.227,-1.049 -2.227,-3.148Zm15.586,5.625l3.547,-9.789l-1.516,0l-2.211,6.469l-2.461,-6.469l-1.516,0l2.266,5.82c0.255,0.656 0.464,1.207 0.625,1.652c0.161,0.445 0.242,0.897 0.242,1.355c0,0.417 -0.221,0.77 -0.664,1.059c-0.443,0.289 -0.974,0.434 -1.594,0.434l0,1.328c0.76,0 1.449,-0.177 2.066,-0.531c0.617,-0.354 1.022,-0.797 1.215,-1.328Zm-166.703,17.156l1.484,0l0,-5.594c0,-0.927 -0.237,-1.647 -0.711,-2.16c-0.474,-0.513 -1.143,-0.77 -2.008,-0.77c-0.479,0 -0.945,0.107 -1.398,0.32c-0.453,0.214 -0.763,0.479 -0.93,0.797c-0.479,-0.745 -1.318,-1.117 -2.516,-1.117c-0.859,0 -1.576,0.375 -2.148,1.125l-0.492,-0.969l-0.969,0l0,8.367l1.484,0l0,-6.172c0.141,-0.276 0.379,-0.529 0.715,-0.758c0.336,-0.229 0.652,-0.344 0.949,-0.344c0.51,0 0.921,0.118 1.23,0.355c0.31,0.237 0.465,0.561 0.465,0.973l0,5.945l1.484,0l0,-6.187c0.115,-0.281 0.328,-0.533 0.641,-0.754c0.313,-0.221 0.648,-0.332 1.008,-0.332c1.141,0 1.711,0.659 1.711,1.977l0,5.297Zm8.32,-0.961c0.13,0.396 0.345,0.68 0.645,0.852c0.299,0.172 0.751,0.258 1.355,0.258l0,-0.742c-0.438,-0.245 -0.656,-0.734 -0.656,-1.469l0,-3c0,-1.203 -0.275,-2.081 -0.824,-2.633c-0.549,-0.552 -1.431,-0.828 -2.645,-0.828c-0.453,0 -0.928,0.082 -1.426,0.246c-0.497,0.164 -0.887,0.361 -1.168,0.59l0.625,1.242c0.5,-0.5 1.214,-0.75 2.141,-0.75c1.208,0 1.813,0.677 1.813,2.031c-0.396,-0.135 -0.75,-0.203 -1.063,-0.203c-1.151,0 -2.098,0.293 -2.84,0.879c-0.742,0.586 -1.113,1.303 -1.113,2.152c0,0.708 0.241,1.301 0.723,1.777c0.482,0.477 1.051,0.715 1.707,0.715c1.224,0 2.133,-0.372 2.727,-1.117Zm-0.141,-3.148l0,2.023c-0.578,0.714 -1.242,1.07 -1.992,1.07c-1.026,0 -1.539,-0.435 -1.539,-1.305c0,-0.526 0.237,-0.982 0.711,-1.367c0.474,-0.385 1.086,-0.578 1.836,-0.578c0.188,0 0.516,0.052 0.984,0.156Zm8.969,4.109l1.484,0l0,-5.18c0,-2.229 -0.917,-3.344 -2.75,-3.344c-1.109,0 -1.909,0.411 -2.398,1.234l-0.469,-1.078l-1.016,0l0,8.367l1.484,0l0,-6.219c0.198,-0.297 0.482,-0.547 0.852,-0.75c0.37,-0.203 0.724,-0.305 1.062,-0.305c0.63,0 1.079,0.178 1.348,0.535c0.268,0.357 0.402,0.98 0.402,1.871l0,4.867Zm9.906,-7.687c-0.24,-0.193 -0.612,-0.38 -1.117,-0.562c-0.505,-0.182 -0.974,-0.273 -1.406,-0.273c-1.344,0 -2.402,0.404 -3.176,1.211c-0.773,0.807 -1.16,1.878 -1.16,3.211c0,1.307 0.372,2.344 1.117,3.109c0.745,0.766 1.688,1.148 2.828,1.148c1.177,0 2.164,-0.258 2.961,-0.773l-0.586,-1.25c-0.677,0.516 -1.349,0.773 -2.016,0.773c-0.859,0 -1.531,-0.257 -2.016,-0.77c-0.484,-0.513 -0.727,-1.259 -0.727,-2.238c0,-0.984 0.237,-1.759 0.711,-2.324c0.474,-0.565 1.115,-0.848 1.922,-0.848c0.37,0 0.746,0.068 1.129,0.203c0.383,0.135 0.65,0.279 0.801,0.43l0.734,-1.047Zm6.766,7.687l1.484,0l0,-5.258c0,-1.01 -0.251,-1.807 -0.754,-2.391c-0.503,-0.583 -1.197,-0.875 -2.082,-0.875c-0.469,0 -0.923,0.103 -1.363,0.309c-0.44,0.206 -0.759,0.462 -0.957,0.77l0,-4.352l-1.484,0l0,11.797l1.484,0l0,-6.219c0.193,-0.281 0.47,-0.527 0.832,-0.738c0.362,-0.211 0.723,-0.316 1.082,-0.316c0.557,0 0.99,0.18 1.297,0.539c0.307,0.359 0.461,0.852 0.461,1.477l0,5.258Zm8.313,-0.961c0.13,0.396 0.345,0.68 0.645,0.852c0.299,0.172 0.751,0.258 1.355,0.258l0,-0.742c-0.438,-0.245 -0.656,-0.734 -0.656,-1.469l0,-3c0,-1.203 -0.275,-2.081 -0.824,-2.633c-0.549,-0.552 -1.431,-0.828 -2.645,-0.828c-0.453,0 -0.928,0.082 -1.426,0.246c-0.497,0.164 -0.887,0.361 -1.168,0.59l0.625,1.242c0.5,-0.5 1.214,-0.75 2.141,-0.75c1.208,0 1.813,0.677 1.813,2.031c-0.396,-0.135 -0.75,-0.203 -1.063,-0.203c-1.151,0 -2.098,0.293 -2.84,0.879c-0.742,0.586 -1.113,1.303 -1.113,2.152c0,0.708 0.241,1.301 0.723,1.777c0.482,0.477 1.051,0.715 1.707,0.715c1.224,0 2.133,-0.372 2.727,-1.117Zm-0.141,-3.148l0,2.023c-0.578,0.714 -1.242,1.07 -1.992,1.07c-1.026,0 -1.539,-0.435 -1.539,-1.305c0,-0.526 0.237,-0.982 0.711,-1.367c0.474,-0.385 1.086,-0.578 1.836,-0.578c0.188,0 0.516,0.052 0.984,0.156Zm9.125,4.102l1.484,0l0,-11.789l-1.484,0l0,3.883c-0.448,-0.406 -1.104,-0.609 -1.969,-0.609c-1.036,0 -1.93,0.444 -2.68,1.332c-0.75,0.888 -1.125,1.96 -1.125,3.215c0,1.25 0.326,2.25 0.977,3c0.651,0.75 1.5,1.125 2.547,1.125c0.984,0 1.734,-0.258 2.25,-0.773l0,0.617Zm0,-6.422l0,4.641c-0.083,0.167 -0.289,0.324 -0.617,0.473c-0.328,0.148 -0.609,0.223 -0.844,0.223c-1.833,0 -2.75,-1.008 -2.75,-3.023c0,-0.917 0.246,-1.672 0.738,-2.266c0.492,-0.594 1.137,-0.891 1.934,-0.891c0.651,0 1.164,0.281 1.539,0.844Zm3.063,2.227c0,1.333 0.333,2.393 1,3.18c0.667,0.786 1.596,1.18 2.789,1.18c1.167,0 2.089,-0.389 2.766,-1.168c0.677,-0.779 1.016,-1.842 1.016,-3.191c0,-1.354 -0.331,-2.413 -0.992,-3.176c-0.661,-0.763 -1.591,-1.145 -2.789,-1.145c-1.135,0 -2.051,0.397 -2.746,1.191c-0.695,0.794 -1.043,1.837 -1.043,3.129Zm1.562,0c0,-0.969 0.202,-1.729 0.605,-2.281c0.404,-0.552 0.944,-0.828 1.621,-0.828c1.479,0 2.219,1.036 2.219,3.109c0,0.974 -0.197,1.742 -0.59,2.305c-0.393,0.562 -0.936,0.844 -1.629,0.844c-1.484,0 -2.227,-1.049 -2.227,-3.148Zm18.703,-3.484c-0.24,-0.193 -0.612,-0.38 -1.117,-0.562c-0.505,-0.182 -0.974,-0.273 -1.406,-0.273c-1.344,0 -2.402,0.404 -3.176,1.211c-0.773,0.807 -1.16,1.878 -1.16,3.211c0,1.307 0.372,2.344 1.117,3.109c0.745,0.766 1.688,1.148 2.828,1.148c1.177,0 2.164,-0.258 2.961,-0.773l-0.586,-1.25c-0.677,0.516 -1.349,0.773 -2.016,0.773c-0.859,0 -1.531,-0.257 -2.016,-0.77c-0.484,-0.513 -0.727,-1.259 -0.727,-2.238c0,-0.984 0.237,-1.759 0.711,-2.324c0.474,-0.565 1.115,-0.848 1.922,-0.848c0.37,0 0.746,0.068 1.129,0.203c0.383,0.135 0.65,0.279 0.801,0.43l0.734,-1.047Zm1.063,3.484c0,1.333 0.333,2.393 1,3.18c0.667,0.786 1.596,1.18 2.789,1.18c1.167,0 2.089,-0.389 2.766,-1.168c0.677,-0.779 1.016,-1.842 1.016,-3.191c0,-1.354 -0.331,-2.413 -0.992,-3.176c-0.661,-0.763 -1.591,-1.145 -2.789,-1.145c-1.135,0 -2.051,0.397 -2.746,1.191c-0.695,0.794 -1.043,1.837 -1.043,3.129Zm1.562,0c0,-0.969 0.202,-1.729 0.605,-2.281c0.404,-0.552 0.944,-0.828 1.621,-0.828c1.479,0 2.219,1.036 2.219,3.109c0,0.974 -0.197,1.742 -0.59,2.305c-0.393,0.562 -0.936,0.844 -1.629,0.844c-1.484,0 -2.227,-1.049 -2.227,-3.148Zm12.719,4.203l1.484,0l0,-5.18c0,-2.229 -0.917,-3.344 -2.75,-3.344c-1.109,0 -1.909,0.411 -2.398,1.234l-0.469,-1.078l-1.016,0l0,8.367l1.484,0l0,-6.219c0.198,-0.297 0.482,-0.547 0.852,-0.75c0.37,-0.203 0.724,-0.305 1.062,-0.305c0.63,0 1.079,0.178 1.348,0.535c0.268,0.357 0.402,0.98 0.402,1.871l0,4.867Zm13.141,-0.961c0.13,0.396 0.345,0.68 0.645,0.852c0.299,0.172 0.751,0.258 1.355,0.258l0,-0.742c-0.438,-0.245 -0.656,-0.734 -0.656,-1.469l0,-3c0,-1.203 -0.275,-2.081 -0.824,-2.633c-0.549,-0.552 -1.431,-0.828 -2.645,-0.828c-0.453,0 -0.928,0.082 -1.426,0.246c-0.497,0.164 -0.887,0.361 -1.168,0.59l0.625,1.242c0.5,-0.5 1.214,-0.75 2.141,-0.75c1.208,0 1.812,0.677 1.812,2.031c-0.396,-0.135 -0.75,-0.203 -1.063,-0.203c-1.151,0 -2.098,0.293 -2.84,0.879c-0.742,0.586 -1.113,1.303 -1.113,2.152c0,0.708 0.241,1.301 0.723,1.777c0.482,0.477 1.051,0.715 1.707,0.715c1.224,0 2.133,-0.372 2.727,-1.117Zm-0.141,-3.148l0,2.023c-0.578,0.714 -1.242,1.07 -1.992,1.07c-1.026,0 -1.539,-0.435 -1.539,-1.305c0,-0.526 0.237,-0.982 0.711,-1.367c0.474,-0.385 1.086,-0.578 1.836,-0.578c0.188,0 0.516,0.052 0.984,0.156Zm3.938,1.742c0,1.682 0.961,2.523 2.883,2.523l0,-1.328c-0.417,0 -0.754,-0.129 -1.012,-0.387c-0.258,-0.258 -0.387,-0.611 -0.387,-1.059l0,-9.18l-1.484,0l0,9.43Zm6.133,-9.164c-0.255,0 -0.471,0.089 -0.648,0.266c-0.177,0.177 -0.266,0.393 -0.266,0.648c0,0.255 0.09,0.473 0.27,0.652c0.18,0.18 0.395,0.27 0.645,0.27c0.255,0 0.473,-0.09 0.652,-0.27c0.18,-0.18 0.27,-0.397 0.27,-0.652c0,-0.25 -0.09,-0.465 -0.27,-0.645c-0.18,-0.18 -0.397,-0.27 -0.652,-0.27Zm-0.812,11.531l1.484,0l0,-8.367l-2.633,0l0,1.25l1.148,0l0,7.117Zm13.531,0l1.484,0l0,-5.594c0,-0.927 -0.237,-1.647 -0.711,-2.16c-0.474,-0.513 -1.143,-0.77 -2.008,-0.77c-0.479,0 -0.945,0.107 -1.398,0.32c-0.453,0.214 -0.763,0.479 -0.93,0.797c-0.479,-0.745 -1.318,-1.117 -2.516,-1.117c-0.859,0 -1.576,0.375 -2.148,1.125l-0.492,-0.969l-0.969,0l0,8.367l1.484,0l0,-6.172c0.141,-0.276 0.379,-0.529 0.715,-0.758c0.336,-0.229 0.652,-0.344 0.949,-0.344c0.51,0 0.921,0.118 1.23,0.355c0.31,0.237 0.465,0.561 0.465,0.973l0,5.945l1.484,0l0,-6.187c0.115,-0.281 0.328,-0.533 0.641,-0.754c0.312,-0.221 0.648,-0.332 1.008,-0.332c1.141,0 1.711,0.659 1.711,1.977l0,5.297Zm10.641,-4.039c0.078,-0.276 0.117,-0.578 0.117,-0.906c0,-1.068 -0.328,-1.924 -0.984,-2.57c-0.677,-0.672 -1.612,-1.008 -2.805,-1.008c-1.026,0 -1.914,0.372 -2.664,1.117c-0.839,0.833 -1.258,1.94 -1.258,3.32c0,1.328 0.409,2.385 1.227,3.172c0.734,0.714 1.628,1.07 2.68,1.07c0.729,0 1.391,-0.109 1.984,-0.328c0.474,-0.167 0.826,-0.365 1.055,-0.594l-0.625,-1.07c-0.568,0.495 -1.276,0.742 -2.125,0.742c-0.745,0 -1.354,-0.229 -1.828,-0.688c-0.536,-0.526 -0.805,-1.279 -0.805,-2.258l6.031,0Zm-3.602,-3.234c0.708,0 1.268,0.219 1.68,0.656c0.375,0.401 0.562,0.901 0.562,1.5l-4.633,0c0.057,-0.604 0.299,-1.109 0.727,-1.516c0.448,-0.427 1.003,-0.641 1.664,-0.641Zm10.43,7.273l1.484,0l0,-5.18c0,-2.229 -0.917,-3.344 -2.75,-3.344c-1.109,0 -1.909,0.411 -2.398,1.234l-0.469,-1.078l-1.016,0l0,8.367l1.484,0l0,-6.219c0.198,-0.297 0.482,-0.547 0.852,-0.75c0.37,-0.203 0.724,-0.305 1.063,-0.305c0.63,0 1.079,0.178 1.348,0.535c0.268,0.357 0.402,0.98 0.402,1.871l0,4.867Zm4.125,-7.195l0,4.75c0,0.75 0.228,1.371 0.684,1.863c0.456,0.492 1.014,0.738 1.676,0.738c0.734,0 1.409,-0.078 2.023,-0.234l-0.219,-1.305c-0.406,0.193 -0.799,0.289 -1.18,0.289c-0.526,0 -0.908,-0.148 -1.145,-0.445c-0.237,-0.297 -0.355,-0.797 -0.355,-1.5l0,-4.156l2.297,0l0,-1.172l-2.297,0l0,-2.32l-1.484,0.57l0,1.75l-0.969,0l0,1.172l0.969,0Zm5.266,2.992c0,1.333 0.333,2.393 1,3.18c0.667,0.786 1.596,1.18 2.789,1.18c1.167,0 2.089,-0.389 2.766,-1.168c0.677,-0.779 1.016,-1.842 1.016,-3.191c0,-1.354 -0.331,-2.413 -0.992,-3.176c-0.661,-0.763 -1.591,-1.145 -2.789,-1.145c-1.135,0 -2.051,0.397 -2.746,1.191c-0.695,0.794 -1.043,1.837 -1.043,3.129Zm1.562,0c0,-0.969 0.202,-1.729 0.605,-2.281c0.404,-0.552 0.944,-0.828 1.621,-0.828c1.479,0 2.219,1.036 2.219,3.109c0,0.974 -0.197,1.742 -0.59,2.305c-0.393,0.562 -0.936,0.844 -1.629,0.844c-1.484,0 -2.227,-1.049 -2.227,-3.148Zm7.023,3.703c0.776,0.438 1.604,0.656 2.484,0.656c0.932,0 1.661,-0.212 2.188,-0.637c0.526,-0.424 0.789,-1.012 0.789,-1.762c0,-0.573 -0.148,-1.049 -0.445,-1.43c-0.297,-0.38 -0.771,-0.719 -1.422,-1.016l-1.062,-0.484c-0.609,-0.276 -0.914,-0.682 -0.914,-1.219c0,-0.255 0.121,-0.466 0.363,-0.633c0.242,-0.167 0.54,-0.25 0.895,-0.25c0.594,0 1.185,0.234 1.773,0.703l0.422,-1.375c-0.927,-0.385 -1.695,-0.578 -2.305,-0.578c-0.807,0 -1.461,0.193 -1.961,0.578c-0.5,0.385 -0.75,0.922 -0.75,1.609c0,0.266 0.043,0.514 0.129,0.746c0.086,0.232 0.216,0.451 0.391,0.656c0.174,0.206 0.38,0.389 0.617,0.551c0.237,0.161 0.697,0.398 1.379,0.711c0.885,0.396 1.328,0.87 1.328,1.422c0,0.771 -0.458,1.156 -1.375,1.156c-0.505,0 -1.172,-0.271 -2,-0.813l-0.523,1.406Zm8.734,-1.695c-0.323,0 -0.599,0.115 -0.828,0.344c-0.229,0.229 -0.344,0.505 -0.344,0.828c0,0.323 0.115,0.6 0.344,0.832c0.229,0.232 0.505,0.348 0.828,0.348c0.323,0 0.599,-0.116 0.828,-0.348c0.229,-0.232 0.344,-0.509 0.344,-0.832c0,-0.323 -0.115,-0.599 -0.344,-0.828c-0.229,-0.229 -0.505,-0.344 -0.828,-0.344Zm-177.766,28.367c0.594,0.052 0.979,0.078 1.156,0.078c2.938,0 4.406,-1.286 4.406,-3.859c0,-2.224 -1.661,-3.336 -4.984,-3.336c-0.245,0 -0.958,0.026 -2.141,0.078l0,11.445l1.562,0l0,-4.406Zm0,-5.633c0.359,-0.052 0.643,-0.078 0.852,-0.078c2.068,0 3.102,0.698 3.102,2.094c0,1.526 -0.969,2.289 -2.906,2.289c-0.036,0 -0.385,-0.026 -1.047,-0.078l0,-4.227Zm11.219,9.078c0.13,0.396 0.345,0.68 0.645,0.852c0.299,0.172 0.751,0.258 1.355,0.258l0,-0.742c-0.438,-0.245 -0.656,-0.734 -0.656,-1.469l0,-3c0,-1.203 -0.275,-2.081 -0.824,-2.633c-0.549,-0.552 -1.431,-0.828 -2.645,-0.828c-0.453,0 -0.928,0.082 -1.426,0.246c-0.497,0.164 -0.887,0.361 -1.168,0.59l0.625,1.242c0.5,-0.5 1.214,-0.75 2.141,-0.75c1.208,0 1.813,0.677 1.813,2.031c-0.396,-0.135 -0.75,-0.203 -1.063,-0.203c-1.151,0 -2.098,0.293 -2.84,0.879c-0.742,0.586 -1.113,1.303 -1.113,2.152c0,0.708 0.241,1.301 0.723,1.777c0.482,0.477 1.051,0.715 1.707,0.715c1.224,0 2.133,-0.372 2.727,-1.117Zm-0.141,-3.148l0,2.023c-0.578,0.714 -1.242,1.07 -1.992,1.07c-1.026,0 -1.539,-0.435 -1.539,-1.305c0,-0.526 0.237,-0.982 0.711,-1.367c0.474,-0.385 1.086,-0.578 1.836,-0.578c0.188,0 0.516,0.052 0.984,0.156Zm5.305,3.648c0.115,0.161 0.374,0.305 0.777,0.43c0.404,0.125 0.783,0.188 1.137,0.188c1.26,0 2.224,-0.402 2.891,-1.207c0.667,-0.805 1,-1.842 1,-3.113c0,-1.427 -0.331,-2.51 -0.992,-3.25c-0.661,-0.74 -1.586,-1.109 -2.773,-1.109c-0.797,0 -1.477,0.281 -2.039,0.844l0,-0.687l-1.484,0l0,11.648l1.484,0l0,-3.742Zm0,-6.102c0.177,-0.182 0.417,-0.346 0.719,-0.492c0.302,-0.146 0.557,-0.219 0.766,-0.219c0.964,0 1.664,0.245 2.102,0.734c0.437,0.49 0.656,1.263 0.656,2.32c0,2.083 -0.922,3.125 -2.766,3.125c-0.286,0 -0.581,-0.064 -0.883,-0.191c-0.302,-0.128 -0.5,-0.262 -0.594,-0.402l0,-4.875Zm14.477,2.523c0.078,-0.276 0.117,-0.578 0.117,-0.906c0,-1.068 -0.328,-1.924 -0.984,-2.57c-0.677,-0.672 -1.612,-1.008 -2.805,-1.008c-1.026,0 -1.914,0.372 -2.664,1.117c-0.839,0.833 -1.258,1.94 -1.258,3.32c0,1.328 0.409,2.385 1.227,3.172c0.734,0.714 1.628,1.07 2.68,1.07c0.729,0 1.391,-0.109 1.984,-0.328c0.474,-0.167 0.826,-0.365 1.055,-0.594l-0.625,-1.07c-0.568,0.495 -1.276,0.742 -2.125,0.742c-0.745,0 -1.354,-0.229 -1.828,-0.687c-0.536,-0.526 -0.805,-1.279 -0.805,-2.258l6.031,0Zm-3.602,-3.234c0.708,0 1.268,0.219 1.68,0.656c0.375,0.401 0.562,0.901 0.562,1.5l-4.633,0c0.057,-0.604 0.299,-1.109 0.727,-1.516c0.448,-0.427 1.003,-0.641 1.664,-0.641Zm5.398,4.906c0,1.682 0.961,2.523 2.883,2.523l0,-1.328c-0.417,0 -0.754,-0.129 -1.012,-0.387c-0.258,-0.258 -0.387,-0.611 -0.387,-1.059l0,-9.18l-1.484,0l0,9.43Zm11.648,-1.672c0.078,-0.276 0.117,-0.578 0.117,-0.906c0,-1.068 -0.328,-1.924 -0.984,-2.57c-0.677,-0.672 -1.612,-1.008 -2.805,-1.008c-1.026,0 -1.914,0.372 -2.664,1.117c-0.839,0.833 -1.258,1.94 -1.258,3.32c0,1.328 0.409,2.385 1.227,3.172c0.734,0.714 1.628,1.07 2.68,1.07c0.729,0 1.391,-0.109 1.984,-0.328c0.474,-0.167 0.826,-0.365 1.055,-0.594l-0.625,-1.07c-0.568,0.495 -1.276,0.742 -2.125,0.742c-0.745,0 -1.354,-0.229 -1.828,-0.687c-0.536,-0.526 -0.805,-1.279 -0.805,-2.258l6.031,0Zm-3.602,-3.234c0.708,0 1.268,0.219 1.68,0.656c0.375,0.401 0.562,0.901 0.562,1.5l-4.633,0c0.057,-0.604 0.299,-1.109 0.727,-1.516c0.448,-0.427 1.003,-0.641 1.664,-0.641Zm4.734,6.773c0.776,0.437 1.604,0.656 2.484,0.656c0.932,0 1.661,-0.212 2.188,-0.637c0.526,-0.424 0.789,-1.012 0.789,-1.762c0,-0.573 -0.148,-1.049 -0.445,-1.43c-0.297,-0.38 -0.771,-0.719 -1.422,-1.016l-1.062,-0.484c-0.609,-0.276 -0.914,-0.682 -0.914,-1.219c0,-0.255 0.121,-0.466 0.363,-0.633c0.242,-0.167 0.54,-0.25 0.895,-0.25c0.594,0 1.185,0.234 1.773,0.703l0.422,-1.375c-0.927,-0.385 -1.695,-0.578 -2.305,-0.578c-0.807,0 -1.461,0.193 -1.961,0.578c-0.5,0.385 -0.75,0.922 -0.75,1.609c0,0.266 0.043,0.514 0.129,0.746c0.086,0.232 0.216,0.451 0.391,0.656c0.174,0.206 0.38,0.389 0.617,0.551c0.237,0.161 0.697,0.398 1.379,0.711c0.885,0.396 1.328,0.87 1.328,1.422c0,0.771 -0.458,1.156 -1.375,1.156c-0.505,0 -1.172,-0.271 -2,-0.812l-0.523,1.406Zm21.531,0.5l1.484,0l0,-5.594c0,-0.927 -0.237,-1.647 -0.711,-2.16c-0.474,-0.513 -1.143,-0.77 -2.008,-0.77c-0.479,0 -0.945,0.107 -1.398,0.32c-0.453,0.214 -0.763,0.479 -0.93,0.797c-0.479,-0.745 -1.318,-1.117 -2.516,-1.117c-0.859,0 -1.576,0.375 -2.148,1.125l-0.492,-0.969l-0.969,0l0,8.367l1.484,0l0,-6.172c0.141,-0.276 0.379,-0.529 0.715,-0.758c0.336,-0.229 0.652,-0.344 0.949,-0.344c0.51,0 0.921,0.118 1.23,0.355c0.31,0.237 0.465,0.561 0.465,0.973l0,5.945l1.484,0l0,-6.188c0.115,-0.281 0.328,-0.533 0.641,-0.754c0.313,-0.221 0.648,-0.332 1.008,-0.332c1.141,0 1.711,0.659 1.711,1.977l0,5.297Zm10.641,-4.039c0.078,-0.276 0.117,-0.578 0.117,-0.906c0,-1.068 -0.328,-1.924 -0.984,-2.57c-0.677,-0.672 -1.612,-1.008 -2.805,-1.008c-1.026,0 -1.914,0.372 -2.664,1.117c-0.839,0.833 -1.258,1.94 -1.258,3.32c0,1.328 0.409,2.385 1.227,3.172c0.734,0.714 1.628,1.07 2.68,1.07c0.729,0 1.391,-0.109 1.984,-0.328c0.474,-0.167 0.826,-0.365 1.055,-0.594l-0.625,-1.07c-0.568,0.495 -1.276,0.742 -2.125,0.742c-0.745,0 -1.354,-0.229 -1.828,-0.687c-0.536,-0.526 -0.805,-1.279 -0.805,-2.258l6.031,0Zm-3.602,-3.234c0.708,0 1.268,0.219 1.68,0.656c0.375,0.401 0.562,0.901 0.562,1.5l-4.633,0c0.057,-0.604 0.299,-1.109 0.727,-1.516c0.448,-0.427 1.003,-0.641 1.664,-0.641Zm5.813,0.078l0,4.75c0,0.75 0.228,1.371 0.684,1.863c0.456,0.492 1.014,0.738 1.676,0.738c0.734,0 1.409,-0.078 2.023,-0.234l-0.219,-1.305c-0.406,0.193 -0.799,0.289 -1.18,0.289c-0.526,0 -0.908,-0.148 -1.145,-0.445c-0.237,-0.297 -0.355,-0.797 -0.355,-1.5l0,-4.156l2.297,0l0,-1.172l-2.297,0l0,-2.32l-1.484,0.57l0,1.75l-0.969,0l0,1.172l0.969,0Zm10.539,6.234c0.13,0.396 0.345,0.68 0.645,0.852c0.299,0.172 0.751,0.258 1.355,0.258l0,-0.742c-0.437,-0.245 -0.656,-0.734 -0.656,-1.469l0,-3c0,-1.203 -0.275,-2.081 -0.824,-2.633c-0.549,-0.552 -1.431,-0.828 -2.645,-0.828c-0.453,0 -0.928,0.082 -1.426,0.246c-0.497,0.164 -0.887,0.361 -1.168,0.59l0.625,1.242c0.5,-0.5 1.214,-0.75 2.141,-0.75c1.208,0 1.813,0.677 1.813,2.031c-0.396,-0.135 -0.75,-0.203 -1.062,-0.203c-1.151,0 -2.098,0.293 -2.84,0.879c-0.742,0.586 -1.113,1.303 -1.113,2.152c0,0.708 0.241,1.301 0.723,1.777c0.482,0.477 1.051,0.715 1.707,0.715c1.224,0 2.133,-0.372 2.727,-1.117Zm-0.141,-3.148l0,2.023c-0.578,0.714 -1.242,1.07 -1.992,1.07c-1.026,0 -1.539,-0.435 -1.539,-1.305c0,-0.526 0.237,-0.982 0.711,-1.367c0.474,-0.385 1.086,-0.578 1.836,-0.578c0.188,0 0.516,0.052 0.984,0.156Zm3.938,1.742c0,1.682 0.961,2.523 2.883,2.523l0,-1.328c-0.417,0 -0.754,-0.129 -1.012,-0.387c-0.258,-0.258 -0.387,-0.611 -0.387,-1.059l0,-9.18l-1.484,0l0,9.43Zm6.133,-9.164c-0.255,0 -0.471,0.089 -0.648,0.266c-0.177,0.177 -0.266,0.393 -0.266,0.648c0,0.255 0.09,0.473 0.27,0.652c0.18,0.18 0.395,0.27 0.645,0.27c0.255,0 0.473,-0.09 0.652,-0.27c0.18,-0.18 0.27,-0.397 0.27,-0.652c0,-0.25 -0.09,-0.465 -0.27,-0.645c-0.18,-0.18 -0.397,-0.27 -0.652,-0.27Zm-0.812,11.531l1.484,0l0,-8.367l-2.633,0l0,1.25l1.148,0l0,7.117Zm5.43,-1.328l4.594,-6.617l0,-0.422l-6.844,0l0,1.328l4.68,0l-4.758,6.648l0,0.391l6.969,0l0,-1.328l-4.641,0Zm10.734,0.367c0.13,0.396 0.345,0.68 0.645,0.852c0.299,0.172 0.751,0.258 1.355,0.258l0,-0.742c-0.438,-0.245 -0.656,-0.734 -0.656,-1.469l0,-3c0,-1.203 -0.275,-2.081 -0.824,-2.633c-0.549,-0.552 -1.431,-0.828 -2.645,-0.828c-0.453,0 -0.928,0.082 -1.426,0.246c-0.497,0.164 -0.887,0.361 -1.168,0.59l0.625,1.242c0.5,-0.5 1.214,-0.75 2.141,-0.75c1.208,0 1.812,0.677 1.812,2.031c-0.396,-0.135 -0.75,-0.203 -1.063,-0.203c-1.151,0 -2.098,0.293 -2.84,0.879c-0.742,0.586 -1.113,1.303 -1.113,2.152c0,0.708 0.241,1.301 0.723,1.777c0.482,0.477 1.051,0.715 1.707,0.715c1.224,0 2.133,-0.372 2.727,-1.117Zm-0.141,-3.148l0,2.023c-0.578,0.714 -1.242,1.07 -1.992,1.07c-1.026,0 -1.539,-0.435 -1.539,-1.305c0,-0.526 0.237,-0.982 0.711,-1.367c0.474,-0.385 1.086,-0.578 1.836,-0.578c0.188,0 0.516,0.052 0.984,0.156Zm9.125,4.102l1.484,0l0,-11.789l-1.484,0l0,3.883c-0.448,-0.406 -1.104,-0.609 -1.969,-0.609c-1.036,0 -1.93,0.444 -2.68,1.332c-0.75,0.888 -1.125,1.96 -1.125,3.215c0,1.25 0.326,2.25 0.977,3c0.651,0.75 1.5,1.125 2.547,1.125c0.984,0 1.734,-0.258 2.25,-0.773l0,0.617Zm0,-6.422l0,4.641c-0.083,0.167 -0.289,0.324 -0.617,0.473c-0.328,0.148 -0.609,0.223 -0.844,0.223c-1.833,0 -2.75,-1.008 -2.75,-3.023c0,-0.917 0.246,-1.672 0.738,-2.266c0.492,-0.594 1.137,-0.891 1.934,-0.891c0.651,0 1.164,0.281 1.539,0.844Zm3.062,2.227c0,1.333 0.333,2.393 1,3.18c0.667,0.786 1.596,1.18 2.789,1.18c1.167,0 2.089,-0.389 2.766,-1.168c0.677,-0.779 1.016,-1.842 1.016,-3.191c0,-1.354 -0.331,-2.413 -0.992,-3.176c-0.661,-0.763 -1.591,-1.145 -2.789,-1.145c-1.135,0 -2.051,0.397 -2.746,1.191c-0.695,0.794 -1.043,1.837 -1.043,3.129Zm1.562,0c0,-0.969 0.202,-1.729 0.605,-2.281c0.404,-0.552 0.944,-0.828 1.621,-0.828c1.479,0 2.219,1.036 2.219,3.109c0,0.974 -0.197,1.742 -0.59,2.305c-0.393,0.562 -0.936,0.844 -1.629,0.844c-1.484,0 -2.227,-1.049 -2.227,-3.148Zm15.586,5.625l3.547,-9.789l-1.516,0l-2.211,6.469l-2.461,-6.469l-1.516,0l2.266,5.82c0.255,0.656 0.464,1.207 0.625,1.652c0.161,0.445 0.242,0.897 0.242,1.355c0,0.417 -0.221,0.77 -0.664,1.059c-0.443,0.289 -0.974,0.434 -1.594,0.434l0,1.328c0.76,0 1.449,-0.177 2.066,-0.531c0.617,-0.354 1.022,-0.797 1.215,-1.328Zm-139.469,13.117c0.078,-0.276 0.117,-0.578 0.117,-0.906c0,-1.068 -0.328,-1.924 -0.984,-2.57c-0.677,-0.672 -1.612,-1.008 -2.805,-1.008c-1.026,0 -1.914,0.372 -2.664,1.117c-0.839,0.833 -1.258,1.94 -1.258,3.32c0,1.328 0.409,2.385 1.227,3.172c0.734,0.714 1.628,1.07 2.68,1.07c0.729,0 1.391,-0.109 1.984,-0.328c0.474,-0.167 0.826,-0.365 1.055,-0.594l-0.625,-1.07c-0.568,0.495 -1.276,0.742 -2.125,0.742c-0.745,0 -1.354,-0.229 -1.828,-0.687c-0.536,-0.526 -0.805,-1.279 -0.805,-2.258l6.031,0Zm-3.602,-3.234c0.708,0 1.268,0.219 1.68,0.656c0.375,0.401 0.562,0.901 0.562,1.5l-4.633,0c0.057,-0.604 0.299,-1.109 0.727,-1.516c0.448,-0.427 1.003,-0.641 1.664,-0.641Zm10.43,7.273l1.484,0l0,-5.18c0,-2.229 -0.917,-3.344 -2.75,-3.344c-1.109,0 -1.909,0.411 -2.398,1.234l-0.469,-1.078l-1.016,0l0,8.367l1.484,0l0,-6.219c0.198,-0.297 0.482,-0.547 0.852,-0.75c0.37,-0.203 0.724,-0.305 1.062,-0.305c0.63,0 1.079,0.178 1.348,0.535c0.268,0.357 0.402,0.98 0.402,1.871l0,4.867Zm9.906,-7.687c-0.24,-0.193 -0.612,-0.38 -1.117,-0.563c-0.505,-0.182 -0.974,-0.273 -1.406,-0.273c-1.344,0 -2.402,0.404 -3.176,1.211c-0.773,0.807 -1.16,1.878 -1.16,3.211c0,1.307 0.372,2.344 1.117,3.109c0.745,0.766 1.688,1.148 2.828,1.148c1.177,0 2.164,-0.258 2.961,-0.773l-0.586,-1.25c-0.677,0.516 -1.349,0.773 -2.016,0.773c-0.859,0 -1.531,-0.257 -2.016,-0.77c-0.484,-0.513 -0.727,-1.259 -0.727,-2.238c0,-0.984 0.237,-1.759 0.711,-2.324c0.474,-0.565 1.115,-0.848 1.922,-0.848c0.37,0 0.746,0.068 1.129,0.203c0.383,0.135 0.65,0.279 0.801,0.43l0.734,-1.047Zm8.656,3.648c0.078,-0.276 0.117,-0.578 0.117,-0.906c0,-1.068 -0.328,-1.924 -0.984,-2.57c-0.677,-0.672 -1.612,-1.008 -2.805,-1.008c-1.026,0 -1.914,0.372 -2.664,1.117c-0.839,0.833 -1.258,1.94 -1.258,3.32c0,1.328 0.409,2.385 1.227,3.172c0.734,0.714 1.628,1.07 2.68,1.07c0.729,0 1.391,-0.109 1.984,-0.328c0.474,-0.167 0.826,-0.365 1.055,-0.594l-0.625,-1.07c-0.568,0.495 -1.276,0.742 -2.125,0.742c-0.745,0 -1.354,-0.229 -1.828,-0.687c-0.536,-0.526 -0.805,-1.279 -0.805,-2.258l6.031,0Zm-3.602,-3.234c0.708,0 1.268,0.219 1.68,0.656c0.375,0.401 0.562,0.901 0.562,1.5l-4.633,0c0.057,-0.604 0.299,-1.109 0.727,-1.516c0.448,-0.427 1.003,-0.641 1.664,-0.641Zm9.828,0.336l0.617,-1.445c-0.5,-0.094 -0.883,-0.141 -1.148,-0.141c-1.068,0 -1.872,0.497 -2.414,1.492l0,-1.336l-1.484,0l0,8.367l1.484,0l0,-4.797c0,-0.682 0.197,-1.266 0.59,-1.75c0.393,-0.484 0.853,-0.727 1.379,-0.727c0.328,0 0.654,0.112 0.977,0.336Zm6.398,5.977c0.13,0.396 0.345,0.68 0.645,0.852c0.299,0.172 0.751,0.258 1.355,0.258l0,-0.742c-0.438,-0.245 -0.656,-0.734 -0.656,-1.469l0,-3c0,-1.203 -0.275,-2.081 -0.824,-2.633c-0.549,-0.552 -1.431,-0.828 -2.645,-0.828c-0.453,0 -0.928,0.082 -1.426,0.246c-0.497,0.164 -0.887,0.361 -1.168,0.59l0.625,1.242c0.5,-0.5 1.214,-0.75 2.141,-0.75c1.208,0 1.813,0.677 1.813,2.031c-0.396,-0.135 -0.75,-0.203 -1.063,-0.203c-1.151,0 -2.098,0.293 -2.84,0.879c-0.742,0.586 -1.113,1.303 -1.113,2.152c0,0.708 0.241,1.301 0.723,1.777c0.482,0.477 1.051,0.715 1.707,0.715c1.224,0 2.133,-0.372 2.727,-1.117Zm-0.141,-3.148l0,2.023c-0.578,0.714 -1.242,1.07 -1.992,1.07c-1.026,0 -1.539,-0.435 -1.539,-1.305c0,-0.526 0.237,-0.982 0.711,-1.367c0.474,-0.385 1.086,-0.578 1.836,-0.578c0.188,0 0.516,0.052 0.984,0.156Zm9.125,4.102l1.484,0l0,-11.789l-1.484,0l0,3.883c-0.448,-0.406 -1.104,-0.609 -1.969,-0.609c-1.036,0 -1.93,0.444 -2.68,1.332c-0.75,0.888 -1.125,1.96 -1.125,3.215c0,1.25 0.326,2.25 0.977,3c0.651,0.75 1.5,1.125 2.547,1.125c0.984,0 1.734,-0.258 2.25,-0.773l0,0.617Zm0,-6.422l0,4.641c-0.083,0.167 -0.289,0.324 -0.617,0.473c-0.328,0.148 -0.609,0.223 -0.844,0.223c-1.833,0 -2.75,-1.008 -2.75,-3.023c0,-0.917 0.246,-1.672 0.738,-2.266c0.492,-0.594 1.137,-0.891 1.934,-0.891c0.651,0 1.164,0.281 1.539,0.844Zm3.063,2.227c0,1.333 0.333,2.393 1,3.18c0.667,0.786 1.596,1.18 2.789,1.18c1.167,0 2.089,-0.389 2.766,-1.168c0.677,-0.779 1.016,-1.842 1.016,-3.191c0,-1.354 -0.331,-2.413 -0.992,-3.176c-0.661,-0.763 -1.591,-1.145 -2.789,-1.145c-1.135,0 -2.051,0.397 -2.746,1.191c-0.695,0.794 -1.043,1.837 -1.043,3.129Zm1.562,0c0,-0.969 0.202,-1.729 0.605,-2.281c0.404,-0.552 0.944,-0.828 1.621,-0.828c1.479,0 2.219,1.036 2.219,3.109c0,0.974 -0.197,1.742 -0.59,2.305c-0.393,0.562 -0.936,0.844 -1.629,0.844c-1.484,0 -2.227,-1.049 -2.227,-3.148Zm7.023,3.703c0.776,0.438 1.604,0.656 2.484,0.656c0.932,0 1.661,-0.212 2.188,-0.637c0.526,-0.424 0.789,-1.012 0.789,-1.762c0,-0.573 -0.148,-1.049 -0.445,-1.43c-0.297,-0.38 -0.771,-0.719 -1.422,-1.016l-1.062,-0.484c-0.609,-0.276 -0.914,-0.682 -0.914,-1.219c0,-0.255 0.121,-0.466 0.363,-0.633c0.242,-0.167 0.54,-0.25 0.895,-0.25c0.594,0 1.185,0.234 1.773,0.703l0.422,-1.375c-0.927,-0.385 -1.695,-0.578 -2.305,-0.578c-0.807,0 -1.461,0.193 -1.961,0.578c-0.5,0.385 -0.75,0.922 -0.75,1.609c0,0.266 0.043,0.514 0.129,0.746c0.086,0.232 0.216,0.451 0.391,0.656c0.174,0.206 0.38,0.389 0.617,0.551c0.237,0.161 0.697,0.398 1.379,0.711c0.885,0.396 1.328,0.87 1.328,1.422c0,0.771 -0.458,1.156 -1.375,1.156c-0.505,0 -1.172,-0.271 -2,-0.812l-0.523,1.406Zm8.734,-1.695c-0.323,0 -0.599,0.115 -0.828,0.344c-0.229,0.229 -0.344,0.505 -0.344,0.828c0,0.323 0.115,0.6 0.344,0.832c0.229,0.232 0.505,0.348 0.828,0.348c0.323,0 0.599,-0.116 0.828,-0.348c0.229,-0.232 0.344,-0.509 0.344,-0.832c0,-0.323 -0.115,-0.599 -0.344,-0.828c-0.229,-0.229 -0.505,-0.344 -0.828,-0.344Zm-72.75,28.367c0.594,0.052 0.979,0.078 1.156,0.078c2.938,0 4.406,-1.286 4.406,-3.859c0,-2.224 -1.661,-3.336 -4.984,-3.336c-0.245,0 -0.958,0.026 -2.141,0.078l0,11.445l1.562,0l0,-4.406Zm0,-5.633c0.359,-0.052 0.643,-0.078 0.852,-0.078c2.068,0 3.102,0.698 3.102,2.094c0,1.526 -0.969,2.289 -2.906,2.289c-0.036,0 -0.385,-0.026 -1.047,-0.078l0,-4.227Zm7.359,7.672c0,1.682 0.961,2.523 2.883,2.523l0,-1.328c-0.417,0 -0.754,-0.129 -1.012,-0.387c-0.258,-0.258 -0.387,-0.611 -0.387,-1.059l0,-9.18l-1.484,0l0,9.43Zm9.328,1.406c0.13,0.396 0.345,0.68 0.645,0.852c0.299,0.172 0.751,0.258 1.355,0.258l0,-0.742c-0.438,-0.245 -0.656,-0.734 -0.656,-1.469l0,-3c0,-1.203 -0.275,-2.081 -0.824,-2.633c-0.549,-0.552 -1.431,-0.828 -2.645,-0.828c-0.453,0 -0.928,0.082 -1.426,0.246c-0.497,0.164 -0.887,0.361 -1.168,0.59l0.625,1.242c0.5,-0.5 1.214,-0.75 2.141,-0.75c1.208,0 1.813,0.677 1.813,2.031c-0.396,-0.135 -0.75,-0.203 -1.063,-0.203c-1.151,0 -2.098,0.293 -2.84,0.879c-0.742,0.586 -1.113,1.303 -1.113,2.152c0,0.708 0.241,1.301 0.723,1.777c0.482,0.477 1.051,0.715 1.707,0.715c1.224,0 2.133,-0.372 2.727,-1.117Zm-0.141,-3.148l0,2.023c-0.578,0.714 -1.242,1.07 -1.992,1.07c-1.026,0 -1.539,-0.435 -1.539,-1.305c0,-0.526 0.237,-0.982 0.711,-1.367c0.474,-0.385 1.086,-0.578 1.836,-0.578c0.188,0 0.516,0.052 0.984,0.156Zm3.273,3.609c0.776,0.438 1.604,0.656 2.484,0.656c0.932,0 1.661,-0.212 2.187,-0.637c0.526,-0.424 0.789,-1.012 0.789,-1.762c0,-0.573 -0.148,-1.049 -0.445,-1.43c-0.297,-0.38 -0.771,-0.719 -1.422,-1.016l-1.062,-0.484c-0.609,-0.276 -0.914,-0.682 -0.914,-1.219c0,-0.255 0.121,-0.466 0.363,-0.633c0.242,-0.167 0.54,-0.25 0.895,-0.25c0.594,0 1.185,0.234 1.773,0.703l0.422,-1.375c-0.927,-0.385 -1.695,-0.578 -2.305,-0.578c-0.807,0 -1.461,0.193 -1.961,0.578c-0.5,0.385 -0.75,0.922 -0.75,1.609c0,0.266 0.043,0.514 0.129,0.746c0.086,0.232 0.216,0.451 0.391,0.656c0.174,0.206 0.38,0.389 0.617,0.551c0.237,0.161 0.697,0.398 1.379,0.711c0.885,0.396 1.328,0.87 1.328,1.422c0,0.771 -0.458,1.156 -1.375,1.156c-0.505,0 -1.172,-0.271 -2,-0.813l-0.523,1.406Zm7.555,-6.695l0,4.75c0,0.75 0.228,1.371 0.684,1.863c0.456,0.492 1.014,0.738 1.676,0.738c0.734,0 1.409,-0.078 2.023,-0.234l-0.219,-1.305c-0.406,0.193 -0.799,0.289 -1.18,0.289c-0.526,0 -0.908,-0.148 -1.145,-0.445c-0.237,-0.297 -0.355,-0.797 -0.355,-1.5l0,-4.156l2.297,0l0,-1.172l-2.297,0l0,-2.32l-1.484,0.57l0,1.75l-0.969,0l0,1.172l0.969,0Zm7.344,-4.336c-0.255,0 -0.471,0.089 -0.648,0.266c-0.177,0.177 -0.266,0.393 -0.266,0.648c0,0.255 0.09,0.473 0.27,0.652c0.18,0.18 0.395,0.27 0.645,0.27c0.255,0 0.473,-0.09 0.652,-0.27c0.18,-0.18 0.27,-0.397 0.27,-0.652c0,-0.25 -0.09,-0.465 -0.27,-0.645c-0.18,-0.18 -0.397,-0.27 -0.652,-0.27Zm-0.812,11.531l1.484,0l0,-8.367l-2.633,0l0,1.25l1.148,0l0,7.117Zm10.156,-7.688c-0.24,-0.193 -0.612,-0.38 -1.117,-0.562c-0.505,-0.182 -0.974,-0.273 -1.406,-0.273c-1.344,0 -2.402,0.404 -3.176,1.211c-0.773,0.807 -1.16,1.878 -1.16,3.211c0,1.307 0.372,2.344 1.117,3.109c0.745,0.766 1.688,1.148 2.828,1.148c1.177,0 2.164,-0.258 2.961,-0.773l-0.586,-1.25c-0.677,0.516 -1.349,0.773 -2.016,0.773c-0.859,0 -1.531,-0.257 -2.016,-0.77c-0.484,-0.513 -0.727,-1.259 -0.727,-2.238c0,-0.984 0.237,-1.759 0.711,-2.324c0.474,-0.565 1.115,-0.848 1.922,-0.848c0.37,0 0.746,0.068 1.129,0.203c0.383,0.135 0.65,0.279 0.801,0.43l0.734,-1.047Zm1.063,3.484c0,1.333 0.333,2.393 1,3.18c0.667,0.786 1.596,1.18 2.789,1.18c1.167,0 2.089,-0.389 2.766,-1.168c0.677,-0.779 1.016,-1.842 1.016,-3.191c0,-1.354 -0.331,-2.413 -0.992,-3.176c-0.661,-0.763 -1.591,-1.145 -2.789,-1.145c-1.135,0 -2.051,0.397 -2.746,1.191c-0.695,0.794 -1.043,1.837 -1.043,3.129Zm1.562,0c0,-0.969 0.202,-1.729 0.605,-2.281c0.404,-0.552 0.944,-0.828 1.621,-0.828c1.479,0 2.219,1.036 2.219,3.109c0,0.974 -0.197,1.742 -0.59,2.305c-0.393,0.562 -0.936,0.844 -1.629,0.844c-1.484,0 -2.227,-1.049 -2.227,-3.148Zm7.023,3.703c0.776,0.438 1.604,0.656 2.484,0.656c0.932,0 1.661,-0.212 2.188,-0.637c0.526,-0.424 0.789,-1.012 0.789,-1.762c0,-0.573 -0.148,-1.049 -0.445,-1.43c-0.297,-0.38 -0.771,-0.719 -1.422,-1.016l-1.062,-0.484c-0.609,-0.276 -0.914,-0.682 -0.914,-1.219c0,-0.255 0.121,-0.466 0.363,-0.633c0.242,-0.167 0.54,-0.25 0.895,-0.25c0.594,0 1.185,0.234 1.773,0.703l0.422,-1.375c-0.927,-0.385 -1.695,-0.578 -2.305,-0.578c-0.807,0 -1.461,0.193 -1.961,0.578c-0.5,0.385 -0.75,0.922 -0.75,1.609c0,0.266 0.043,0.514 0.129,0.746c0.086,0.232 0.216,0.451 0.391,0.656c0.174,0.206 0.38,0.389 0.617,0.551c0.237,0.161 0.697,0.398 1.379,0.711c0.885,0.396 1.328,0.87 1.328,1.422c0,0.771 -0.458,1.156 -1.375,1.156c-0.505,0 -1.172,-0.271 -2,-0.813l-0.523,1.406Zm21.531,0.5l1.484,0l0,-5.594c0,-0.927 -0.237,-1.647 -0.711,-2.16c-0.474,-0.513 -1.143,-0.77 -2.008,-0.77c-0.479,0 -0.945,0.107 -1.398,0.32c-0.453,0.214 -0.763,0.479 -0.93,0.797c-0.479,-0.745 -1.318,-1.117 -2.516,-1.117c-0.859,0 -1.576,0.375 -2.148,1.125l-0.492,-0.969l-0.969,0l0,8.367l1.484,0l0,-6.172c0.141,-0.276 0.379,-0.529 0.715,-0.758c0.336,-0.229 0.652,-0.344 0.949,-0.344c0.51,0 0.921,0.118 1.23,0.355c0.31,0.237 0.465,0.561 0.465,0.973l0,5.945l1.484,0l0,-6.188c0.115,-0.281 0.328,-0.533 0.641,-0.754c0.312,-0.221 0.648,-0.332 1.008,-0.332c1.141,0 1.711,0.659 1.711,1.977l0,5.297Zm8.32,-0.961c0.13,0.396 0.345,0.68 0.645,0.852c0.299,0.172 0.751,0.258 1.355,0.258l0,-0.742c-0.438,-0.245 -0.656,-0.734 -0.656,-1.469l0,-3c0,-1.203 -0.275,-2.081 -0.824,-2.633c-0.549,-0.552 -1.431,-0.828 -2.645,-0.828c-0.453,0 -0.928,0.082 -1.426,0.246c-0.497,0.164 -0.887,0.361 -1.168,0.59l0.625,1.242c0.5,-0.5 1.214,-0.75 2.141,-0.75c1.208,0 1.813,0.677 1.813,2.031c-0.396,-0.135 -0.75,-0.203 -1.062,-0.203c-1.151,0 -2.098,0.293 -2.84,0.879c-0.742,0.586 -1.113,1.303 -1.113,2.152c0,0.708 0.241,1.301 0.723,1.777c0.482,0.477 1.051,0.715 1.707,0.715c1.224,0 2.133,-0.372 2.727,-1.117Zm-0.141,-3.148l0,2.023c-0.578,0.714 -1.242,1.07 -1.992,1.07c-1.026,0 -1.539,-0.435 -1.539,-1.305c0,-0.526 0.237,-0.982 0.711,-1.367c0.474,-0.385 1.086,-0.578 1.836,-0.578c0.188,0 0.516,0.052 0.984,0.156Zm8.969,4.109l1.484,0l0,-5.18c0,-2.229 -0.917,-3.344 -2.75,-3.344c-1.109,0 -1.909,0.411 -2.398,1.234l-0.469,-1.078l-1.016,0l0,8.367l1.484,0l0,-6.219c0.198,-0.297 0.482,-0.547 0.852,-0.75c0.37,-0.203 0.724,-0.305 1.062,-0.305c0.63,0 1.079,0.178 1.348,0.535c0.268,0.357 0.402,0.98 0.402,1.871l0,4.867Zm9.906,-7.688c-0.24,-0.193 -0.612,-0.38 -1.117,-0.562c-0.505,-0.182 -0.974,-0.273 -1.406,-0.273c-1.344,0 -2.402,0.404 -3.176,1.211c-0.773,0.807 -1.16,1.878 -1.16,3.211c0,1.307 0.372,2.344 1.117,3.109c0.745,0.766 1.688,1.148 2.828,1.148c1.177,0 2.164,-0.258 2.961,-0.773l-0.586,-1.25c-0.677,0.516 -1.349,0.773 -2.016,0.773c-0.859,0 -1.531,-0.257 -2.016,-0.77c-0.484,-0.513 -0.727,-1.259 -0.727,-2.238c0,-0.984 0.237,-1.759 0.711,-2.324c0.474,-0.565 1.115,-0.848 1.922,-0.848c0.37,0 0.746,0.068 1.129,0.203c0.383,0.135 0.65,0.279 0.801,0.43l0.734,-1.047Zm6.766,7.688l1.484,0l0,-5.258c0,-1.01 -0.251,-1.807 -0.754,-2.391c-0.503,-0.583 -1.197,-0.875 -2.082,-0.875c-0.469,0 -0.923,0.103 -1.363,0.309c-0.44,0.206 -0.759,0.462 -0.957,0.77l0,-4.352l-1.484,0l0,11.797l1.484,0l0,-6.219c0.193,-0.281 0.47,-0.527 0.832,-0.738c0.362,-0.211 0.723,-0.316 1.082,-0.316c0.557,0 0.99,0.18 1.297,0.539c0.307,0.359 0.461,0.852 0.461,1.477l0,5.258Zm8.313,-0.961c0.13,0.396 0.345,0.68 0.645,0.852c0.299,0.172 0.751,0.258 1.355,0.258l0,-0.742c-0.437,-0.245 -0.656,-0.734 -0.656,-1.469l0,-3c0,-1.203 -0.275,-2.081 -0.824,-2.633c-0.549,-0.552 -1.431,-0.828 -2.645,-0.828c-0.453,0 -0.928,0.082 -1.426,0.246c-0.497,0.164 -0.887,0.361 -1.168,0.59l0.625,1.242c0.5,-0.5 1.214,-0.75 2.141,-0.75c1.208,0 1.813,0.677 1.813,2.031c-0.396,-0.135 -0.75,-0.203 -1.063,-0.203c-1.151,0 -2.098,0.293 -2.84,0.879c-0.742,0.586 -1.113,1.303 -1.113,2.152c0,0.708 0.241,1.301 0.723,1.777c0.482,0.477 1.051,0.715 1.707,0.715c1.224,0 2.133,-0.372 2.727,-1.117Zm-0.141,-3.148l0,2.023c-0.578,0.714 -1.242,1.07 -1.992,1.07c-1.026,0 -1.539,-0.435 -1.539,-1.305c0,-0.526 0.237,-0.982 0.711,-1.367c0.474,-0.385 1.086,-0.578 1.836,-0.578c0.188,0 0.516,0.052 0.984,0.156Zm9.125,4.102l1.484,0l0,-11.789l-1.484,0l0,3.883c-0.448,-0.406 -1.104,-0.609 -1.969,-0.609c-1.036,0 -1.93,0.444 -2.68,1.332c-0.75,0.888 -1.125,1.96 -1.125,3.215c0,1.25 0.326,2.25 0.977,3c0.651,0.75 1.5,1.125 2.547,1.125c0.984,0 1.734,-0.258 2.25,-0.773l0,0.617Zm0,-6.422l0,4.641c-0.083,0.167 -0.289,0.324 -0.617,0.473c-0.328,0.148 -0.609,0.223 -0.844,0.223c-1.833,0 -2.75,-1.008 -2.75,-3.023c0,-0.917 0.246,-1.672 0.738,-2.266c0.492,-0.594 1.137,-0.891 1.934,-0.891c0.651,0 1.164,0.281 1.539,0.844Zm3.063,2.227c0,1.333 0.333,2.393 1,3.18c0.667,0.786 1.596,1.18 2.789,1.18c1.167,0 2.089,-0.389 2.766,-1.168c0.677,-0.779 1.016,-1.842 1.016,-3.191c0,-1.354 -0.331,-2.413 -0.992,-3.176c-0.661,-0.763 -1.591,-1.145 -2.789,-1.145c-1.135,0 -2.051,0.397 -2.746,1.191c-0.695,0.794 -1.043,1.837 -1.043,3.129Zm1.562,0c0,-0.969 0.202,-1.729 0.605,-2.281c0.404,-0.552 0.944,-0.828 1.621,-0.828c1.479,0 2.219,1.036 2.219,3.109c0,0.974 -0.197,1.742 -0.59,2.305c-0.393,0.562 -0.936,0.844 -1.629,0.844c-1.484,0 -2.227,-1.049 -2.227,-3.148Zm7.023,3.703c0.776,0.438 1.604,0.656 2.484,0.656c0.932,0 1.661,-0.212 2.187,-0.637c0.526,-0.424 0.789,-1.012 0.789,-1.762c0,-0.573 -0.148,-1.049 -0.445,-1.43c-0.297,-0.38 -0.771,-0.719 -1.422,-1.016l-1.062,-0.484c-0.609,-0.276 -0.914,-0.682 -0.914,-1.219c0,-0.255 0.121,-0.466 0.363,-0.633c0.242,-0.167 0.54,-0.25 0.895,-0.25c0.594,0 1.185,0.234 1.773,0.703l0.422,-1.375c-0.927,-0.385 -1.695,-0.578 -2.305,-0.578c-0.807,0 -1.461,0.193 -1.961,0.578c-0.5,0.385 -0.75,0.922 -0.75,1.609c0,0.266 0.043,0.514 0.129,0.746c0.086,0.232 0.216,0.451 0.391,0.656c0.174,0.206 0.38,0.389 0.617,0.551c0.237,0.161 0.697,0.398 1.379,0.711c0.885,0.396 1.328,0.87 1.328,1.422c0,0.771 -0.458,1.156 -1.375,1.156c-0.505,0 -1.172,-0.271 -2,-0.813l-0.523,1.406Zm18.156,-7.188c-0.24,-0.193 -0.612,-0.38 -1.117,-0.562c-0.505,-0.182 -0.974,-0.273 -1.406,-0.273c-1.344,0 -2.402,0.404 -3.176,1.211c-0.773,0.807 -1.16,1.878 -1.16,3.211c0,1.307 0.372,2.344 1.117,3.109c0.745,0.766 1.688,1.148 2.828,1.148c1.177,0 2.164,-0.258 2.961,-0.773l-0.586,-1.25c-0.677,0.516 -1.349,0.773 -2.016,0.773c-0.859,0 -1.531,-0.257 -2.016,-0.77c-0.484,-0.513 -0.727,-1.259 -0.727,-2.238c0,-0.984 0.237,-1.759 0.711,-2.324c0.474,-0.565 1.115,-0.848 1.922,-0.848c0.37,0 0.746,0.068 1.129,0.203c0.383,0.135 0.65,0.279 0.801,0.43l0.734,-1.047Zm1.063,3.484c0,1.333 0.333,2.393 1,3.18c0.667,0.786 1.596,1.18 2.789,1.18c1.167,0 2.089,-0.389 2.766,-1.168c0.677,-0.779 1.016,-1.842 1.016,-3.191c0,-1.354 -0.331,-2.413 -0.992,-3.176c-0.661,-0.763 -1.591,-1.145 -2.789,-1.145c-1.135,0 -2.051,0.397 -2.746,1.191c-0.695,0.794 -1.043,1.837 -1.043,3.129Zm1.562,0c0,-0.969 0.202,-1.729 0.605,-2.281c0.404,-0.552 0.944,-0.828 1.621,-0.828c1.479,0 2.219,1.036 2.219,3.109c0,0.974 -0.197,1.742 -0.59,2.305c-0.393,0.562 -0.936,0.844 -1.629,0.844c-1.484,0 -2.227,-1.049 -2.227,-3.148Zm12.719,4.203l1.484,0l0,-5.18c0,-2.229 -0.917,-3.344 -2.75,-3.344c-1.109,0 -1.909,0.411 -2.398,1.234l-0.469,-1.078l-1.016,0l0,8.367l1.484,0l0,-6.219c0.198,-0.297 0.482,-0.547 0.852,-0.75c0.37,-0.203 0.724,-0.305 1.063,-0.305c0.63,0 1.079,0.178 1.348,0.535c0.268,0.357 0.402,0.98 0.402,1.871l0,4.867Zm-168.461,17.617c0.13,0.396 0.345,0.68 0.645,0.852c0.299,0.172 0.751,0.258 1.355,0.258l0,-0.742c-0.437,-0.245 -0.656,-0.734 -0.656,-1.469l0,-3c0,-1.203 -0.275,-2.081 -0.824,-2.633c-0.549,-0.552 -1.431,-0.828 -2.645,-0.828c-0.453,0 -0.928,0.082 -1.426,0.246c-0.497,0.164 -0.887,0.361 -1.168,0.59l0.625,1.242c0.5,-0.5 1.214,-0.75 2.141,-0.75c1.208,0 1.813,0.677 1.813,2.031c-0.396,-0.135 -0.75,-0.203 -1.062,-0.203c-1.151,0 -2.098,0.293 -2.84,0.879c-0.742,0.586 -1.113,1.303 -1.113,2.152c0,0.708 0.241,1.301 0.723,1.777c0.482,0.477 1.051,0.715 1.707,0.715c1.224,0 2.133,-0.372 2.727,-1.117Zm-0.141,-3.148l0,2.023c-0.578,0.714 -1.242,1.07 -1.992,1.07c-1.026,0 -1.539,-0.435 -1.539,-1.305c0,-0.526 0.237,-0.982 0.711,-1.367c0.474,-0.385 1.086,-0.578 1.836,-0.578c0.188,0 0.516,0.052 0.984,0.156Zm3.938,1.742c0,1.682 0.961,2.523 2.883,2.523l0,-1.328c-0.417,0 -0.754,-0.129 -1.012,-0.387c-0.258,-0.258 -0.387,-0.611 -0.387,-1.059l0,-9.18l-1.484,0l0,9.43Zm6.133,-9.164c-0.255,0 -0.471,0.089 -0.648,0.266c-0.177,0.177 -0.266,0.393 -0.266,0.648c0,0.255 0.09,0.473 0.27,0.652c0.18,0.18 0.395,0.27 0.645,0.27c0.255,0 0.473,-0.09 0.652,-0.27c0.18,-0.18 0.27,-0.397 0.27,-0.652c0,-0.25 -0.09,-0.465 -0.27,-0.645c-0.18,-0.18 -0.397,-0.27 -0.652,-0.27Zm-0.813,11.531l1.484,0l0,-8.367l-2.633,0l0,1.25l1.148,0l0,7.117Zm13.531,0l1.484,0l0,-5.594c0,-0.927 -0.237,-1.647 -0.711,-2.16c-0.474,-0.513 -1.143,-0.77 -2.008,-0.77c-0.479,0 -0.945,0.107 -1.398,0.32c-0.453,0.214 -0.763,0.479 -0.93,0.797c-0.479,-0.745 -1.318,-1.117 -2.516,-1.117c-0.859,0 -1.576,0.375 -2.148,1.125l-0.492,-0.969l-0.969,0l0,8.367l1.484,0l0,-6.172c0.141,-0.276 0.379,-0.529 0.715,-0.758c0.336,-0.229 0.652,-0.344 0.949,-0.344c0.51,0 0.921,0.118 1.23,0.355c0.31,0.237 0.465,0.561 0.465,0.973l0,5.945l1.484,0l0,-6.187c0.115,-0.281 0.328,-0.533 0.641,-0.754c0.313,-0.221 0.648,-0.332 1.008,-0.332c1.141,0 1.711,0.659 1.711,1.977l0,5.297Zm10.641,-4.039c0.078,-0.276 0.117,-0.578 0.117,-0.906c0,-1.068 -0.328,-1.924 -0.984,-2.57c-0.677,-0.672 -1.612,-1.008 -2.805,-1.008c-1.026,0 -1.914,0.372 -2.664,1.117c-0.839,0.833 -1.258,1.94 -1.258,3.32c0,1.328 0.409,2.385 1.227,3.172c0.734,0.714 1.628,1.07 2.68,1.07c0.729,0 1.391,-0.109 1.984,-0.328c0.474,-0.167 0.826,-0.365 1.055,-0.594l-0.625,-1.07c-0.568,0.495 -1.276,0.742 -2.125,0.742c-0.745,0 -1.354,-0.229 -1.828,-0.688c-0.536,-0.526 -0.805,-1.279 -0.805,-2.258l6.031,0Zm-3.602,-3.234c0.708,0 1.268,0.219 1.68,0.656c0.375,0.401 0.562,0.901 0.562,1.5l-4.633,0c0.057,-0.604 0.299,-1.109 0.727,-1.516c0.448,-0.427 1.003,-0.641 1.664,-0.641Zm10.43,7.273l1.484,0l0,-5.18c0,-2.229 -0.917,-3.344 -2.75,-3.344c-1.109,0 -1.909,0.411 -2.398,1.234l-0.469,-1.078l-1.016,0l0,8.367l1.484,0l0,-6.219c0.198,-0.297 0.482,-0.547 0.852,-0.75c0.37,-0.203 0.724,-0.305 1.062,-0.305c0.63,0 1.079,0.178 1.348,0.535c0.268,0.357 0.402,0.98 0.402,1.871l0,4.867Zm4.125,-7.195l0,4.75c0,0.75 0.228,1.371 0.684,1.863c0.456,0.492 1.014,0.738 1.676,0.738c0.734,0 1.409,-0.078 2.023,-0.234l-0.219,-1.305c-0.406,0.193 -0.799,0.289 -1.18,0.289c-0.526,0 -0.908,-0.148 -1.145,-0.445c-0.237,-0.297 -0.355,-0.797 -0.355,-1.5l0,-4.156l2.297,0l0,-1.172l-2.297,0l0,-2.32l-1.484,0.57l0,1.75l-0.969,0l0,1.172l0.969,0Zm5.266,2.992c0,1.333 0.333,2.393 1,3.18c0.667,0.786 1.596,1.18 2.789,1.18c1.167,0 2.089,-0.389 2.766,-1.168c0.677,-0.779 1.016,-1.842 1.016,-3.191c0,-1.354 -0.331,-2.413 -0.992,-3.176c-0.661,-0.763 -1.591,-1.145 -2.789,-1.145c-1.135,0 -2.051,0.397 -2.746,1.191c-0.695,0.794 -1.043,1.837 -1.043,3.129Zm1.562,0c0,-0.969 0.202,-1.729 0.605,-2.281c0.404,-0.552 0.944,-0.828 1.621,-0.828c1.479,0 2.219,1.036 2.219,3.109c0,0.974 -0.197,1.742 -0.59,2.305c-0.393,0.562 -0.936,0.844 -1.629,0.844c-1.484,0 -2.227,-1.049 -2.227,-3.148Zm7.023,3.703c0.776,0.438 1.604,0.656 2.484,0.656c0.932,0 1.661,-0.212 2.187,-0.637c0.526,-0.424 0.789,-1.012 0.789,-1.762c0,-0.573 -0.148,-1.049 -0.445,-1.43c-0.297,-0.38 -0.771,-0.719 -1.422,-1.016l-1.062,-0.484c-0.609,-0.276 -0.914,-0.682 -0.914,-1.219c0,-0.255 0.121,-0.466 0.363,-0.633c0.242,-0.167 0.54,-0.25 0.895,-0.25c0.594,0 1.185,0.234 1.773,0.703l0.422,-1.375c-0.927,-0.385 -1.695,-0.578 -2.305,-0.578c-0.807,0 -1.461,0.193 -1.961,0.578c-0.5,0.385 -0.75,0.922 -0.75,1.609c0,0.266 0.043,0.514 0.129,0.746c0.086,0.232 0.216,0.451 0.391,0.656c0.174,0.206 0.38,0.389 0.617,0.551c0.237,0.161 0.697,0.398 1.379,0.711c0.885,0.396 1.328,0.87 1.328,1.422c0,0.771 -0.458,1.156 -1.375,1.156c-0.505,0 -1.172,-0.271 -2,-0.812l-0.523,1.406Zm8.734,-1.695c-0.323,0 -0.599,0.115 -0.828,0.344c-0.229,0.229 -0.344,0.505 -0.344,0.828c0,0.323 0.115,0.6 0.344,0.832c0.229,0.232 0.505,0.348 0.828,0.348c0.323,0 0.599,-0.116 0.828,-0.348c0.229,-0.232 0.344,-0.509 0.344,-0.832c0,-0.323 -0.115,-0.599 -0.344,-0.828c-0.229,-0.229 -0.505,-0.344 -0.828,-0.344Zm-65.086,32.773l1.789,0l-3.32,-5.266c0.609,-0.141 1.135,-0.499 1.578,-1.074c0.443,-0.576 0.664,-1.223 0.664,-1.941c0,-2.188 -1.375,-3.281 -4.125,-3.281c-0.344,0 -0.892,0.02 -1.645,0.059c-0.753,0.039 -1.158,0.059 -1.215,0.059l0,11.445l1.562,0l0,-4.992c0.755,0.052 1.307,0.078 1.656,0.078l3.055,4.914Zm-4.711,-10.039c0.458,-0.052 0.766,-0.078 0.922,-0.078c0.99,0 1.714,0.141 2.172,0.422c0.458,0.281 0.688,0.742 0.688,1.383c0,0.776 -0.214,1.315 -0.641,1.617c-0.427,0.302 -1.109,0.453 -2.047,0.453c-0.354,0 -0.719,-0.026 -1.094,-0.078l0,-3.719Zm13.953,6c0.078,-0.276 0.117,-0.578 0.117,-0.906c0,-1.068 -0.328,-1.924 -0.984,-2.57c-0.677,-0.672 -1.612,-1.008 -2.805,-1.008c-1.026,0 -1.914,0.372 -2.664,1.117c-0.839,0.833 -1.258,1.94 -1.258,3.32c0,1.328 0.409,2.385 1.227,3.172c0.734,0.714 1.628,1.07 2.68,1.07c0.729,0 1.391,-0.109 1.984,-0.328c0.474,-0.167 0.826,-0.365 1.055,-0.594l-0.625,-1.07c-0.568,0.495 -1.276,0.742 -2.125,0.742c-0.745,0 -1.354,-0.229 -1.828,-0.688c-0.536,-0.526 -0.805,-1.279 -0.805,-2.258l6.031,0Zm-3.602,-3.234c0.708,0 1.268,0.219 1.68,0.656c0.375,0.401 0.562,0.901 0.562,1.5l-4.633,0c0.057,-0.604 0.299,-1.109 0.727,-1.516c0.448,-0.427 1.003,-0.641 1.664,-0.641Zm4.734,6.773c0.776,0.437 1.604,0.656 2.484,0.656c0.932,0 1.661,-0.212 2.188,-0.637c0.526,-0.424 0.789,-1.012 0.789,-1.762c0,-0.573 -0.148,-1.049 -0.445,-1.43c-0.297,-0.38 -0.771,-0.719 -1.422,-1.016l-1.062,-0.484c-0.609,-0.276 -0.914,-0.682 -0.914,-1.219c0,-0.255 0.121,-0.466 0.363,-0.633c0.242,-0.167 0.54,-0.25 0.895,-0.25c0.594,0 1.185,0.234 1.773,0.703l0.422,-1.375c-0.927,-0.385 -1.695,-0.578 -2.305,-0.578c-0.807,0 -1.461,0.193 -1.961,0.578c-0.5,0.385 -0.75,0.922 -0.75,1.609c0,0.266 0.043,0.514 0.129,0.746c0.086,0.232 0.216,0.451 0.391,0.656c0.174,0.206 0.38,0.389 0.617,0.551c0.237,0.161 0.697,0.398 1.379,0.711c0.885,0.396 1.328,0.87 1.328,1.422c0,0.771 -0.458,1.156 -1.375,1.156c-0.505,0 -1.172,-0.271 -2,-0.812l-0.523,1.406Zm7.555,-6.695l0,4.75c0,0.75 0.228,1.371 0.684,1.863c0.456,0.492 1.014,0.738 1.676,0.738c0.734,0 1.409,-0.078 2.023,-0.234l-0.219,-1.305c-0.406,0.193 -0.799,0.289 -1.18,0.289c-0.526,0 -0.908,-0.148 -1.145,-0.445c-0.237,-0.297 -0.355,-0.797 -0.355,-1.5l0,-4.156l2.297,0l0,-1.172l-2.297,0l0,-2.32l-1.484,0.57l0,1.75l-0.969,0l0,1.172l0.969,0Zm5.266,2.992c0,1.333 0.333,2.393 1,3.18c0.667,0.786 1.596,1.18 2.789,1.18c1.167,0 2.089,-0.389 2.766,-1.168c0.677,-0.779 1.016,-1.842 1.016,-3.191c0,-1.354 -0.331,-2.413 -0.992,-3.176c-0.661,-0.763 -1.591,-1.145 -2.789,-1.145c-1.135,0 -2.051,0.397 -2.746,1.191c-0.695,0.794 -1.043,1.837 -1.043,3.129Zm1.562,0c0,-0.969 0.202,-1.729 0.605,-2.281c0.404,-0.552 0.944,-0.828 1.621,-0.828c1.479,0 2.219,1.036 2.219,3.109c0,0.974 -0.197,1.742 -0.59,2.305c-0.393,0.563 -0.936,0.844 -1.629,0.844c-1.484,0 -2.227,-1.049 -2.227,-3.148Zm7.023,3.703c0.776,0.437 1.604,0.656 2.484,0.656c0.932,0 1.661,-0.212 2.188,-0.637c0.526,-0.424 0.789,-1.012 0.789,-1.762c0,-0.573 -0.148,-1.049 -0.445,-1.43c-0.297,-0.38 -0.771,-0.719 -1.422,-1.016l-1.062,-0.484c-0.609,-0.276 -0.914,-0.682 -0.914,-1.219c0,-0.255 0.121,-0.466 0.363,-0.633c0.242,-0.167 0.54,-0.25 0.895,-0.25c0.594,0 1.185,0.234 1.773,0.703l0.422,-1.375c-0.927,-0.385 -1.695,-0.578 -2.305,-0.578c-0.807,0 -1.461,0.193 -1.961,0.578c-0.5,0.385 -0.75,0.922 -0.75,1.609c0,0.266 0.043,0.514 0.129,0.746c0.086,0.232 0.216,0.451 0.391,0.656c0.174,0.206 0.38,0.389 0.617,0.551c0.237,0.161 0.697,0.398 1.379,0.711c0.885,0.396 1.328,0.87 1.328,1.422c0,0.771 -0.458,1.156 -1.375,1.156c-0.505,0 -1.172,-0.271 -2,-0.812l-0.523,1.406Zm17.148,0.492l1.484,0l0,-11.789l-1.484,0l0,3.883c-0.448,-0.406 -1.104,-0.609 -1.969,-0.609c-1.036,0 -1.93,0.444 -2.68,1.332c-0.75,0.888 -1.125,1.96 -1.125,3.215c0,1.25 0.326,2.25 0.977,3c0.651,0.75 1.5,1.125 2.547,1.125c0.984,0 1.734,-0.258 2.25,-0.773l0,0.617Zm0,-6.422l0,4.641c-0.083,0.167 -0.289,0.324 -0.617,0.473c-0.328,0.148 -0.609,0.223 -0.844,0.223c-1.833,0 -2.75,-1.008 -2.75,-3.023c0,-0.917 0.246,-1.672 0.738,-2.266c0.492,-0.594 1.137,-0.891 1.934,-0.891c0.651,0 1.164,0.281 1.539,0.844Zm10.656,2.391c0.078,-0.276 0.117,-0.578 0.117,-0.906c0,-1.068 -0.328,-1.924 -0.984,-2.57c-0.677,-0.672 -1.612,-1.008 -2.805,-1.008c-1.026,0 -1.914,0.372 -2.664,1.117c-0.839,0.833 -1.258,1.94 -1.258,3.32c0,1.328 0.409,2.385 1.227,3.172c0.734,0.714 1.628,1.07 2.68,1.07c0.729,0 1.391,-0.109 1.984,-0.328c0.474,-0.167 0.826,-0.365 1.055,-0.594l-0.625,-1.07c-0.568,0.495 -1.276,0.742 -2.125,0.742c-0.745,0 -1.354,-0.229 -1.828,-0.688c-0.536,-0.526 -0.805,-1.279 -0.805,-2.258l6.031,0Zm-3.602,-3.234c0.708,0 1.268,0.219 1.68,0.656c0.375,0.401 0.563,0.901 0.563,1.5l-4.633,0c0.057,-0.604 0.299,-1.109 0.727,-1.516c0.448,-0.427 1.003,-0.641 1.664,-0.641Z"/></svg>