<?xml version="1.0" encoding="UTF-8" standalone="no"?>
<!DOCTYPE svg PUBLIC "-//W3C//DTD SVG 1.1//EN" "http://www.w3.org/Graphics/SVG/1.1/DTD/svg11.dtd">
<svg width="100%" height="100%" viewBox="0 0 1749 2481" version="1.1" xmlns="http://www.w3.org/2000/svg" xmlns:xlink="http://www.w3.org/1999/xlink" xml:space="preserve" xmlns:serif="http://www.serif.com/" style="fill-rule:evenodd;clip-rule:evenodd;stroke-linejoin:round;stroke-miterlimit:2;">
    <rect x="-84" y="-68" width="1832.031" height="2548.315"/>
    <path d="M1748.031,-68L1748.031,2480.315L-84,2480.315L-84,-68L1748.031,-68ZM687.55,1236.154C688.092,1237.803 688.987,1238.986 690.235,1239.702C691.483,1240.418 693.366,1240.776 695.883,1240.776L695.883,1237.684C694.06,1236.664 693.149,1234.624 693.149,1231.564L693.149,1219.064C693.149,1214.051 692.004,1210.394 689.714,1208.094C687.425,1205.793 683.752,1204.643 678.695,1204.643C676.807,1204.643 674.827,1204.985 672.755,1205.669C670.682,1206.352 669.06,1207.171 667.888,1208.126L670.492,1213.302C672.576,1211.219 675.549,1210.177 679.412,1210.177C684.446,1210.177 686.964,1212.998 686.964,1218.641C685.314,1218.076 683.839,1217.794 682.537,1217.794C677.741,1217.794 673.796,1219.015 670.704,1221.456C667.611,1223.898 666.065,1226.887 666.065,1230.424C666.065,1233.376 667.069,1235.844 669.076,1237.83C671.084,1239.816 673.455,1240.809 676.189,1240.809C681.289,1240.809 685.076,1239.257 687.55,1236.154ZM686.964,1223.035L686.964,1231.466C684.555,1234.439 681.788,1235.926 678.663,1235.926C674.388,1235.926 672.25,1234.114 672.25,1230.49C672.25,1228.298 673.238,1226.399 675.212,1224.793C677.187,1223.187 679.737,1222.384 682.862,1222.384C683.643,1222.384 685.011,1222.601 686.964,1223.035ZM700.603,1238.074C703.836,1239.897 707.287,1240.809 710.955,1240.809C714.839,1240.809 717.877,1239.924 720.069,1238.156C722.261,1236.387 723.357,1233.94 723.357,1230.815C723.357,1228.428 722.738,1226.442 721.501,1224.858C720.264,1223.274 718.29,1221.863 715.577,1220.626L711.15,1218.608C708.611,1217.458 707.341,1215.765 707.341,1213.53C707.341,1212.467 707.846,1211.588 708.855,1210.893C709.864,1210.199 711.106,1209.851 712.582,1209.851C715.056,1209.851 717.519,1210.828 719.971,1212.781L721.729,1207.052C717.866,1205.446 714.665,1204.643 712.126,1204.643C708.763,1204.643 706.039,1205.446 703.956,1207.052C701.873,1208.658 700.831,1210.893 700.831,1213.758C700.831,1214.865 701.01,1215.901 701.368,1216.866C701.726,1217.832 702.269,1218.744 702.996,1219.601C703.723,1220.458 704.58,1221.223 705.567,1221.896C706.555,1222.569 708.47,1223.556 711.313,1224.858C715.002,1226.507 716.846,1228.482 716.846,1230.782C716.846,1233.994 714.937,1235.6 711.117,1235.6C709.012,1235.6 706.234,1234.472 702.784,1232.215L700.603,1238.074ZM847.071,1108.745C847.614,1110.394 848.509,1111.577 849.757,1112.293C851.004,1113.009 852.887,1113.367 855.404,1113.367L855.404,1110.275C853.582,1109.255 852.67,1107.215 852.67,1104.155L852.67,1091.655C852.67,1086.642 851.525,1082.985 849.236,1080.685C846.946,1078.384 843.273,1077.234 838.217,1077.234C836.329,1077.234 834.349,1077.576 832.276,1078.26C830.204,1078.943 828.582,1079.763 827.41,1080.717L830.014,1085.893C832.097,1083.81 835.07,1082.768 838.933,1082.768C843.968,1082.768 846.485,1085.589 846.485,1091.232C844.836,1090.667 843.36,1090.385 842.058,1090.385C837.262,1090.385 833.318,1091.606 830.225,1094.047C827.133,1096.489 825.587,1099.478 825.587,1103.016C825.587,1105.967 826.59,1108.435 828.598,1110.421C830.605,1112.407 832.976,1113.4 835.71,1113.4C840.81,1113.4 844.597,1111.848 847.071,1108.745ZM846.485,1095.626L846.485,1104.057C844.076,1107.03 841.309,1108.517 838.184,1108.517C833.909,1108.517 831.772,1106.705 831.772,1103.081C831.772,1100.889 832.759,1098.99 834.734,1097.384C836.709,1095.778 839.259,1094.975 842.384,1094.975C843.165,1094.975 844.532,1095.192 846.485,1095.626ZM808.204,1102.885C808.204,1109.895 812.208,1113.4 820.216,1113.4L820.216,1107.866C818.48,1107.866 817.074,1107.329 816,1106.254C814.926,1105.18 814.389,1103.71 814.389,1101.844L814.389,1063.595L808.204,1063.595L808.204,1102.885ZM788.542,1102.885C788.542,1109.895 792.546,1113.4 800.554,1113.4L800.554,1107.866C798.818,1107.866 797.413,1107.329 796.339,1106.254C795.264,1105.18 794.727,1103.71 794.727,1101.844L794.727,1063.595L788.542,1063.595L788.542,1102.885ZM1054.502,185.6L1034.902,167.4L1034.302,168C1031.635,170.667 1028.568,172.7 1025.102,174.1C1021.635,175.5 1017.968,176.2 1014.102,176.2C1010.368,176.2 1007.102,175.467 1004.302,174C1001.502,172.533 998.768,170.467 996.102,167.8C993.435,165.133 991.535,162.133 990.402,158.8C989.268,155.467 988.702,151.933 988.702,148.2C988.702,144.333 989.268,140.667 990.402,137.2C991.535,133.733 993.435,130.667 996.102,128C998.768,125.333 1001.502,123.3 1004.302,121.9C1007.102,120.5 1010.368,119.8 1014.102,119.8C1017.835,119.8 1021.435,120.5 1024.902,121.9C1028.368,123.3 1031.435,125.267 1034.102,127.8L1052.902,109C1047.568,104.733 1041.568,101.567 1034.902,99.5C1028.235,97.433 1021.302,96.4 1014.102,96.4C1007.035,96.4 1000.102,97.467 993.302,99.6C986.502,101.733 980.468,104.967 975.202,109.3C969.935,113.633 965.702,119.033 962.502,125.5C959.302,131.967 957.702,139.533 957.702,148.2C957.702,156.867 959.302,164.4 962.502,170.8C965.702,177.2 969.935,182.533 975.202,186.8C980.468,191.067 986.502,194.267 993.302,196.4C1000.102,198.533 1007.035,199.6 1014.102,199.6C1021.702,199.6 1028.968,198.433 1035.902,196.1C1042.835,193.767 1049.035,190.267 1054.502,185.6ZM531.819,1883C531.819,1883 527.751,1879.627 520.819,1885C513.887,1890.373 514.835,1892 514.835,1892L516.921,1941C516.921,1941 516.401,1946.076 524.819,1951C533.237,1955.924 542.819,1955 542.819,1955L573.819,2314C573.819,2314 609.591,2341.029 706.819,2340C804.047,2338.971 814.819,2312 814.819,2312L844.819,1954L858.819,1955C858.819,1955 860.745,1953.881 865.819,1951C870.893,1948.119 869.819,1943 869.819,1943L869.819,1894C869.819,1894 872.425,1887.692 862.819,1885C853.213,1882.308 844.819,1883 844.819,1883L531.819,1883ZM896.819,1681L899.819,1659L736.819,1634C736.819,1634 725.202,1635.39 719.819,1640C714.436,1644.61 710.819,1653 710.819,1653L680.819,1738L703.819,1744L730.819,1675C730.819,1675 740.264,1674.229 746.819,1670C753.374,1665.771 754.819,1661 754.819,1661L896.819,1681ZM655.702,147.8C655.702,155.533 656.902,162.567 659.302,168.9C661.702,175.233 665.102,180.667 669.502,185.2C673.902,189.733 679.235,193.267 685.502,195.8C691.768,198.333 698.702,199.6 706.302,199.6C712.302,199.6 717.835,198.5 722.902,196.3C727.968,194.1 732.435,191.133 736.302,187.4L736.302,198L767.302,198L767.302,98L736.302,98L736.302,107C732.435,103.667 728.002,101.067 723.002,99.2C718.002,97.333 712.435,96.4 706.302,96.4C698.702,96.4 691.768,97.667 685.502,100.2C679.235,102.733 673.902,106.233 669.502,110.7C665.102,115.167 661.702,120.567 659.302,126.9C656.902,133.233 655.702,140.2 655.702,147.8ZM694.102,128C696.768,125.333 699.502,123.3 702.302,121.9C705.102,120.5 708.435,119.8 712.302,119.8C720.035,119.8 726.702,122.6 732.302,128.2C734.035,129.933 735.368,131.733 736.302,133.6L736.302,162.6C735.368,164.467 734.035,166.267 732.302,168C729.635,170.667 726.568,172.7 723.102,174.1C719.635,175.5 716.035,176.2 712.302,176.2C708.435,176.2 705.102,175.5 702.302,174.1C699.502,172.7 696.768,170.667 694.102,168C691.435,165.333 689.535,162.267 688.402,158.8C687.268,155.333 686.702,151.667 686.702,147.8C686.702,144.067 687.268,140.5 688.402,137.1C689.535,133.7 691.435,130.667 694.102,128ZM606.495,1198.328L628.468,1198.328L628.468,1192.469L599.984,1192.469L599.984,1240.157L628.109,1240.157L628.109,1234.298L606.495,1234.298L606.495,1217.111L622.25,1217.111L622.25,1211.577L606.495,1211.577L606.495,1198.328ZM647.771,1240.809L663.07,1205.197L656.593,1205.197L647.185,1229.611L637.973,1205.197L631.202,1205.197L646.143,1240.809L647.771,1240.809ZM1000.229,1070.919L1016.082,1070.919L1016.082,1065.06L978.549,1065.06L978.549,1070.919L993.718,1070.919L993.718,1112.749L1000.229,1112.749L1000.229,1070.919ZM953.647,1070.919L975.619,1070.919L975.619,1065.06L947.136,1065.06L947.136,1112.749L975.261,1112.749L975.261,1106.889L953.647,1106.889L953.647,1089.702L969.402,1089.702L969.402,1084.168L953.647,1084.168L953.647,1070.919ZM916.472,1094.389C918.946,1094.606 920.552,1094.715 921.29,1094.715C933.529,1094.715 939.649,1089.355 939.649,1078.634C939.649,1069.368 932.726,1064.734 918.881,1064.734C917.861,1064.734 914.888,1064.843 909.962,1065.06L909.962,1112.749L916.472,1112.749L916.472,1094.389ZM916.472,1070.919C917.97,1070.702 919.152,1070.594 920.02,1070.594C928.636,1070.594 932.943,1073.502 932.943,1079.318C932.943,1085.676 928.907,1088.855 920.834,1088.855C920.682,1088.855 919.228,1088.747 916.472,1088.53L916.472,1070.919ZM860.124,1110.665C863.358,1112.488 866.808,1113.4 870.476,1113.4C874.361,1113.4 877.399,1112.515 879.591,1110.747C881.782,1108.978 882.878,1106.531 882.878,1103.406C882.878,1101.019 882.26,1099.033 881.023,1097.449C879.786,1095.865 877.811,1094.454 875.098,1093.217L870.671,1091.199C868.132,1090.049 866.863,1088.356 866.863,1086.121C866.863,1085.058 867.367,1084.179 868.376,1083.484C869.386,1082.79 870.628,1082.443 872.104,1082.443C874.578,1082.443 877.041,1083.419 879.493,1085.372L881.251,1079.643C877.388,1078.037 874.187,1077.234 871.648,1077.234C868.284,1077.234 865.561,1078.037 863.477,1079.643C861.394,1081.249 860.352,1083.484 860.352,1086.349C860.352,1087.456 860.531,1088.492 860.889,1089.458C861.248,1090.423 861.79,1091.335 862.517,1092.192C863.244,1093.049 864.101,1093.814 865.089,1094.487C866.076,1095.16 867.991,1096.147 870.834,1097.449C874.523,1099.098 876.368,1101.073 876.368,1103.374C876.368,1106.585 874.458,1108.191 870.639,1108.191C868.534,1108.191 865.756,1107.063 862.305,1104.806L860.124,1110.665ZM452.942,1614.15C457.209,1607.154 455.13,1598.092 448.302,1593.927L321.84,1516.793C315.011,1512.628 306.003,1514.927 301.735,1521.924L263.304,1584.931C259.037,1591.928 261.116,1600.99 267.944,1605.155L394.406,1682.289C401.235,1686.454 410.243,1684.155 414.511,1677.158L452.942,1614.15ZM1211.702,96.4C1207.035,96.4 1202.402,96.9 1197.802,97.9C1193.202,98.9 1189.035,100.533 1185.302,102.8C1181.568,105.067 1178.535,108.133 1176.202,112C1173.868,115.867 1172.702,120.667 1172.702,126.4C1172.702,133.067 1174.568,138.867 1178.302,143.8C1182.035,148.733 1187.902,152.933 1195.902,156.4L1208.102,161.6C1211.168,162.933 1213.235,163.967 1214.302,164.7C1215.368,165.433 1215.902,166.467 1215.902,167.8C1215.902,168.867 1215.568,169.667 1214.902,170.2C1214.235,170.733 1213.568,171.133 1212.902,171.4C1212.102,171.8 1211.168,172 1210.102,172C1207.568,172 1204.968,171.733 1202.302,171.2C1199.635,170.667 1197.068,170.033 1194.602,169.3C1192.135,168.567 1189.968,167.767 1188.102,166.9C1186.235,166.033 1184.835,165.2 1183.902,164.4L1170.702,185.6C1174.568,189.2 1179.935,192.433 1186.802,195.3C1193.668,198.167 1201.435,199.6 1210.102,199.6C1214.502,199.6 1218.935,199.067 1223.402,198C1227.868,196.933 1231.868,195.233 1235.402,192.9C1238.935,190.567 1241.835,187.533 1244.102,183.8C1246.368,180.067 1247.502,175.6 1247.502,170.4C1247.502,167.067 1247.235,163.867 1246.702,160.8C1246.168,157.733 1245.068,154.833 1243.402,152.1C1241.735,149.367 1239.402,146.8 1236.402,144.4C1233.402,142 1229.502,139.8 1224.702,137.8L1212.502,132.6C1209.835,131.533 1207.602,130.5 1205.802,129.5C1204.002,128.5 1203.102,127.467 1203.102,126.4C1203.102,125.333 1203.702,124.333 1204.902,123.4C1206.102,122.467 1208.368,122 1211.702,122C1213.035,122 1214.535,122.2 1216.202,122.6C1217.868,123 1219.535,123.567 1221.202,124.3C1222.868,125.033 1224.435,125.8 1225.902,126.6C1227.368,127.4 1228.635,128.2 1229.702,129L1246.502,108.6C1242.635,105 1237.535,102.067 1231.202,99.8C1224.868,97.533 1218.368,96.4 1211.702,96.4ZM373.442,1695.254C355.683,1681.859 284.654,1638.487 264.667,1629.371C259.984,1627.235 257.467,1637.474 253.516,1640.557C249.689,1643.544 245.236,1645.9 240.963,1647.868C236.763,1649.802 232.293,1651.055 227.875,1652.366C221.964,1654.12 212.777,1656.14 205.497,1658.394C198.312,1660.618 191.476,1664.053 184.193,1665.888C174.589,1668.306 158.417,1669.826 147.876,1672.906C138.539,1675.635 128.895,1678.634 120.947,1684.369C110.802,1691.69 94.48,1707.275 87.002,1716.831C81.42,1723.965 77.785,1733.664 76.079,1741.709C74.453,1749.376 74.281,1757.765 76.762,1765.103C80.875,1777.265 94.586,1801.017 100.752,1814.683C105.536,1825.284 109.425,1837.273 113.758,1847.096C117.736,1856.113 123.749,1866.418 126.753,1873.622C128.985,1878.975 132.626,1886.101 131.78,1890.322C130.935,1894.543 125.279,1897.678 121.68,1898.947C118.081,1900.216 111.939,1901.366 110.187,1897.934C101.708,1881.329 79.257,1813.296 70.808,1799.312C67.668,1794.115 62.821,1808.811 59.493,1814.03C55.58,1820.165 50.688,1828.417 47.333,1836.119C43.744,1844.357 35.168,1854.366 37.962,1863.459C44.251,1883.929 74.11,1942.052 85.069,1958.939C88.626,1964.421 97.312,1963.549 103.719,1964.784C113.547,1966.68 133.861,1969.193 144.041,1970.313C150.924,1971.07 159.729,1969.558 164.802,1971.504C169.238,1973.207 173.813,1978.667 174.479,1981.993C175.145,1985.318 172.049,1989.787 168.798,1991.457C165.474,1993.164 159.284,1992.394 154.533,1992.239C144.929,1991.925 122.527,1990.394 111.172,1989.577C102.9,1988.982 93.297,1989.772 86.402,1987.34C79.891,1985.043 74.021,1980.465 69.799,1974.984C65.01,1968.768 60.241,1951.165 57.67,1950.044C55.1,1948.923 55.255,1962.155 54.375,1968.257C53.258,1976 52.233,1987.1 50.971,1996.501C49.511,2007.381 46.966,2023.079 45.613,2033.541C44.507,2042.099 38.736,2051.829 42.857,2059.27C47.113,2066.954 61.537,2073.117 71.151,2079.646C83.868,2088.283 106.311,2105.172 119.161,2111.091C128.023,2115.173 139.169,2114.216 148.25,2115.162C156.68,2116.04 166.008,2116.222 173.647,2116.765C180.466,2117.251 188.36,2114.749 194.085,2118.423C202.087,2123.559 212.213,2138.119 221.664,2147.583C231.778,2157.71 245.575,2169.574 254.77,2179.189C262.633,2187.413 274.005,2198.515 276.83,2205.275C278.773,2209.926 275.457,2218.035 271.715,2219.747C267.973,2221.46 259.22,2218.978 254.378,2215.548C245.663,2209.375 229.946,2193.563 219.426,2182.708C209.493,2172.459 198.105,2157.555 191.26,2150.421C187.415,2146.413 183.785,2141.108 178.357,2139.906C168.463,2137.715 143.354,2138.093 131.896,2137.278C124.442,2136.748 114.243,2136.008 109.605,2135.014C107.429,2134.547 105.777,2129.82 104.066,2131.313C99.582,2135.227 88.151,2151.022 82.698,2158.499C78.574,2164.154 74.199,2170.709 71.351,2176.173C68.859,2180.953 66.128,2185.938 65.609,2191.279C63.75,2210.417 57.643,2269.09 60.196,2291C61.674,2303.686 74.808,2315.6 80.929,2322.742C85.163,2327.681 90.742,2331.85 96.926,2333.85C105.677,2336.68 121.107,2338.994 133.434,2339.72C148.405,2340.602 168.977,2339.333 186.748,2339.14L400.004,2336.817C409.923,2336.709 421.85,2339.19 429.761,2336.493C437.2,2333.955 441.691,2326.059 447.465,2320.629C453.31,2315.133 460.865,2309.723 464.828,2303.517C468.623,2297.573 470.516,2290.37 471.243,2283.389C472.856,2267.91 478.223,2227.318 474.506,2210.643C471.765,2198.343 458.29,2191.575 448.944,2183.342C438.286,2173.954 421.682,2162.311 410.561,2154.315C401.332,2147.679 390.393,2140.024 382.214,2135.366C375.672,2131.64 368.553,2128.983 361.487,2126.366C351.757,2122.763 336.536,2117.502 323.838,2113.75C309.459,2109.5 287.408,2104.558 275.214,2100.87C266.84,2098.337 257.627,2094.714 250.671,2091.62C244.714,2088.971 235.832,2085.989 233.48,2082.306C231.162,2078.677 233.986,2071.396 236.563,2069.526C239.14,2067.656 244.845,2070.39 248.942,2071.088C257.525,2072.551 275.725,2075.49 288.058,2078.303C299.83,2080.988 311.277,2084.88 322.943,2087.967C335.628,2091.323 352.829,2101.063 364.168,2098.44C375.507,2095.817 383.077,2080.182 390.979,2072.231C397.974,2065.194 410.729,2060.588 411.582,2050.737C412.674,2038.116 401.558,2010.765 397.535,1996.506C394.554,1985.941 391.328,1971.604 387.442,1965.187C384.831,1960.874 378.813,1960.022 374.22,1958.001C365.026,1953.958 344.193,1945.345 332.281,1940.925C322.595,1937.331 312.57,1934.694 302.746,1931.482C291.813,1927.907 275.742,1923.021 266.678,1919.476C260.302,1916.982 251.821,1914.223 248.362,1910.21C245.132,1906.464 243.273,1898.503 245.92,1895.398C248.566,1892.293 258.166,1890.404 264.239,1891.582C276.059,1893.873 299.359,1903.142 316.84,1909.149C334.323,1915.156 357.815,1923.372 369.138,1927.625C374.494,1929.637 379.509,1936.496 384.779,1934.668C390.048,1932.841 396.873,1923.688 400.756,1916.658C405.41,1908.231 409.726,1895.263 412.701,1884.108C415.927,1872.016 418.838,1855.459 420.108,1844.103C421.153,1834.764 421.929,1825.171 420.324,1815.972C418.719,1806.77 413.934,1797.199 410.478,1788.89C407.243,1781.112 403.235,1773.7 399.59,1766.118C395.942,1758.527 391.918,1749.712 388.589,1743.347C385.83,1738.073 382.348,1733.216 379.615,1727.927C376.722,1722.327 372.254,1715.189 371.225,1709.743C370.324,1704.978 377.264,1698.137 373.442,1695.254ZM97.297,2031.358L118.076,2047.299C118.076,2047.299 132.98,2054.952 138.095,2058.335C142.021,2060.932 146.731,2064.148 148.765,2067.6C150.701,2070.887 151.301,2076.773 150.296,2079.049C149.291,2081.325 145.343,2081.273 142.736,2081.255C139.142,2081.23 133.094,2080.708 128.734,2078.9C122.69,2076.395 113.768,2070.364 106.467,2066.221C99.294,2062.15 90.096,2057.51 84.929,2054.04C81.386,2051.66 76.663,2049.546 75.464,2045.4C73.881,2039.922 74.514,2027.251 75.429,2021.173C76.094,2016.76 78.317,2010.783 80.958,2008.929C83.599,2007.074 89.023,2008.293 91.277,2010.046C93.531,2011.799 93.579,2016.255 94.48,2019.444C95.484,2022.996 97.297,2031.358 97.297,2031.358ZM136.642,1763.672C136.642,1763.672 144.344,1780.669 146.39,1788.141C148.191,1794.716 148.753,1803.164 148.923,1808.505C149.047,1812.418 149.733,1818.463 147.407,1820.191C145.081,1821.918 138.395,1821.21 134.966,1818.869C131.111,1816.237 127.394,1809.533 124.277,1804.398C119.937,1797.246 110.804,1783.584 108.923,1775.954C107.516,1770.249 110.441,1763.994 112.99,1758.62C116.62,1750.967 125.985,1736.296 130.704,1730.036C133.498,1726.33 138.288,1720.543 141.306,1721.058C144.323,1721.573 148.364,1728.366 148.811,1733.128C149.257,1737.891 143.986,1749.632 143.986,1749.632L136.642,1763.672ZM611.502,110.2C610.835,94.333 606.735,82.1 599.202,73.5C591.668,64.9 580.968,60.6 567.102,60.6L504.702,60.6L504.702,198L537.702,198L537.702,159.8L566.502,159.8C571.568,159.8 576.768,158.767 582.102,156.7C587.435,154.633 592.268,151.5 596.602,147.3C600.935,143.1 604.502,137.933 607.302,131.8C610.102,125.667 611.502,118.467 611.502,110.2ZM563.502,127.8L537.702,127.8L537.702,92.6L563.502,92.6C566.302,92.6 568.668,93.167 570.602,94.3C572.535,95.433 574.068,96.9 575.202,98.7C576.335,100.5 577.168,102.433 577.702,104.5C578.235,106.567 578.502,108.467 578.502,110.2C578.502,112.067 578.235,114 577.702,116C577.168,118 576.335,119.9 575.202,121.7C574.068,123.5 572.535,124.967 570.602,126.1C568.668,127.233 566.302,127.8 563.502,127.8ZM937.702,90.8C941.968,90.8 945.602,89.3 948.602,86.3C951.602,83.3 953.102,79.667 953.102,75.4C953.102,71.133 951.602,67.467 948.602,64.4C945.602,61.333 941.968,59.8 937.702,59.8C933.435,59.8 929.768,61.333 926.702,64.4C923.635,67.467 922.102,71.133 922.102,75.4C922.102,77.533 922.502,79.533 923.302,81.4C924.102,83.267 925.202,84.9 926.602,86.3C928.002,87.7 929.668,88.8 931.602,89.6C933.535,90.4 935.568,90.8 937.702,90.8ZM781.055,1095.919C781.381,1094.769 781.544,1093.51 781.544,1092.143C781.544,1087.694 780.177,1084.124 777.442,1081.434C774.621,1078.634 770.726,1077.234 765.756,1077.234C761.481,1077.234 757.781,1078.786 754.656,1081.889C751.162,1085.361 749.415,1089.973 749.415,1095.724C749.415,1101.258 751.118,1105.663 754.526,1108.94C757.585,1111.913 761.307,1113.4 765.691,1113.4C768.729,1113.4 771.485,1112.944 773.959,1112.032C775.934,1111.338 777.399,1110.513 778.354,1109.559L775.749,1105.099C773.384,1107.161 770.433,1108.191 766.895,1108.191C763.792,1108.191 761.253,1107.236 759.278,1105.327C757.043,1103.135 755.925,1099.999 755.925,1095.919L781.055,1095.919ZM766.049,1082.443C769,1082.443 771.333,1083.354 773.048,1085.177C774.61,1086.848 775.391,1088.931 775.391,1091.427L756.088,1091.427C756.327,1088.91 757.336,1086.805 759.115,1085.112C760.982,1083.332 763.293,1082.443 766.049,1082.443ZM759.229,1223.328C759.555,1222.178 759.718,1220.919 759.718,1219.552C759.718,1215.103 758.35,1211.533 755.616,1208.842C752.795,1206.043 748.899,1204.643 743.93,1204.643C739.655,1204.643 735.955,1206.195 732.83,1209.298C729.336,1212.77 727.589,1217.382 727.589,1223.133C727.589,1228.667 729.292,1233.072 732.699,1236.349C735.759,1239.322 739.481,1240.809 743.865,1240.809C746.903,1240.809 749.659,1240.353 752.133,1239.441C754.108,1238.747 755.573,1237.922 756.527,1236.967L753.923,1232.508C751.558,1234.569 748.606,1235.6 745.069,1235.6C741.966,1235.6 739.427,1234.645 737.452,1232.736C735.217,1230.544 734.099,1227.408 734.099,1223.328L759.229,1223.328ZM744.223,1209.851C747.174,1209.851 749.507,1210.763 751.221,1212.586C752.784,1214.257 753.565,1216.34 753.565,1218.836L734.262,1218.836C734.501,1216.319 735.51,1214.213 737.289,1212.521C739.156,1210.741 741.467,1209.851 744.223,1209.851ZM763.949,1238.074C767.183,1239.897 770.633,1240.809 774.301,1240.809C778.185,1240.809 781.224,1239.924 783.415,1238.156C785.607,1236.387 786.703,1233.94 786.703,1230.815C786.703,1228.428 786.085,1226.442 784.848,1224.858C783.611,1223.274 781.636,1221.863 778.923,1220.626L774.496,1218.608C771.957,1217.458 770.688,1215.765 770.688,1213.53C770.688,1212.467 771.192,1211.588 772.201,1210.893C773.21,1210.199 774.453,1209.851 775.929,1209.851C778.402,1209.851 780.866,1210.828 783.318,1212.781L785.076,1207.052C781.213,1205.446 778.012,1204.643 775.473,1204.643C772.109,1204.643 769.386,1205.446 767.302,1207.052C765.219,1208.658 764.177,1210.893 764.177,1213.758C764.177,1214.865 764.356,1215.901 764.714,1216.866C765.072,1217.832 765.615,1218.744 766.342,1219.601C767.069,1220.458 767.926,1221.223 768.914,1221.896C769.901,1222.569 771.816,1223.556 774.659,1224.858C778.348,1226.507 780.193,1228.482 780.193,1230.782C780.193,1233.994 778.283,1235.6 774.464,1235.6C772.359,1235.6 769.581,1234.472 766.13,1232.215L763.949,1238.074ZM819.483,1238.237C819.961,1238.91 821.04,1239.506 822.722,1240.027C824.404,1240.548 825.983,1240.809 827.458,1240.809C832.71,1240.809 836.725,1239.132 839.503,1235.779C842.281,1232.426 843.669,1228.102 843.669,1222.807C843.669,1216.861 842.291,1212.347 839.535,1209.266C836.779,1206.184 832.927,1204.643 827.979,1204.643C824.659,1204.643 821.827,1205.815 819.483,1208.159L819.483,1205.294L813.298,1205.294L813.298,1253.829L819.483,1253.829L819.483,1238.237ZM819.483,1212.814C820.221,1212.054 821.219,1211.371 822.478,1210.763C823.737,1210.155 824.8,1209.851 825.668,1209.851C829.683,1209.851 832.602,1210.871 834.425,1212.911C836.248,1214.951 837.159,1218.174 837.159,1222.579C837.159,1231.26 833.318,1235.6 825.636,1235.6C824.442,1235.6 823.216,1235.334 821.957,1234.803C820.698,1234.271 819.874,1233.712 819.483,1233.126L819.483,1212.814ZM850.929,1230.294C850.929,1237.304 854.932,1240.809 862.94,1240.809L862.94,1235.275C861.204,1235.275 859.799,1234.738 858.725,1233.663C857.651,1232.589 857.113,1231.119 857.113,1229.253L857.113,1191.004L850.929,1191.004L850.929,1230.294ZM889.796,1236.154C890.338,1237.803 891.233,1238.986 892.481,1239.702C893.729,1240.418 895.612,1240.776 898.129,1240.776L898.129,1237.684C896.306,1236.664 895.395,1234.624 895.395,1231.564L895.395,1219.064C895.395,1214.051 894.25,1210.394 891.96,1208.094C889.671,1205.793 885.998,1204.643 880.942,1204.643C879.054,1204.643 877.073,1204.985 875.001,1205.669C872.928,1206.352 871.306,1207.171 870.134,1208.126L872.738,1213.302C874.822,1211.219 877.795,1210.177 881.658,1210.177C886.692,1210.177 889.21,1212.998 889.21,1218.641C887.56,1218.076 886.085,1217.794 884.783,1217.794C879.987,1217.794 876.042,1219.015 872.95,1221.456C869.858,1223.898 868.311,1226.887 868.311,1230.424C868.311,1233.376 869.315,1235.844 871.322,1237.83C873.33,1239.816 875.701,1240.809 878.435,1240.809C883.535,1240.809 887.322,1239.257 889.796,1236.154ZM889.21,1223.035L889.21,1231.466C886.801,1234.439 884.034,1235.926 880.909,1235.926C876.634,1235.926 874.496,1234.114 874.496,1230.49C874.496,1228.298 875.484,1226.399 877.458,1224.793C879.433,1223.187 881.983,1222.384 885.108,1222.384C885.889,1222.384 887.257,1222.601 889.21,1223.035ZM890.609,1187.488L884.197,1187.488L878.695,1198.328L883.253,1198.328L890.609,1187.488ZM902.849,1238.074C906.083,1239.897 909.533,1240.809 913.201,1240.809C917.085,1240.809 920.123,1239.924 922.315,1238.156C924.507,1236.387 925.603,1233.94 925.603,1230.815C925.603,1228.428 924.984,1226.442 923.748,1224.858C922.511,1223.274 920.536,1221.863 917.823,1220.626L913.396,1218.608C910.857,1217.458 909.587,1215.765 909.587,1213.53C909.587,1212.467 910.092,1211.588 911.101,1210.893C912.11,1210.199 913.353,1209.851 914.828,1209.851C917.302,1209.851 919.765,1210.828 922.218,1212.781L923.975,1207.052C920.113,1205.446 916.912,1204.643 914.373,1204.643C911.009,1204.643 908.285,1205.446 906.202,1207.052C904.119,1208.658 903.077,1210.893 903.077,1213.758C903.077,1214.865 903.256,1215.901 903.614,1216.866C903.972,1217.832 904.515,1218.744 905.242,1219.601C905.969,1220.458 906.826,1221.223 907.813,1221.896C908.801,1222.569 910.716,1223.556 913.559,1224.858C917.248,1226.507 919.093,1228.482 919.093,1230.782C919.093,1233.994 917.183,1235.6 913.363,1235.6C911.258,1235.6 908.481,1234.472 905.03,1232.215L902.849,1238.074ZM934.327,1210.177L934.327,1229.969C934.327,1233.094 935.276,1235.682 937.175,1237.732C939.074,1239.783 941.402,1240.809 944.158,1240.809C947.218,1240.809 950.028,1240.483 952.589,1239.832L951.677,1234.396C949.984,1235.199 948.346,1235.6 946.762,1235.6C944.57,1235.6 942.98,1234.982 941.993,1233.745C941.006,1232.508 940.512,1230.424 940.512,1227.495L940.512,1210.177L950.082,1210.177L950.082,1205.294L940.512,1205.294L940.512,1195.626L934.327,1198.003L934.327,1205.294L930.29,1205.294L930.29,1210.177L934.327,1210.177ZM964.926,1192.111C963.863,1192.111 962.962,1192.48 962.224,1193.217C961.486,1193.955 961.117,1194.856 961.117,1195.919C961.117,1196.983 961.492,1197.889 962.24,1198.637C962.989,1199.386 963.884,1199.76 964.926,1199.76C965.989,1199.76 966.895,1199.386 967.644,1198.637C968.393,1197.889 968.767,1196.983 968.767,1195.919C968.767,1194.878 968.393,1193.982 967.644,1193.234C966.895,1192.485 965.989,1192.111 964.926,1192.111ZM961.54,1240.157L967.725,1240.157L967.725,1205.294L956.755,1205.294L956.755,1210.503L961.54,1210.503L961.54,1240.157ZM1003.858,1208.126C1002.86,1207.323 1001.308,1206.542 999.203,1205.782C997.098,1205.023 995.145,1204.643 993.344,1204.643C987.745,1204.643 983.334,1206.325 980.111,1209.689C976.889,1213.052 975.277,1217.512 975.277,1223.068C975.277,1228.515 976.829,1232.833 979.932,1236.023C983.036,1239.213 986.964,1240.809 991.716,1240.809C996.621,1240.809 1000.733,1239.734 1004.054,1237.586L1001.612,1232.378C998.791,1234.526 995.991,1235.6 993.214,1235.6C989.633,1235.6 986.833,1234.531 984.815,1232.394C982.797,1230.256 981.788,1227.147 981.788,1223.068C981.788,1218.966 982.775,1215.738 984.75,1213.383C986.725,1211.029 989.394,1209.851 992.758,1209.851C994.299,1209.851 995.867,1210.134 997.462,1210.698C999.057,1211.262 1000.169,1211.859 1000.798,1212.488L1003.858,1208.126ZM1008.285,1222.644C1008.285,1228.2 1009.674,1232.616 1012.452,1235.893C1015.23,1239.17 1019.103,1240.809 1024.073,1240.809C1028.934,1240.809 1032.775,1239.186 1035.596,1235.942C1038.418,1232.698 1039.828,1228.265 1039.828,1222.644C1039.828,1217.002 1038.45,1212.591 1035.694,1209.412C1032.938,1206.233 1029.064,1204.643 1024.073,1204.643C1019.342,1204.643 1015.528,1206.298 1012.631,1209.607C1009.734,1212.917 1008.285,1217.263 1008.285,1222.644ZM1014.796,1222.644C1014.796,1218.608 1015.637,1215.44 1017.318,1213.139C1019,1210.839 1021.252,1209.689 1024.073,1209.689C1030.236,1209.689 1033.318,1214.007 1033.318,1222.644C1033.318,1226.703 1032.499,1229.904 1030.86,1232.247C1029.222,1234.591 1026.959,1235.763 1024.073,1235.763C1017.888,1235.763 1014.796,1231.39 1014.796,1222.644ZM1044.06,1238.074C1047.294,1239.897 1050.744,1240.809 1054.412,1240.809C1058.296,1240.809 1061.334,1239.924 1063.526,1238.156C1065.718,1236.387 1066.814,1233.94 1066.814,1230.815C1066.814,1228.428 1066.195,1226.442 1064.958,1224.858C1063.721,1223.274 1061.747,1221.863 1059.034,1220.626L1054.607,1218.608C1052.068,1217.458 1050.798,1215.765 1050.798,1213.53C1050.798,1212.467 1051.303,1211.588 1052.312,1210.893C1053.321,1210.199 1054.563,1209.851 1056.039,1209.851C1058.513,1209.851 1060.976,1210.828 1063.429,1212.781L1065.186,1207.052C1061.323,1205.446 1058.123,1204.643 1055.583,1204.643C1052.22,1204.643 1049.496,1205.446 1047.413,1207.052C1045.33,1208.658 1044.288,1210.893 1044.288,1213.758C1044.288,1214.865 1044.467,1215.901 1044.825,1216.866C1045.183,1217.832 1045.726,1218.744 1046.453,1219.601C1047.18,1220.458 1048.037,1221.223 1049.024,1221.896C1050.012,1222.569 1051.927,1223.556 1054.77,1224.858C1058.459,1226.507 1060.304,1228.482 1060.304,1230.782C1060.304,1233.994 1058.394,1235.6 1054.574,1235.6C1052.469,1235.6 1049.692,1234.472 1046.241,1232.215L1044.06,1238.074ZM727.475,1082.768L727.475,1102.56C727.475,1105.685 728.424,1108.273 730.323,1110.323C732.222,1112.374 734.549,1113.4 737.305,1113.4C740.365,1113.4 743.176,1113.074 745.736,1112.423L744.825,1106.987C743.132,1107.79 741.494,1108.191 739.91,1108.191C737.718,1108.191 736.128,1107.573 735.141,1106.336C734.153,1105.099 733.66,1103.016 733.66,1100.086L733.66,1082.768L743.23,1082.768L743.23,1077.885L733.66,1077.885L733.66,1068.217L727.475,1070.594L727.475,1077.885L723.438,1077.885L723.438,1082.768L727.475,1082.768ZM687.208,1095.236C687.208,1100.791 688.597,1105.207 691.374,1108.484C694.152,1111.761 698.026,1113.4 702.996,1113.4C707.857,1113.4 711.698,1111.777 714.519,1108.533C717.34,1105.289 718.751,1100.856 718.751,1095.236C718.751,1089.593 717.373,1085.182 714.617,1082.003C711.861,1078.824 707.987,1077.234 702.996,1077.234C698.265,1077.234 694.451,1078.889 691.554,1082.198C688.656,1085.508 687.208,1089.854 687.208,1095.236ZM693.718,1095.236C693.718,1091.199 694.559,1088.031 696.241,1085.73C697.923,1083.43 700.174,1082.28 702.996,1082.28C709.159,1082.28 712.24,1086.598 712.24,1095.236C712.24,1099.294 711.421,1102.495 709.783,1104.838C708.144,1107.182 705.882,1108.354 702.996,1108.354C696.811,1108.354 693.718,1103.981 693.718,1095.236ZM651.102,198L651.102,57.8L620.102,57.8L620.102,198L651.102,198ZM919.502,122.2L919.502,98L895.902,98L895.902,62.2L855.302,98L855.302,122.2L864.902,122.2L864.902,198L895.902,198L895.902,122.2L919.502,122.2ZM876.101,265.9C689.934,265.9 538.791,415.252 538.791,599.212C538.791,783.171 689.934,932.522 876.101,932.522C1062.268,932.522 1213.413,783.171 1213.413,599.212C1213.413,415.252 1062.268,265.9 876.101,265.9ZM1169.356,680.704L1169.337,680.775L1169.323,680.827L1169.272,681.008L1169.186,681.304C1140.773,780.556 1062.042,859.016 962.005,888.014L961.836,888.064L961.518,888.155L961.388,888.193L961.325,888.211C934.277,895.997 905.678,900.172 876.101,900.172C708.003,900.172 571.529,765.317 571.529,599.212C571.529,523.619 599.793,454.5 646.439,401.616L646.799,401.961C654.254,393.505 662.178,385.465 670.534,377.88L670.179,377.538C724.41,328.316 796.732,298.25 876.101,298.25C1044.199,298.25 1180.674,433.107 1180.674,599.212C1180.674,627.449 1176.73,654.782 1169.356,680.704ZM1058.559,535.161L965.447,594.348L1026.492,693.414C1026.492,693.414 1058.591,732.365 1045.276,769.766L1114.071,651.62C1114.071,651.62 1117.427,626.708 1100.847,599.708L1058.559,535.161ZM927.484,394.312C928.627,393.694 932.305,392.021 932.305,392.021L930.601,391.976L793.602,392.025C769.67,399.384 761.73,414.754 761.73,414.754L716.474,493.411L813.417,546.342L874.05,441.624C888.752,401.349 926.341,394.928 927.484,394.312ZM1047.495,451.01L1012.041,466.113L968.176,406.178C913.633,383.933 879.575,458.324 879.575,458.324L916.267,523.654L888.433,542.009L997.793,542.321L1047.495,451.01ZM933.344,661.949L879.443,755.342L936.168,841.558L938.753,804.285L1006.774,800.657C1006.774,800.657 1068.104,779.199 1011.925,695.631L934.315,695.567L934.293,662.022L934.257,660.345L933.344,661.949ZM745.632,537.49L640.456,536.981L670.472,560.601L637.853,621.892C639.764,686.054 728.367,678.351 728.367,678.351L767.935,614.739L796.795,630.241L745.632,537.49ZM838.85,692.555L696.498,691.649C672.379,692.034 644.488,667.326 644.488,667.326L699.211,763.944C712.983,799.846 746.03,802.863 746.03,802.863L839.217,802.852L838.85,692.555ZM738.502,41L693.302,73.6L703.702,89L753.902,60L738.502,41ZM922.102,98.2L922.102,198L953.102,198L953.102,98.2L922.102,98.2ZM1168.102,148.2C1168.102,139.533 1166.502,131.967 1163.302,125.5C1160.102,119.033 1155.835,113.633 1150.502,109.3C1145.168,104.967 1139.135,101.733 1132.402,99.6C1125.668,97.467 1118.702,96.4 1111.502,96.4C1104.435,96.4 1097.502,97.467 1090.702,99.6C1083.902,101.733 1077.868,104.967 1072.602,109.3C1067.335,113.633 1063.102,119.033 1059.902,125.5C1056.702,131.967 1055.102,139.533 1055.102,148.2C1055.102,156.867 1056.702,164.4 1059.902,170.8C1063.102,177.2 1067.335,182.533 1072.602,186.8C1077.868,191.067 1083.902,194.267 1090.702,196.4C1097.502,198.533 1104.435,199.6 1111.502,199.6C1118.702,199.6 1125.668,198.533 1132.402,196.4C1139.135,194.267 1145.168,191.067 1150.502,186.8C1155.835,182.533 1160.102,177.2 1163.302,170.8C1166.502,164.4 1168.102,156.867 1168.102,148.2ZM1129.702,168C1127.035,170.667 1124.035,172.6 1120.702,173.8C1117.368,175 1114.302,175.6 1111.502,175.6C1108.835,175.6 1105.835,174.967 1102.502,173.7C1099.168,172.433 1096.168,170.467 1093.502,167.8C1090.835,165.133 1088.935,162.133 1087.802,158.8C1086.668,155.467 1086.102,151.933 1086.102,148.2C1086.102,144.333 1086.668,140.667 1087.802,137.2C1088.935,133.733 1090.835,130.667 1093.502,128C1096.168,125.333 1099.168,123.4 1102.502,122.2C1105.835,121 1108.835,120.4 1111.502,120.4C1114.302,120.4 1117.368,121 1120.702,122.2C1124.035,123.4 1127.035,125.333 1129.702,128C1132.368,130.667 1134.268,133.733 1135.402,137.2C1136.535,140.667 1137.102,144.333 1137.102,148.2C1137.102,151.933 1136.535,155.5 1135.402,158.9C1134.268,162.3 1132.368,165.333 1129.702,168ZM728.01,1752.794C719.81,1761.41 706.647,1767 691.819,1767C676.991,1767 663.828,1761.41 655.628,1752.794C597.287,1765.251 551.601,1807.151 539.176,1860L844.462,1860C832.037,1807.151 786.351,1765.251 728.01,1752.794ZM814.902,96.4C810.235,96.4 805.602,96.9 801.002,97.9C796.402,98.9 792.235,100.533 788.502,102.8C784.768,105.067 781.735,108.133 779.402,112C777.068,115.867 775.902,120.667 775.902,126.4C775.902,133.067 777.768,138.867 781.502,143.8C785.235,148.733 791.102,152.933 799.102,156.4L811.302,161.6C814.368,162.933 816.435,163.967 817.502,164.7C818.568,165.433 819.102,166.467 819.102,167.8C819.102,168.867 818.768,169.667 818.102,170.2C817.435,170.733 816.768,171.133 816.102,171.4C815.302,171.8 814.368,172 813.302,172C810.768,172 808.168,171.733 805.502,171.2C802.835,170.667 800.268,170.033 797.802,169.3C795.335,168.567 793.168,167.767 791.302,166.9C789.435,166.033 788.035,165.2 787.102,164.4L773.902,185.6C777.768,189.2 783.135,192.433 790.002,195.3C796.868,198.167 804.635,199.6 813.302,199.6C817.702,199.6 822.135,199.067 826.602,198C831.068,196.933 835.068,195.233 838.602,192.9C842.135,190.567 845.035,187.533 847.302,183.8C849.568,180.067 850.702,175.6 850.702,170.4C850.702,167.067 850.435,163.867 849.902,160.8C849.368,157.733 848.268,154.833 846.602,152.1C844.935,149.367 842.602,146.8 839.602,144.4C836.602,142 832.702,139.8 827.902,137.8L815.702,132.6C813.035,131.533 810.802,130.5 809.002,129.5C807.202,128.5 806.302,127.467 806.302,126.4C806.302,125.333 806.902,124.333 808.102,123.4C809.302,122.467 811.568,122 814.902,122C816.235,122 817.735,122.2 819.402,122.6C821.068,123 822.735,123.567 824.402,124.3C826.068,125.033 827.635,125.8 829.102,126.6C830.568,127.4 831.835,128.2 832.902,129L849.702,108.6C845.835,105 840.735,102.067 834.402,99.8C828.068,97.533 821.568,96.4 814.902,96.4ZM1179,1641.493C1169.194,1634.469 1129.833,1628.335 1119,1628.335C1114.308,1628.335 1115.547,1637.063 1114,1641.493C1110.333,1651.993 1101.927,1674.487 1097,1691.335C1091.459,1710.284 1085.346,1733.712 1080.751,1755.189C1074.085,1786.347 1063.06,1844.181 1057.004,1878.282C1052.196,1905.352 1047.595,1932.487 1044.415,1959.796C1040.521,1993.23 1034.647,2042.702 1033.643,2078.885C1032.735,2111.581 1032.156,2145.091 1038.39,2176.894C1044.623,2208.697 1062.238,2249.37 1071.045,2269.706C1071.045,2269.706 1080.15,2284.639 1081.367,2291.797C1082.544,2298.724 1071.518,2310.994 1078.344,2312.657C1110.208,2320.421 1216.651,2334.474 1272.552,2338.379C1319.512,2341.66 1366.812,2339.602 1413.755,2336.091C1460.798,2332.572 1528.268,2321.543 1554.809,2317.269C1561.202,2316.239 1569.914,2315.068 1572.998,2310.445C1576.082,2305.823 1571.063,2296.132 1573.312,2289.534C1577.694,2276.685 1593.26,2253.082 1599.285,2233.348C1606.607,2209.363 1616.102,2175.449 1617.245,2145.623C1618.986,2100.188 1616.543,2022.04 1609.73,1960.738C1602.748,1897.923 1588.311,1824.026 1575.355,1768.729C1564.226,1721.234 1541.345,1652.09 1531.991,1628.958C1530.392,1625.003 1523.472,1629.469 1519.232,1629.934C1509.112,1631.044 1478.635,1632.398 1471.27,1635.615C1466.953,1637.501 1474.567,1644.549 1475.041,1649.236C1476.556,1664.226 1479.165,1700.08 1480.361,1725.552C1481.675,1753.546 1483.366,1799.986 1482.925,1817.201C1482.816,1821.45 1480.942,1826.072 1477.715,1828.839C1474.433,1831.653 1468.289,1834.966 1463.228,1834.087C1454.896,1832.638 1439.397,1825.186 1427.724,1820.147C1415.256,1814.766 1402.056,1806.604 1388.419,1801.796C1374.506,1796.891 1357.53,1792.597 1344.241,1790.715C1332.506,1789.052 1320.499,1789.557 1308.685,1790.502C1295.939,1791.522 1280.956,1792.97 1267.763,1796.833C1254.57,1800.696 1239.18,1809.205 1229.528,1813.681C1222.853,1816.776 1215.143,1820.512 1209.853,1823.688C1205.544,1826.276 1202.622,1831.352 1197.79,1832.736C1192.881,1834.143 1184.83,1834.418 1180.399,1832.129C1175.968,1829.841 1171.598,1824.332 1171.202,1819.005C1169.882,1801.23 1171.374,1750.235 1172.48,1725.48C1173.302,1707.078 1176.752,1684.476 1177.839,1670.478C1178.587,1660.838 1186.861,1647.123 1179,1641.493ZM665.854,1112.749C670.802,1112.749 674.811,1111.501 677.882,1109.005C680.952,1106.509 682.488,1103.167 682.488,1098.979C682.488,1095.355 681.625,1092.49 679.9,1090.385C678.175,1088.28 675.424,1086.772 671.648,1085.861C673.644,1085.405 675.467,1084.266 677.117,1082.443C678.766,1080.62 679.591,1078.601 679.591,1076.388C679.591,1072.612 678.299,1069.709 675.717,1067.68C673.134,1065.651 669.489,1064.637 664.779,1064.637C662.219,1064.637 658.041,1064.778 652.247,1065.06L652.247,1112.749L665.854,1112.749ZM658.757,1089.018L663.998,1088.855C668.187,1088.855 671.176,1089.593 672.966,1091.069C674.757,1092.545 675.652,1094.834 675.652,1097.937C675.652,1101.279 674.713,1103.715 672.836,1105.245C670.959,1106.775 667.98,1107.54 663.901,1107.54C662.707,1107.54 660.993,1107.432 658.757,1107.215L658.757,1089.018ZM658.757,1070.268C660.472,1070.116 662.414,1070.04 664.584,1070.04C670.248,1070.04 673.08,1072.243 673.08,1076.648C673.08,1081.661 669.999,1084.168 663.835,1084.168C661.817,1084.168 660.124,1084.103 658.757,1083.973L658.757,1070.268Z" style="fill:rgb(251,234,5);"/>
</svg>
