<?xml version="1.0" encoding="UTF-8" standalone="no"?>
<!DOCTYPE svg PUBLIC "-//W3C//DTD SVG 1.1//EN" "http://www.w3.org/Graphics/SVG/1.1/DTD/svg11.dtd">
<svg width="100%" height="100%" viewBox="0 0 1749 2481" version="1.1" xmlns="http://www.w3.org/2000/svg" xmlns:xlink="http://www.w3.org/1999/xlink" xml:space="preserve" xmlns:serif="http://www.serif.com/" style="fill-rule:evenodd;clip-rule:evenodd;stroke-linejoin:round;stroke-miterlimit:2;">
    <g transform="matrix(0.973834,0,0,0.964728,14.607506,12.54146)">
        <path d="M1780,-13L1780,2558L-15,2558L-15,-13L1780,-13ZM1244.811,1333.649C1245.368,1335.359 1246.287,1336.585 1247.569,1337.327C1248.85,1338.069 1250.783,1338.441 1253.368,1338.441L1253.368,1335.235C1251.496,1334.178 1250.56,1332.063 1250.56,1328.891L1250.56,1315.934C1250.56,1310.738 1249.385,1306.948 1247.034,1304.563C1244.683,1302.179 1240.911,1300.987 1235.719,1300.987C1233.78,1300.987 1231.747,1301.341 1229.618,1302.05C1227.49,1302.758 1225.825,1303.607 1224.621,1304.597L1227.295,1309.962C1229.435,1307.803 1232.488,1306.723 1236.454,1306.723C1241.624,1306.723 1244.209,1309.647 1244.209,1315.496C1242.516,1314.911 1241,1314.618 1239.663,1314.618C1234.738,1314.618 1230.688,1315.884 1227.513,1318.415C1224.337,1320.945 1222.749,1324.044 1222.749,1327.71C1222.749,1330.77 1223.78,1333.329 1225.841,1335.387C1227.903,1337.445 1230.337,1338.474 1233.145,1338.474C1238.382,1338.474 1242.271,1336.866 1244.811,1333.649ZM1244.209,1320.051L1244.209,1328.79C1241.736,1331.872 1238.894,1333.413 1235.685,1333.413C1231.295,1333.413 1229.1,1331.535 1229.1,1327.778C1229.1,1325.506 1230.114,1323.538 1232.142,1321.873C1234.17,1320.208 1236.789,1319.376 1239.997,1319.376C1240.8,1319.376 1242.204,1319.601 1244.209,1320.051ZM1195.573,1351.971C1201.612,1351.971 1206.08,1350.801 1208.977,1348.462C1211.874,1346.123 1213.323,1342.467 1213.323,1337.496L1213.323,1301.661L1199.852,1301.661L1199.852,1307.06L1206.972,1307.06L1206.972,1337.631C1206.972,1340.69 1206.164,1342.889 1204.548,1344.227C1202.933,1345.566 1199.941,1346.235 1195.573,1346.235L1195.573,1351.971ZM956.271,1320.355C956.606,1319.162 956.773,1317.858 956.773,1316.441C956.773,1311.829 955.369,1308.129 952.561,1305.339C949.664,1302.438 945.664,1300.987 940.561,1300.987C936.171,1300.987 932.371,1302.595 929.162,1305.812C925.574,1309.411 923.781,1314.191 923.781,1320.152C923.781,1325.888 925.53,1330.455 929.029,1333.852C932.171,1336.933 935.992,1338.474 940.494,1338.474C943.614,1338.474 946.444,1338.002 948.984,1337.057C951.012,1336.337 952.516,1335.482 953.497,1334.493L950.823,1329.87C948.394,1332.007 945.363,1333.076 941.731,1333.076C938.544,1333.076 935.937,1332.086 933.909,1330.106C931.614,1327.834 930.466,1324.584 930.466,1320.355L956.271,1320.355ZM940.862,1306.385C943.892,1306.385 946.288,1307.33 948.048,1309.22C949.653,1310.952 950.455,1313.111 950.455,1315.698L930.633,1315.698C930.878,1313.089 931.914,1310.907 933.742,1309.152C935.658,1307.308 938.031,1306.385 940.862,1306.385ZM1309.859,1337.766L1316.21,1337.766L1316.21,1286.849L1309.859,1286.849L1309.859,1303.619C1307.943,1301.864 1305.135,1300.987 1301.436,1300.987C1297.001,1300.987 1293.179,1302.904 1289.97,1306.74C1286.761,1310.575 1285.157,1315.203 1285.157,1320.625C1285.157,1326.023 1286.55,1330.342 1289.335,1333.582C1292.121,1336.821 1295.753,1338.441 1300.232,1338.441C1304.444,1338.441 1307.653,1337.327 1309.859,1335.1L1309.859,1337.766ZM1309.859,1310.03L1309.859,1330.072C1309.503,1330.792 1308.623,1331.473 1307.219,1332.114C1305.815,1332.755 1304.611,1333.076 1303.609,1333.076C1295.764,1333.076 1291.842,1328.723 1291.842,1320.017C1291.842,1316.058 1292.895,1312.796 1295.001,1310.232C1297.107,1307.668 1299.865,1306.385 1303.274,1306.385C1306.06,1306.385 1308.255,1307.6 1309.859,1310.03ZM1280.009,1307.836L1282.65,1301.594C1280.511,1301.189 1278.873,1300.987 1277.736,1300.987C1273.168,1300.987 1269.725,1303.135 1267.407,1307.431L1267.407,1301.661L1261.056,1301.661L1261.056,1337.799L1267.407,1337.799L1267.407,1317.082C1267.407,1314.135 1268.249,1311.615 1269.931,1309.523C1271.614,1307.431 1273.58,1306.385 1275.831,1306.385C1277.235,1306.385 1278.628,1306.869 1280.009,1307.836ZM1052.707,1335.64C1056.028,1337.529 1059.571,1338.474 1063.337,1338.474C1067.326,1338.474 1070.446,1337.558 1072.697,1335.724C1074.947,1333.891 1076.073,1331.355 1076.073,1328.115C1076.073,1325.641 1075.438,1323.583 1074.167,1321.941C1072.897,1320.298 1070.869,1318.836 1068.084,1317.554L1063.538,1315.462C1060.93,1314.27 1059.627,1312.515 1059.627,1310.198C1059.627,1309.096 1060.145,1308.185 1061.181,1307.465C1062.217,1306.745 1063.493,1306.385 1065.009,1306.385C1067.549,1306.385 1070.078,1307.398 1072.596,1309.422L1074.401,1303.484C1070.435,1301.819 1067.148,1300.987 1064.541,1300.987C1061.086,1300.987 1058.29,1301.819 1056.15,1303.484C1054.011,1305.148 1052.941,1307.465 1052.941,1310.434C1052.941,1311.582 1053.125,1312.656 1053.493,1313.657C1053.861,1314.658 1054.418,1315.603 1055.164,1316.491C1055.911,1317.38 1056.791,1318.173 1057.805,1318.87C1058.819,1319.567 1060.786,1320.591 1063.705,1321.941C1067.493,1323.65 1069.387,1325.697 1069.387,1328.082C1069.387,1331.411 1067.426,1333.076 1063.504,1333.076C1061.343,1333.076 1058.49,1331.906 1054.947,1329.566L1052.707,1335.64ZM993.442,1306.723L993.442,1327.238C993.442,1330.477 994.417,1333.16 996.367,1335.286C998.317,1337.411 1000.707,1338.474 1003.537,1338.474C1006.679,1338.474 1009.565,1338.137 1012.194,1337.462L1011.258,1331.827C1009.52,1332.659 1007.838,1333.076 1006.211,1333.076C1003.96,1333.076 1002.328,1332.434 1001.314,1331.152C1000.3,1329.87 999.793,1327.71 999.793,1324.674L999.793,1306.723L1009.62,1306.723L1009.62,1301.661L999.793,1301.661L999.793,1291.64L993.442,1294.103L993.442,1301.661L989.297,1301.661L989.297,1306.723L993.442,1306.723ZM961.118,1335.64C964.439,1337.529 967.982,1338.474 971.748,1338.474C975.737,1338.474 978.857,1337.558 981.107,1335.724C983.358,1333.891 984.484,1331.355 984.484,1328.115C984.484,1325.641 983.848,1323.583 982.578,1321.941C981.308,1320.298 979.28,1318.836 976.495,1317.554L971.948,1315.462C969.341,1314.27 968.038,1312.515 968.038,1310.198C968.038,1309.096 968.556,1308.185 969.592,1307.465C970.628,1306.745 971.904,1306.385 973.419,1306.385C975.96,1306.385 978.489,1307.398 981.007,1309.422L982.812,1303.484C978.846,1301.819 975.559,1300.987 972.951,1300.987C969.497,1300.987 966.7,1301.819 964.561,1303.484C962.422,1305.148 961.352,1307.465 961.352,1310.434C961.352,1311.582 961.536,1312.656 961.904,1313.657C962.271,1314.658 962.829,1315.603 963.575,1316.491C964.322,1317.38 965.202,1318.173 966.216,1318.87C967.23,1319.567 969.196,1320.591 972.116,1321.941C975.904,1323.65 977.798,1325.697 977.798,1328.082C977.798,1331.411 975.837,1333.076 971.915,1333.076C969.753,1333.076 966.901,1331.906 963.358,1329.566L961.118,1335.64ZM1015.971,1319.646C1015.971,1325.405 1017.398,1329.982 1020.25,1333.379C1023.103,1336.776 1027.08,1338.474 1032.183,1338.474C1037.175,1338.474 1041.12,1336.793 1044.017,1333.43C1046.914,1330.067 1048.362,1325.472 1048.362,1319.646C1048.362,1313.797 1046.947,1309.225 1044.117,1305.93C1041.287,1302.634 1037.309,1300.987 1032.183,1300.987C1027.325,1300.987 1023.409,1302.702 1020.434,1306.132C1017.459,1309.563 1015.971,1314.067 1015.971,1319.646ZM1022.657,1319.646C1022.657,1315.462 1023.52,1312.178 1025.247,1309.793C1026.974,1307.409 1029.286,1306.217 1032.183,1306.217C1038.512,1306.217 1041.677,1310.693 1041.677,1319.646C1041.677,1323.853 1040.835,1327.171 1039.153,1329.6C1037.47,1332.03 1035.147,1333.244 1032.183,1333.244C1025.832,1333.244 1022.657,1328.712 1022.657,1319.646ZM1209.278,1287.996C1208.186,1287.996 1207.262,1288.378 1206.504,1289.143C1205.746,1289.908 1205.367,1290.841 1205.367,1291.944C1205.367,1293.046 1205.746,1293.985 1206.504,1294.761C1207.262,1295.537 1208.186,1295.925 1209.278,1295.925C1210.37,1295.925 1211.301,1295.537 1212.069,1294.761C1212.838,1293.985 1213.223,1293.046 1213.223,1291.944C1213.223,1290.864 1212.838,1289.936 1212.069,1289.16C1211.301,1288.384 1210.37,1287.996 1209.278,1287.996ZM1366.852,1337.799L1373.203,1337.799L1373.203,1315.428C1373.203,1305.801 1369.281,1300.987 1361.437,1300.987C1356.69,1300.987 1353.27,1302.764 1351.175,1306.318L1349.169,1301.661L1344.824,1301.661L1344.824,1337.799L1351.175,1337.799L1351.175,1310.941C1352.022,1309.658 1353.236,1308.579 1354.818,1307.701C1356.401,1306.824 1357.916,1306.385 1359.364,1306.385C1362.061,1306.385 1363.983,1307.156 1365.13,1308.697C1366.278,1310.238 1366.852,1312.931 1366.852,1316.778L1366.852,1337.799ZM1412.379,1320.355C1412.713,1319.162 1412.881,1317.858 1412.881,1316.441C1412.881,1311.829 1411.477,1308.129 1408.669,1305.339C1405.772,1302.438 1401.772,1300.987 1396.669,1300.987C1392.279,1300.987 1388.479,1302.595 1385.27,1305.812C1381.682,1309.411 1379.888,1314.191 1379.888,1320.152C1379.888,1325.888 1381.638,1330.455 1385.136,1333.852C1388.278,1336.933 1392.1,1338.474 1396.602,1338.474C1399.722,1338.474 1402.552,1338.002 1405.092,1337.057C1407.12,1336.337 1408.624,1335.482 1409.605,1334.493L1406.931,1329.87C1404.502,1332.007 1401.471,1333.076 1397.839,1333.076C1394.652,1333.076 1392.045,1332.086 1390.017,1330.106C1387.721,1327.834 1386.574,1324.584 1386.574,1320.355L1412.379,1320.355ZM1396.969,1306.385C1400,1306.385 1402.396,1307.33 1404.156,1309.22C1405.761,1310.952 1406.563,1313.111 1406.563,1315.698L1386.741,1315.698C1386.986,1313.089 1388.022,1310.907 1389.85,1309.152C1391.766,1307.308 1394.139,1306.385 1396.969,1306.385ZM1331.854,1287.996C1330.762,1287.996 1329.837,1288.378 1329.08,1289.143C1328.322,1289.908 1327.943,1290.841 1327.943,1291.944C1327.943,1293.046 1328.328,1293.985 1329.096,1294.761C1329.865,1295.537 1330.785,1295.925 1331.854,1295.925C1332.946,1295.925 1333.876,1295.537 1334.645,1294.761C1335.414,1293.985 1335.799,1293.046 1335.799,1291.944C1335.799,1290.864 1335.414,1289.936 1334.645,1289.16C1333.876,1288.384 1332.946,1287.996 1331.854,1287.996ZM1328.378,1337.799L1334.729,1337.799L1334.729,1301.661L1323.464,1301.661L1323.464,1307.06L1328.378,1307.06L1328.378,1337.799ZM1459.711,1283.204L1453.126,1283.204L1447.477,1294.441L1452.157,1294.441L1459.711,1283.204ZM1544.983,1337.766L1551.334,1337.766L1551.334,1286.849L1544.983,1286.849L1544.983,1303.619C1543.067,1301.864 1540.259,1300.987 1536.56,1300.987C1532.125,1300.987 1528.303,1302.904 1525.094,1306.74C1521.885,1310.575 1520.281,1315.203 1520.281,1320.625C1520.281,1326.023 1521.673,1330.342 1524.459,1333.582C1527.245,1336.821 1530.877,1338.441 1535.356,1338.441C1539.568,1338.441 1542.777,1337.327 1544.983,1335.1L1544.983,1337.766ZM1544.983,1310.03L1544.983,1330.072C1544.626,1330.792 1543.746,1331.473 1542.342,1332.114C1540.938,1332.755 1539.735,1333.076 1538.732,1333.076C1530.888,1333.076 1526.966,1328.723 1526.966,1320.017C1526.966,1316.058 1528.019,1312.796 1530.125,1310.232C1532.231,1307.668 1534.988,1306.385 1538.398,1306.385C1541.184,1306.385 1543.379,1307.6 1544.983,1310.03ZM1485.918,1333.649C1486.475,1335.359 1487.394,1336.585 1488.676,1337.327C1489.957,1338.069 1491.89,1338.441 1494.475,1338.441L1494.475,1335.235C1492.603,1334.178 1491.667,1332.063 1491.667,1328.891L1491.667,1315.934C1491.667,1310.738 1490.492,1306.948 1488.141,1304.563C1485.79,1302.179 1482.018,1300.987 1476.826,1300.987C1474.887,1300.987 1472.854,1301.341 1470.726,1302.05C1468.597,1302.758 1466.932,1303.607 1465.728,1304.597L1468.402,1309.962C1470.542,1307.803 1473.595,1306.723 1477.561,1306.723C1482.731,1306.723 1485.316,1309.647 1485.316,1315.496C1483.623,1314.911 1482.107,1314.618 1480.77,1314.618C1475.845,1314.618 1471.795,1315.884 1468.62,1318.415C1465.444,1320.945 1463.856,1324.044 1463.856,1327.71C1463.856,1330.77 1464.887,1333.329 1466.948,1335.387C1469.01,1337.445 1471.444,1338.474 1474.252,1338.474C1479.489,1338.474 1483.378,1336.866 1485.918,1333.649ZM1485.316,1320.051L1485.316,1328.79C1482.843,1331.872 1480.001,1333.413 1476.792,1333.413C1472.402,1333.413 1470.207,1331.535 1470.207,1327.778C1470.207,1325.506 1471.221,1323.538 1473.249,1321.873C1475.277,1320.208 1477.896,1319.376 1481.105,1319.376C1481.907,1319.376 1483.311,1319.601 1485.316,1320.051ZM1449.249,1337.799L1455.7,1337.799L1455.7,1301.661L1444.335,1301.661L1444.335,1307.06L1449.249,1307.06L1449.249,1337.799ZM1439.02,1307.836L1441.661,1301.594C1439.522,1301.189 1437.884,1300.987 1436.747,1300.987C1432.179,1300.987 1428.736,1303.135 1426.418,1307.431L1426.418,1301.661L1420.067,1301.661L1420.067,1337.799L1426.418,1337.799L1426.418,1317.082C1426.418,1314.135 1427.26,1311.615 1428.942,1309.523C1430.625,1307.431 1432.591,1306.385 1434.842,1306.385C1436.246,1306.385 1437.639,1306.869 1439.02,1307.836ZM1126.079,1337.766L1132.43,1337.766L1132.43,1286.849L1126.079,1286.849L1126.079,1303.619C1124.163,1301.864 1121.355,1300.987 1117.656,1300.987C1113.221,1300.987 1109.399,1302.904 1106.19,1306.74C1102.981,1310.575 1101.377,1315.203 1101.377,1320.625C1101.377,1326.023 1102.77,1330.342 1105.555,1333.582C1108.341,1336.821 1111.973,1338.441 1116.452,1338.441C1120.664,1338.441 1123.873,1337.327 1126.079,1335.1L1126.079,1337.766ZM1126.079,1310.03L1126.079,1330.072C1125.723,1330.792 1124.842,1331.473 1123.438,1332.114C1122.035,1332.755 1120.831,1333.076 1119.828,1333.076C1111.984,1333.076 1108.062,1328.723 1108.062,1320.017C1108.062,1316.058 1109.115,1312.796 1111.221,1310.232C1113.327,1307.668 1116.085,1306.385 1119.494,1306.385C1122.28,1306.385 1124.475,1307.6 1126.079,1310.03ZM1171.673,1320.355C1172.008,1319.162 1172.175,1317.858 1172.175,1316.441C1172.175,1311.829 1170.771,1308.129 1167.963,1305.339C1165.066,1302.438 1161.066,1300.987 1155.963,1300.987C1151.573,1300.987 1147.773,1302.595 1144.564,1305.812C1140.976,1309.411 1139.182,1314.191 1139.182,1320.152C1139.182,1325.888 1140.932,1330.455 1144.43,1333.852C1147.573,1336.933 1151.394,1338.474 1155.896,1338.474C1159.016,1338.474 1161.846,1338.002 1164.386,1337.057C1166.414,1336.337 1167.918,1335.482 1168.899,1334.493L1166.225,1329.87C1163.796,1332.007 1160.765,1333.076 1157.133,1333.076C1153.946,1333.076 1151.339,1332.086 1149.311,1330.106C1147.015,1327.834 1145.868,1324.584 1145.868,1320.355L1171.673,1320.355ZM1156.264,1306.385C1159.294,1306.385 1161.69,1307.33 1163.45,1309.22C1165.055,1310.952 1165.857,1313.111 1165.857,1315.698L1146.035,1315.698C1146.28,1313.089 1147.316,1310.907 1149.144,1309.152C1151.06,1307.308 1153.433,1306.385 1156.264,1306.385ZM417.027,1918.4C417.027,1918.4 423.645,1907.186 426.054,1901.918C428.281,1897.05 429.496,1891.767 431.482,1886.794C433.917,1880.693 437.356,1872.358 440.668,1865.311C444.018,1858.186 448.631,1849.596 451.579,1844.044C453.741,1839.973 456.154,1835.825 458.36,1831.997C460.471,1828.333 464.014,1821.062 464.815,1821.076C465.615,1821.091 464.054,1828.484 463.164,1832.085C461.868,1837.331 459.248,1845.902 457.035,1852.554C454.855,1859.106 452.533,1865.73 449.888,1871.995C447.277,1878.182 443.531,1884.861 441.165,1890.146C439.175,1894.592 437.31,1899.625 435.697,1903.703C434.263,1907.327 430.552,1913.532 431.484,1914.611C432.416,1915.69 437.902,1911.352 441.288,1910.175C446.81,1908.255 458.165,1906.302 464.615,1903.092C470.457,1900.185 476.557,1896.506 479.987,1890.917C483.448,1885.278 484.349,1876.629 485.379,1869.259C486.595,1860.558 488.359,1847.203 487.283,1838.712C486.357,1831.413 481.447,1823.531 478.919,1818.314C477.048,1814.455 474.84,1808.903 472.11,1807.411C469.38,1805.918 465.59,1808.214 462.539,1809.359C457.875,1811.108 449.84,1814.65 444.128,1817.908C438.542,1821.093 432.918,1824.45 428.263,1828.906C423.142,1833.808 417.132,1840.357 413.398,1847.321C409.367,1854.839 404.584,1865.479 404.076,1874.013C403.574,1882.436 410.349,1898.524 410.349,1898.524L417.027,1918.4ZM694.891,209.861L667.782,226.238C669.151,228.726 670.657,231.145 672.3,233.494C673.943,235.844 675.723,237.986 677.64,239.921C682.569,244.897 688.148,248.697 694.378,251.323C700.607,253.949 707.213,255.262 714.196,255.262C721.179,255.262 727.785,253.949 734.015,251.323C740.244,248.697 745.824,244.897 750.753,239.921C755.545,235.084 759.344,229.486 762.151,223.129C764.958,216.771 766.361,210.068 766.361,203.02L766.361,89.62L734.528,89.62L734.528,100.814C730.558,96.806 725.971,93.662 720.768,91.382C715.565,89.101 709.883,87.961 703.722,87.961C695.918,87.961 688.798,89.274 682.363,91.9C675.928,94.526 670.451,98.189 665.933,102.888C661.415,107.587 657.924,113.219 655.459,119.784C652.995,126.348 651.762,133.639 651.762,141.655C651.762,149.533 652.995,156.754 655.459,163.319C657.924,169.884 661.415,175.482 665.933,180.111C670.451,184.741 675.928,188.369 682.363,190.995C688.798,193.621 695.918,194.934 703.722,194.934C710.02,194.934 715.736,194.001 720.871,192.136C726.005,190.27 730.558,187.54 734.528,183.947L734.528,203.02C734.528,205.922 734.015,208.651 732.988,211.208C731.961,213.765 730.523,216.011 728.675,217.946C726.827,219.881 724.67,221.401 722.206,222.507C719.741,223.613 717.071,224.165 714.196,224.165C709.541,224.165 705.502,222.818 702.079,220.123C698.656,217.428 696.26,214.007 694.891,209.861ZM691.194,162.179C688.456,159.415 686.505,156.271 685.341,152.746C684.177,149.222 683.595,145.525 683.595,141.655C683.595,137.647 684.177,133.846 685.341,130.253C686.505,126.659 688.456,123.481 691.194,120.716C693.933,117.952 696.739,115.845 699.615,114.393C702.49,112.942 705.913,112.217 709.883,112.217C713.717,112.217 717.414,112.942 720.973,114.393C724.533,115.845 727.682,117.952 730.421,120.716C732.201,122.513 733.57,124.379 734.528,126.314L734.528,156.374C733.57,158.309 732.201,160.175 730.421,161.972C724.67,167.776 717.824,170.679 709.883,170.679C705.913,170.679 702.49,169.953 699.615,168.502C696.739,167.051 693.933,164.943 691.194,162.179ZM1262.193,1500.302C1261.101,1500.302 1260.176,1500.685 1259.418,1501.449C1258.661,1502.214 1258.282,1503.148 1258.282,1504.25C1258.282,1505.352 1258.666,1506.291 1259.435,1507.067C1260.204,1507.843 1261.123,1508.232 1262.193,1508.232C1263.285,1508.232 1264.215,1507.843 1264.984,1507.067C1265.753,1506.291 1266.137,1505.352 1266.137,1504.25C1266.137,1503.17 1265.753,1502.242 1264.984,1501.466C1264.215,1500.69 1263.285,1500.302 1262.193,1500.302ZM1258.716,1550.106L1265.068,1550.106L1265.068,1513.968L1253.803,1513.968L1253.803,1519.366L1258.716,1519.366L1258.716,1550.106ZM1316.612,1550.106L1322.963,1550.106L1322.963,1525.946C1322.963,1521.942 1321.949,1518.832 1319.921,1516.616C1317.893,1514.401 1315.029,1513.293 1311.33,1513.293C1309.28,1513.293 1307.286,1513.754 1305.347,1514.676C1303.408,1515.599 1302.082,1516.746 1301.369,1518.118C1299.319,1514.901 1295.731,1513.293 1290.606,1513.293C1286.929,1513.293 1283.865,1514.912 1281.413,1518.152L1279.307,1513.968L1275.162,1513.968L1275.162,1550.106L1281.513,1550.106L1281.513,1523.449C1282.115,1522.257 1283.135,1521.166 1284.572,1520.176C1286.009,1519.187 1287.363,1518.692 1288.633,1518.692C1290.817,1518.692 1292.572,1519.203 1293.898,1520.227C1295.224,1521.25 1295.887,1522.651 1295.887,1524.428L1295.887,1550.106L1302.238,1550.106L1302.238,1523.382C1302.728,1522.167 1303.642,1521.082 1304.979,1520.126C1306.316,1519.17 1307.753,1518.692 1309.291,1518.692C1314.171,1518.692 1316.612,1521.537 1316.612,1527.228L1316.612,1550.106ZM1362.139,1532.661C1362.473,1531.469 1362.64,1530.164 1362.64,1528.747C1362.64,1524.135 1361.236,1520.435 1358.428,1517.646C1355.531,1514.744 1351.531,1513.293 1346.428,1513.293C1342.038,1513.293 1338.239,1514.901 1335.03,1518.118C1331.442,1521.717 1329.648,1526.497 1329.648,1532.458C1329.648,1538.195 1331.397,1542.761 1334.896,1546.158C1338.038,1549.24 1341.86,1550.781 1346.361,1550.781C1349.481,1550.781 1352.311,1550.308 1354.852,1549.363C1356.88,1548.643 1358.384,1547.789 1359.364,1546.799L1356.69,1542.176C1354.261,1544.313 1351.231,1545.382 1347.598,1545.382C1344.411,1545.382 1341.804,1544.392 1339.776,1542.412C1337.481,1540.14 1336.333,1536.89 1336.333,1532.661L1362.139,1532.661ZM1346.729,1518.692C1349.76,1518.692 1352.155,1519.636 1353.916,1521.526C1355.52,1523.258 1356.323,1525.418 1356.323,1528.004L1336.5,1528.004C1336.746,1525.395 1337.782,1523.213 1339.609,1521.458C1341.526,1519.614 1343.899,1518.692 1346.729,1518.692ZM1391.354,1550.106L1397.705,1550.106L1397.705,1527.735C1397.705,1518.107 1393.783,1513.293 1385.939,1513.293C1381.192,1513.293 1377.771,1515.07 1375.677,1518.624L1373.671,1513.968L1369.326,1513.968L1369.326,1550.106L1375.677,1550.106L1375.677,1523.247C1376.523,1521.965 1377.738,1520.885 1379.32,1520.008C1380.902,1519.13 1382.418,1518.692 1383.866,1518.692C1386.563,1518.692 1388.485,1519.462 1389.632,1521.003C1390.78,1522.544 1391.354,1525.238 1391.354,1529.084L1391.354,1550.106ZM1409.003,1519.029L1409.003,1539.544C1409.003,1542.784 1409.978,1545.466 1411.928,1547.592C1413.878,1549.718 1416.268,1550.781 1419.098,1550.781C1422.24,1550.781 1425.126,1550.443 1427.755,1549.768L1426.82,1544.133C1425.081,1544.966 1423.399,1545.382 1421.772,1545.382C1419.521,1545.382 1417.889,1544.741 1416.875,1543.458C1415.861,1542.176 1415.354,1540.017 1415.354,1536.98L1415.354,1519.029L1425.182,1519.029L1425.182,1513.968L1415.354,1513.968L1415.354,1503.946L1409.003,1506.409L1409.003,1513.968L1404.858,1513.968L1404.858,1519.029L1409.003,1519.029ZM1431.533,1531.952C1431.533,1537.711 1432.959,1542.289 1435.811,1545.685C1438.664,1549.082 1442.642,1550.781 1447.745,1550.781C1452.736,1550.781 1456.681,1549.099 1459.578,1545.736C1462.475,1542.373 1463.923,1537.778 1463.923,1531.952C1463.923,1526.104 1462.508,1521.532 1459.678,1518.236C1456.848,1514.941 1452.87,1513.293 1447.745,1513.293C1442.887,1513.293 1438.97,1515.008 1435.995,1518.439C1433.02,1521.869 1431.533,1526.374 1431.533,1531.952ZM1438.218,1531.952C1438.218,1527.768 1439.082,1524.484 1440.809,1522.1C1442.536,1519.715 1444.848,1518.523 1447.745,1518.523C1454.073,1518.523 1457.238,1522.999 1457.238,1531.952C1457.238,1536.159 1456.397,1539.477 1454.714,1541.906C1453.032,1544.336 1450.709,1545.55 1447.745,1545.55C1441.394,1545.55 1438.218,1541.018 1438.218,1531.952ZM1468.269,1547.946C1471.589,1549.836 1475.132,1550.781 1478.898,1550.781C1482.887,1550.781 1486.007,1549.864 1488.258,1548.031C1490.509,1546.197 1491.634,1543.661 1491.634,1540.422C1491.634,1537.947 1490.999,1535.889 1489.729,1534.247C1488.458,1532.605 1486.431,1531.143 1483.645,1529.86L1479.099,1527.768C1476.492,1526.576 1475.188,1524.821 1475.188,1522.504C1475.188,1521.402 1475.706,1520.491 1476.742,1519.771C1477.779,1519.052 1479.054,1518.692 1480.57,1518.692C1483.11,1518.692 1485.639,1519.704 1488.158,1521.728L1489.963,1515.79C1485.996,1514.125 1482.709,1513.293 1480.102,1513.293C1476.648,1513.293 1473.851,1514.125 1471.712,1515.79C1469.572,1517.454 1468.503,1519.771 1468.503,1522.741C1468.503,1523.888 1468.687,1524.962 1469.054,1525.963C1469.422,1526.964 1469.979,1527.909 1470.726,1528.797C1471.472,1529.686 1472.352,1530.479 1473.366,1531.176C1474.38,1531.874 1476.347,1532.897 1479.266,1534.247C1483.054,1535.956 1484.949,1538.003 1484.949,1540.388C1484.949,1543.717 1482.988,1545.382 1479.066,1545.382C1476.904,1545.382 1474.052,1544.212 1470.508,1541.873L1468.269,1547.946ZM1545.952,1516.903C1544.927,1516.071 1543.334,1515.261 1541.172,1514.474C1539.011,1513.687 1537.005,1513.293 1535.156,1513.293C1529.406,1513.293 1524.877,1515.036 1521.568,1518.523C1518.258,1522.01 1516.604,1526.632 1516.604,1532.391C1516.604,1538.037 1518.197,1542.514 1521.384,1545.82C1524.57,1549.127 1528.604,1550.781 1533.484,1550.781C1538.521,1550.781 1542.743,1549.667 1546.153,1547.44L1543.646,1542.041C1540.749,1544.268 1537.874,1545.382 1535.022,1545.382C1531.345,1545.382 1528.47,1544.274 1526.398,1542.058C1524.325,1539.842 1523.289,1536.62 1523.289,1532.391C1523.289,1528.139 1524.303,1524.793 1526.331,1522.353C1528.359,1519.912 1531.1,1518.692 1534.554,1518.692C1536.136,1518.692 1537.746,1518.984 1539.384,1519.569C1541.022,1520.154 1542.164,1520.772 1542.81,1521.425L1545.952,1516.903ZM1572.293,1520.143L1574.933,1513.9C1572.794,1513.495 1571.156,1513.293 1570.02,1513.293C1565.451,1513.293 1562.008,1515.441 1559.691,1519.738L1559.691,1513.968L1553.34,1513.968L1553.34,1550.106L1559.691,1550.106L1559.691,1529.388C1559.691,1526.441 1560.532,1523.922 1562.215,1521.83C1563.897,1519.738 1565.864,1518.692 1568.114,1518.692C1569.518,1518.692 1570.911,1519.175 1572.293,1520.143ZM1585.463,1513.968L1579.112,1513.968L1579.112,1537.689C1579.112,1541.873 1580.154,1545.101 1582.237,1547.373C1584.321,1549.645 1587.324,1550.781 1591.246,1550.781C1593.296,1550.781 1595.396,1550.19 1597.547,1549.009C1599.697,1547.828 1601.129,1546.529 1601.842,1545.112L1601.842,1550.106L1608.193,1550.106L1608.193,1513.968L1601.842,1513.968L1601.842,1539.342C1601.285,1540.939 1600.137,1542.345 1598.399,1543.56C1596.661,1544.774 1594.744,1545.382 1592.65,1545.382C1587.858,1545.382 1585.463,1542.592 1585.463,1537.014L1585.463,1513.968ZM1639.547,1550.072L1645.898,1550.072L1645.898,1499.155L1639.547,1499.155L1639.547,1515.925C1637.631,1514.17 1634.823,1513.293 1631.124,1513.293C1626.689,1513.293 1622.867,1515.211 1619.658,1519.046C1616.449,1522.881 1614.845,1527.51 1614.845,1532.931C1614.845,1538.33 1616.238,1542.649 1619.023,1545.888C1621.809,1549.127 1625.441,1550.747 1629.92,1550.747C1634.132,1550.747 1637.341,1549.633 1639.547,1547.406L1639.547,1550.072ZM1639.547,1522.336L1639.547,1542.379C1639.191,1543.099 1638.31,1543.779 1636.907,1544.42C1635.503,1545.061 1634.299,1545.382 1633.296,1545.382C1625.452,1545.382 1621.53,1541.029 1621.53,1532.323C1621.53,1528.364 1622.583,1525.103 1624.689,1522.538C1626.795,1519.974 1629.553,1518.692 1632.962,1518.692C1635.748,1518.692 1637.943,1519.906 1639.547,1522.336ZM1652.651,1531.952C1652.651,1537.711 1654.077,1542.289 1656.929,1545.685C1659.782,1549.082 1663.759,1550.781 1668.863,1550.781C1673.854,1550.781 1677.799,1549.099 1680.696,1545.736C1683.593,1542.373 1685.041,1537.778 1685.041,1531.952C1685.041,1526.104 1683.626,1521.532 1680.796,1518.236C1677.966,1514.941 1673.988,1513.293 1668.863,1513.293C1664.005,1513.293 1660.088,1515.008 1657.113,1518.439C1654.138,1521.869 1652.651,1526.374 1652.651,1531.952ZM1659.336,1531.952C1659.336,1527.768 1660.199,1524.484 1661.926,1522.1C1663.654,1519.715 1665.966,1518.523 1668.863,1518.523C1675.191,1518.523 1678.356,1522.999 1678.356,1531.952C1678.356,1536.159 1677.514,1539.477 1675.832,1541.906C1674.15,1544.336 1671.826,1545.55 1668.863,1545.55C1662.511,1545.55 1659.336,1541.018 1659.336,1531.952ZM1689.387,1547.946C1692.707,1549.836 1696.25,1550.781 1700.016,1550.781C1704.005,1550.781 1707.125,1549.864 1709.376,1548.031C1711.626,1546.197 1712.752,1543.661 1712.752,1540.422C1712.752,1537.947 1712.117,1535.889 1710.847,1534.247C1709.576,1532.605 1707.548,1531.143 1704.763,1529.86L1700.217,1527.768C1697.61,1526.576 1696.306,1524.821 1696.306,1522.504C1696.306,1521.402 1696.824,1520.491 1697.86,1519.771C1698.896,1519.052 1700.172,1518.692 1701.688,1518.692C1704.228,1518.692 1706.757,1519.704 1709.275,1521.728L1711.081,1515.79C1707.114,1514.125 1703.827,1513.293 1701.22,1513.293C1697.766,1513.293 1694.969,1514.125 1692.83,1515.79C1690.69,1517.454 1689.621,1519.771 1689.621,1522.741C1689.621,1523.888 1689.804,1524.962 1690.172,1525.963C1690.54,1526.964 1691.097,1527.909 1691.843,1528.797C1692.59,1529.686 1693.47,1530.479 1694.484,1531.176C1695.498,1531.874 1697.465,1532.897 1700.384,1534.247C1704.172,1535.956 1706.066,1538.003 1706.066,1540.388C1706.066,1543.717 1704.105,1545.382 1700.183,1545.382C1698.022,1545.382 1695.169,1544.212 1691.626,1541.873L1689.387,1547.946ZM916.059,1597.142C915.034,1596.31 913.441,1595.5 911.279,1594.713C909.117,1593.926 907.112,1593.532 905.262,1593.532C899.513,1593.532 894.983,1595.275 891.674,1598.762C888.365,1602.249 886.71,1606.871 886.71,1612.63C886.71,1618.276 888.304,1622.753 891.49,1626.059C894.677,1629.366 898.711,1631.02 903.591,1631.02C908.627,1631.02 912.85,1629.906 916.26,1627.679L913.753,1622.28C910.856,1624.507 907.981,1625.621 905.128,1625.621C901.451,1625.621 898.577,1624.513 896.504,1622.297C894.432,1620.081 893.396,1616.859 893.396,1612.63C893.396,1608.379 894.41,1605.032 896.437,1602.592C898.465,1600.151 901.206,1598.931 904.66,1598.931C906.243,1598.931 907.853,1599.223 909.491,1599.808C911.129,1600.393 912.271,1601.011 912.917,1601.664L916.059,1597.142ZM920.605,1612.191C920.605,1617.95 922.031,1622.528 924.884,1625.924C927.736,1629.321 931.714,1631.02 936.817,1631.02C941.809,1631.02 945.753,1629.338 948.65,1625.975C951.547,1622.612 952.996,1618.018 952.996,1612.191C952.996,1606.343 951.58,1601.771 948.75,1598.475C945.92,1595.18 941.942,1593.532 936.817,1593.532C931.959,1593.532 928.042,1595.247 925.067,1598.678C922.093,1602.108 920.605,1606.613 920.605,1612.191ZM927.29,1612.191C927.29,1608.007 928.154,1604.723 929.881,1602.339C931.608,1599.954 933.92,1598.762 936.817,1598.762C943.146,1598.762 946.31,1603.238 946.31,1612.191C946.31,1616.398 945.469,1619.716 943.786,1622.145C942.104,1624.575 939.781,1625.79 936.817,1625.79C930.466,1625.79 927.29,1621.257 927.29,1612.191ZM1001.13,1630.345L1007.481,1630.345L1007.481,1606.185C1007.481,1602.181 1006.467,1599.071 1004.439,1596.856C1002.411,1594.64 999.548,1593.532 995.849,1593.532C993.798,1593.532 991.804,1593.993 989.865,1594.915C987.926,1595.838 986.601,1596.985 985.887,1598.357C983.837,1595.14 980.249,1593.532 975.124,1593.532C971.447,1593.532 968.383,1595.152 965.932,1598.391L963.826,1594.207L959.681,1594.207L959.681,1630.345L966.032,1630.345L966.032,1603.688C966.634,1602.496 967.653,1601.405 969.09,1600.415C970.528,1599.426 971.882,1598.931 973.152,1598.931C975.336,1598.931 977.091,1599.442 978.417,1600.466C979.742,1601.489 980.405,1602.89 980.405,1604.667L980.405,1630.345L986.757,1630.345L986.757,1603.621C987.247,1602.406 988.16,1601.321 989.498,1600.365C990.835,1599.409 992.272,1598.931 993.81,1598.931C998.69,1598.931 1001.13,1601.776 1001.13,1607.467L1001.13,1630.345ZM1014.166,1612.191C1014.166,1617.95 1015.593,1622.528 1018.445,1625.924C1021.297,1629.321 1025.275,1631.02 1030.378,1631.02C1035.37,1631.02 1039.315,1629.338 1042.211,1625.975C1045.108,1622.612 1046.557,1618.018 1046.557,1612.191C1046.557,1606.343 1045.142,1601.771 1042.312,1598.475C1039.482,1595.18 1035.504,1593.532 1030.378,1593.532C1025.52,1593.532 1021.604,1595.247 1018.629,1598.678C1015.654,1602.108 1014.166,1606.613 1014.166,1612.191ZM1020.852,1612.191C1020.852,1608.007 1021.715,1604.723 1023.442,1602.339C1025.169,1599.954 1027.481,1598.762 1030.378,1598.762C1036.707,1598.762 1039.872,1603.238 1039.872,1612.191C1039.872,1616.398 1039.03,1619.716 1037.348,1622.145C1035.665,1624.575 1033.342,1625.79 1030.378,1625.79C1024.027,1625.79 1020.852,1621.257 1020.852,1612.191ZM1100.875,1597.142C1099.85,1596.31 1098.257,1595.5 1096.095,1594.713C1093.934,1593.926 1091.928,1593.532 1090.079,1593.532C1084.329,1593.532 1079.8,1595.275 1076.491,1598.762C1073.181,1602.249 1071.527,1606.871 1071.527,1612.63C1071.527,1618.276 1073.12,1622.753 1076.307,1626.059C1079.493,1629.366 1083.527,1631.02 1088.407,1631.02C1093.444,1631.02 1097.666,1629.906 1101.076,1627.679L1098.569,1622.28C1095.672,1624.507 1092.797,1625.621 1089.945,1625.621C1086.268,1625.621 1083.393,1624.513 1081.321,1622.297C1079.248,1620.081 1078.212,1616.859 1078.212,1612.63C1078.212,1608.379 1079.226,1605.032 1081.254,1602.592C1083.282,1600.151 1086.023,1598.931 1089.477,1598.931C1091.059,1598.931 1092.669,1599.223 1094.307,1599.808C1095.945,1600.393 1097.087,1601.011 1097.733,1601.664L1100.875,1597.142ZM1127.984,1626.194C1128.542,1627.904 1129.461,1629.13 1130.742,1629.872C1132.024,1630.615 1133.957,1630.986 1136.542,1630.986L1136.542,1627.78C1134.67,1626.723 1133.734,1624.609 1133.734,1621.437L1133.734,1608.48C1133.734,1603.283 1132.558,1599.493 1130.207,1597.109C1127.856,1594.724 1124.085,1593.532 1118.892,1593.532C1116.954,1593.532 1114.92,1593.886 1112.792,1594.595C1110.664,1595.303 1108.998,1596.153 1107.795,1597.142L1110.469,1602.507C1112.608,1600.348 1115.661,1599.268 1119.628,1599.268C1124.798,1599.268 1127.383,1602.192 1127.383,1608.041C1125.689,1607.456 1124.174,1607.164 1122.837,1607.164C1117.912,1607.164 1113.862,1608.429 1110.686,1610.96C1107.511,1613.49 1105.923,1616.589 1105.923,1620.256C1105.923,1623.315 1106.954,1625.874 1109.015,1627.932C1111.076,1629.99 1113.511,1631.02 1116.319,1631.02C1121.555,1631.02 1125.444,1629.411 1127.984,1626.194ZM1127.383,1612.596L1127.383,1621.336C1124.909,1624.417 1122.068,1625.958 1118.859,1625.958C1114.469,1625.958 1112.274,1624.08 1112.274,1620.323C1112.274,1618.051 1113.288,1616.083 1115.316,1614.418C1117.344,1612.754 1119.962,1611.921 1123.171,1611.921C1123.973,1611.921 1125.377,1612.146 1127.383,1612.596ZM1141.389,1628.185C1144.709,1630.075 1148.252,1631.02 1152.018,1631.02C1156.007,1631.02 1159.127,1630.103 1161.378,1628.27C1163.629,1626.436 1164.754,1623.9 1164.754,1620.661C1164.754,1618.186 1164.119,1616.128 1162.849,1614.486C1161.578,1612.844 1159.55,1611.382 1156.765,1610.099L1152.219,1608.007C1149.612,1606.815 1148.308,1605.061 1148.308,1602.744C1148.308,1601.641 1148.826,1600.73 1149.862,1600.01C1150.899,1599.291 1152.174,1598.931 1153.69,1598.931C1156.23,1598.931 1158.759,1599.943 1161.278,1601.967L1163.083,1596.029C1159.116,1594.364 1155.829,1593.532 1153.222,1593.532C1149.768,1593.532 1146.971,1594.364 1144.832,1596.029C1142.692,1597.693 1141.623,1600.01 1141.623,1602.98C1141.623,1604.127 1141.806,1605.201 1142.174,1606.202C1142.542,1607.203 1143.099,1608.148 1143.845,1609.036C1144.592,1609.925 1145.472,1610.718 1146.486,1611.415C1147.5,1612.113 1149.467,1613.136 1152.386,1614.486C1156.174,1616.195 1158.069,1618.243 1158.069,1620.627C1158.069,1623.956 1156.108,1625.621 1152.185,1625.621C1150.024,1625.621 1147.171,1624.451 1143.628,1622.112L1141.389,1628.185ZM1198.448,1597.142C1197.423,1596.31 1195.83,1595.5 1193.668,1594.713C1191.506,1593.926 1189.501,1593.532 1187.651,1593.532C1181.902,1593.532 1177.372,1595.275 1174.063,1598.762C1170.754,1602.249 1169.099,1606.871 1169.099,1612.63C1169.099,1618.276 1170.693,1622.753 1173.879,1626.059C1177.066,1629.366 1181.1,1631.02 1185.98,1631.02C1191.016,1631.02 1195.239,1629.906 1198.649,1627.679L1196.142,1622.28C1193.245,1624.507 1190.37,1625.621 1187.518,1625.621C1183.841,1625.621 1180.966,1624.513 1178.893,1622.297C1176.821,1620.081 1175.785,1616.859 1175.785,1612.63C1175.785,1608.379 1176.799,1605.032 1178.827,1602.592C1180.854,1600.151 1183.595,1598.931 1187.05,1598.931C1188.632,1598.931 1190.242,1599.223 1191.88,1599.808C1193.518,1600.393 1194.66,1601.011 1195.306,1601.664L1198.448,1597.142ZM1225.557,1626.194C1226.114,1627.904 1227.033,1629.13 1228.315,1629.872C1229.596,1630.615 1231.529,1630.986 1234.114,1630.986L1234.114,1627.78C1232.242,1626.723 1231.307,1624.609 1231.307,1621.437L1231.307,1608.48C1231.307,1603.283 1230.131,1599.493 1227.78,1597.109C1225.429,1594.724 1221.657,1593.532 1216.465,1593.532C1214.526,1593.532 1212.493,1593.886 1210.365,1594.595C1208.237,1595.303 1206.571,1596.153 1205.367,1597.142L1208.042,1602.507C1210.181,1600.348 1213.234,1599.268 1217.2,1599.268C1222.37,1599.268 1224.955,1602.192 1224.955,1608.041C1223.262,1607.456 1221.746,1607.164 1220.409,1607.164C1215.485,1607.164 1211.434,1608.429 1208.259,1610.96C1205.083,1613.49 1203.495,1616.589 1203.495,1620.256C1203.495,1623.315 1204.526,1625.874 1206.587,1627.932C1208.649,1629.99 1211.083,1631.02 1213.891,1631.02C1219.128,1631.02 1223.017,1629.411 1225.557,1626.194ZM1224.955,1612.596L1224.955,1621.336C1222.482,1624.417 1219.641,1625.958 1216.432,1625.958C1212.042,1625.958 1209.847,1624.08 1209.847,1620.323C1209.847,1618.051 1210.861,1616.083 1212.888,1614.418C1214.916,1612.754 1217.535,1611.921 1220.744,1611.921C1221.546,1611.921 1222.95,1612.146 1224.955,1612.596ZM1260.755,1600.382L1263.396,1594.139C1261.257,1593.734 1259.619,1593.532 1258.482,1593.532C1253.914,1593.532 1250.471,1595.68 1248.154,1599.977L1248.154,1594.207L1241.803,1594.207L1241.803,1630.345L1248.154,1630.345L1248.154,1609.627C1248.154,1606.68 1248.995,1604.161 1250.677,1602.069C1252.36,1599.977 1254.326,1598.931 1256.577,1598.931C1257.981,1598.931 1259.374,1599.414 1260.755,1600.382ZM1288.132,1626.194C1288.689,1627.904 1289.608,1629.13 1290.89,1629.872C1292.171,1630.615 1294.104,1630.986 1296.689,1630.986L1296.689,1627.78C1294.817,1626.723 1293.881,1624.609 1293.881,1621.437L1293.881,1608.48C1293.881,1603.283 1292.706,1599.493 1290.355,1597.109C1288.004,1594.724 1284.232,1593.532 1279.04,1593.532C1277.101,1593.532 1275.068,1593.886 1272.94,1594.595C1270.811,1595.303 1269.146,1596.153 1267.942,1597.142L1270.616,1602.507C1272.756,1600.348 1275.809,1599.268 1279.775,1599.268C1284.945,1599.268 1287.53,1602.192 1287.53,1608.041C1285.837,1607.456 1284.321,1607.164 1282.984,1607.164C1278.059,1607.164 1274.009,1608.429 1270.834,1610.96C1267.658,1613.49 1266.07,1616.589 1266.07,1620.256C1266.07,1623.315 1267.101,1625.874 1269.162,1627.932C1271.224,1629.99 1273.658,1631.02 1276.466,1631.02C1281.703,1631.02 1285.592,1629.411 1288.132,1626.194ZM1287.53,1612.596L1287.53,1621.336C1285.057,1624.417 1282.215,1625.958 1279.006,1625.958C1274.616,1625.958 1272.421,1624.08 1272.421,1620.323C1272.421,1618.051 1273.435,1616.083 1275.463,1614.418C1277.491,1612.754 1280.11,1611.921 1283.319,1611.921C1284.121,1611.921 1285.525,1612.146 1287.53,1612.596ZM1301.536,1628.185C1304.857,1630.075 1308.4,1631.02 1312.166,1631.02C1316.155,1631.02 1319.275,1630.103 1321.525,1628.27C1323.776,1626.436 1324.901,1623.9 1324.901,1620.661C1324.901,1618.186 1324.266,1616.128 1322.996,1614.486C1321.726,1612.844 1319.698,1611.382 1316.912,1610.099L1312.366,1608.007C1309.759,1606.815 1308.455,1605.061 1308.455,1602.744C1308.455,1601.641 1308.974,1600.73 1310.01,1600.01C1311.046,1599.291 1312.322,1598.931 1313.837,1598.931C1316.378,1598.931 1318.907,1599.943 1321.425,1601.967L1323.23,1596.029C1319.263,1594.364 1315.976,1593.532 1313.369,1593.532C1309.915,1593.532 1307.118,1594.364 1304.979,1596.029C1302.84,1597.693 1301.77,1600.01 1301.77,1602.98C1301.77,1604.127 1301.954,1605.201 1302.322,1606.202C1302.689,1607.203 1303.246,1608.148 1303.993,1609.036C1304.74,1609.925 1305.62,1610.718 1306.634,1611.415C1307.648,1612.113 1309.614,1613.136 1312.534,1614.486C1316.322,1616.195 1318.216,1618.243 1318.216,1620.627C1318.216,1623.956 1316.255,1625.621 1312.333,1625.621C1310.171,1625.621 1307.319,1624.451 1303.776,1622.112L1301.536,1628.185ZM1374.908,1630.311L1381.259,1630.311L1381.259,1579.394L1374.908,1579.394L1374.908,1596.164C1372.991,1594.409 1370.183,1593.532 1366.484,1593.532C1362.05,1593.532 1358.228,1595.45 1355.019,1599.285C1351.81,1603.12 1350.205,1607.749 1350.205,1613.17C1350.205,1618.569 1351.598,1622.888 1354.384,1626.127C1357.169,1629.366 1360.802,1630.986 1365.281,1630.986C1369.493,1630.986 1372.702,1629.872 1374.908,1627.645L1374.908,1630.311ZM1374.908,1602.575L1374.908,1622.618C1374.551,1623.338 1373.671,1624.018 1372.267,1624.659C1370.863,1625.3 1369.66,1625.621 1368.657,1625.621C1360.813,1625.621 1356.891,1621.268 1356.891,1612.563C1356.891,1608.603 1357.944,1605.342 1360.05,1602.777C1362.156,1600.213 1364.913,1598.931 1368.323,1598.931C1371.108,1598.931 1373.303,1600.145 1374.908,1602.575ZM1590.577,1320.355C1590.911,1319.162 1591.079,1317.858 1591.079,1316.441C1591.079,1311.829 1589.675,1308.129 1586.867,1305.339C1583.97,1302.438 1579.97,1300.987 1574.867,1300.987C1570.477,1300.987 1566.677,1302.595 1563.468,1305.812C1559.88,1309.411 1558.086,1314.191 1558.086,1320.152C1558.086,1325.888 1559.836,1330.455 1563.334,1333.852C1566.476,1336.933 1570.298,1338.474 1574.8,1338.474C1577.92,1338.474 1580.75,1338.002 1583.29,1337.057C1585.318,1336.337 1586.822,1335.482 1587.803,1334.493L1585.129,1329.87C1582.7,1332.007 1579.669,1333.076 1576.036,1333.076C1572.85,1333.076 1570.243,1332.086 1568.215,1330.106C1565.919,1327.834 1564.772,1324.584 1564.772,1320.355L1590.577,1320.355ZM1575.167,1306.385C1578.198,1306.385 1580.594,1307.33 1582.354,1309.22C1583.959,1310.952 1584.761,1313.111 1584.761,1315.698L1564.939,1315.698C1565.184,1313.089 1566.22,1310.907 1568.047,1309.152C1569.964,1307.308 1572.337,1306.385 1575.167,1306.385ZM1624.739,1335.809C1625.229,1336.506 1626.338,1337.125 1628.065,1337.664C1629.792,1338.204 1631.413,1338.474 1632.929,1338.474C1638.322,1338.474 1642.444,1336.737 1645.297,1333.261C1648.149,1329.786 1649.575,1325.304 1649.575,1319.815C1649.575,1313.651 1648.16,1308.972 1645.33,1305.778C1642.5,1302.584 1638.544,1300.987 1633.464,1300.987C1630.054,1300.987 1627.146,1302.201 1624.739,1304.631L1624.739,1301.661L1618.388,1301.661L1618.388,1351.971L1624.739,1351.971L1624.739,1335.809ZM1624.739,1309.456C1625.497,1308.669 1626.522,1307.96 1627.814,1307.33C1629.107,1306.7 1630.199,1306.385 1631.09,1306.385C1635.213,1306.385 1638.21,1307.443 1640.082,1309.557C1641.954,1311.672 1642.89,1315.012 1642.89,1319.579C1642.89,1328.577 1638.946,1333.076 1631.057,1333.076C1629.831,1333.076 1628.572,1332.8 1627.28,1332.249C1625.987,1331.698 1625.14,1331.118 1624.739,1330.511L1624.739,1309.456ZM1654.188,1319.646C1654.188,1325.405 1655.614,1329.982 1658.467,1333.379C1661.319,1336.776 1665.297,1338.474 1670.4,1338.474C1675.392,1338.474 1679.336,1336.793 1682.233,1333.43C1685.13,1330.067 1686.579,1325.472 1686.579,1319.646C1686.579,1313.797 1685.164,1309.225 1682.334,1305.93C1679.503,1302.634 1675.526,1300.987 1670.4,1300.987C1665.542,1300.987 1661.626,1302.702 1658.651,1306.132C1655.676,1309.563 1654.188,1314.067 1654.188,1319.646ZM1660.874,1319.646C1660.874,1315.462 1661.737,1312.178 1663.464,1309.793C1665.191,1307.409 1667.503,1306.217 1670.4,1306.217C1676.729,1306.217 1679.893,1310.693 1679.893,1319.646C1679.893,1323.853 1679.052,1327.171 1677.37,1329.6C1675.687,1332.03 1673.364,1333.244 1670.4,1333.244C1664.049,1333.244 1660.874,1328.712 1660.874,1319.646ZM1720.273,1304.597C1719.248,1303.765 1717.654,1302.955 1715.493,1302.168C1713.331,1301.38 1711.326,1300.987 1709.476,1300.987C1703.727,1300.987 1699.197,1302.73 1695.888,1306.217C1692.579,1309.703 1690.924,1314.326 1690.924,1320.085C1690.924,1325.731 1692.518,1330.207 1695.704,1333.514C1698.891,1336.821 1702.924,1338.474 1707.805,1338.474C1712.841,1338.474 1717.064,1337.361 1720.473,1335.134L1717.966,1329.735C1715.069,1331.962 1712.195,1333.076 1709.342,1333.076C1705.665,1333.076 1702.791,1331.968 1700.718,1329.752C1698.646,1327.536 1697.61,1324.314 1697.61,1320.085C1697.61,1315.833 1698.623,1312.487 1700.651,1310.046C1702.679,1307.606 1705.42,1306.385 1708.874,1306.385C1710.457,1306.385 1712.067,1306.678 1713.704,1307.263C1715.342,1307.848 1716.484,1308.466 1717.131,1309.119L1720.273,1304.597ZM1724.819,1319.646C1724.819,1325.405 1726.245,1329.982 1729.098,1333.379C1731.95,1336.776 1735.928,1338.474 1741.031,1338.474C1746.023,1338.474 1749.967,1336.793 1752.864,1333.43C1755.761,1330.067 1757.209,1325.472 1757.209,1319.646C1757.209,1313.797 1755.794,1309.225 1752.964,1305.93C1750.134,1302.634 1746.156,1300.987 1741.031,1300.987C1736.173,1300.987 1732.256,1302.702 1729.281,1306.132C1726.306,1309.563 1724.819,1314.067 1724.819,1319.646ZM1731.504,1319.646C1731.504,1315.462 1732.368,1312.178 1734.095,1309.793C1735.822,1307.409 1738.134,1306.217 1741.031,1306.217C1747.36,1306.217 1750.524,1310.693 1750.524,1319.646C1750.524,1323.853 1749.683,1327.171 1748,1329.6C1746.318,1332.03 1743.995,1333.244 1741.031,1333.244C1734.68,1333.244 1731.504,1328.712 1731.504,1319.646ZM901.953,1418.713L917.663,1381.799L911.012,1381.799L901.351,1407.106L891.891,1381.799L884.939,1381.799L900.282,1418.713L901.953,1418.713ZM920.237,1399.885C920.237,1405.644 921.664,1410.222 924.516,1413.618C927.368,1417.015 931.346,1418.713 936.449,1418.713C941.441,1418.713 945.385,1417.032 948.282,1413.669C951.179,1410.306 952.628,1405.711 952.628,1399.885C952.628,1394.037 951.213,1389.464 948.383,1386.169C945.553,1382.873 941.575,1381.226 936.449,1381.226C931.591,1381.226 927.675,1382.941 924.7,1386.371C921.725,1389.802 920.237,1394.306 920.237,1399.885ZM926.923,1399.885C926.923,1395.701 927.786,1392.417 929.513,1390.032C931.24,1387.648 933.552,1386.456 936.449,1386.456C942.778,1386.456 945.942,1390.932 945.942,1399.885C945.942,1404.092 945.101,1407.41 943.419,1409.839C941.736,1412.269 939.413,1413.483 936.449,1413.483C930.098,1413.483 926.923,1408.951 926.923,1399.885ZM959.815,1407.815C959.815,1415.08 963.926,1418.713 972.149,1418.713L972.149,1412.977C970.366,1412.977 968.923,1412.42 967.82,1411.307C966.717,1410.193 966.166,1408.669 966.166,1406.735L966.166,1367.088L959.815,1367.088L959.815,1407.815ZM985.52,1381.901L979.169,1381.901L979.169,1405.621C979.169,1409.805 980.21,1413.033 982.294,1415.305C984.378,1417.577 987.38,1418.713 991.303,1418.713C993.353,1418.713 995.453,1418.123 997.604,1416.942C999.754,1415.761 1001.186,1414.462 1001.899,1413.045L1001.899,1418.038L1008.25,1418.038L1008.25,1381.901L1001.899,1381.901L1001.899,1407.275C1001.342,1408.872 1000.194,1410.278 998.456,1411.492C996.718,1412.707 994.801,1413.315 992.706,1413.315C987.915,1413.315 985.52,1410.525 985.52,1404.947L985.52,1381.901ZM1058.357,1418.038L1064.708,1418.038L1064.708,1393.879C1064.708,1389.875 1063.694,1386.765 1061.666,1384.549C1059.638,1382.334 1056.774,1381.226 1053.075,1381.226C1051.025,1381.226 1049.031,1381.687 1047.092,1382.609C1045.153,1383.531 1043.827,1384.679 1043.114,1386.051C1041.064,1382.834 1037.476,1381.226 1032.351,1381.226C1028.674,1381.226 1025.61,1382.845 1023.158,1386.085L1021.052,1381.901L1016.907,1381.901L1016.907,1418.038L1023.259,1418.038L1023.259,1391.382C1023.86,1390.19 1024.88,1389.099 1026.317,1388.109C1027.754,1387.119 1029.108,1386.624 1030.378,1386.624C1032.562,1386.624 1034.317,1387.136 1035.643,1388.16C1036.969,1389.183 1037.632,1390.584 1037.632,1392.361L1037.632,1418.038L1043.983,1418.038L1043.983,1391.315C1044.473,1390.1 1045.387,1389.015 1046.724,1388.059C1048.061,1387.102 1049.499,1386.624 1051.036,1386.624C1055.916,1386.624 1058.357,1389.47 1058.357,1395.161L1058.357,1418.038ZM1103.884,1400.594C1104.218,1399.402 1104.385,1398.097 1104.385,1396.68C1104.385,1392.068 1102.981,1388.368 1100.173,1385.578C1097.276,1382.677 1093.276,1381.226 1088.173,1381.226C1083.783,1381.226 1079.984,1382.834 1076.775,1386.051C1073.187,1389.65 1071.393,1394.43 1071.393,1400.391C1071.393,1406.127 1073.142,1410.694 1076.641,1414.091C1079.783,1417.172 1083.605,1418.713 1088.106,1418.713C1091.226,1418.713 1094.056,1418.241 1096.597,1417.296C1098.625,1416.576 1100.129,1415.722 1101.109,1414.732L1098.435,1410.109C1096.006,1412.246 1092.976,1413.315 1089.343,1413.315C1086.157,1413.315 1083.549,1412.325 1081.521,1410.345C1079.226,1408.073 1078.078,1404.823 1078.078,1400.594L1103.884,1400.594ZM1088.474,1386.624C1091.505,1386.624 1093.9,1387.569 1095.661,1389.459C1097.265,1391.191 1098.068,1393.35 1098.068,1395.937L1078.246,1395.937C1078.491,1393.328 1079.527,1391.146 1081.354,1389.391C1083.271,1387.547 1085.644,1386.624 1088.474,1386.624ZM1133.099,1418.038L1139.45,1418.038L1139.45,1395.667C1139.45,1386.04 1135.528,1381.226 1127.684,1381.226C1122.937,1381.226 1119.516,1383.003 1117.422,1386.557L1115.416,1381.901L1111.071,1381.901L1111.071,1418.038L1117.422,1418.038L1117.422,1391.18C1118.268,1389.897 1119.483,1388.818 1121.065,1387.94C1122.647,1387.063 1124.163,1386.624 1125.611,1386.624C1128.308,1386.624 1130.23,1387.395 1131.377,1388.936C1132.525,1390.477 1133.099,1393.17 1133.099,1397.017L1133.099,1418.038ZM1155.796,1408.557C1154.414,1408.557 1153.233,1409.052 1152.252,1410.042C1151.272,1411.031 1150.782,1412.224 1150.782,1413.618C1150.782,1415.013 1151.272,1416.211 1152.252,1417.212C1153.233,1418.213 1154.414,1418.713 1155.796,1418.713C1157.177,1418.713 1158.358,1418.213 1159.339,1417.212C1160.319,1416.211 1160.81,1415.013 1160.81,1413.618C1160.81,1412.224 1160.319,1411.031 1159.339,1410.042C1158.358,1409.052 1157.177,1408.557 1155.796,1408.557ZM916.728,1550.106L924.382,1550.106L910.176,1527.363C912.783,1526.756 915.034,1525.21 916.928,1522.724C918.822,1520.238 919.769,1517.443 919.769,1514.339C919.769,1504.891 913.886,1500.167 902.12,1500.167C900.649,1500.167 898.304,1500.251 895.084,1500.42C891.864,1500.589 890.131,1500.673 889.886,1500.673L889.886,1550.106L896.571,1550.106L896.571,1528.544C899.802,1528.769 902.165,1528.882 903.658,1528.882L916.728,1550.106ZM896.571,1506.747C898.532,1506.522 899.847,1506.409 900.516,1506.409C904.75,1506.409 907.847,1507.017 909.808,1508.232C911.769,1509.446 912.75,1511.437 912.75,1514.204C912.75,1517.556 911.836,1519.884 910.009,1521.189C908.181,1522.493 905.262,1523.146 901.251,1523.146C899.736,1523.146 898.176,1523.033 896.571,1522.808L896.571,1506.747ZM956.271,1532.661C956.606,1531.469 956.773,1530.164 956.773,1528.747C956.773,1524.135 955.369,1520.435 952.561,1517.646C949.664,1514.744 945.664,1513.293 940.561,1513.293C936.171,1513.293 932.371,1514.901 929.162,1518.118C925.574,1521.717 923.781,1526.497 923.781,1532.458C923.781,1538.195 925.53,1542.761 929.029,1546.158C932.171,1549.24 935.992,1550.781 940.494,1550.781C943.614,1550.781 946.444,1550.308 948.984,1549.363C951.012,1548.643 952.516,1547.789 953.497,1546.799L950.823,1542.176C948.394,1544.313 945.363,1545.382 941.731,1545.382C938.544,1545.382 935.937,1544.392 933.909,1542.412C931.614,1540.14 930.466,1536.89 930.466,1532.661L956.271,1532.661ZM940.862,1518.692C943.892,1518.692 946.288,1519.636 948.048,1521.526C949.653,1523.258 950.455,1525.418 950.455,1528.004L930.633,1528.004C930.878,1525.395 931.914,1523.213 933.742,1521.458C935.658,1519.614 938.031,1518.692 940.862,1518.692ZM961.118,1547.946C964.439,1549.836 967.982,1550.781 971.748,1550.781C975.737,1550.781 978.857,1549.864 981.107,1548.031C983.358,1546.197 984.484,1543.661 984.484,1540.422C984.484,1537.947 983.848,1535.889 982.578,1534.247C981.308,1532.605 979.28,1531.143 976.495,1529.86L971.948,1527.768C969.341,1526.576 968.038,1524.821 968.038,1522.504C968.038,1521.402 968.556,1520.491 969.592,1519.771C970.628,1519.052 971.904,1518.692 973.419,1518.692C975.96,1518.692 978.489,1519.704 981.007,1521.728L982.812,1515.79C978.846,1514.125 975.559,1513.293 972.951,1513.293C969.497,1513.293 966.7,1514.125 964.561,1515.79C962.422,1517.454 961.352,1519.771 961.352,1522.741C961.352,1523.888 961.536,1524.962 961.904,1525.963C962.271,1526.964 962.829,1527.909 963.575,1528.797C964.322,1529.686 965.202,1530.479 966.216,1531.176C967.23,1531.874 969.196,1532.897 972.116,1534.247C975.904,1535.956 977.798,1538.003 977.798,1540.388C977.798,1543.717 975.837,1545.382 971.915,1545.382C969.753,1545.382 966.901,1544.212 963.358,1541.873L961.118,1547.946ZM993.442,1519.029L993.442,1539.544C993.442,1542.784 994.417,1545.466 996.367,1547.592C998.317,1549.718 1000.707,1550.781 1003.537,1550.781C1006.679,1550.781 1009.565,1550.443 1012.194,1549.768L1011.258,1544.133C1009.52,1544.966 1007.838,1545.382 1006.211,1545.382C1003.96,1545.382 1002.328,1544.741 1001.314,1543.458C1000.3,1542.176 999.793,1540.017 999.793,1536.98L999.793,1519.029L1009.62,1519.029L1009.62,1513.968L999.793,1513.968L999.793,1503.946L993.442,1506.409L993.442,1513.968L989.297,1513.968L989.297,1519.029L993.442,1519.029ZM1015.971,1531.952C1015.971,1537.711 1017.398,1542.289 1020.25,1545.685C1023.103,1549.082 1027.08,1550.781 1032.183,1550.781C1037.175,1550.781 1041.12,1549.099 1044.017,1545.736C1046.914,1542.373 1048.362,1537.778 1048.362,1531.952C1048.362,1526.104 1046.947,1521.532 1044.117,1518.236C1041.287,1514.941 1037.309,1513.293 1032.183,1513.293C1027.325,1513.293 1023.409,1515.008 1020.434,1518.439C1017.459,1521.869 1015.971,1526.374 1015.971,1531.952ZM1022.657,1531.952C1022.657,1527.768 1023.52,1524.484 1025.247,1522.1C1026.974,1519.715 1029.286,1518.523 1032.183,1518.523C1038.512,1518.523 1041.677,1522.999 1041.677,1531.952C1041.677,1536.159 1040.835,1539.477 1039.153,1541.906C1037.47,1544.336 1035.147,1545.55 1032.183,1545.55C1025.832,1545.55 1022.657,1541.018 1022.657,1531.952ZM1052.707,1547.946C1056.028,1549.836 1059.571,1550.781 1063.337,1550.781C1067.326,1550.781 1070.446,1549.864 1072.697,1548.031C1074.947,1546.197 1076.073,1543.661 1076.073,1540.422C1076.073,1537.947 1075.438,1535.889 1074.167,1534.247C1072.897,1532.605 1070.869,1531.143 1068.084,1529.86L1063.538,1527.768C1060.93,1526.576 1059.627,1524.821 1059.627,1522.504C1059.627,1521.402 1060.145,1520.491 1061.181,1519.771C1062.217,1519.052 1063.493,1518.692 1065.009,1518.692C1067.549,1518.692 1070.078,1519.704 1072.596,1521.728L1074.401,1515.79C1070.435,1514.125 1067.148,1513.293 1064.541,1513.293C1061.086,1513.293 1058.29,1514.125 1056.15,1515.79C1054.011,1517.454 1052.941,1519.771 1052.941,1522.741C1052.941,1523.888 1053.125,1524.962 1053.493,1525.963C1053.861,1526.964 1054.418,1527.909 1055.164,1528.797C1055.911,1529.686 1056.791,1530.479 1057.805,1531.176C1058.819,1531.874 1060.786,1532.897 1063.705,1534.247C1067.493,1535.956 1069.387,1538.003 1069.387,1540.388C1069.387,1543.717 1067.426,1545.382 1063.504,1545.382C1061.343,1545.382 1058.49,1544.212 1054.947,1541.873L1052.707,1547.946ZM1126.079,1550.072L1132.43,1550.072L1132.43,1499.155L1126.079,1499.155L1126.079,1515.925C1124.163,1514.17 1121.355,1513.293 1117.656,1513.293C1113.221,1513.293 1109.399,1515.211 1106.19,1519.046C1102.981,1522.881 1101.377,1527.51 1101.377,1532.931C1101.377,1538.33 1102.77,1542.649 1105.555,1545.888C1108.341,1549.127 1111.973,1550.747 1116.452,1550.747C1120.664,1550.747 1123.873,1549.633 1126.079,1547.406L1126.079,1550.072ZM1126.079,1522.336L1126.079,1542.379C1125.723,1543.099 1124.842,1543.779 1123.438,1544.42C1122.035,1545.061 1120.831,1545.382 1119.828,1545.382C1111.984,1545.382 1108.062,1541.029 1108.062,1532.323C1108.062,1528.364 1109.115,1525.103 1111.221,1522.538C1113.327,1519.974 1116.085,1518.692 1119.494,1518.692C1122.28,1518.692 1124.475,1519.906 1126.079,1522.336ZM1171.673,1532.661C1172.008,1531.469 1172.175,1530.164 1172.175,1528.747C1172.175,1524.135 1170.771,1520.435 1167.963,1517.646C1165.066,1514.744 1161.066,1513.293 1155.963,1513.293C1151.573,1513.293 1147.773,1514.901 1144.564,1518.118C1140.976,1521.717 1139.182,1526.497 1139.182,1532.458C1139.182,1538.195 1140.932,1542.761 1144.43,1546.158C1147.573,1549.24 1151.394,1550.781 1155.896,1550.781C1159.016,1550.781 1161.846,1550.308 1164.386,1549.363C1166.414,1548.643 1167.918,1547.789 1168.899,1546.799L1166.225,1542.176C1163.796,1544.313 1160.765,1545.382 1157.133,1545.382C1153.946,1545.382 1151.339,1544.392 1149.311,1542.412C1147.015,1540.14 1145.868,1536.89 1145.868,1532.661L1171.673,1532.661ZM1156.264,1518.692C1159.294,1518.692 1161.69,1519.636 1163.45,1521.526C1165.055,1523.258 1165.857,1525.418 1165.857,1528.004L1146.035,1528.004C1146.28,1525.395 1147.316,1523.213 1149.144,1521.458C1151.06,1519.614 1153.433,1518.692 1156.264,1518.692ZM1219.707,1545.955C1220.265,1547.665 1221.184,1548.891 1222.465,1549.633C1223.747,1550.376 1225.68,1550.747 1228.265,1550.747L1228.265,1547.541C1226.393,1546.484 1225.457,1544.369 1225.457,1541.198L1225.457,1528.241C1225.457,1523.044 1224.281,1519.254 1221.93,1516.87C1219.579,1514.485 1215.808,1513.293 1210.615,1513.293C1208.677,1513.293 1206.643,1513.647 1204.515,1514.356C1202.387,1515.064 1200.721,1515.914 1199.518,1516.903L1202.192,1522.268C1204.331,1520.109 1207.384,1519.029 1211.351,1519.029C1216.521,1519.029 1219.106,1521.953 1219.106,1527.802C1217.412,1527.217 1215.897,1526.925 1214.56,1526.925C1209.635,1526.925 1205.585,1528.19 1202.409,1530.721C1199.234,1533.251 1197.646,1536.35 1197.646,1540.017C1197.646,1543.076 1198.676,1545.635 1200.738,1547.693C1202.799,1549.751 1205.234,1550.781 1208.042,1550.781C1213.278,1550.781 1217.167,1549.172 1219.707,1545.955ZM1219.106,1532.357L1219.106,1541.096C1216.632,1544.178 1213.791,1545.719 1210.582,1545.719C1206.192,1545.719 1203.997,1543.841 1203.997,1540.084C1203.997,1537.812 1205.011,1535.844 1207.039,1534.179C1209.067,1532.515 1211.685,1531.682 1214.894,1531.682C1215.696,1531.682 1217.1,1531.907 1219.106,1532.357ZM1235.953,1539.882C1235.953,1547.148 1240.064,1550.781 1248.287,1550.781L1248.287,1545.044C1246.505,1545.044 1245.062,1544.488 1243.959,1543.374C1242.855,1542.261 1242.304,1540.737 1242.304,1538.802L1242.304,1499.155L1235.953,1499.155L1235.953,1539.882ZM977.28,141.24L977.28,193.276L1009.113,193.276L1009.113,141.24C1009.113,133.363 1007.881,126.141 1005.416,119.576C1002.952,113.011 999.46,107.414 994.942,102.784C990.424,98.154 984.947,94.526 978.512,91.9C972.077,89.274 964.958,87.961 957.153,87.961C950.718,87.961 944.968,88.929 939.902,90.864C934.836,92.798 930.318,95.493 926.347,98.949L926.347,89.62L894.514,89.62L894.514,193.276L926.347,193.276L926.347,126.521C927.306,124.586 928.675,122.721 930.455,120.924C936.205,115.119 943.051,112.217 950.992,112.217C959.07,112.217 965.984,115.119 971.735,120.924C974.473,123.688 976.082,126.798 976.561,130.253C977.04,133.708 977.28,137.371 977.28,141.24ZM499.521,1110.466L481.169,1177.957C481.169,1177.957 498.483,1175.856 514.263,1180.549C530.043,1185.243 539.711,1195.986 539.711,1195.986L559.685,1129.632C559.685,1129.632 558.325,1123.557 534.835,1114.374C511.345,1105.191 499.521,1110.466 499.521,1110.466ZM916.728,1337.799L924.382,1337.799L910.176,1315.057C912.783,1314.45 915.034,1312.903 916.928,1310.418C918.822,1307.932 919.769,1305.137 919.769,1302.033C919.769,1292.585 913.886,1287.861 902.12,1287.861C900.649,1287.861 898.304,1287.945 895.084,1288.114C891.864,1288.283 890.131,1288.367 889.886,1288.367L889.886,1337.799L896.571,1337.799L896.571,1316.238C899.802,1316.463 902.165,1316.576 903.658,1316.576L916.728,1337.799ZM896.571,1294.441C898.532,1294.216 899.847,1294.103 900.516,1294.103C904.75,1294.103 907.847,1294.711 909.808,1295.925C911.769,1297.14 912.75,1299.131 912.75,1301.898C912.75,1305.249 911.836,1307.578 910.009,1308.882C908.181,1310.187 905.262,1310.839 901.251,1310.839C899.736,1310.839 898.176,1310.727 896.571,1310.502L896.571,1294.441ZM1313.272,87.961C1308.48,87.961 1303.722,88.479 1298.998,89.516C1294.275,90.553 1289.996,92.246 1286.162,94.595C1282.329,96.945 1279.214,100.123 1276.818,104.131C1274.422,108.14 1273.224,113.115 1273.224,119.058C1273.224,125.968 1275.141,131.98 1278.974,137.094C1282.808,142.208 1288.832,146.561 1297.047,150.155L1309.575,155.545C1312.724,156.927 1314.846,157.998 1315.942,158.758C1317.037,159.518 1317.585,160.59 1317.585,161.972C1317.585,163.077 1317.242,163.907 1316.558,164.459C1315.873,165.012 1315.189,165.427 1314.504,165.703C1313.682,166.118 1312.724,166.325 1311.629,166.325C1309.027,166.325 1306.357,166.049 1303.619,165.496C1300.881,164.943 1298.245,164.287 1295.712,163.526C1293.179,162.766 1290.954,161.937 1289.038,161.039C1287.121,160.14 1285.683,159.277 1284.725,158.447L1271.17,180.422C1275.141,184.154 1280.651,187.506 1287.703,190.477C1294.754,193.449 1302.729,194.934 1311.629,194.934C1316.147,194.934 1320.699,194.381 1325.286,193.276C1329.873,192.17 1333.98,190.408 1337.609,187.989C1341.237,185.571 1344.215,182.426 1346.542,178.557C1348.87,174.687 1350.034,170.057 1350.034,164.667C1350.034,161.212 1349.76,157.895 1349.212,154.716C1348.664,151.537 1347.535,148.531 1345.823,145.698C1344.112,142.864 1341.716,140.204 1338.635,137.716C1335.555,135.228 1331.55,132.948 1326.621,130.875L1314.093,125.485C1311.355,124.379 1309.062,123.308 1307.213,122.271C1305.365,121.235 1304.441,120.164 1304.441,119.058C1304.441,117.952 1305.057,116.916 1306.289,115.948C1307.521,114.981 1309.849,114.497 1313.272,114.497C1314.641,114.497 1316.181,114.704 1317.893,115.119C1319.604,115.534 1321.316,116.121 1323.027,116.881C1324.738,117.641 1326.347,118.436 1327.853,119.265C1329.359,120.095 1330.66,120.924 1331.755,121.753L1349.007,100.607C1345.036,96.876 1339.799,93.835 1333.296,91.485C1326.792,89.136 1320.117,87.961 1313.272,87.961ZM1015.89,89.827L1015.89,193.276L1047.723,193.276L1047.723,89.827L1015.89,89.827ZM218.08,1962.099C221.976,1964.998 237.471,1969.677 246.446,1974.893C256.404,1980.68 268.977,1988.803 277.829,1996.824C286.224,2004.432 293.699,2013.287 299.555,2023.021C305.49,2032.886 310.016,2046.064 313.436,2056.014C316.417,2064.687 319.42,2073.569 320.075,2082.724C320.88,2093.979 320.075,2111.357 318.264,2123.542C316.621,2134.603 312.43,2147.098 309.212,2155.83C306.607,2162.895 303.247,2169.768 298.952,2175.934C294.425,2182.432 286.881,2189.845 282.053,2194.82C278.265,2198.723 274.322,2202.519 269.983,2205.786C264.048,2210.253 253.084,2217.869 246.446,2221.625C241.329,2224.521 230.553,2223.148 230.15,2228.327C229.748,2233.505 238.762,2244.982 244.031,2252.695C250.067,2261.529 259.321,2273.612 266.362,2281.329C272.349,2287.891 279.438,2294.63 286.278,2298.996C292.687,2303.087 299.86,2306.719 307.401,2307.525C315.951,2308.439 328.524,2306.408 337.577,2304.479C345.919,2302.701 353.669,2298.789 361.718,2295.95C370.067,2293.005 379.924,2288.538 387.669,2286.812C394.36,2285.321 401.428,2284.47 408.189,2285.593C416.135,2286.913 426.341,2291.549 435.347,2294.731C445.406,2298.285 458.784,2304.682 468.541,2306.916C476.79,2308.804 486.848,2309.251 493.889,2308.134C500.024,2307.161 505.804,2303.956 510.787,2300.214C519.035,2294.021 535.23,2279.603 543.377,2270.972C549.734,2264.238 555.347,2255.234 559.672,2248.431C563.367,2242.62 569.731,2234.216 569.329,2230.154C568.926,2226.093 561.195,2226.26 557.258,2224.062C552.531,2221.422 545.691,2217.666 540.963,2214.315C536.642,2211.252 532.8,2207.544 528.893,2203.958C524.467,2199.897 518.792,2195.044 514.408,2189.946C509.781,2184.565 505.054,2177.66 501.131,2171.67C497.402,2165.975 493.656,2159.891 490.871,2154.002C488.193,2148.338 486.26,2142.115 484.423,2136.335C482.644,2130.74 480.576,2125.153 479.846,2119.324C478.955,2112.21 478.54,2102.197 479.078,2093.654C479.655,2084.484 480.738,2073.844 483.311,2064.305C486.044,2054.173 491.573,2041.545 495.478,2032.861C498.696,2025.705 502.083,2018.503 506.74,2012.204C511.512,2005.749 518.423,1999.196 524.111,1994.131C529.292,1989.516 535.677,1985.392 540.865,1981.81C545.542,1978.581 550.722,1975.338 555.235,1972.641C559.39,1970.157 563.522,1967.35 567.945,1965.626C572.365,1963.902 582.178,1965.861 581.772,1962.291C581.367,1958.721 571.664,1949.47 565.513,1944.205C558.979,1938.613 550.033,1933 542.569,1928.737C535.597,1924.756 528.432,1920.834 520.726,1918.628C512.232,1916.196 500.601,1914.636 491.606,1914.145C483.318,1913.693 474.104,1914.156 466.754,1915.682C460.005,1917.083 453.893,1920.683 447.508,1923.3C441.059,1925.942 434.822,1929.58 428.066,1931.536C420.841,1933.627 412.251,1935.655 404.158,1935.85C395.664,1936.055 385.899,1935.018 377.103,1932.762C368.307,1930.505 359.92,1925.208 351.38,1922.311C343.033,1919.48 334.597,1916.557 325.868,1915.382C317.091,1914.2 307.03,1914.439 298.718,1915.221C291.011,1915.947 283.386,1917.741 275.999,1920.077C268.547,1922.433 260.648,1925.651 254.005,1929.36C247.587,1932.944 240.27,1938.781 236.142,1942.33C233.413,1944.676 231.415,1948.123 229.236,1950.651C227.23,1952.979 224.928,1955.59 223.068,1957.498C221.489,1959.119 216.267,1960.75 218.08,1962.099ZM352.062,1806.922C349.678,1804.801 345.301,1802.72 342.923,1800.763C340.975,1799.159 339.554,1796.938 337.795,1795.179C336.06,1793.445 334.756,1790.731 332.369,1790.214C329.913,1789.682 325.123,1790.628 323.061,1791.986C321.102,1793.276 320.436,1796.11 320,1798.36C319.564,1800.61 319.486,1803.82 320.446,1805.484C321.405,1807.148 323.827,1807.789 325.757,1808.345C327.749,1808.919 330.324,1808.124 332.399,1808.928C335.408,1810.095 340.381,1812.638 343.811,1815.345C347.801,1818.493 352.568,1823.281 356.336,1827.818C360.214,1832.488 363.817,1838.293 367.081,1843.368C370.204,1848.223 373.456,1853.347 375.919,1858.266C378.273,1862.965 380.142,1867.908 381.862,1872.879C383.912,1878.802 386.592,1887.337 388.217,1893.802C389.694,1899.68 390.497,1907.076 391.611,1911.669C392.416,1914.985 393.528,1919.774 394.905,1921.356C395.997,1922.613 398.242,1921.318 399.869,1921.164C401.48,1921.011 404.317,1922.024 404.668,1920.43C405.143,1918.27 403.578,1912.241 402.721,1908.206C401.444,1902.191 399.488,1892.132 397.005,1884.341C394.278,1875.783 389.107,1863.925 386.359,1856.858C384.424,1851.88 383.278,1846.503 380.52,1841.937C377.312,1836.627 370.997,1829.738 367.114,1824.997C363.909,1821.083 357.222,1813.492 357.222,1813.492C357.222,1813.492 354.138,1808.771 352.062,1806.922ZM559.55,122.168C559.55,112.078 557.667,102.611 553.902,93.766C550.137,84.921 544.968,77.181 538.396,70.547C531.824,63.913 524.157,58.696 515.394,54.895C506.632,51.094 497.253,49.194 487.258,49.194C477.263,49.194 467.884,51.094 459.122,54.895C450.359,58.696 442.692,63.913 436.12,70.547C429.548,77.181 424.379,84.921 420.614,93.766C416.849,102.611 414.966,112.078 414.966,122.168C414.966,132.257 416.849,141.724 420.614,150.569C424.379,159.415 429.548,167.12 436.12,173.685C442.692,180.25 450.359,185.433 459.122,189.233C467.884,193.034 477.263,194.934 487.258,194.934C497.253,194.934 506.632,193.034 515.394,189.233C524.157,185.433 531.824,180.25 538.396,173.685C544.968,167.12 550.137,159.415 553.902,150.569C557.667,141.724 559.55,132.257 559.55,122.168ZM515.189,150.155C511.355,153.886 507.042,156.754 502.25,158.758C497.458,160.762 492.461,161.764 487.258,161.764C482.055,161.764 477.058,160.762 472.266,158.758C467.474,156.754 463.161,153.886 459.327,150.155C455.63,146.423 452.961,142.139 451.318,137.301C449.675,132.464 448.853,127.42 448.853,122.168C448.853,116.778 449.675,111.664 451.318,106.827C452.961,101.989 455.63,97.705 459.327,93.973C463.161,90.242 467.474,87.374 472.266,85.37C477.058,83.366 482.055,82.364 487.258,82.364C492.461,82.364 497.458,83.366 502.25,85.37C507.042,87.374 511.355,90.242 515.189,93.973C518.886,97.705 521.555,101.989 523.198,106.827C524.841,111.664 525.663,116.778 525.663,122.168C525.663,127.42 524.841,132.464 523.198,137.301C521.555,142.139 518.886,146.423 515.189,150.155ZM633.073,116.778L649.093,93.766C645.396,91.831 642.11,90.38 639.235,89.412C636.359,88.445 632.526,87.961 627.734,87.961C621.299,87.961 615.548,88.929 610.482,90.864C605.416,92.798 600.898,95.493 596.928,98.949L596.928,89.62L565.095,89.62L565.095,193.276L596.928,193.276L596.928,126.521C597.886,124.586 599.255,122.721 601.035,120.924C606.786,115.119 613.631,112.217 621.572,112.217C624.311,112.217 626.33,112.597 627.631,113.357C628.932,114.117 630.746,115.257 633.073,116.778ZM884.641,262.622C693.472,262.622 538.268,417.434 538.268,608.12C538.268,798.805 693.472,953.617 884.641,953.617C1075.811,953.617 1231.016,798.805 1231.016,608.12C1231.016,417.434 1075.811,262.622 884.641,262.622ZM1185.776,692.592L1185.756,692.666L1185.742,692.72L1185.689,692.907L1185.601,693.214C1156.425,796.095 1075.578,877.423 972.853,907.482L972.68,907.533L972.353,907.628L972.22,907.667L972.155,907.686C944.38,915.756 915.013,920.084 884.641,920.084C712.026,920.084 571.886,780.298 571.886,608.12C571.886,529.764 600.909,458.117 648.809,403.3L649.178,403.658C656.833,394.892 664.97,386.559 673.55,378.696L673.186,378.342C728.875,327.32 803.14,296.154 884.641,296.154C1057.256,296.154 1197.398,435.942 1197.398,608.12C1197.398,637.39 1193.348,665.722 1185.776,692.592ZM1060.641,454.5L1024.233,470.155L979.19,408.029C923.182,384.97 888.208,462.082 888.208,462.082L925.887,529.8L897.304,548.825L1009.603,549.149L1060.641,454.5ZM937.405,395.729C938.579,395.088 942.355,393.354 942.355,393.354L940.606,393.308L799.926,393.358C775.35,400.987 767.197,416.918 767.197,416.918L720.726,498.451L820.273,553.317L882.535,444.77C897.632,403.023 936.231,396.367 937.405,395.729ZM1072.002,541.727L976.387,603.078L1039.073,705.766C1039.073,705.766 1072.034,746.141 1058.362,784.91L1129.005,662.445C1129.005,662.445 1132.451,636.621 1115.426,608.634L1072.002,541.727ZM750.666,544.141L642.665,543.614L673.487,568.097L639.992,631.63C641.954,698.137 732.938,690.153 732.938,690.153L773.569,624.215L803.205,640.284L750.666,544.141ZM943.423,673.151L888.073,769.959L946.322,859.327L948.977,820.691L1018.825,816.931C1018.825,816.931 1081.803,794.688 1024.114,708.065L944.42,707.998L944.396,673.226L944.36,671.489L943.423,673.151ZM846.389,704.876L700.213,703.937C675.446,704.336 646.805,678.725 646.805,678.725L702.999,778.875C717.141,816.09 751.076,819.217 751.076,819.217L846.766,819.206L846.389,704.876ZM1268.5,141.655C1268.5,132.671 1266.857,124.828 1263.571,118.125C1260.285,111.422 1255.904,105.825 1250.427,101.333C1244.951,96.841 1238.755,93.489 1231.841,91.278C1224.927,89.067 1217.773,87.961 1210.379,87.961C1203.123,87.961 1196.003,89.067 1189.021,91.278C1182.038,93.489 1175.842,96.841 1170.434,101.333C1165.026,105.825 1160.679,111.422 1157.393,118.125C1154.107,124.828 1152.464,132.671 1152.464,141.655C1152.464,150.639 1154.107,158.447 1157.393,165.081C1160.679,171.715 1165.026,177.244 1170.434,181.666C1175.842,186.089 1182.038,189.406 1189.021,191.617C1196.003,193.829 1203.123,194.934 1210.379,194.934C1217.773,194.934 1224.927,193.829 1231.841,191.617C1238.755,189.406 1244.951,186.089 1250.427,181.666C1255.904,177.244 1260.285,171.715 1263.571,165.081C1266.857,158.447 1268.5,150.639 1268.5,141.655ZM1229.068,162.179C1226.33,164.943 1223.249,166.947 1219.827,168.191C1216.404,169.435 1213.255,170.057 1210.379,170.057C1207.641,170.057 1204.56,169.4 1201.138,168.087C1197.715,166.774 1194.634,164.736 1191.896,161.972C1189.157,159.207 1187.206,156.098 1186.043,152.643C1184.879,149.187 1184.297,145.525 1184.297,141.655C1184.297,137.647 1184.879,133.846 1186.043,130.253C1187.206,126.659 1189.157,123.481 1191.896,120.716C1194.634,117.952 1197.715,115.948 1201.138,114.704C1204.56,113.461 1207.641,112.839 1210.379,112.839C1213.255,112.839 1216.404,113.461 1219.827,114.704C1223.249,115.948 1226.33,117.952 1229.068,120.716C1231.807,123.481 1233.758,126.659 1234.922,130.253C1236.085,133.846 1236.667,137.647 1236.667,141.655C1236.667,145.525 1236.085,149.222 1234.922,152.746C1233.758,156.271 1231.807,159.415 1229.068,162.179ZM1151.848,180.422L1131.721,161.557L1131.105,162.179C1128.367,164.943 1125.218,167.051 1121.658,168.502C1118.098,169.953 1114.333,170.679 1110.362,170.679C1106.529,170.679 1103.174,169.919 1100.299,168.398C1097.424,166.878 1094.617,164.736 1091.879,161.972C1089.14,159.207 1087.189,156.098 1086.026,152.643C1084.862,149.187 1084.28,145.525 1084.28,141.655C1084.28,137.647 1084.862,133.846 1086.026,130.253C1087.189,126.659 1089.14,123.481 1091.879,120.716C1094.617,117.952 1097.424,115.845 1100.299,114.393C1103.174,112.942 1106.529,112.217 1110.362,112.217C1114.196,112.217 1117.893,112.942 1121.453,114.393C1125.012,115.845 1128.161,117.883 1130.9,120.509L1150.205,101.022C1144.728,96.599 1138.567,93.317 1131.721,91.174C1124.875,89.032 1117.756,87.961 1110.362,87.961C1103.106,87.961 1095.986,89.067 1089.003,91.278C1082.021,93.489 1075.825,96.841 1070.417,101.333C1065.009,105.825 1060.662,111.422 1057.376,118.125C1054.09,124.828 1052.447,132.671 1052.447,141.655C1052.447,150.639 1054.09,158.447 1057.376,165.081C1060.662,171.715 1065.009,177.244 1070.417,181.666C1075.825,186.089 1082.021,189.406 1089.003,191.617C1095.986,193.829 1103.106,194.934 1110.362,194.934C1118.167,194.934 1125.628,193.725 1132.748,191.306C1139.868,188.888 1146.234,185.26 1151.848,180.422ZM525.966,1485.601L520.102,1513.482C520.102,1513.482 517.934,1532.136 517.269,1540.153C516.678,1547.281 515.942,1554.429 516.115,1561.58C516.311,1569.674 517.352,1580.845 518.445,1588.715C519.386,1595.493 521.194,1602.12 522.67,1608.801C524.591,1617.493 525.838,1633.769 529.971,1640.867C533.41,1646.774 541.302,1648.516 547.464,1651.389C554.949,1654.879 566.98,1659.033 574.881,1661.804C581.466,1664.114 587.933,1667.312 594.87,1668.017C604.134,1668.959 619.867,1668.399 630.467,1667.453C639.915,1666.611 650.555,1664.129 658.468,1662.345C665.055,1660.86 673.176,1659.858 677.943,1656.752C682.373,1653.866 686.074,1647.602 687.072,1643.712C687.965,1640.234 686.178,1636.198 683.934,1633.409C681.679,1630.607 677.182,1628.754 673.544,1626.9C669.168,1624.67 662.831,1622.619 657.681,1620.029C651.56,1616.951 643.626,1612.55 636.814,1608.431C629.892,1604.244 622.988,1599.488 616.145,1594.91C608.953,1590.1 600.4,1585.12 593.667,1579.569C587.146,1574.193 581.128,1567.217 575.746,1561.602C570.834,1556.477 565.702,1551.514 561.376,1545.877C556.924,1540.075 552.83,1532.299 549.031,1526.79C545.729,1522.002 541.366,1517.481 538.583,1512.823C535.967,1508.444 534.437,1503.377 532.335,1498.84C530.275,1494.396 525.966,1485.601 525.966,1485.601ZM478.451,1193.186L465.232,1196.384C465.232,1196.384 454.336,1200.751 449.572,1204.108C444.374,1207.771 439.117,1213.501 434.04,1218.362C428.856,1223.324 423.153,1228.235 418.471,1233.88C413.497,1239.877 408.076,1246.977 404.195,1254.343C400.143,1262.037 397.108,1271.329 394.155,1280.042C391.142,1288.933 388.842,1298.486 386.118,1307.688C382.496,1319.926 376.525,1339.206 372.419,1353.471C368.612,1366.694 364.674,1382.282 361.479,1393.277C358.929,1402.056 356.002,1410.72 353.253,1419.438C349.774,1430.469 345.039,1447.395 340.609,1459.461C336.558,1470.493 332.693,1481.76 326.673,1491.835C319.515,1503.815 305.656,1521.477 297.66,1531.341C291.919,1538.423 284.71,1545.408 278.696,1551.019C273.305,1556.05 267.426,1560.527 261.579,1565.009C255.416,1569.735 247.703,1574.815 241.715,1579.373C236.237,1583.542 231.404,1588.589 225.646,1592.354C219.074,1596.652 209.724,1601.582 202.283,1605.158C195.378,1608.477 187.001,1611.426 181,1613.811C176.113,1615.753 171.011,1617.971 166.274,1619.468C161.791,1620.885 156.641,1621.403 152.572,1622.793C148.844,1624.067 145.142,1625.697 141.861,1627.809C138.58,1629.921 134.468,1632.412 132.887,1635.466C131.307,1638.52 131.968,1642.598 132.376,1646.134C132.832,1650.083 132.577,1655.906 135.621,1659.163C138.846,1662.614 146.04,1665.113 151.725,1666.838C160.235,1669.42 174.865,1672.956 186.681,1674.654C199.015,1676.428 212.683,1677.448 225.735,1677.48C238.999,1677.512 253.137,1677.052 266.267,1674.849C279.31,1672.66 292.871,1668.881 304.519,1664.259C315.658,1659.837 327.647,1652.085 336.156,1647.111C342.828,1643.211 349.596,1638.965 355.571,1634.416C361.396,1629.982 369.343,1624.406 372.004,1619.822C374.161,1616.106 371.939,1611.198 371.537,1606.911C370.992,1601.09 369.064,1592.286 368.731,1584.894C368.287,1575.029 368.452,1559.929 368.871,1547.723C369.284,1535.682 369.213,1523.531 371.244,1511.659C374.444,1492.958 381.385,1460.63 388.072,1435.517C396.412,1404.196 410.974,1355.338 421.286,1323.728C429.866,1297.428 442.62,1264.22 449.943,1245.858C454.358,1234.787 461.186,1220.757 465.227,1213.552C467.534,1209.437 471.981,1206.02 474.185,1202.625C476.063,1199.733 478.451,1193.186 478.451,1193.186ZM504.694,1194.189C504.694,1194.189 495.917,1198.511 492.328,1201.747C488.739,1204.983 485.774,1209.343 483.161,1213.607C479.559,1219.486 470.712,1237.023 470.712,1237.023C461.188,1259.939 442.139,1305.771 430.791,1341.197C418.299,1380.199 403.697,1438.566 395.757,1471.033C390.518,1492.457 384.603,1513.982 383.151,1536.001C381.659,1558.625 383.965,1587.085 386.806,1606.781C389.151,1623.037 393.858,1639.044 400.196,1654.174C406.953,1670.302 415.83,1688.746 427.347,1703.552C439.149,1718.725 455.727,1733.503 471.009,1745.211C485.815,1756.554 503.488,1766.352 519.042,1773.799C533.504,1780.722 554.705,1787.924 564.335,1789.892C568.645,1790.772 573.193,1788.105 576.825,1785.602C580.564,1783.024 586.286,1779.226 586.768,1774.426C587.25,1769.627 583.142,1762.113 579.716,1756.805C575.732,1750.633 567.989,1744.268 562.866,1737.392C557.328,1729.96 551.466,1720.905 546.487,1712.213C540.435,1701.65 532.322,1687.174 526.557,1674.011C520.32,1659.771 513.128,1641.738 509.067,1626.774C505.306,1612.915 502.963,1598.576 502.193,1584.227C501.267,1566.988 501.163,1543.502 503.512,1523.34C505.884,1502.976 511.192,1482.255 516.425,1462.046C522.595,1438.21 533.279,1404.736 540.537,1380.327C546.958,1358.73 556.467,1331.361 559.969,1315.588C562.132,1305.85 562.239,1295.647 561.55,1285.691C560.777,1274.533 558.561,1259.314 555.333,1248.64C552.434,1239.051 547.82,1229.318 542.185,1221.649C536.633,1214.093 521.528,1202.63 521.528,1202.63L504.694,1194.189ZM334.148,1428.659L321.715,1437.907C321.715,1437.907 308.583,1443.958 302.173,1447.277C295.764,1450.597 289.944,1455.121 283.257,1457.824C275.585,1460.925 264.35,1463.922 256.139,1465.886C248.858,1467.628 240.893,1468.515 233.995,1469.608C227.592,1470.622 220.603,1472.009 214.754,1472.441C209.485,1472.831 204.186,1472.373 198.904,1472.202C192.699,1472.001 183.79,1471.635 177.523,1471.234C172.107,1470.887 165.367,1470.223 161.303,1469.797C158.571,1469.51 155.854,1469.094 153.139,1468.677C149.928,1468.184 145.747,1467.395 142.038,1466.839C138.19,1466.263 133.859,1464.914 130.05,1465.219C126.265,1465.522 122.099,1466.452 119.184,1468.668C116.27,1470.884 113.466,1475.113 112.564,1478.513C111.662,1481.914 112.467,1485.783 113.774,1489.07C115.401,1493.16 118.706,1498.975 122.326,1503.057C125.975,1507.173 131.298,1510.466 135.665,1513.761C139.853,1516.922 144.237,1519.81 148.527,1522.829C152.839,1525.862 156.88,1529.444 161.535,1531.964C167.998,1535.464 180.835,1540.938 187.305,1543.829C191.613,1545.755 195.927,1547.684 200.354,1549.311C206.045,1551.403 214.653,1554.787 221.449,1556.38C227.888,1557.889 236.183,1559.167 241.128,1558.865C244.741,1558.645 248.163,1556.68 251.118,1554.57C255.576,1551.388 262.461,1544.896 267.875,1539.773C273.357,1534.587 279.039,1529.275 284.007,1523.451C289.258,1517.296 295.168,1509.294 299.382,1502.84C303.142,1497.08 306.077,1490.812 309.289,1484.724C312.868,1477.942 317.362,1468.539 320.853,1462.147C323.786,1456.775 328.258,1450.531 330.232,1446.368C331.589,1443.504 332.039,1440.123 332.691,1437.172C333.313,1434.361 334.148,1428.659 334.148,1428.659ZM771.085,141.24C771.085,149.256 772.317,156.547 774.781,163.112C777.246,169.677 780.737,175.309 785.255,180.008C789.774,184.707 795.25,188.369 801.685,190.995C808.12,193.621 815.24,194.934 823.044,194.934C829.205,194.934 834.887,193.794 840.09,191.514C845.293,189.233 849.88,186.158 853.85,182.288L853.85,193.276L885.683,193.276L885.683,89.62L853.85,89.62L853.85,98.949C849.88,95.493 845.327,92.798 840.193,90.864C835.059,88.929 829.342,87.961 823.044,87.961C815.24,87.961 808.12,89.274 801.685,91.9C795.25,94.526 789.774,98.154 785.255,102.784C780.737,107.414 777.246,113.011 774.781,119.576C772.317,126.141 771.085,133.363 771.085,141.24ZM810.516,120.716C813.255,117.952 816.062,115.845 818.937,114.393C821.812,112.942 825.235,112.217 829.205,112.217C837.147,112.217 843.992,115.119 849.743,120.924C851.523,122.721 852.892,124.586 853.85,126.521L853.85,156.582C852.892,158.516 851.523,160.382 849.743,162.179C847.005,164.943 843.855,167.051 840.296,168.502C836.736,169.953 833.039,170.679 829.205,170.679C825.235,170.679 821.812,169.953 818.937,168.502C816.062,167.051 813.255,164.943 810.516,162.179C807.778,159.415 805.827,156.236 804.663,152.643C803.5,149.049 802.918,145.248 802.918,141.24C802.918,137.371 803.5,133.674 804.663,130.149C805.827,126.625 807.778,123.481 810.516,120.716ZM1031.909,82.156C1036.291,82.156 1040.022,80.602 1043.102,77.492C1046.183,74.382 1047.723,70.616 1047.723,66.193C1047.723,61.771 1046.183,57.97 1043.102,54.791C1040.022,51.612 1036.291,50.023 1031.909,50.023C1027.528,50.023 1023.763,51.612 1020.614,54.791C1017.465,57.97 1015.89,61.771 1015.89,66.193C1015.89,68.405 1016.301,70.478 1017.123,72.413C1017.944,74.348 1019.074,76.041 1020.511,77.492C1021.949,78.943 1023.66,80.083 1025.646,80.913C1027.631,81.742 1029.719,82.156 1031.909,82.156ZM1420.502,1612.9C1420.836,1611.708 1421.003,1610.403 1421.003,1608.986C1421.003,1604.374 1419.599,1600.674 1416.792,1597.885C1413.895,1594.983 1409.894,1593.532 1404.791,1593.532C1400.401,1593.532 1396.602,1595.14 1393.393,1598.357C1389.805,1601.956 1388.011,1606.736 1388.011,1612.698C1388.011,1618.434 1389.76,1623 1393.259,1626.397C1396.401,1629.479 1400.223,1631.02 1404.724,1631.02C1407.844,1631.02 1410.674,1630.547 1413.215,1629.602C1415.243,1628.883 1416.747,1628.028 1417.727,1627.038L1415.053,1622.415C1412.624,1624.552 1409.594,1625.621 1405.961,1625.621C1402.775,1625.621 1400.167,1624.631 1398.139,1622.651C1395.844,1620.38 1394.696,1617.129 1394.696,1612.9L1420.502,1612.9ZM1405.092,1598.931C1408.123,1598.931 1410.518,1599.875 1412.279,1601.765C1413.883,1603.497 1414.686,1605.657 1414.686,1608.244L1394.864,1608.244C1395.109,1605.634 1396.145,1603.452 1397.972,1601.698C1399.889,1599.853 1402.262,1598.931 1405.092,1598.931ZM1461.216,1631.02L1476.926,1594.106L1470.274,1594.106L1460.614,1619.412L1451.154,1594.106L1444.201,1594.106L1459.544,1631.02L1461.216,1631.02ZM1511.991,1612.9C1512.325,1611.708 1512.492,1610.403 1512.492,1608.986C1512.492,1604.374 1511.088,1600.674 1508.28,1597.885C1505.384,1594.983 1501.383,1593.532 1496.28,1593.532C1491.89,1593.532 1488.091,1595.14 1484.882,1598.357C1481.294,1601.956 1479.5,1606.736 1479.5,1612.698C1479.5,1618.434 1481.249,1623 1484.748,1626.397C1487.89,1629.479 1491.712,1631.02 1496.213,1631.02C1499.333,1631.02 1502.163,1630.547 1504.704,1629.602C1506.732,1628.883 1508.236,1628.028 1509.216,1627.038L1506.542,1622.415C1504.113,1624.552 1501.083,1625.621 1497.45,1625.621C1494.264,1625.621 1491.656,1624.631 1489.628,1622.651C1487.333,1620.38 1486.185,1617.129 1486.185,1612.9L1511.991,1612.9ZM1496.581,1598.931C1499.612,1598.931 1502.007,1599.875 1503.768,1601.765C1505.372,1603.497 1506.175,1605.657 1506.175,1608.244L1486.353,1608.244C1486.598,1605.634 1487.634,1603.452 1489.461,1601.698C1491.378,1599.853 1493.751,1598.931 1496.581,1598.931ZM1538.632,1600.382L1541.273,1594.139C1539.133,1593.734 1537.495,1593.532 1536.359,1593.532C1531.791,1593.532 1528.348,1595.68 1526.03,1599.977L1526.03,1594.207L1519.679,1594.207L1519.679,1630.345L1526.03,1630.345L1526.03,1609.627C1526.03,1606.68 1526.871,1604.161 1528.554,1602.069C1530.236,1599.977 1532.203,1598.931 1534.454,1598.931C1535.858,1598.931 1537.25,1599.414 1538.632,1600.382ZM1568.482,1630.311L1574.833,1630.311L1574.833,1579.394L1568.482,1579.394L1568.482,1596.164C1566.566,1594.409 1563.758,1593.532 1560.059,1593.532C1555.624,1593.532 1551.802,1595.45 1548.593,1599.285C1545.384,1603.12 1543.78,1607.749 1543.78,1613.17C1543.78,1618.569 1545.172,1622.888 1547.958,1626.127C1550.744,1629.366 1554.376,1630.986 1558.855,1630.986C1563.067,1630.986 1566.276,1629.872 1568.482,1627.645L1568.482,1630.311ZM1568.482,1602.575L1568.482,1622.618C1568.125,1623.338 1567.245,1624.018 1565.841,1624.659C1564.437,1625.3 1563.234,1625.621 1562.231,1625.621C1554.387,1625.621 1550.465,1621.268 1550.465,1612.563C1550.465,1608.603 1551.518,1605.342 1553.624,1602.777C1555.73,1600.213 1558.487,1598.931 1561.897,1598.931C1564.683,1598.931 1566.878,1600.145 1568.482,1602.575ZM1589.942,1594.207L1583.591,1594.207L1583.591,1617.928C1583.591,1622.112 1584.633,1625.34 1586.716,1627.612C1588.8,1629.884 1591.803,1631.02 1595.725,1631.02C1597.775,1631.02 1599.875,1630.429 1602.026,1629.248C1604.176,1628.067 1605.608,1626.768 1606.321,1625.351L1606.321,1630.345L1612.672,1630.345L1612.672,1594.207L1606.321,1594.207L1606.321,1619.581C1605.764,1621.178 1604.616,1622.584 1602.878,1623.799C1601.14,1625.013 1599.223,1625.621 1597.129,1625.621C1592.338,1625.621 1589.942,1622.831 1589.942,1617.253L1589.942,1594.207ZM1640.784,1600.382L1643.425,1594.139C1641.285,1593.734 1639.648,1593.532 1638.511,1593.532C1633.943,1593.532 1630.5,1595.68 1628.182,1599.977L1628.182,1594.207L1621.831,1594.207L1621.831,1630.345L1628.182,1630.345L1628.182,1609.627C1628.182,1606.68 1629.023,1604.161 1630.706,1602.069C1632.388,1599.977 1634.355,1598.931 1636.606,1598.931C1638.01,1598.931 1639.402,1599.414 1640.784,1600.382ZM1668.161,1626.194C1668.718,1627.904 1669.637,1629.13 1670.918,1629.872C1672.2,1630.615 1674.133,1630.986 1676.718,1630.986L1676.718,1627.78C1674.846,1626.723 1673.91,1624.609 1673.91,1621.437L1673.91,1608.48C1673.91,1603.283 1672.734,1599.493 1670.383,1597.109C1668.032,1594.724 1664.261,1593.532 1659.068,1593.532C1657.13,1593.532 1655.096,1593.886 1652.968,1594.595C1650.84,1595.303 1649.174,1596.153 1647.971,1597.142L1650.645,1602.507C1652.784,1600.348 1655.837,1599.268 1659.804,1599.268C1664.974,1599.268 1667.559,1602.192 1667.559,1608.041C1665.865,1607.456 1664.35,1607.164 1663.013,1607.164C1658.088,1607.164 1654.038,1608.429 1650.862,1610.96C1647.687,1613.49 1646.099,1616.589 1646.099,1620.256C1646.099,1623.315 1647.13,1625.874 1649.191,1627.932C1651.252,1629.99 1653.687,1631.02 1656.495,1631.02C1661.731,1631.02 1665.62,1629.411 1668.161,1626.194ZM1667.559,1612.596L1667.559,1621.336C1665.085,1624.417 1662.244,1625.958 1659.035,1625.958C1654.645,1625.958 1652.45,1624.08 1652.45,1620.323C1652.45,1618.051 1653.464,1616.083 1655.492,1614.418C1657.52,1612.754 1660.138,1611.921 1663.347,1611.921C1664.149,1611.921 1665.553,1612.146 1667.559,1612.596ZM1681.565,1628.185C1684.885,1630.075 1688.428,1631.02 1692.194,1631.02C1696.183,1631.02 1699.303,1630.103 1701.554,1628.27C1703.805,1626.436 1704.93,1623.9 1704.93,1620.661C1704.93,1618.186 1704.295,1616.128 1703.025,1614.486C1701.754,1612.844 1699.727,1611.382 1696.941,1610.099L1692.395,1608.007C1689.788,1606.815 1688.484,1605.061 1688.484,1602.744C1688.484,1601.641 1689.002,1600.73 1690.038,1600.01C1691.075,1599.291 1692.35,1598.931 1693.866,1598.931C1696.406,1598.931 1698.935,1599.943 1701.454,1601.967L1703.259,1596.029C1699.292,1594.364 1696.005,1593.532 1693.398,1593.532C1689.944,1593.532 1687.147,1594.364 1685.008,1596.029C1682.868,1597.693 1681.799,1600.01 1681.799,1602.98C1681.799,1604.127 1681.983,1605.201 1682.35,1606.202C1682.718,1607.203 1683.275,1608.148 1684.022,1609.036C1684.768,1609.925 1685.648,1610.718 1686.662,1611.415C1687.676,1612.113 1689.643,1613.136 1692.562,1614.486C1696.35,1616.195 1698.245,1618.243 1698.245,1620.627C1698.245,1623.956 1696.284,1625.621 1692.362,1625.621C1690.2,1625.621 1687.348,1624.451 1683.804,1622.112L1681.565,1628.185ZM902.722,1716.725L917.897,1674.446L911.413,1674.446L901.953,1702.384L891.423,1674.446L884.939,1674.446L894.632,1699.584C895.724,1702.418 896.616,1704.797 897.307,1706.72C897.997,1708.644 898.343,1710.595 898.343,1712.575C898.343,1714.374 897.396,1715.898 895.502,1717.147C893.607,1718.395 891.334,1719.019 888.682,1719.019L888.682,1724.756C891.936,1724.756 894.883,1723.991 897.524,1722.461C900.165,1720.931 901.897,1719.019 902.722,1716.725ZM962.79,1665.369L964.561,1660.645C962.444,1659.97 960.461,1659.633 958.611,1659.633C954.912,1659.633 951.937,1660.949 949.686,1663.581C947.436,1666.213 946.31,1669.834 946.31,1674.446L941.096,1674.446L941.096,1679.845L946.31,1679.845L946.31,1710.584L952.661,1710.584L952.661,1679.845L959.948,1679.845L959.948,1674.446L952.661,1674.446C952.55,1673.793 952.494,1673.164 952.494,1672.556C952.494,1670.284 953.124,1668.406 954.383,1666.921C955.642,1665.437 957.241,1664.694 959.179,1664.694C960.294,1664.694 961.497,1664.919 962.79,1665.369ZM988.194,1680.621L990.835,1674.378C988.695,1673.973 987.057,1673.771 985.921,1673.771C981.353,1673.771 977.91,1675.919 975.592,1680.216L975.592,1674.446L969.241,1674.446L969.241,1710.584L975.592,1710.584L975.592,1689.866C975.592,1686.919 976.433,1684.4 978.116,1682.308C979.798,1680.216 981.765,1679.17 984.016,1679.17C985.419,1679.17 986.812,1679.653 988.194,1680.621ZM1001.364,1674.446L995.013,1674.446L995.013,1698.167C995.013,1702.351 996.055,1705.579 998.138,1707.851C1000.222,1710.123 1003.225,1711.259 1007.147,1711.259C1009.197,1711.259 1011.297,1710.668 1013.448,1709.487C1015.598,1708.306 1017.03,1707.007 1017.743,1705.59L1017.743,1710.584L1024.094,1710.584L1024.094,1674.446L1017.743,1674.446L1017.743,1699.82C1017.186,1701.417 1016.038,1702.823 1014.3,1704.038C1012.562,1705.253 1010.646,1705.86 1008.551,1705.86C1003.76,1705.86 1001.364,1703.071 1001.364,1697.492L1001.364,1674.446ZM1035.025,1679.507L1035.025,1700.022C1035.025,1703.262 1036,1705.944 1037.95,1708.07C1039.899,1710.196 1042.289,1711.259 1045.12,1711.259C1048.262,1711.259 1051.148,1710.921 1053.777,1710.246L1052.841,1704.611C1051.103,1705.444 1049.421,1705.86 1047.794,1705.86C1045.543,1705.86 1043.911,1705.219 1042.897,1703.937C1041.883,1702.654 1041.376,1700.495 1041.376,1697.458L1041.376,1679.507L1051.203,1679.507L1051.203,1674.446L1041.376,1674.446L1041.376,1664.424L1035.025,1666.888L1035.025,1674.446L1030.88,1674.446L1030.88,1679.507L1035.025,1679.507ZM1080.117,1706.434C1080.675,1708.143 1081.594,1709.369 1082.875,1710.111C1084.156,1710.854 1086.09,1711.225 1088.675,1711.225L1088.675,1708.019C1086.803,1706.962 1085.867,1704.848 1085.867,1701.676L1085.867,1688.719C1085.867,1683.523 1084.691,1679.732 1082.34,1677.348C1079.989,1674.963 1076.218,1673.771 1071.025,1673.771C1069.087,1673.771 1067.053,1674.125 1064.925,1674.834C1062.797,1675.542 1061.131,1676.392 1059.928,1677.381L1062.602,1682.746C1064.741,1680.587 1067.794,1679.507 1071.761,1679.507C1076.931,1679.507 1079.516,1682.432 1079.516,1688.28C1077.822,1687.695 1076.307,1687.403 1074.97,1687.403C1070.045,1687.403 1065.995,1688.668 1062.819,1691.199C1059.644,1693.73 1058.056,1696.828 1058.056,1700.495C1058.056,1703.554 1059.086,1706.113 1061.148,1708.171C1063.209,1710.23 1065.644,1711.259 1068.451,1711.259C1073.688,1711.259 1077.577,1709.65 1080.117,1706.434ZM1079.516,1692.835L1079.516,1701.575C1077.042,1704.656 1074.201,1706.197 1070.992,1706.197C1066.602,1706.197 1064.407,1704.319 1064.407,1700.562C1064.407,1698.29 1065.421,1696.322 1067.449,1694.657C1069.477,1692.993 1072.095,1692.161 1075.304,1692.161C1076.106,1692.161 1077.51,1692.385 1079.516,1692.835ZM1093.522,1708.424C1096.842,1710.314 1100.385,1711.259 1104.151,1711.259C1108.14,1711.259 1111.26,1710.342 1113.511,1708.509C1115.761,1706.675 1116.887,1704.139 1116.887,1700.9C1116.887,1698.425 1116.252,1696.367 1114.981,1694.725C1113.711,1693.083 1111.683,1691.621 1108.898,1690.338L1104.352,1688.246C1101.745,1687.054 1100.441,1685.3 1100.441,1682.983C1100.441,1681.88 1100.959,1680.969 1101.995,1680.25C1103.031,1679.53 1104.307,1679.17 1105.823,1679.17C1108.363,1679.17 1110.892,1680.182 1113.41,1682.207L1115.215,1676.268C1111.249,1674.603 1107.962,1673.771 1105.355,1673.771C1101.9,1673.771 1099.104,1674.603 1096.964,1676.268C1094.825,1677.933 1093.756,1680.25 1093.756,1683.219C1093.756,1684.366 1093.939,1685.44 1094.307,1686.441C1094.675,1687.442 1095.232,1688.387 1095.978,1689.276C1096.725,1690.164 1097.605,1690.957 1098.619,1691.654C1099.633,1692.352 1101.6,1693.375 1104.519,1694.725C1108.307,1696.435 1110.201,1698.482 1110.201,1700.866C1110.201,1704.195 1108.24,1705.86 1104.318,1705.86C1102.157,1705.86 1099.304,1704.69 1095.761,1702.351L1093.522,1708.424ZM1130.893,1701.102C1129.511,1701.102 1128.33,1701.597 1127.349,1702.587C1126.369,1703.577 1125.879,1704.769 1125.879,1706.164C1125.879,1707.558 1126.369,1708.756 1127.349,1709.757C1128.33,1710.758 1129.511,1711.259 1130.893,1711.259C1132.274,1711.259 1133.455,1710.758 1134.436,1709.757C1135.416,1708.756 1135.907,1707.558 1135.907,1706.164C1135.907,1704.769 1135.416,1703.577 1134.436,1702.587C1133.455,1701.597 1132.274,1701.102 1130.893,1701.102ZM903.524,1842.651C908.605,1842.651 912.722,1841.358 915.875,1838.771C919.028,1836.184 920.605,1832.719 920.605,1828.378C920.605,1824.621 919.719,1821.652 917.948,1819.47C916.176,1817.288 913.351,1815.725 909.474,1814.78C911.524,1814.307 913.396,1813.126 915.09,1811.237C916.783,1809.347 917.63,1807.255 917.63,1804.961C917.63,1801.047 916.304,1798.038 913.652,1795.935C911,1793.832 907.257,1792.78 902.421,1792.78C899.791,1792.78 895.502,1792.926 889.552,1793.219L889.552,1842.651L903.524,1842.651ZM896.237,1798.617C897.997,1798.46 899.992,1798.381 902.22,1798.381C908.037,1798.381 910.945,1800.664 910.945,1805.231C910.945,1810.427 907.78,1813.025 901.451,1813.025C899.379,1813.025 897.641,1812.958 896.237,1812.823L896.237,1798.617ZM896.237,1818.053L901.619,1817.884C905.92,1817.884 908.989,1818.649 910.828,1820.179C912.666,1821.708 913.585,1824.081 913.585,1827.298C913.585,1830.762 912.622,1833.287 910.694,1834.873C908.766,1836.459 905.708,1837.252 901.518,1837.252C900.293,1837.252 898.532,1837.14 896.237,1836.915L896.237,1818.053ZM925.452,1824.498C925.452,1830.256 926.878,1834.834 929.731,1838.231C932.583,1841.627 936.561,1843.326 941.664,1843.326C946.656,1843.326 950.6,1841.644 953.497,1838.281C956.394,1834.918 957.842,1830.324 957.842,1824.498C957.842,1818.649 956.427,1814.077 953.597,1810.781C950.767,1807.486 946.789,1805.838 941.664,1805.838C936.806,1805.838 932.889,1807.553 929.914,1810.984C926.939,1814.414 925.452,1818.919 925.452,1824.498ZM932.137,1824.498C932.137,1820.314 933.001,1817.029 934.728,1814.645C936.455,1812.26 938.767,1811.068 941.664,1811.068C947.993,1811.068 951.157,1815.545 951.157,1824.498C951.157,1828.704 950.316,1832.022 948.633,1834.452C946.951,1836.881 944.628,1838.096 941.664,1838.096C935.313,1838.096 932.137,1833.563 932.137,1824.498ZM983.982,1812.688L986.623,1806.446C984.484,1806.041 982.846,1805.838 981.709,1805.838C977.141,1805.838 973.698,1807.986 971.38,1812.283L971.38,1806.513L965.029,1806.513L965.029,1842.651L971.38,1842.651L971.38,1821.933C971.38,1818.986 972.221,1816.467 973.904,1814.375C975.586,1812.283 977.553,1811.237 979.804,1811.237C981.208,1811.237 982.6,1811.721 983.982,1812.688ZM1010.59,1812.688L1013.231,1806.446C1011.091,1806.041 1009.453,1805.838 1008.317,1805.838C1003.748,1805.838 1000.306,1807.986 997.988,1812.283L997.988,1806.513L991.637,1806.513L991.637,1842.651L997.988,1842.651L997.988,1821.933C997.988,1818.986 998.829,1816.467 1000.512,1814.375C1002.194,1812.283 1004.161,1811.237 1006.411,1811.237C1007.815,1811.237 1009.208,1811.721 1010.59,1812.688ZM1037.966,1838.501C1038.523,1840.21 1039.443,1841.436 1040.724,1842.179C1042.005,1842.921 1043.939,1843.292 1046.524,1843.292L1046.524,1840.087C1044.652,1839.029 1043.716,1836.915 1043.716,1833.743L1043.716,1820.786C1043.716,1815.59 1042.54,1811.799 1040.189,1809.415C1037.838,1807.03 1034.067,1805.838 1028.874,1805.838C1026.935,1805.838 1024.902,1806.192 1022.774,1806.901C1020.646,1807.61 1018.98,1808.459 1017.777,1809.449L1020.451,1814.814C1022.59,1812.654 1025.643,1811.574 1029.61,1811.574C1034.78,1811.574 1037.365,1814.499 1037.365,1820.347C1035.671,1819.762 1034.156,1819.47 1032.819,1819.47C1027.894,1819.47 1023.843,1820.735 1020.668,1823.266C1017.492,1825.797 1015.905,1828.895 1015.905,1832.562C1015.905,1835.621 1016.935,1838.18 1018.997,1840.238C1021.058,1842.297 1023.493,1843.326 1026.3,1843.326C1031.537,1843.326 1035.426,1841.717 1037.966,1838.501ZM1037.365,1824.903L1037.365,1833.642C1034.891,1836.724 1032.05,1838.264 1028.841,1838.264C1024.451,1838.264 1022.256,1836.386 1022.256,1832.63C1022.256,1830.358 1023.27,1828.389 1025.298,1826.725C1027.325,1825.06 1029.944,1824.228 1033.153,1824.228C1033.955,1824.228 1035.359,1824.453 1037.365,1824.903ZM1097.031,1842.617L1103.382,1842.617L1103.382,1791.7L1097.031,1791.7L1097.031,1808.47C1095.115,1806.715 1092.307,1805.838 1088.608,1805.838C1084.173,1805.838 1080.351,1807.756 1077.142,1811.591C1073.933,1815.427 1072.329,1820.055 1072.329,1825.476C1072.329,1830.875 1073.722,1835.194 1076.507,1838.433C1079.293,1841.672 1082.925,1843.292 1087.404,1843.292C1091.616,1843.292 1094.825,1842.179 1097.031,1839.952L1097.031,1842.617ZM1097.031,1814.881L1097.031,1834.924C1096.675,1835.644 1095.795,1836.324 1094.391,1836.965C1092.987,1837.606 1091.783,1837.927 1090.781,1837.927C1082.936,1837.927 1079.014,1833.574 1079.014,1824.869C1079.014,1820.91 1080.067,1817.648 1082.173,1815.084C1084.279,1812.519 1087.037,1811.237 1090.446,1811.237C1093.232,1811.237 1095.427,1812.452 1097.031,1814.881ZM1142.625,1825.206C1142.96,1824.014 1143.127,1822.709 1143.127,1821.292C1143.127,1816.681 1141.723,1812.98 1138.915,1810.191C1136.018,1807.289 1132.018,1805.838 1126.915,1805.838C1122.525,1805.838 1118.725,1807.447 1115.516,1810.663C1111.929,1814.262 1110.135,1819.043 1110.135,1825.004C1110.135,1830.74 1111.884,1835.306 1115.383,1838.703C1118.525,1841.785 1122.347,1843.326 1126.848,1843.326C1129.968,1843.326 1132.798,1842.853 1135.338,1841.909C1137.366,1841.189 1138.87,1840.334 1139.851,1839.344L1137.177,1834.722C1134.748,1836.859 1131.717,1837.927 1128.085,1837.927C1124.898,1837.927 1122.291,1836.937 1120.263,1834.958C1117.968,1832.686 1116.82,1829.435 1116.82,1825.206L1142.625,1825.206ZM1127.216,1811.237C1130.246,1811.237 1132.642,1812.182 1134.402,1814.071C1136.007,1815.803 1136.809,1817.963 1136.809,1820.55L1116.987,1820.55C1117.232,1817.94 1118.268,1815.758 1120.096,1814.004C1122.012,1812.159 1124.386,1811.237 1127.216,1811.237ZM1197.445,1809.449C1196.42,1808.616 1194.827,1807.806 1192.665,1807.019C1190.504,1806.232 1188.498,1805.838 1186.648,1805.838C1180.899,1805.838 1176.37,1807.582 1173.06,1811.068C1169.751,1814.555 1168.097,1819.178 1168.097,1824.936C1168.097,1830.582 1169.69,1835.059 1172.877,1838.366C1176.063,1841.672 1180.097,1843.326 1184.977,1843.326C1190.013,1843.326 1194.236,1842.212 1197.646,1839.985L1195.139,1834.587C1192.242,1836.814 1189.367,1837.927 1186.515,1837.927C1182.838,1837.927 1179.963,1836.819 1177.891,1834.603C1175.818,1832.388 1174.782,1829.165 1174.782,1824.936C1174.782,1820.685 1175.796,1817.339 1177.824,1814.898C1179.852,1812.457 1182.593,1811.237 1186.047,1811.237C1187.629,1811.237 1189.239,1811.529 1190.877,1812.114C1192.515,1812.699 1193.657,1813.318 1194.303,1813.97L1197.445,1809.449ZM1224.554,1838.501C1225.111,1840.21 1226.031,1841.436 1227.312,1842.179C1228.593,1842.921 1230.527,1843.292 1233.112,1843.292L1233.112,1840.087C1231.24,1839.029 1230.304,1836.915 1230.304,1833.743L1230.304,1820.786C1230.304,1815.59 1229.128,1811.799 1226.777,1809.415C1224.426,1807.03 1220.655,1805.838 1215.462,1805.838C1213.524,1805.838 1211.49,1806.192 1209.362,1806.901C1207.234,1807.61 1205.568,1808.459 1204.365,1809.449L1207.039,1814.814C1209.178,1812.654 1212.231,1811.574 1216.198,1811.574C1221.368,1811.574 1223.953,1814.499 1223.953,1820.347C1222.259,1819.762 1220.744,1819.47 1219.407,1819.47C1214.482,1819.47 1210.432,1820.735 1207.256,1823.266C1204.08,1825.797 1202.493,1828.895 1202.493,1832.562C1202.493,1835.621 1203.523,1838.18 1205.585,1840.238C1207.646,1842.297 1210.081,1843.326 1212.888,1843.326C1218.125,1843.326 1222.014,1841.717 1224.554,1838.501ZM1223.953,1824.903L1223.953,1833.642C1221.479,1836.724 1218.638,1838.264 1215.429,1838.264C1211.039,1838.264 1208.844,1836.386 1208.844,1832.63C1208.844,1830.358 1209.858,1828.389 1211.886,1826.725C1213.913,1825.06 1216.532,1824.228 1219.741,1824.228C1220.543,1824.228 1221.947,1824.453 1223.953,1824.903ZM1259.652,1797.436L1261.424,1792.712C1259.307,1792.038 1257.324,1791.7 1255.474,1791.7C1251.775,1791.7 1248.8,1793.016 1246.549,1795.648C1244.298,1798.28 1243.173,1801.902 1243.173,1806.513L1237.958,1806.513L1237.958,1811.912L1243.173,1811.912L1243.173,1842.651L1249.524,1842.651L1249.524,1811.912L1256.811,1811.912L1256.811,1806.513L1249.524,1806.513C1249.413,1805.861 1249.357,1805.231 1249.357,1804.623C1249.357,1802.351 1249.987,1800.473 1251.246,1798.988C1252.505,1797.504 1254.104,1796.762 1256.042,1796.762C1257.157,1796.762 1258.36,1796.986 1259.652,1797.436ZM1295.753,1825.206C1296.088,1824.014 1296.255,1822.709 1296.255,1821.292C1296.255,1816.681 1294.851,1812.98 1292.043,1810.191C1289.146,1807.289 1285.146,1805.838 1280.043,1805.838C1275.653,1805.838 1271.853,1807.447 1268.644,1810.663C1265.056,1814.262 1263.263,1819.043 1263.263,1825.004C1263.263,1830.74 1265.012,1835.306 1268.51,1838.703C1271.653,1841.785 1275.474,1843.326 1279.976,1843.326C1283.096,1843.326 1285.926,1842.853 1288.466,1841.909C1290.494,1841.189 1291.998,1840.334 1292.979,1839.344L1290.305,1834.722C1287.876,1836.859 1284.845,1837.927 1281.213,1837.927C1278.026,1837.927 1275.419,1836.937 1273.391,1834.958C1271.095,1832.686 1269.948,1829.435 1269.948,1825.206L1295.753,1825.206ZM1280.344,1811.237C1283.374,1811.237 1285.77,1812.182 1287.53,1814.071C1289.135,1815.803 1289.937,1817.963 1289.937,1820.55L1270.115,1820.55C1270.36,1817.94 1271.396,1815.758 1273.224,1814.004C1275.14,1812.159 1277.513,1811.237 1280.344,1811.237ZM1288.633,1788.056L1282.048,1788.056L1276.399,1799.292L1281.079,1799.292L1288.633,1788.056Z" style="fill:rgb(24,123,73);"/>
    </g>
</svg>
