<?xml version="1.0" encoding="UTF-8" standalone="no"?>
<!DOCTYPE svg PUBLIC "-//W3C//DTD SVG 1.1//EN" "http://www.w3.org/Graphics/SVG/1.1/DTD/svg11.dtd">
<svg width="100%" height="100%" viewBox="0 0 1749 2481" version="1.1" xmlns="http://www.w3.org/2000/svg" xmlns:xlink="http://www.w3.org/1999/xlink" xml:space="preserve" xmlns:serif="http://www.serif.com/" style="fill-rule:evenodd;clip-rule:evenodd;stroke-linejoin:round;stroke-miterlimit:2;">
    <rect x="0" y="0" width="1748.031" height="2480.315"/>
    <path d="M1748.031,0L1748.031,2480.315L0,2480.315L0,0L1748.031,0ZM542.107,1108.745C542.649,1110.394 543.545,1111.577 544.792,1112.293C546.04,1113.009 547.923,1113.367 550.44,1113.367L550.44,1110.275C548.617,1109.255 547.706,1107.215 547.706,1104.155L547.706,1091.655C547.706,1086.642 546.561,1082.985 544.272,1080.685C541.982,1078.384 538.309,1077.234 533.253,1077.234C531.365,1077.234 529.384,1077.576 527.312,1078.26C525.239,1078.943 523.617,1079.763 522.445,1080.717L525.05,1085.893C527.133,1083.81 530.106,1082.768 533.969,1082.768C539.004,1082.768 541.521,1085.589 541.521,1091.232C539.872,1090.667 538.396,1090.385 537.094,1090.385C532.298,1090.385 528.354,1091.606 525.261,1094.047C522.169,1096.489 520.623,1099.478 520.623,1103.016C520.623,1105.967 521.626,1108.435 523.634,1110.421C525.641,1112.407 528.012,1113.4 530.746,1113.4C535.846,1113.4 539.633,1111.848 542.107,1108.745ZM541.521,1095.626L541.521,1104.057C539.112,1107.03 536.345,1108.517 533.22,1108.517C528.945,1108.517 526.807,1106.705 526.807,1103.081C526.807,1100.889 527.795,1098.99 529.77,1097.384C531.744,1095.778 534.294,1094.975 537.419,1094.975C538.201,1094.975 539.568,1095.192 541.521,1095.626ZM1517.943,144.525L1517.943,194.725L1548.943,194.725L1548.943,144.525C1548.943,136.925 1547.743,129.959 1545.343,123.625C1542.943,117.292 1539.543,111.892 1535.143,107.425C1530.743,102.959 1525.41,99.459 1519.143,96.925C1512.877,94.392 1505.943,93.125 1498.343,93.125C1492.077,93.125 1486.477,94.059 1481.543,95.925C1476.61,97.792 1472.21,100.392 1468.343,103.725L1468.343,94.725L1437.343,94.725L1437.343,194.725L1468.343,194.725L1468.343,130.325C1469.277,128.459 1470.61,126.659 1472.343,124.925C1477.943,119.325 1484.61,116.525 1492.343,116.525C1500.21,116.525 1506.943,119.325 1512.543,124.925C1515.21,127.592 1516.777,130.592 1517.243,133.925C1517.71,137.259 1517.943,140.792 1517.943,144.525ZM712.543,159.325L712.543,145.125C712.277,136.992 710.677,129.692 707.743,123.225C704.81,116.759 700.81,111.292 695.743,106.825C690.677,102.359 684.743,98.959 677.943,96.625C671.143,94.292 663.81,93.125 655.943,93.125C648.877,93.125 641.943,94.192 635.143,96.325C628.343,98.459 622.31,101.692 617.043,106.025C611.777,110.359 607.543,115.759 604.343,122.225C601.143,128.692 599.543,136.259 599.543,144.925C599.543,153.592 601.143,161.125 604.343,167.525C607.543,173.925 611.777,179.259 617.043,183.525C622.31,187.792 628.343,190.992 635.143,193.125C641.943,195.259 648.877,196.325 655.943,196.325C663.677,196.325 671.11,195.092 678.243,192.625C685.377,190.159 691.677,186.459 697.143,181.525L677.143,163.725C675.277,166.792 672.343,169.092 668.343,170.625C664.343,172.159 660.21,172.925 655.943,172.925C651.143,172.925 646.91,171.659 643.243,169.125C639.577,166.592 636.61,163.392 634.343,159.525L712.543,159.325ZM637.943,124.725C640.61,122.059 643.343,120.025 646.143,118.625C648.943,117.225 652.21,116.525 655.943,116.525C659.81,116.525 663.143,117.225 665.943,118.625C668.743,120.025 671.477,122.059 674.143,124.725C675.61,126.192 676.843,127.859 677.843,129.725C678.843,131.592 679.677,133.525 680.343,135.525L631.743,135.525C632.41,133.525 633.243,131.592 634.243,129.725C635.243,127.859 636.477,126.192 637.943,124.725ZM1432.743,144.925C1432.743,136.259 1431.143,128.692 1427.943,122.225C1424.743,115.759 1420.477,110.359 1415.143,106.025C1409.81,101.692 1403.777,98.459 1397.043,96.325C1390.31,94.192 1383.343,93.125 1376.143,93.125C1369.077,93.125 1362.143,94.192 1355.343,96.325C1348.543,98.459 1342.51,101.692 1337.243,106.025C1331.977,110.359 1327.743,115.759 1324.543,122.225C1321.343,128.692 1319.743,136.259 1319.743,144.925C1319.743,153.592 1321.343,161.125 1324.543,167.525C1327.743,173.925 1331.977,179.259 1337.243,183.525C1342.51,187.792 1348.543,190.992 1355.343,193.125C1362.143,195.259 1369.077,196.325 1376.143,196.325C1383.343,196.325 1390.31,195.259 1397.043,193.125C1403.777,190.992 1409.81,187.792 1415.143,183.525C1420.477,179.259 1424.743,173.925 1427.943,167.525C1431.143,161.125 1432.743,153.592 1432.743,144.925ZM1394.343,164.725C1391.677,167.392 1388.677,169.325 1385.343,170.525C1382.01,171.725 1378.943,172.325 1376.143,172.325C1373.477,172.325 1370.477,171.692 1367.143,170.425C1363.81,169.159 1360.81,167.192 1358.143,164.525C1355.477,161.859 1353.577,158.859 1352.443,155.525C1351.31,152.192 1350.743,148.659 1350.743,144.925C1350.743,141.059 1351.31,137.392 1352.443,133.925C1353.577,130.459 1355.477,127.392 1358.143,124.725C1360.81,122.059 1363.81,120.125 1367.143,118.925C1370.477,117.725 1373.477,117.125 1376.143,117.125C1378.943,117.125 1382.01,117.725 1385.343,118.925C1388.677,120.125 1391.677,122.059 1394.343,124.725C1397.01,127.392 1398.91,130.459 1400.043,133.925C1401.177,137.392 1401.743,141.059 1401.743,144.925C1401.743,148.659 1401.177,152.225 1400.043,155.625C1398.91,159.025 1397.01,162.059 1394.343,164.725ZM823.031,1173.328C823.357,1172.178 823.52,1170.919 823.52,1169.552C823.52,1165.103 822.152,1161.533 819.418,1158.842C816.597,1156.043 812.702,1154.643 807.732,1154.643C803.457,1154.643 799.757,1156.195 796.632,1159.298C793.138,1162.77 791.391,1167.382 791.391,1173.133C791.391,1178.667 793.094,1183.072 796.501,1186.349C799.561,1189.322 803.283,1190.809 807.667,1190.809C810.705,1190.809 813.461,1190.353 815.935,1189.441C817.91,1188.747 819.375,1187.922 820.33,1186.967L817.725,1182.508C815.36,1184.569 812.409,1185.6 808.871,1185.6C805.768,1185.6 803.229,1184.645 801.254,1182.736C799.019,1180.544 797.901,1177.408 797.901,1173.328L823.031,1173.328ZM808.025,1159.851C810.976,1159.851 813.309,1160.763 815.024,1162.586C816.586,1164.257 817.367,1166.34 817.367,1168.836L798.064,1168.836C798.303,1166.319 799.312,1164.213 801.091,1162.521C802.958,1160.741 805.269,1159.851 808.025,1159.851ZM623.943,1095.919C624.268,1094.769 624.431,1093.51 624.431,1092.143C624.431,1087.694 623.064,1084.124 620.33,1081.434C617.508,1078.634 613.613,1077.234 608.643,1077.234C604.368,1077.234 600.668,1078.786 597.543,1081.889C594.049,1085.361 592.302,1089.973 592.302,1095.724C592.302,1101.258 594.006,1105.663 597.413,1108.94C600.473,1111.913 604.195,1113.4 608.578,1113.4C611.616,1113.4 614.373,1112.944 616.846,1112.032C618.821,1111.338 620.286,1110.513 621.241,1109.559L618.637,1105.099C616.271,1107.161 613.32,1108.191 609.783,1108.191C606.679,1108.191 604.14,1107.236 602.165,1105.327C599.93,1103.135 598.813,1099.999 598.813,1095.919L623.943,1095.919ZM608.936,1082.443C611.888,1082.443 614.221,1083.354 615.935,1085.177C617.498,1086.848 618.279,1088.931 618.279,1091.427L598.975,1091.427C599.214,1088.91 600.223,1086.805 602.003,1085.112C603.869,1083.332 606.18,1082.443 608.936,1082.443ZM1058.839,1190.125L1065.024,1190.125L1065.024,1141.004L1058.839,1141.004L1058.839,1157.182C1056.972,1155.49 1054.238,1154.643 1050.636,1154.643C1046.317,1154.643 1042.595,1156.493 1039.47,1160.193C1036.345,1163.893 1034.783,1168.358 1034.783,1173.588C1034.783,1178.797 1036.139,1182.963 1038.852,1186.088C1041.564,1189.213 1045.102,1190.776 1049.464,1190.776C1053.565,1190.776 1056.69,1189.702 1058.839,1187.553L1058.839,1190.125ZM1058.839,1163.367L1058.839,1182.703C1058.491,1183.397 1057.634,1184.054 1056.267,1184.672C1054.9,1185.291 1053.728,1185.6 1052.751,1185.6C1045.113,1185.6 1041.293,1181.401 1041.293,1173.003C1041.293,1169.183 1042.318,1166.036 1044.369,1163.562C1046.42,1161.088 1049.106,1159.851 1052.426,1159.851C1055.139,1159.851 1057.276,1161.023 1058.839,1163.367ZM1391.143,37.725L1345.943,70.325L1356.343,85.725L1406.543,56.725L1391.143,37.725ZM933.822,1428.146C934.148,1426.996 934.311,1425.737 934.311,1424.37C934.311,1419.921 932.943,1416.351 930.209,1413.66C927.388,1410.861 923.493,1409.461 918.523,1409.461C914.248,1409.461 910.548,1411.013 907.423,1414.116C903.929,1417.588 902.182,1422.2 902.182,1427.95C902.182,1433.484 903.885,1437.89 907.292,1441.167C910.352,1444.14 914.074,1445.626 918.458,1445.626C921.496,1445.626 924.252,1445.171 926.726,1444.259C928.701,1443.565 930.166,1442.74 931.121,1441.785L928.516,1437.325C926.151,1439.387 923.2,1440.418 919.662,1440.418C916.559,1440.418 914.02,1439.463 912.045,1437.553C909.81,1435.361 908.692,1432.226 908.692,1428.146L933.822,1428.146ZM918.816,1414.669C921.767,1414.669 924.1,1415.581 925.815,1417.404C927.377,1419.075 928.158,1421.158 928.158,1423.654L908.855,1423.654C909.094,1421.136 910.103,1419.031 911.882,1417.338C913.749,1415.559 916.06,1414.669 918.816,1414.669ZM1004.574,1126.421L1010.759,1126.421L1010.759,1077.885L1007.016,1077.885L1005.356,1080.522C1002.73,1078.33 999.898,1077.234 996.859,1077.234C991.998,1077.234 988.022,1078.867 984.929,1082.133C981.837,1085.399 980.29,1089.821 980.29,1095.398C980.29,1101.041 981.641,1105.452 984.343,1108.631C987.045,1111.81 990.772,1113.4 995.525,1113.4C999.757,1113.4 1002.773,1112.499 1004.574,1110.698L1004.574,1126.421ZM1004.574,1085.112L1004.574,1105.913C1002.925,1107.432 1000.614,1108.191 997.641,1108.191C994.32,1108.191 991.684,1107.068 989.731,1104.822C987.777,1102.576 986.801,1099.435 986.801,1095.398C986.801,1091.492 987.777,1088.356 989.731,1085.991C991.684,1083.625 994.407,1082.443 997.901,1082.443C1000.57,1082.443 1002.795,1083.332 1004.574,1085.112ZM876.101,265.9C689.934,265.9 538.791,415.252 538.791,599.212C538.791,783.171 689.934,932.522 876.101,932.522C1062.268,932.522 1213.413,783.171 1213.413,599.212C1213.413,415.252 1062.268,265.9 876.101,265.9ZM1169.356,680.704L1169.337,680.775L1169.323,680.827L1169.272,681.008L1169.186,681.304C1140.773,780.556 1062.042,859.016 962.005,888.014L961.836,888.064L961.518,888.155L961.388,888.193L961.325,888.211C934.277,895.997 905.678,900.172 876.101,900.172C708.003,900.172 571.529,765.317 571.529,599.212C571.529,523.619 599.793,454.5 646.439,401.616L646.799,401.961C654.254,393.505 662.178,385.465 670.534,377.88L670.179,377.538C724.41,328.316 796.732,298.25 876.101,298.25C1044.199,298.25 1180.674,433.107 1180.674,599.212C1180.674,627.449 1176.73,654.782 1169.356,680.704ZM1047.495,451.01L1012.041,466.113L968.176,406.178C913.633,383.933 879.575,458.324 879.575,458.324L916.267,523.654L888.433,542.009L997.793,542.321L1047.495,451.01ZM927.484,394.312C928.627,393.694 932.305,392.021 932.305,392.021L930.601,391.976L793.602,392.025C769.67,399.384 761.73,414.754 761.73,414.754L716.474,493.411L813.417,546.342L874.05,441.624C888.752,401.349 926.341,394.928 927.484,394.312ZM933.344,661.949L879.443,755.342L936.168,841.558L938.753,804.285L1006.774,800.657C1006.774,800.657 1068.104,779.199 1011.925,695.631L934.315,695.567L934.293,662.022L934.257,660.345L933.344,661.949ZM1058.559,535.161L965.447,594.348L1026.492,693.414C1026.492,693.414 1058.591,732.365 1045.276,769.766L1114.071,651.62C1114.071,651.62 1117.427,626.708 1100.847,599.708L1058.559,535.161ZM838.85,692.555L696.498,691.649C672.379,692.034 644.488,667.326 644.488,667.326L699.211,763.944C712.983,799.846 746.03,802.863 746.03,802.863L839.217,802.852L838.85,692.555ZM745.632,537.49L640.456,536.981L670.472,560.601L637.853,621.892C639.764,686.054 728.367,678.351 728.367,678.351L767.935,614.739L796.795,630.241L745.632,537.49ZM1021.404,1186.154C1021.946,1187.803 1022.841,1188.986 1024.089,1189.702C1025.337,1190.418 1027.22,1190.776 1029.737,1190.776L1029.737,1187.684C1027.914,1186.664 1027.003,1184.624 1027.003,1181.564L1027.003,1169.064C1027.003,1164.051 1025.858,1160.394 1023.568,1158.094C1021.279,1155.793 1017.606,1154.643 1012.55,1154.643C1010.662,1154.643 1008.681,1154.985 1006.609,1155.669C1004.536,1156.352 1002.914,1157.171 1001.742,1158.126L1004.346,1163.302C1006.43,1161.219 1009.403,1160.177 1013.266,1160.177C1018.3,1160.177 1020.818,1162.998 1020.818,1168.641C1019.169,1168.076 1017.693,1167.794 1016.391,1167.794C1011.595,1167.794 1007.651,1169.015 1004.558,1171.456C1001.466,1173.898 999.919,1176.887 999.919,1180.424C999.919,1183.376 1000.923,1185.844 1002.93,1187.83C1004.938,1189.816 1007.309,1190.809 1010.043,1190.809C1015.143,1190.809 1018.93,1189.257 1021.404,1186.154ZM1020.818,1173.035L1020.818,1181.466C1018.409,1184.439 1015.642,1185.926 1012.517,1185.926C1008.242,1185.926 1006.104,1184.114 1006.104,1180.49C1006.104,1178.298 1007.092,1176.399 1009.067,1174.793C1011.041,1173.187 1013.591,1172.384 1016.716,1172.384C1017.498,1172.384 1018.865,1172.601 1020.818,1173.035ZM864.991,1080.717C863.993,1079.914 862.441,1079.133 860.336,1078.374C858.231,1077.614 856.278,1077.234 854.477,1077.234C848.878,1077.234 844.467,1078.916 841.244,1082.28C838.022,1085.644 836.41,1090.103 836.41,1095.659C836.41,1101.106 837.962,1105.424 841.065,1108.615C844.169,1111.805 848.096,1113.4 852.849,1113.4C857.754,1113.4 861.866,1112.325 865.186,1110.177L862.745,1104.969C859.924,1107.117 857.124,1108.191 854.346,1108.191C850.766,1108.191 847.966,1107.123 845.948,1104.985C843.93,1102.847 842.921,1099.739 842.921,1095.659C842.921,1091.557 843.908,1088.329 845.883,1085.975C847.858,1083.62 850.527,1082.443 853.891,1082.443C855.432,1082.443 856.999,1082.725 858.595,1083.289C860.19,1083.853 861.302,1084.45 861.931,1085.079L864.991,1080.717ZM878.077,1064.702C877.014,1064.702 876.113,1065.071 875.375,1065.809C874.637,1066.546 874.268,1067.447 874.268,1068.51C874.268,1069.574 874.643,1070.48 875.391,1071.228C876.14,1071.977 877.035,1072.351 878.077,1072.351C879.14,1072.351 880.046,1071.977 880.795,1071.228C881.544,1070.48 881.918,1069.574 881.918,1068.51C881.918,1067.469 881.544,1066.573 880.795,1065.825C880.046,1065.076 879.14,1064.702 878.077,1064.702ZM823.096,1112.749L829.379,1112.749L829.379,1077.885L808.643,1077.885C808.535,1077.256 808.481,1076.648 808.481,1076.062C808.481,1073.871 809.094,1072.059 810.32,1070.626C811.546,1069.194 813.103,1068.478 814.991,1068.478C816.076,1068.478 817.248,1068.695 818.507,1069.129L820.232,1064.572C818.17,1063.921 816.239,1063.595 814.438,1063.595C810.835,1063.595 807.938,1064.865 805.746,1067.404C803.554,1069.943 802.458,1073.437 802.458,1077.885L797.38,1077.885L797.38,1083.094L802.458,1083.094L802.458,1112.749L808.643,1112.749L808.643,1083.094L823.096,1083.094L823.096,1112.749ZM938.542,1442.892C941.776,1444.715 945.226,1445.626 948.894,1445.626C952.779,1445.626 955.817,1444.742 958.009,1442.973C960.2,1441.205 961.296,1438.758 961.296,1435.633C961.296,1433.246 960.678,1431.26 959.441,1429.676C958.204,1428.092 956.229,1426.681 953.516,1425.444L949.089,1423.426C946.55,1422.276 945.281,1420.583 945.281,1418.348C945.281,1417.284 945.785,1416.405 946.794,1415.711C947.804,1415.016 949.046,1414.669 950.522,1414.669C952.996,1414.669 955.459,1415.646 957.911,1417.599L959.669,1411.87C955.806,1410.264 952.605,1409.461 950.066,1409.461C946.702,1409.461 943.979,1410.264 941.895,1411.87C939.812,1413.476 938.77,1415.711 938.77,1418.575C938.77,1419.682 938.949,1420.718 939.307,1421.684C939.665,1422.65 940.208,1423.561 940.935,1424.419C941.662,1425.276 942.519,1426.041 943.507,1426.713C944.494,1427.386 946.409,1428.374 949.252,1429.676C952.941,1431.325 954.786,1433.3 954.786,1435.6C954.786,1438.812 952.876,1440.418 949.057,1440.418C946.952,1440.418 944.174,1439.289 940.723,1437.032L938.542,1442.892ZM761.996,1095.236C761.996,1100.791 763.385,1105.207 766.163,1108.484C768.941,1111.761 772.814,1113.4 777.784,1113.4C782.645,1113.4 786.486,1111.777 789.307,1108.533C792.129,1105.289 793.539,1100.856 793.539,1095.236C793.539,1089.593 792.161,1085.182 789.405,1082.003C786.649,1078.824 782.775,1077.234 777.784,1077.234C773.053,1077.234 769.239,1078.889 766.342,1082.198C763.445,1085.508 761.996,1089.854 761.996,1095.236ZM768.507,1095.236C768.507,1091.199 769.348,1088.031 771.029,1085.73C772.711,1083.43 774.963,1082.28 777.784,1082.28C783.947,1082.28 787.029,1086.598 787.029,1095.236C787.029,1099.294 786.21,1102.495 784.571,1104.838C782.933,1107.182 780.67,1108.354 777.784,1108.354C771.599,1108.354 768.507,1103.981 768.507,1095.236ZM495.362,1094.389C497.836,1094.606 499.442,1094.715 500.18,1094.715C512.419,1094.715 518.539,1089.355 518.539,1078.634C518.539,1069.368 511.616,1064.734 497.771,1064.734C496.751,1064.734 493.778,1064.843 488.852,1065.06L488.852,1112.749L495.362,1112.749L495.362,1094.389ZM495.362,1070.919C496.859,1070.702 498.042,1070.594 498.91,1070.594C507.526,1070.594 511.833,1073.502 511.833,1079.318C511.833,1085.676 507.797,1088.855 499.724,1088.855C499.572,1088.855 498.118,1088.747 495.362,1088.53L495.362,1070.919ZM748.143,194.725L748.143,54.525L717.143,54.525L717.143,194.725L748.143,194.725ZM1025.245,1077.885L1019.06,1077.885L1019.06,1100.769C1019.06,1104.806 1020.075,1107.92 1022.104,1110.112C1024.133,1112.304 1027.057,1113.4 1030.876,1113.4C1032.873,1113.4 1034.918,1112.83 1037.012,1111.691C1039.107,1110.551 1040.501,1109.298 1041.195,1107.931L1041.195,1112.749L1047.38,1112.749L1047.38,1077.885L1041.195,1077.885L1041.195,1102.365C1040.653,1103.905 1039.535,1105.262 1037.843,1106.434C1036.15,1107.605 1034.284,1108.191 1032.244,1108.191C1027.578,1108.191 1025.245,1105.5 1025.245,1100.118L1025.245,1077.885ZM1133.708,1112.749L1139.893,1112.749L1139.893,1091.167C1139.893,1081.878 1136.074,1077.234 1128.435,1077.234C1123.813,1077.234 1120.481,1078.949 1118.442,1082.378L1116.488,1077.885L1112.257,1077.885L1112.257,1112.749L1118.442,1112.749L1118.442,1086.837C1119.266,1085.6 1120.449,1084.559 1121.99,1083.712C1123.531,1082.866 1125.006,1082.443 1126.417,1082.443C1129.043,1082.443 1130.914,1083.186 1132.032,1084.672C1133.15,1086.159 1133.708,1088.758 1133.708,1092.469L1133.708,1112.749ZM1050.343,144.525C1050.343,152.259 1051.543,159.292 1053.943,165.625C1056.343,171.959 1059.743,177.392 1064.143,181.925C1068.543,186.459 1073.877,189.992 1080.143,192.525C1086.41,195.059 1093.343,196.325 1100.943,196.325C1106.943,196.325 1112.477,195.225 1117.543,193.025C1122.61,190.825 1127.077,187.859 1130.943,184.125L1130.943,194.725L1161.943,194.725L1161.943,94.725L1130.943,94.725L1130.943,103.725C1127.077,100.392 1122.643,97.792 1117.643,95.925C1112.643,94.059 1107.077,93.125 1100.943,93.125C1093.343,93.125 1086.41,94.392 1080.143,96.925C1073.877,99.459 1068.543,102.959 1064.143,107.425C1059.743,111.892 1056.343,117.292 1053.943,123.625C1051.543,129.959 1050.343,136.925 1050.343,144.525ZM1088.743,124.725C1091.41,122.059 1094.143,120.025 1096.943,118.625C1099.743,117.225 1103.077,116.525 1106.943,116.525C1114.677,116.525 1121.343,119.325 1126.943,124.925C1128.677,126.659 1130.01,128.459 1130.943,130.325L1130.943,159.325C1130.01,161.192 1128.677,162.992 1126.943,164.725C1124.277,167.392 1121.21,169.425 1117.743,170.825C1114.277,172.225 1110.677,172.925 1106.943,172.925C1103.077,172.925 1099.743,172.225 1096.943,170.825C1094.143,169.425 1091.41,167.392 1088.743,164.725C1086.077,162.059 1084.177,158.992 1083.043,155.525C1081.91,152.059 1081.343,148.392 1081.343,144.525C1081.343,140.792 1081.91,137.225 1083.043,133.825C1084.177,130.425 1086.077,127.392 1088.743,124.725ZM1049.743,182.325L1030.143,164.125L1029.543,164.725C1026.877,167.392 1023.81,169.425 1020.343,170.825C1016.877,172.225 1013.21,172.925 1009.343,172.925C1005.61,172.925 1002.343,172.192 999.543,170.725C996.743,169.259 994.01,167.192 991.343,164.525C988.677,161.859 986.777,158.859 985.643,155.525C984.51,152.192 983.943,148.659 983.943,144.925C983.943,141.059 984.51,137.392 985.643,133.925C986.777,130.459 988.677,127.392 991.343,124.725C994.01,122.059 996.743,120.025 999.543,118.625C1002.343,117.225 1005.61,116.525 1009.343,116.525C1013.077,116.525 1016.677,117.225 1020.143,118.625C1023.61,120.025 1026.677,121.992 1029.343,124.525L1048.143,105.725C1042.81,101.459 1036.81,98.292 1030.143,96.225C1023.477,94.159 1016.543,93.125 1009.343,93.125C1002.277,93.125 995.343,94.192 988.543,96.325C981.743,98.459 975.71,101.692 970.443,106.025C965.177,110.359 960.943,115.759 957.743,122.225C954.543,128.692 952.943,136.259 952.943,144.925C952.943,153.592 954.543,161.125 957.743,167.525C960.943,173.925 965.177,179.259 970.443,183.525C975.71,187.792 981.743,190.992 988.543,193.125C995.343,195.259 1002.277,196.325 1009.343,196.325C1016.943,196.325 1024.21,195.159 1031.143,192.825C1038.077,190.492 1044.277,186.992 1049.743,182.325ZM1321.143,118.725L1321.143,94.725L1297.543,94.725L1297.543,58.925L1256.943,94.725L1256.943,118.725L1266.543,118.725L1266.543,194.725L1297.543,194.725L1297.543,118.725L1321.143,118.725ZM362.543,106.925C361.877,91.059 357.777,78.825 350.243,70.225C342.71,61.625 332.01,57.325 318.143,57.325L255.743,57.325L255.743,194.725L288.743,194.725L288.743,156.525L317.543,156.525C322.61,156.525 327.81,155.492 333.143,153.425C338.477,151.359 343.31,148.225 347.643,144.025C351.977,139.825 355.543,134.659 358.343,128.525C361.143,122.392 362.543,115.192 362.543,106.925ZM314.543,124.525L288.743,124.525L288.743,89.325L314.543,89.325C317.343,89.325 319.71,89.892 321.643,91.025C323.577,92.159 325.11,93.625 326.243,95.425C327.377,97.225 328.21,99.159 328.743,101.225C329.277,103.292 329.543,105.192 329.543,106.925C329.543,108.792 329.277,110.725 328.743,112.725C328.21,114.725 327.377,116.625 326.243,118.425C325.11,120.225 323.577,121.692 321.643,122.825C319.71,123.959 317.343,124.525 314.543,124.525ZM367.143,144.525C367.143,152.259 368.343,159.292 370.743,165.625C373.143,171.959 376.543,177.392 380.943,181.925C385.343,186.459 390.677,189.992 396.943,192.525C403.21,195.059 410.143,196.325 417.743,196.325C423.743,196.325 429.277,195.225 434.343,193.025C439.41,190.825 443.877,187.859 447.743,184.125L447.743,194.725L478.743,194.725L478.743,94.725L447.743,94.725L447.743,103.725C443.877,100.392 439.443,97.792 434.443,95.925C429.443,94.059 423.877,93.125 417.743,93.125C410.143,93.125 403.21,94.392 396.943,96.925C390.677,99.459 385.343,102.959 380.943,107.425C376.543,111.892 373.143,117.292 370.743,123.625C368.343,129.959 367.143,136.925 367.143,144.525ZM405.543,124.725C408.21,122.059 410.943,120.025 413.743,118.625C416.543,117.225 419.877,116.525 423.743,116.525C431.477,116.525 438.143,119.325 443.743,124.925C445.477,126.659 446.81,128.459 447.743,130.325L447.743,159.325C446.81,161.192 445.477,162.992 443.743,164.725C441.077,167.392 438.01,169.425 434.543,170.825C431.077,172.225 427.477,172.925 423.743,172.925C419.877,172.925 416.543,172.225 413.743,170.825C410.943,169.425 408.21,167.392 405.543,164.725C402.877,162.059 400.977,158.992 399.843,155.525C398.71,152.059 398.143,148.392 398.143,144.525C398.143,140.792 398.71,137.225 399.843,133.825C400.977,130.425 402.877,127.392 405.543,124.725ZM598.943,144.925C598.943,137.192 597.743,130.159 595.343,123.825C592.943,117.492 589.543,112.059 585.143,107.525C580.743,102.992 575.41,99.459 569.143,96.925C562.877,94.392 555.943,93.125 548.343,93.125C542.21,93.125 536.643,94.225 531.643,96.425C526.643,98.625 522.21,101.659 518.343,105.525L518.343,94.725L487.343,94.725L487.343,252.925L518.343,252.925L518.343,185.725C526.21,192.792 536.21,196.325 548.343,196.325C555.943,196.325 562.877,195.059 569.143,192.525C575.41,189.992 580.743,186.492 585.143,182.025C589.543,177.559 592.943,172.159 595.343,165.825C597.743,159.492 598.943,152.525 598.943,144.925ZM560.543,164.725C557.877,167.392 555.143,169.425 552.343,170.825C549.543,172.225 546.21,172.925 542.343,172.925C534.61,172.925 527.943,170.125 522.343,164.525C520.61,162.792 519.277,160.992 518.343,159.125L518.343,130.125C519.277,128.259 520.61,126.459 522.343,124.725C525.01,122.059 528.077,120.025 531.543,118.625C535.01,117.225 538.61,116.525 542.343,116.525C546.21,116.525 549.543,117.225 552.343,118.625C555.143,120.025 557.877,122.059 560.543,124.725C563.21,127.392 565.11,130.459 566.243,133.925C567.377,137.392 567.943,141.059 567.943,144.925C567.943,148.659 567.377,152.225 566.243,155.625C565.11,159.025 563.21,162.059 560.543,164.725ZM1236.743,120.925L1252.343,98.725C1248.743,96.859 1245.543,95.459 1242.743,94.525C1239.943,93.592 1236.21,93.125 1231.543,93.125C1225.277,93.125 1219.677,94.059 1214.743,95.925C1209.81,97.792 1205.41,100.392 1201.543,103.725L1201.543,94.725L1170.543,94.725L1170.543,194.725L1201.543,194.725L1201.543,130.325C1202.477,128.459 1203.81,126.659 1205.543,124.925C1211.143,119.325 1217.81,116.525 1225.543,116.525C1228.21,116.525 1230.177,116.892 1231.443,117.625C1232.71,118.359 1234.477,119.459 1236.743,120.925ZM1085.173,1095.919C1085.499,1094.769 1085.662,1093.51 1085.662,1092.143C1085.662,1087.694 1084.294,1084.124 1081.56,1081.434C1078.739,1078.634 1074.843,1077.234 1069.874,1077.234C1065.599,1077.234 1061.899,1078.786 1058.774,1081.889C1055.28,1085.361 1053.533,1089.973 1053.533,1095.724C1053.533,1101.258 1055.236,1105.663 1058.643,1108.94C1061.703,1111.913 1065.425,1113.4 1069.809,1113.4C1072.847,1113.4 1075.603,1112.944 1078.077,1112.032C1080.052,1111.338 1081.517,1110.513 1082.471,1109.559L1079.867,1105.099C1077.502,1107.161 1074.55,1108.191 1071.013,1108.191C1067.91,1108.191 1065.371,1107.236 1063.396,1105.327C1061.161,1103.135 1060.043,1099.999 1060.043,1095.919L1085.173,1095.919ZM1070.167,1082.443C1073.118,1082.443 1075.451,1083.354 1077.165,1085.177C1078.728,1086.848 1079.509,1088.931 1079.509,1091.427L1060.206,1091.427C1060.445,1088.91 1061.454,1086.805 1063.233,1085.112C1065.1,1083.332 1067.411,1082.443 1070.167,1082.443ZM666.098,1173.328C666.423,1172.178 666.586,1170.919 666.586,1169.552C666.586,1165.103 665.219,1161.533 662.484,1158.842C659.663,1156.043 655.768,1154.643 650.798,1154.643C646.523,1154.643 642.823,1156.195 639.698,1159.298C636.204,1162.77 634.457,1167.382 634.457,1173.133C634.457,1178.667 636.161,1183.072 639.568,1186.349C642.628,1189.322 646.35,1190.809 650.733,1190.809C653.771,1190.809 656.527,1190.353 659.001,1189.441C660.976,1188.747 662.441,1187.922 663.396,1186.967L660.792,1182.508C658.426,1184.569 655.475,1185.6 651.938,1185.6C648.834,1185.6 646.295,1184.645 644.32,1182.736C642.085,1180.544 640.968,1177.408 640.968,1173.328L666.098,1173.328ZM651.091,1159.851C654.043,1159.851 656.376,1160.763 658.09,1162.586C659.652,1164.257 660.434,1166.34 660.434,1168.836L641.13,1168.836C641.369,1166.319 642.378,1164.213 644.158,1162.521C646.024,1160.741 648.335,1159.851 651.091,1159.851ZM825.505,1064.702C824.442,1064.702 823.541,1065.071 822.804,1065.809C822.066,1066.546 821.697,1067.447 821.697,1068.51C821.697,1069.574 822.071,1070.48 822.82,1071.228C823.568,1071.977 824.464,1072.351 825.505,1072.351C826.569,1072.351 827.475,1071.977 828.223,1071.228C828.972,1070.48 829.346,1069.574 829.346,1068.51C829.346,1067.469 828.972,1066.573 828.223,1065.825C827.475,1065.076 826.569,1064.702 825.505,1064.702ZM910.143,94.725L876.543,94.725L851.543,154.525L828.543,94.725L794.943,94.725L834.543,194.325L809.543,252.925L843.943,252.925L868.343,194.725L910.143,94.725ZM569.353,1188.237C569.83,1188.91 570.91,1189.506 572.592,1190.027C574.274,1190.548 575.853,1190.809 577.328,1190.809C582.58,1190.809 586.595,1189.132 589.373,1185.779C592.15,1182.426 593.539,1178.102 593.539,1172.807C593.539,1166.861 592.161,1162.347 589.405,1159.266C586.649,1156.184 582.797,1154.643 577.849,1154.643C574.529,1154.643 571.697,1155.815 569.353,1158.159L569.353,1155.294L563.168,1155.294L563.168,1203.829L569.353,1203.829L569.353,1188.237ZM569.353,1162.814C570.091,1162.054 571.089,1161.371 572.348,1160.763C573.606,1160.155 574.67,1159.851 575.538,1159.851C579.553,1159.851 582.471,1160.871 584.294,1162.911C586.117,1164.951 587.029,1168.174 587.029,1172.579C587.029,1181.26 583.188,1185.6 575.505,1185.6C574.312,1185.6 573.086,1185.334 571.827,1184.803C570.568,1184.271 569.744,1183.712 569.353,1183.126L569.353,1162.814ZM946.827,1108.745C947.369,1110.394 948.265,1111.577 949.512,1112.293C950.76,1113.009 952.643,1113.367 955.16,1113.367L955.16,1110.275C953.337,1109.255 952.426,1107.215 952.426,1104.155L952.426,1091.655C952.426,1086.642 951.281,1082.985 948.992,1080.685C946.702,1078.384 943.029,1077.234 937.973,1077.234C936.085,1077.234 934.105,1077.576 932.032,1078.26C929.96,1078.943 928.337,1079.763 927.165,1080.717L929.77,1085.893C931.853,1083.81 934.826,1082.768 938.689,1082.768C943.724,1082.768 946.241,1085.589 946.241,1091.232C944.592,1090.667 943.116,1090.385 941.814,1090.385C937.018,1090.385 933.074,1091.606 929.981,1094.047C926.889,1096.489 925.343,1099.478 925.343,1103.016C925.343,1105.967 926.346,1108.435 928.354,1110.421C930.361,1112.407 932.732,1113.4 935.466,1113.4C940.566,1113.4 944.353,1111.848 946.827,1108.745ZM946.241,1095.626L946.241,1104.057C943.832,1107.03 941.065,1108.517 937.94,1108.517C933.665,1108.517 931.527,1106.705 931.527,1103.081C931.527,1100.889 932.515,1098.99 934.49,1097.384C936.465,1095.778 939.014,1094.975 942.139,1094.975C942.921,1094.975 944.288,1095.192 946.241,1095.626ZM931.3,1173.328C931.625,1172.178 931.788,1170.919 931.788,1169.552C931.788,1165.103 930.421,1161.533 927.686,1158.842C924.865,1156.043 920.97,1154.643 916,1154.643C911.725,1154.643 908.025,1156.195 904.9,1159.298C901.406,1162.77 899.659,1167.382 899.659,1173.133C899.659,1178.667 901.363,1183.072 904.77,1186.349C907.83,1189.322 911.551,1190.809 915.935,1190.809C918.973,1190.809 921.729,1190.353 924.203,1189.441C926.178,1188.747 927.643,1187.922 928.598,1186.967L925.994,1182.508C923.628,1184.569 920.677,1185.6 917.139,1185.6C914.036,1185.6 911.497,1184.645 909.522,1182.736C907.287,1180.544 906.169,1177.408 906.169,1173.328L931.3,1173.328ZM916.293,1159.851C919.244,1159.851 921.577,1160.763 923.292,1162.586C924.854,1164.257 925.636,1166.34 925.636,1168.836L906.332,1168.836C906.571,1166.319 907.58,1164.213 909.359,1162.521C911.226,1160.741 913.537,1159.851 916.293,1159.851ZM695.199,1190.125L701.384,1190.125L701.384,1141.004L695.199,1141.004L695.199,1157.182C693.333,1155.49 690.599,1154.643 686.996,1154.643C682.678,1154.643 678.956,1156.493 675.831,1160.193C672.706,1163.893 671.143,1168.358 671.143,1173.588C671.143,1178.797 672.5,1182.963 675.212,1186.088C677.925,1189.213 681.462,1190.776 685.824,1190.776C689.926,1190.776 693.051,1189.702 695.199,1187.553L695.199,1190.125ZM695.199,1163.367L695.199,1182.703C694.852,1183.397 693.995,1184.054 692.628,1184.672C691.261,1185.291 690.089,1185.6 689.112,1185.6C681.473,1185.6 677.654,1181.401 677.654,1173.003C677.654,1169.183 678.679,1166.036 680.73,1163.562C682.781,1161.088 685.466,1159.851 688.787,1159.851C691.499,1159.851 693.637,1161.023 695.199,1163.367ZM563.624,1110.828C564.101,1111.501 565.181,1112.098 566.863,1112.618C568.545,1113.139 570.123,1113.4 571.599,1113.4C576.851,1113.4 580.866,1111.723 583.643,1108.37C586.421,1105.018 587.81,1100.694 587.81,1095.398C587.81,1089.452 586.432,1084.938 583.676,1081.857C580.92,1078.775 577.068,1077.234 572.12,1077.234C568.8,1077.234 565.968,1078.406 563.624,1080.75L563.624,1077.885L557.439,1077.885L557.439,1126.421L563.624,1126.421L563.624,1110.828ZM563.624,1085.405C564.362,1084.645 565.36,1083.962 566.619,1083.354C567.877,1082.746 568.941,1082.443 569.809,1082.443C573.823,1082.443 576.742,1083.463 578.565,1085.503C580.388,1087.542 581.3,1090.765 581.3,1095.171C581.3,1103.851 577.458,1108.191 569.776,1108.191C568.583,1108.191 567.356,1107.925 566.098,1107.394C564.839,1106.862 564.014,1106.303 563.624,1105.717L563.624,1085.405ZM972.445,1188.074C975.679,1189.897 979.129,1190.809 982.797,1190.809C986.682,1190.809 989.72,1189.924 991.912,1188.156C994.103,1186.387 995.199,1183.94 995.199,1180.815C995.199,1178.428 994.581,1176.442 993.344,1174.858C992.107,1173.274 990.132,1171.863 987.419,1170.626L982.992,1168.608C980.453,1167.458 979.184,1165.765 979.184,1163.53C979.184,1162.467 979.688,1161.588 980.697,1160.893C981.707,1160.199 982.949,1159.851 984.425,1159.851C986.899,1159.851 989.362,1160.828 991.814,1162.781L993.572,1157.052C989.709,1155.446 986.508,1154.643 983.969,1154.643C980.605,1154.643 977.882,1155.446 975.798,1157.052C973.715,1158.658 972.673,1160.893 972.673,1163.758C972.673,1164.865 972.852,1165.901 973.21,1166.866C973.568,1167.832 974.111,1168.744 974.838,1169.601C975.565,1170.458 976.422,1171.223 977.41,1171.896C978.397,1172.569 980.312,1173.556 983.155,1174.858C986.844,1176.507 988.689,1178.482 988.689,1180.782C988.689,1183.994 986.779,1185.6 982.96,1185.6C980.855,1185.6 978.077,1184.472 974.626,1182.215L972.445,1188.074ZM739.6,1173.328C739.926,1172.178 740.089,1170.919 740.089,1169.552C740.089,1165.103 738.721,1161.533 735.987,1158.842C733.166,1156.043 729.271,1154.643 724.301,1154.643C720.026,1154.643 716.326,1156.195 713.201,1159.298C709.707,1162.77 707.96,1167.382 707.96,1173.133C707.96,1178.667 709.663,1183.072 713.07,1186.349C716.13,1189.322 719.852,1190.809 724.236,1190.809C727.274,1190.809 730.03,1190.353 732.504,1189.441C734.479,1188.747 735.944,1187.922 736.899,1186.967L734.294,1182.508C731.929,1184.569 728.978,1185.6 725.44,1185.6C722.337,1185.6 719.798,1184.645 717.823,1182.736C715.588,1180.544 714.47,1177.408 714.47,1173.328L739.6,1173.328ZM724.594,1159.851C727.545,1159.851 729.878,1160.763 731.593,1162.586C733.155,1164.257 733.936,1166.34 733.936,1168.836L714.633,1168.836C714.872,1166.319 715.881,1164.213 717.66,1162.521C719.527,1160.741 721.838,1159.851 724.594,1159.851ZM737.192,1095.919C737.517,1094.769 737.68,1093.51 737.68,1092.143C737.68,1087.694 736.313,1084.124 733.578,1081.434C730.757,1078.634 726.862,1077.234 721.892,1077.234C717.617,1077.234 713.917,1078.786 710.792,1081.889C707.298,1085.361 705.551,1089.973 705.551,1095.724C705.551,1101.258 707.254,1105.663 710.662,1108.94C713.721,1111.913 717.443,1113.4 721.827,1113.4C724.865,1113.4 727.621,1112.944 730.095,1112.032C732.07,1111.338 733.535,1110.513 734.49,1109.559L731.886,1105.099C729.52,1107.161 726.569,1108.191 723.031,1108.191C719.928,1108.191 717.389,1107.236 715.414,1105.327C713.179,1103.135 712.061,1099.999 712.061,1095.919L737.192,1095.919ZM722.185,1082.443C725.136,1082.443 727.469,1083.354 729.184,1085.177C730.746,1086.848 731.527,1088.931 731.527,1091.427L712.224,1091.427C712.463,1088.91 713.472,1086.805 715.251,1085.112C717.118,1083.332 719.429,1082.443 722.185,1082.443ZM748.308,1300.737C748.634,1299.587 748.796,1298.328 748.796,1296.961C748.796,1292.512 747.429,1288.942 744.695,1286.251C741.874,1283.452 737.978,1282.052 733.009,1282.052C728.733,1282.052 725.033,1283.604 721.908,1286.707C718.414,1290.179 716.667,1294.791 716.667,1300.542C716.667,1306.075 718.371,1310.481 721.778,1313.758C724.838,1316.731 728.56,1318.217 732.943,1318.217C735.982,1318.217 738.738,1317.762 741.212,1316.85C743.187,1316.156 744.651,1315.331 745.606,1314.376L743.002,1309.917C740.637,1311.978 737.685,1313.009 734.148,1313.009C731.045,1313.009 728.506,1312.054 726.531,1310.144C724.295,1307.953 723.178,1304.817 723.178,1300.737L748.308,1300.737ZM733.302,1287.26C736.253,1287.26 738.586,1288.172 740.3,1289.995C741.863,1291.666 742.644,1293.749 742.644,1296.245L723.341,1296.245C723.579,1293.727 724.588,1291.622 726.368,1289.93C728.234,1288.15 730.545,1287.26 733.302,1287.26ZM606.169,1155.294L599.984,1155.294L599.984,1178.178C599.984,1182.215 600.999,1185.329 603.028,1187.521C605.057,1189.713 607.981,1190.809 611.801,1190.809C613.797,1190.809 615.843,1190.239 617.937,1189.1C620.031,1187.96 621.425,1186.707 622.12,1185.34L622.12,1190.157L628.305,1190.157L628.305,1155.294L622.12,1155.294L622.12,1179.773C621.577,1181.314 620.46,1182.671 618.767,1183.842C617.074,1185.014 615.208,1185.6 613.168,1185.6C608.502,1185.6 606.169,1182.909 606.169,1177.527L606.169,1155.294ZM764.405,1188.074C767.639,1189.897 771.089,1190.809 774.757,1190.809C778.641,1190.809 781.679,1189.924 783.871,1188.156C786.063,1186.387 787.159,1183.94 787.159,1180.815C787.159,1178.428 786.54,1176.442 785.304,1174.858C784.067,1173.274 782.092,1171.863 779.379,1170.626L774.952,1168.608C772.413,1167.458 771.143,1165.765 771.143,1163.53C771.143,1162.467 771.648,1161.588 772.657,1160.893C773.666,1160.199 774.909,1159.851 776.384,1159.851C778.858,1159.851 781.321,1160.828 783.774,1162.781L785.531,1157.052C781.669,1155.446 778.468,1154.643 775.929,1154.643C772.565,1154.643 769.841,1155.446 767.758,1157.052C765.675,1158.658 764.633,1160.893 764.633,1163.758C764.633,1164.865 764.812,1165.901 765.17,1166.866C765.528,1167.832 766.071,1168.744 766.798,1169.601C767.525,1170.458 768.382,1171.223 769.369,1171.896C770.357,1172.569 772.272,1173.556 775.115,1174.858C778.804,1176.507 780.649,1178.482 780.649,1180.782C780.649,1183.994 778.739,1185.6 774.919,1185.6C772.814,1185.6 770.037,1184.472 766.586,1182.215L764.405,1188.074ZM1146.404,1095.236C1146.404,1100.791 1147.793,1105.207 1150.57,1108.484C1153.348,1111.761 1157.222,1113.4 1162.192,1113.4C1167.053,1113.4 1170.894,1111.777 1173.715,1108.533C1176.536,1105.289 1177.947,1100.856 1177.947,1095.236C1177.947,1089.593 1176.569,1085.182 1173.813,1082.003C1171.057,1078.824 1167.183,1077.234 1162.192,1077.234C1157.461,1077.234 1153.647,1078.889 1150.749,1082.198C1147.852,1085.508 1146.404,1089.854 1146.404,1095.236ZM1152.914,1095.236C1152.914,1091.199 1153.755,1088.031 1155.437,1085.73C1157.119,1083.43 1159.37,1082.28 1162.192,1082.28C1168.355,1082.28 1171.436,1086.598 1171.436,1095.236C1171.436,1099.294 1170.617,1102.495 1168.979,1104.838C1167.34,1107.182 1165.078,1108.354 1162.192,1108.354C1156.007,1108.354 1152.914,1103.981 1152.914,1095.236ZM944.158,1155.294L937.973,1155.294L937.973,1178.178C937.973,1182.215 938.987,1185.329 941.016,1187.521C943.045,1189.713 945.97,1190.809 949.789,1190.809C951.786,1190.809 953.831,1190.239 955.925,1189.1C958.019,1187.96 959.414,1186.707 960.108,1185.34L960.108,1190.157L966.293,1190.157L966.293,1155.294L960.108,1155.294L960.108,1179.773C959.566,1181.314 958.448,1182.671 956.755,1183.842C955.063,1185.014 953.196,1185.6 951.156,1185.6C946.491,1185.6 944.158,1182.909 944.158,1177.527L944.158,1155.294ZM798.861,1416.069L801.433,1410.047C799.35,1409.656 797.755,1409.461 796.648,1409.461C792.199,1409.461 788.846,1411.533 786.589,1415.678L786.589,1410.112L780.404,1410.112L780.404,1444.975L786.589,1444.975L786.589,1424.988C786.589,1422.145 787.409,1419.715 789.047,1417.697C790.685,1415.678 792.601,1414.669 794.792,1414.669C796.16,1414.669 797.516,1415.136 798.861,1416.069ZM848.975,1161.251L851.547,1155.229C849.464,1154.838 847.869,1154.643 846.762,1154.643C842.313,1154.643 838.96,1156.716 836.703,1160.861L836.703,1155.294L830.518,1155.294L830.518,1190.157L836.703,1190.157L836.703,1170.171C836.703,1167.328 837.522,1164.897 839.161,1162.879C840.799,1160.861 842.715,1159.851 844.906,1159.851C846.274,1159.851 847.63,1160.318 848.975,1161.251ZM874.692,1112.749L880.876,1112.749L880.876,1077.885L869.906,1077.885L869.906,1083.094L874.692,1083.094L874.692,1112.749ZM631.43,1102.885C631.43,1109.895 635.434,1113.4 643.442,1113.4L643.442,1107.866C641.705,1107.866 640.3,1107.329 639.226,1106.254C638.152,1105.18 637.615,1103.71 637.615,1101.844L637.615,1063.595L631.43,1063.595L631.43,1102.885ZM912.159,1112.749L918.344,1112.749L918.344,1091.167C918.344,1081.878 914.524,1077.234 906.886,1077.234C902.263,1077.234 898.932,1078.949 896.892,1082.378L894.939,1077.885L890.707,1077.885L890.707,1112.749L896.892,1112.749L896.892,1086.837C897.717,1085.6 898.899,1084.559 900.44,1083.712C901.981,1082.866 903.457,1082.443 904.867,1082.443C907.493,1082.443 909.365,1083.186 910.483,1084.672C911.6,1086.159 912.159,1088.758 912.159,1092.469L912.159,1112.749ZM879.526,1269.519C878.462,1269.519 877.562,1269.888 876.824,1270.626C876.086,1271.364 875.717,1272.265 875.717,1273.328C875.717,1274.391 876.091,1275.297 876.84,1276.046C877.589,1276.795 878.484,1277.169 879.526,1277.169C880.589,1277.169 881.495,1276.795 882.244,1276.046C882.992,1275.297 883.367,1274.391 883.367,1273.328C883.367,1272.286 882.992,1271.391 882.244,1270.643C881.495,1269.894 880.589,1269.519 879.526,1269.519ZM858.106,1317.534L864.291,1317.534L864.291,1268.413L858.106,1268.413L858.106,1284.591C856.24,1282.898 853.506,1282.052 849.903,1282.052C845.585,1282.052 841.863,1283.902 838.738,1287.602C835.613,1291.302 834.05,1295.767 834.05,1300.997C834.05,1306.206 835.407,1310.372 838.119,1313.497C840.832,1316.622 844.369,1318.185 848.731,1318.185C852.833,1318.185 855.958,1317.111 858.106,1314.962L858.106,1317.534ZM858.106,1290.776L858.106,1310.112C857.759,1310.806 856.902,1311.463 855.535,1312.081C854.167,1312.7 852.996,1313.009 852.019,1313.009C844.38,1313.009 840.561,1308.81 840.561,1300.411C840.561,1296.592 841.586,1293.445 843.637,1290.971C845.688,1288.497 848.373,1287.26 851.693,1287.26C854.406,1287.26 856.544,1288.432 858.106,1290.776ZM894.971,1161.251L897.543,1155.229C895.46,1154.838 893.865,1154.643 892.758,1154.643C888.309,1154.643 884.956,1156.716 882.699,1160.861L882.699,1155.294L876.514,1155.294L876.514,1190.157L882.699,1190.157L882.699,1170.171C882.699,1167.328 883.519,1164.897 885.157,1162.879C886.795,1160.861 888.711,1159.851 890.902,1159.851C892.27,1159.851 893.626,1160.318 894.971,1161.251ZM922.885,1300.053C922.885,1305.609 924.274,1310.025 927.052,1313.302C929.829,1316.579 933.703,1318.217 938.673,1318.217C943.534,1318.217 947.375,1316.595 950.196,1313.351C953.017,1310.106 954.428,1305.674 954.428,1300.053C954.428,1294.411 953.05,1290 950.294,1286.821C947.538,1283.642 943.664,1282.052 938.673,1282.052C933.942,1282.052 930.128,1283.707 927.231,1287.016C924.333,1290.326 922.885,1294.671 922.885,1300.053ZM929.395,1300.053C929.395,1296.017 930.236,1292.848 931.918,1290.548C933.6,1288.248 935.851,1287.098 938.673,1287.098C944.836,1287.098 947.917,1291.416 947.917,1300.053C947.917,1304.111 947.098,1307.312 945.46,1309.656C943.821,1312 941.559,1313.172 938.673,1313.172C932.488,1313.172 929.395,1308.799 929.395,1300.053ZM918.458,1285.535C917.46,1284.732 915.908,1283.951 913.803,1283.191C911.698,1282.432 909.745,1282.052 907.943,1282.052C902.345,1282.052 897.934,1283.734 894.711,1287.098C891.488,1290.461 889.877,1294.921 889.877,1300.476C889.877,1305.924 891.429,1310.242 894.532,1313.432C897.635,1316.622 901.563,1318.217 906.316,1318.217C911.22,1318.217 915.333,1317.143 918.653,1314.995L916.212,1309.786C913.391,1311.935 910.591,1313.009 907.813,1313.009C904.233,1313.009 901.433,1311.94 899.415,1309.803C897.397,1307.665 896.387,1304.556 896.387,1300.476C896.387,1296.375 897.375,1293.147 899.35,1290.792C901.325,1288.438 903.994,1287.26 907.358,1287.26C908.898,1287.26 910.466,1287.542 912.061,1288.107C913.656,1288.671 914.769,1289.268 915.398,1289.897L918.458,1285.535ZM1071.599,1172.644C1071.599,1178.2 1072.988,1182.616 1075.766,1185.893C1078.544,1189.17 1082.417,1190.809 1087.387,1190.809C1092.248,1190.809 1096.089,1189.186 1098.91,1185.942C1101.731,1182.698 1103.142,1178.265 1103.142,1172.644C1103.142,1167.002 1101.764,1162.591 1099.008,1159.412C1096.252,1156.233 1092.378,1154.643 1087.387,1154.643C1082.656,1154.643 1078.842,1156.298 1075.945,1159.607C1073.048,1162.917 1071.599,1167.263 1071.599,1172.644ZM1078.109,1172.644C1078.109,1168.608 1078.95,1165.44 1080.632,1163.139C1082.314,1160.839 1084.566,1159.689 1087.387,1159.689C1093.55,1159.689 1096.632,1164.007 1096.632,1172.644C1096.632,1176.703 1095.812,1179.904 1094.174,1182.247C1092.535,1184.591 1090.273,1185.763 1087.387,1185.763C1081.202,1185.763 1078.109,1181.39 1078.109,1172.644ZM829.981,1427.462C829.981,1433.018 831.37,1437.434 834.148,1440.711C836.926,1443.988 840.799,1445.626 845.769,1445.626C850.63,1445.626 854.471,1444.004 857.292,1440.76C860.114,1437.515 861.524,1433.083 861.524,1427.462C861.524,1421.82 860.146,1417.409 857.39,1414.23C854.634,1411.05 850.76,1409.461 845.769,1409.461C841.038,1409.461 837.224,1411.116 834.327,1414.425C831.43,1417.735 829.981,1422.08 829.981,1427.462ZM836.492,1427.462C836.492,1423.426 837.333,1420.257 839.014,1417.957C840.696,1415.657 842.948,1414.506 845.769,1414.506C851.932,1414.506 855.014,1418.825 855.014,1427.462C855.014,1431.52 854.195,1434.721 852.556,1437.065C850.918,1439.409 848.655,1440.581 845.769,1440.581C839.584,1440.581 836.492,1436.208 836.492,1427.462ZM821.029,1264.897L814.617,1264.897L809.115,1275.737L813.673,1275.737L821.029,1264.897ZM876.14,1317.566L882.325,1317.566L882.325,1282.703L871.355,1282.703L871.355,1287.911L876.14,1287.911L876.14,1317.566ZM1371.376,1945.642C1371.376,1945.642 1369.071,1944.595 1367.919,1944.49C1366.766,1944.385 1366.452,1944.49 1364.881,1945.014C1363.309,1945.538 1361.004,1946.795 1359.747,1947.947C1358.49,1949.1 1310.506,1986.502 1310.506,1986.502L1213.49,2061.831C1213.49,2061.831 1149.686,2111.072 1148.219,2112.434C1146.752,2113.796 1132.504,2126.578 1130.408,2128.778C1128.313,2130.978 1123.703,2137.788 1121.922,2140.826C1120.141,2143.865 1115.531,2154.441 1115.531,2154.441C1115.531,2154.441 1111.026,2168.066 1115.008,2180.743C1118.989,2193.42 1129.989,2197.506 1129.989,2197.506L1352.937,2307.723L1412.76,2337.163C1412.76,2337.163 1438.847,2349.525 1441.257,2350.678C1443.667,2351.83 1462.211,2360.421 1465.773,2361.469C1469.335,2362.517 1479.812,2364.298 1483.898,2363.879C1487.984,2363.46 1495.946,2363.774 1499.508,2362.831C1503.07,2361.888 1510.509,2360.002 1513.172,2358.85C1515.836,2357.697 1527.796,2351.097 1529.682,2349.735C1531.568,2348.373 1552.836,2332.343 1552.836,2332.343L1586.885,2305.837L1667.976,2243.185C1667.976,2243.185 1700.455,2216.993 1701.607,2216.365C1702.759,2215.736 1715.96,2205.992 1718.789,2203.583C1721.618,2201.173 1726.751,2194.468 1726.751,2194.468C1726.751,2194.468 1729.999,2189.229 1729.895,2188.182C1729.79,2187.134 1730.523,2183.048 1730.209,2181.686C1729.895,2180.324 1729.79,2177.076 1729.056,2175.924C1728.323,2174.771 1727.59,2172.99 1724.866,2169.952C1722.142,2166.914 1718.684,2165.028 1718.684,2165.028L1674.786,2143.341C1674.786,2143.341 1700.874,2122.701 1701.712,2121.758C1702.55,2120.816 1705.169,2118.406 1705.379,2117.253C1705.588,2116.101 1706.007,2115.053 1705.169,2112.748C1704.331,2110.443 1700.664,2108.348 1700.664,2108.348L1371.376,1945.642ZM1660.896,2154.441L1683.778,2165.756C1683.778,2165.756 1678.162,2169.528 1675.648,2170.869C1673.133,2172.21 1658.214,2184.195 1658.214,2184.195L1495.446,2311.594C1495.446,2311.594 1493.183,2316.874 1497.29,2320.981C1501.397,2325.088 1505.42,2322.909 1505.42,2322.909L1670.284,2194.924C1670.284,2194.924 1685.119,2181.932 1691.573,2180.591C1698.026,2179.25 1704.48,2177.658 1707.33,2177.993C1710.18,2178.328 1712.862,2179.837 1713.951,2180.759C1715.041,2181.681 1715.125,2183.022 1714.706,2184.028C1714.287,2185.034 1710.347,2189.392 1709.09,2190.314C1707.833,2191.236 1698.697,2198.444 1698.697,2198.444L1653.437,2234.149L1572.807,2296.675L1544.897,2318.216L1524.949,2334.476C1524.949,2334.476 1514.053,2341.684 1510.113,2343.109C1506.174,2344.533 1492.596,2348.305 1486.478,2348.221C1480.359,2348.137 1465.859,2346.629 1459.405,2342.019C1452.952,2337.409 1452.7,2332.548 1453.455,2329.447C1454.209,2326.346 1454.879,2322.658 1456.807,2319.64C1458.735,2316.623 1463.345,2309.75 1465.943,2307.236C1468.541,2304.721 1511.957,2269.603 1511.957,2269.603L1597.784,2202.97L1660.896,2154.441ZM1682.281,2116.993L1465.829,2285.147C1465.829,2285.147 1450.009,2300.967 1444.77,2308.3C1439.532,2315.634 1437.018,2330.616 1437.018,2330.616L1136.856,2182.788C1136.856,2182.788 1133.084,2180.064 1131.512,2178.911C1129.941,2177.759 1130.046,2176.187 1129.417,2175.244C1128.788,2174.301 1129.417,2170.844 1129.207,2168.853C1128.998,2166.863 1129.836,2162.253 1131.408,2158.272C1132.979,2154.291 1134.027,2151.776 1137.589,2145.909C1141.151,2140.042 1150.58,2131.032 1150.58,2131.032L1367.766,1962.145L1682.281,2116.993ZM1239.056,2101.848C1240.379,2103.119 1242.04,2103.892 1243.772,2104.135L1338.448,2150.05L1338.568,2150.206C1341.49,2153.895 1346.857,2154.517 1350.546,2151.595L1353.077,2149.589C1353.377,2149.387 1353.665,2149.173 1353.939,2148.947C1354.102,2148.812 1354.257,2148.676 1354.404,2148.538L1469.703,2057.198C1470.323,2056.707 1470.856,2056.147 1471.301,2055.537C1472.669,2055.034 1473.944,2054.334 1475.01,2053.454C1478.638,2050.459 1478.459,2046.51 1474.609,2044.643L1369.649,1993.74C1368.169,1993.022 1366.36,1992.716 1364.489,1992.781C1363.445,1992.734 1362.389,1992.879 1361.38,1993.22C1359.426,1993.705 1357.563,1994.576 1356.098,1995.785C1355.07,1996.633 1354.348,1997.558 1353.928,1998.49L1239.906,2088.818C1238.1,2089.319 1236.391,2090.151 1235.027,2091.277C1231.398,2094.273 1231.578,2098.221 1235.428,2100.088L1239.056,2101.848ZM1367.156,2009.765L1450.869,2050.364L1343.621,2135.326L1259.908,2094.727L1367.156,2009.765ZM1476.277,2063.71C1472.648,2066.705 1472.827,2070.653 1476.678,2072.521L1608.059,2136.237C1611.909,2138.104 1617.981,2137.188 1621.61,2134.192C1625.239,2131.197 1625.059,2127.249 1621.209,2125.381L1489.828,2061.665C1485.978,2059.797 1479.906,2060.714 1476.277,2063.71ZM1362.634,2153.818C1359.005,2156.814 1359.185,2160.762 1363.035,2162.63L1494.416,2226.346C1498.267,2228.213 1504.339,2227.297 1507.967,2224.301C1511.596,2221.306 1511.417,2217.358 1507.567,2215.49L1376.185,2151.774C1372.335,2149.906 1366.263,2150.823 1362.634,2153.818ZM1158.821,2149.893C1155.192,2152.889 1155.371,2156.837 1159.221,2158.704L1416.594,2283.524C1420.445,2285.391 1426.517,2284.475 1430.145,2281.479C1433.774,2278.483 1433.595,2274.535 1429.745,2272.668L1172.372,2147.848C1168.521,2145.981 1162.449,2146.897 1158.821,2149.893ZM1401.002,2123.125C1397.373,2126.12 1397.552,2130.068 1401.403,2131.936L1532.784,2195.652C1536.634,2197.519 1542.706,2196.603 1546.335,2193.607C1549.964,2190.612 1549.784,2186.664 1545.934,2184.796L1414.553,2121.08C1410.703,2119.212 1404.631,2120.129 1401.002,2123.125ZM1198.365,2119.199C1194.736,2122.195 1194.916,2126.143 1198.766,2128.01L1456.139,2252.83C1459.989,2254.697 1466.061,2253.781 1469.69,2250.785C1473.319,2247.789 1473.139,2243.841 1469.289,2241.974L1211.916,2117.154C1208.066,2115.287 1201.994,2116.203 1198.365,2119.199ZM1440.506,2094.403C1436.877,2097.399 1437.057,2101.347 1440.907,2103.215L1572.288,2166.931C1576.138,2168.798 1582.21,2167.882 1585.839,2164.886C1589.468,2161.891 1589.288,2157.943 1585.438,2156.075L1454.057,2092.359C1450.207,2090.491 1444.135,2091.408 1440.506,2094.403ZM889.486,1444.975L895.671,1444.975L895.671,1423.393C895.671,1414.105 891.852,1409.461 884.213,1409.461C879.591,1409.461 876.259,1411.175 874.22,1414.604L872.266,1410.112L868.035,1410.112L868.035,1444.975L874.22,1444.975L874.22,1419.064C875.044,1417.827 876.227,1416.785 877.768,1415.939C879.308,1415.092 880.784,1414.669 882.195,1414.669C884.821,1414.669 886.692,1415.412 887.81,1416.899C888.928,1418.386 889.486,1420.984 889.486,1424.695L889.486,1444.975ZM958.66,1315.483C961.893,1317.306 965.344,1318.217 969.011,1318.217C972.896,1318.217 975.934,1317.333 978.126,1315.564C980.318,1313.796 981.414,1311.349 981.414,1308.224C981.414,1305.837 980.795,1303.851 979.558,1302.267C978.321,1300.683 976.346,1299.272 973.634,1298.035L969.207,1296.017C966.667,1294.867 965.398,1293.174 965.398,1290.939C965.398,1289.875 965.902,1288.996 966.912,1288.302C967.921,1287.608 969.163,1287.26 970.639,1287.26C973.113,1287.26 975.576,1288.237 978.028,1290.19L979.786,1284.461C975.923,1282.855 972.722,1282.052 970.183,1282.052C966.819,1282.052 964.096,1282.855 962.012,1284.461C959.929,1286.067 958.887,1288.302 958.887,1291.167C958.887,1292.273 959.067,1293.31 959.425,1294.275C959.783,1295.241 960.325,1296.152 961.052,1297.01C961.779,1297.867 962.636,1298.632 963.624,1299.305C964.611,1299.977 966.526,1300.965 969.369,1302.267C973.058,1303.916 974.903,1305.891 974.903,1308.191C974.903,1311.403 972.993,1313.009 969.174,1313.009C967.069,1313.009 964.291,1311.881 960.841,1309.624L958.66,1315.483ZM774.252,1288.66L776.824,1282.638C774.74,1282.247 773.145,1282.052 772.039,1282.052C767.59,1282.052 764.237,1284.124 761.98,1288.269L761.98,1282.703L755.795,1282.703L755.795,1317.566L761.98,1317.566L761.98,1297.579C761.98,1294.736 762.799,1292.306 764.438,1290.288C766.076,1288.269 767.991,1287.26 770.183,1287.26C771.55,1287.26 772.907,1287.727 774.252,1288.66ZM764.584,1440.971C765.127,1442.621 766.022,1443.803 767.27,1444.519C768.517,1445.236 770.4,1445.594 772.917,1445.594L772.917,1442.501C771.095,1441.481 770.183,1439.441 770.183,1436.381L770.183,1423.881C770.183,1418.868 769.038,1415.212 766.749,1412.911C764.459,1410.611 760.786,1409.461 755.73,1409.461C753.842,1409.461 751.862,1409.803 749.789,1410.486C747.717,1411.17 746.095,1411.989 744.923,1412.944L747.527,1418.12C749.61,1416.036 752.583,1414.995 756.446,1414.995C761.481,1414.995 763.998,1417.816 763.998,1423.458C762.349,1422.894 760.873,1422.612 759.571,1422.612C754.775,1422.612 750.831,1423.833 747.738,1426.274C744.646,1428.715 743.1,1431.705 743.1,1435.242C743.1,1438.194 744.103,1440.662 746.111,1442.648C748.118,1444.633 750.489,1445.626 753.223,1445.626C758.323,1445.626 762.11,1444.075 764.584,1440.971ZM763.998,1427.853L763.998,1436.284C761.589,1439.257 758.822,1440.743 755.697,1440.743C751.422,1440.743 749.285,1438.931 749.285,1435.307C749.285,1433.115 750.272,1431.217 752.247,1429.611C754.222,1428.005 756.772,1427.202 759.897,1427.202C760.678,1427.202 762.045,1427.419 763.998,1427.853ZM735.938,1399.044C733.009,1397.33 728.95,1396.473 723.764,1396.473C717.709,1396.473 712.772,1398.827 708.953,1403.536C705.133,1408.246 703.223,1414.159 703.223,1421.277C703.223,1428.634 705.014,1434.559 708.595,1439.051C712.175,1443.543 717.08,1445.789 723.308,1445.789C729.254,1445.789 734.115,1443.912 737.891,1440.157L734.311,1435.177C731.902,1438.345 728.462,1439.93 723.992,1439.93C719.89,1439.93 716.543,1438.242 713.949,1434.868C711.356,1431.493 710.059,1427.093 710.059,1421.668C710.059,1415.982 711.323,1411.338 713.852,1407.736C716.38,1404.133 719.738,1402.332 723.927,1402.332C728.397,1402.332 731.674,1403.092 733.757,1404.611L735.938,1399.044ZM784.213,1317.566L790.398,1317.566L790.398,1282.703L779.428,1282.703L779.428,1287.911L784.213,1287.911L784.213,1317.566ZM691.895,1299.207C694.369,1299.424 695.975,1299.532 696.713,1299.532C708.953,1299.532 715.072,1294.172 715.072,1283.452C715.072,1274.185 708.15,1269.552 694.304,1269.552C693.284,1269.552 690.311,1269.661 685.385,1269.878L685.385,1317.566L691.895,1317.566L691.895,1299.207ZM691.895,1275.737C693.393,1275.52 694.575,1275.411 695.443,1275.411C704.059,1275.411 708.367,1278.319 708.367,1284.135C708.367,1290.494 704.33,1293.673 696.257,1293.673C696.105,1293.673 694.651,1293.565 691.895,1293.348L691.895,1275.737ZM852.863,2133.742L852.863,2363.941L1040.396,2301.831L1040.396,2166.752L933.549,2205.408L926.599,2208.448C918.781,2203.236 852.863,2133.742 852.863,2133.742ZM852.863,1996.057L852.863,2111.591L1027.8,2055.562L852.863,1996.057ZM648.444,2062.511L575.476,2129.833C575.476,2129.833 757.897,2190.641 762.675,2190.641C767.453,2190.641 768.756,2187.6 768.756,2187.6C768.756,2187.6 828.26,2128.096 829.998,2124.187C831.735,2120.278 825.654,2120.278 825.654,2120.278L648.444,2062.511ZM1040.396,2062.511L863.186,2120.278C863.186,2120.278 857.105,2120.278 858.842,2124.187C860.58,2128.096 920.084,2187.6 920.084,2187.6C920.084,2187.6 921.387,2190.641 926.165,2190.641C930.942,2190.641 1113.364,2129.833 1113.364,2129.833L1040.396,2062.511ZM1109,1984.142C1109,1984.142 1111.407,1981.509 1111.397,1979.871C1111.381,1977.089 1108.341,1975.565 1108.341,1975.565C1108.341,1975.565 937.458,1917.008 931.377,1915.27C925.296,1913.533 922.256,1915.705 922.256,1915.705C922.256,1915.705 863.772,1976.47 860.731,1981.682C857.691,1986.894 863.798,1988.082 863.798,1988.082C863.798,1988.082 1036.769,2046.598 1043.284,2047.032C1049.8,2047.466 1051.631,2044.546 1051.631,2044.546L1109,1984.142ZM838.571,1996.057L663.635,2055.562L838.571,2111.591L838.571,1996.057ZM835.398,2133.742C835.398,2133.742 769.48,2203.236 761.662,2208.448L754.713,2205.408L647.866,2166.752L647.866,2301.831L835.398,2363.941L835.398,2133.742ZM585.936,1733.96C585.936,1733.96 585.664,1731.244 582.813,1728.665C579.963,1726.086 578.198,1725.543 578.198,1725.543L410.67,1725.543C410.67,1725.543 406.733,1727.579 404.968,1729.072C403.204,1730.566 402.389,1732.602 401.982,1735.589C401.574,1738.575 402.796,1740.612 404.425,1743.463C406.055,1746.314 407.005,1750.251 408.498,1754.052C409.992,1757.853 412.164,1764.913 414.607,1767.764C417.051,1770.615 417.866,1771.565 420.581,1772.787C423.296,1774.009 432.663,1782.426 434.157,1785.277C435.65,1788.128 437.551,1793.151 438.23,1795.051C438.908,1796.952 444.474,1809.578 446.104,1811.298C447.733,1813.018 449.905,1815.415 454.928,1814.872C459.951,1814.329 460.223,1814.058 462.938,1813.786C465.653,1813.515 526.862,1803.604 526.862,1803.604C526.862,1803.604 529.596,1806.998 531.361,1808.627C533.125,1810.257 537.47,1814.058 539.778,1815.008C542.086,1815.958 545.072,1815.28 549.96,1814.601C554.847,1813.922 568.423,1812.564 568.423,1812.564C568.423,1812.564 571.138,1814.737 573.039,1814.872C574.939,1815.008 576.026,1814.737 577.655,1814.737C579.284,1814.737 580.098,1814.058 582.542,1811.298C584.986,1808.538 585.936,1806.455 585.936,1806.455L585.936,1733.96ZM808.041,1414.995L808.041,1434.786C808.041,1437.911 808.991,1440.499 810.889,1442.55C812.788,1444.601 815.116,1445.626 817.872,1445.626C820.932,1445.626 823.742,1445.301 826.303,1444.65L825.391,1439.213C823.699,1440.016 822.06,1440.418 820.476,1440.418C818.284,1440.418 816.695,1439.799 815.707,1438.562C814.72,1437.325 814.226,1435.242 814.226,1432.312L814.226,1414.995L823.796,1414.995L823.796,1410.112L814.226,1410.112L814.226,1400.444L808.041,1402.82L808.041,1410.112L804.005,1410.112L804.005,1414.995L808.041,1414.995ZM797.95,1300.053C797.95,1305.609 799.339,1310.025 802.117,1313.302C804.894,1316.579 808.768,1318.217 813.738,1318.217C818.599,1318.217 822.44,1316.595 825.261,1313.351C828.082,1310.106 829.493,1305.674 829.493,1300.053C829.493,1294.411 828.115,1290 825.359,1286.821C822.603,1283.642 818.729,1282.052 813.738,1282.052C809.007,1282.052 805.193,1283.707 802.296,1287.016C799.399,1290.326 797.95,1294.671 797.95,1300.053ZM804.46,1300.053C804.46,1296.017 805.301,1292.848 806.983,1290.548C808.665,1288.248 810.917,1287.098 813.738,1287.098C819.901,1287.098 822.983,1291.416 822.983,1300.053C822.983,1304.111 822.163,1307.312 820.525,1309.656C818.886,1312 816.624,1313.172 813.738,1313.172C807.553,1313.172 804.46,1308.799 804.46,1300.053ZM151.251,1779.202C151.251,1779.202 145.498,1780.404 144.14,1782.44C142.783,1784.476 141.765,1786.004 141.425,1789.058C141.086,1792.113 141.425,2045.983 141.425,2045.983L142.104,2048.868C142.104,2048.868 148.892,2056.844 151.251,2058.88C153.61,2060.917 152.286,2064.99 152.286,2064.99C152.286,2064.99 143.462,2078.905 142.274,2083.317C141.086,2087.729 142.274,2092.651 142.274,2092.651L151.607,2187.513C151.607,2187.513 152.795,2204.992 151.607,2208.895C150.419,2212.798 141.765,2244.871 141.765,2244.871L141.765,2338.715C141.765,2341.091 143.122,2342.448 143.122,2342.448C143.122,2342.448 145.668,2345.503 147.365,2346.691C149.062,2347.878 153.983,2347.709 153.983,2347.709L292.458,2347.709C292.458,2347.709 301.112,2347.539 303.828,2346.351C306.543,2345.163 358.471,2334.981 359.489,2334.472C360.507,2333.963 368.992,2333.963 371.198,2334.642C373.404,2335.321 411.587,2347.539 411.587,2347.539L556.68,2347.539C556.68,2347.539 561.262,2345.163 561.771,2343.806C562.28,2342.448 563.807,2340.751 564.147,2339.054C564.486,2337.357 564.147,2211.44 564.147,2211.44C564.147,2211.44 564.147,2207.028 562.28,2204.822C560.413,2202.616 550.401,2186.834 550.401,2186.834C550.401,2186.834 561.092,2162.567 562.789,2159.682C564.486,2156.797 564.486,2151.027 563.977,2148.651C563.468,2146.276 546.498,2043.607 545.649,2039.535C544.801,2035.462 545.48,2029.522 545.649,2027.825C545.819,2026.128 561.262,1888.332 561.262,1888.332C561.262,1888.332 564.147,1860.502 564.316,1856.429C564.486,1852.356 563.128,1852.356 561.771,1850.659C560.413,1848.962 558.207,1847.605 555.831,1845.738C553.455,1843.871 551.589,1843.701 551.589,1843.701C548.704,1843.532 524.946,1846.077 524.946,1846.077C524.946,1846.077 517.14,1837.253 513.746,1835.386C510.352,1833.519 505.261,1834.368 501.867,1835.216C498.473,1836.065 439.248,1844.889 439.248,1844.889C439.248,1844.889 430.593,1824.865 429.066,1822.828C427.538,1820.792 410.738,1807.555 410.738,1807.555C410.738,1807.555 399.877,1782.101 397.671,1780.064C395.465,1778.028 392.411,1778.197 392.411,1778.197L317.064,1778.197C317.064,1778.197 313.84,1778.537 311.973,1779.725C310.106,1780.913 291.383,1796.454 291.383,1796.454L236.513,1779.202L151.251,1779.202ZM296.753,2021.999C296.753,2026.838 292.824,2030.767 287.985,2030.767L214.382,2030.767C209.543,2030.767 205.614,2026.838 205.614,2021.999C205.614,2017.16 209.543,2013.231 214.382,2013.231L287.985,2013.231C292.824,2013.231 296.753,2017.16 296.753,2021.999ZM475.719,2105.717C475.719,2110.556 471.79,2114.485 466.951,2114.485L341.091,2114.485C336.252,2114.485 332.323,2110.556 332.323,2105.717C332.323,2100.878 336.252,2096.95 341.091,2096.95L466.951,2096.95C471.79,2096.95 475.719,2100.878 475.719,2105.717ZM475.719,2021.999C475.719,2026.838 471.79,2030.767 466.951,2030.767L341.091,2030.767C336.252,2030.767 332.323,2026.838 332.323,2021.999C332.323,2017.16 336.252,2013.231 341.091,2013.231L466.951,2013.231C471.79,2013.231 475.719,2017.16 475.719,2021.999ZM475.719,1939.129C475.719,1943.968 471.79,1947.897 466.951,1947.897L429.334,1947.897C424.495,1947.897 420.567,1943.968 420.567,1939.129C420.567,1934.29 424.495,1930.361 429.334,1930.361L466.951,1930.361C471.79,1930.361 475.719,1934.29 475.719,1939.129ZM346.465,1855.128C346.465,1859.967 342.536,1863.896 337.697,1863.896L214.382,1863.896C209.543,1863.896 205.614,1859.967 205.614,1855.128C205.614,1850.289 209.543,1846.36 214.382,1846.36L337.697,1846.36C342.536,1846.36 346.465,1850.289 346.465,1855.128ZM366.546,1939.129C366.546,1943.968 362.617,1947.897 357.778,1947.897L214.382,1947.897C209.543,1947.897 205.614,1943.968 205.614,1939.129C205.614,1934.29 209.543,1930.361 214.382,1930.361L357.778,1930.361C362.617,1930.361 366.546,1934.29 366.546,1939.129ZM475.719,2189.368C475.719,2194.207 471.79,2198.136 466.951,2198.136L341.091,2198.136C336.252,2198.136 332.323,2194.207 332.323,2189.368C332.323,2184.529 336.252,2180.6 341.091,2180.6L466.951,2180.6C471.79,2180.6 475.719,2184.529 475.719,2189.368ZM296.753,2189.368C296.753,2194.207 292.824,2198.136 287.985,2198.136L214.382,2198.136C209.543,2198.136 205.614,2194.207 205.614,2189.368C205.614,2184.529 209.543,2180.6 214.382,2180.6L287.985,2180.6C292.824,2180.6 296.753,2184.529 296.753,2189.368ZM296.753,2105.717C296.753,2110.556 292.824,2114.485 287.985,2114.485L214.382,2114.485C209.543,2114.485 205.614,2110.556 205.614,2105.717C205.614,2100.878 209.543,2096.95 214.382,2096.95L287.985,2096.95C292.824,2096.95 296.753,2100.878 296.753,2105.717ZM475.719,2271.106C475.719,2275.946 471.79,2279.874 466.951,2279.874L214.382,2279.874C209.543,2279.874 205.614,2275.946 205.614,2271.106C205.614,2266.267 209.543,2262.339 214.382,2262.339L466.951,2262.339C471.79,2262.339 475.719,2266.267 475.719,2271.106ZM692.79,1112.716L698.975,1112.716L698.975,1063.595L692.79,1063.595L692.79,1079.773C690.924,1078.081 688.19,1077.234 684.587,1077.234C680.269,1077.234 676.547,1079.084 673.422,1082.784C670.297,1086.485 668.734,1090.95 668.734,1096.18C668.734,1101.388 670.091,1105.555 672.804,1108.68C675.516,1111.805 679.054,1113.367 683.415,1113.367C687.517,1113.367 690.642,1112.293 692.79,1110.144L692.79,1112.716ZM692.79,1085.958L692.79,1105.294C692.443,1105.989 691.586,1106.645 690.219,1107.264C688.852,1107.882 687.68,1108.191 686.703,1108.191C679.064,1108.191 675.245,1103.992 675.245,1095.594C675.245,1091.774 676.27,1088.628 678.321,1086.154C680.372,1083.68 683.057,1082.443 686.378,1082.443C689.09,1082.443 691.228,1083.615 692.79,1085.958ZM578.436,1984.142L635.806,2044.546C635.806,2044.546 637.637,2047.466 644.152,2047.032C650.667,2046.598 823.639,1988.082 823.639,1988.082C823.639,1988.082 829.746,1986.894 826.705,1981.682C823.665,1976.47 765.181,1915.705 765.181,1915.705C765.181,1915.705 762.141,1913.533 756.06,1915.27C749.979,1917.008 579.096,1975.565 579.096,1975.565C579.096,1975.565 576.056,1977.089 576.04,1979.871C576.03,1981.509 578.436,1984.142 578.436,1984.142ZM787.598,1269.519C786.535,1269.519 785.634,1269.888 784.897,1270.626C784.159,1271.364 783.79,1272.265 783.79,1273.328C783.79,1274.391 784.164,1275.297 784.913,1276.046C785.662,1276.795 786.557,1277.169 787.598,1277.169C788.662,1277.169 789.568,1276.795 790.317,1276.046C791.065,1275.297 791.44,1274.391 791.44,1273.328C791.44,1272.286 791.065,1271.391 790.317,1270.643C789.568,1269.894 788.662,1269.519 787.598,1269.519Z" style="fill:rgb(235,235,235);"/>
</svg>
