<?xml version="1.0" encoding="UTF-8" standalone="no"?>
<!DOCTYPE svg PUBLIC "-//W3C//DTD SVG 1.1//EN" "http://www.w3.org/Graphics/SVG/1.1/DTD/svg11.dtd">
<svg width="100%" height="100%" viewBox="0 0 918 818" version="1.1" xmlns="http://www.w3.org/2000/svg" xmlns:xlink="http://www.w3.org/1999/xlink" xml:space="preserve" xmlns:serif="http://www.serif.com/" style="fill-rule:evenodd;clip-rule:evenodd;stroke-linejoin:round;stroke-miterlimit:2;">
    <g transform="matrix(1,0,0,1,0,10)">
        <path d="M679,77L654,77L591,78L527,80L476,82L438,83L366,88L331,90L280,90L270,93L270,106L273,181L275,225L279,284L280,354L283,388L283,436L284,489L284,526L286,547L286,559L287,570L292,574L319,573L438,573L550,571L651,571L661,570L664,566L671,469L676,388L680,277L684,212L688,152L688,118L687,93L687,84L683,80L679,77Z" style="fill:rgb(237,250,139);"/>
        <path d="M678,82L647,82C634.333,82 614.5,81.833 602,82C591.995,82.133 581.998,82.605 572,83C559.333,83.5 541.335,84.38 526,85C509.5,85.667 487.333,86.5 473,87C462.002,87.384 450.989,87.414 440,88C427.5,88.667 412.014,90.221 398,91C383,91.833 363.667,92.5 350,93C338.669,93.415 325.833,93.667 316,94C307.665,94.283 296.833,94.833 291,95C287.668,95.095 283.667,94.833 281,95C278.976,95.126 276.333,95.333 275,96C273.925,96.537 273,97.798 273,99C273,105.167 274.264,121.671 275,133C275.833,145.833 277.237,161.652 278,176C278.833,191.667 279.387,209.998 280,227C280.667,245.5 281.333,267.167 282,287C282.661,306.667 283.333,328.167 284,346C284.598,362.003 285.5,379.5 286,394C286.448,406.997 286.833,423.167 287,433C287.113,439.666 287,446.333 287,453C287,462 286.847,475.668 287,487C287.167,499.333 287.667,516 288,527C288.263,535.669 288.833,547 289,553C289.093,556.332 288.833,560.5 289,563C289.113,564.696 289.5,566.833 290,568C290.371,568.867 291.08,569.795 292,570C293.5,570.333 296.667,570.017 299,570C345.333,569.667 510.333,568.333 570,568C599,567.838 642,568.5 657,568C658.413,567.953 659.503,566.324 660,565C660.5,563.667 659.88,561.662 660,560C661.167,543.833 665.833,485.833 667,468C667.326,463.011 666.846,457.998 667,453C667.333,442.167 668.353,419.667 669,403C669.667,385.833 670.146,367.659 671,350C672,329.333 673.599,302.663 675,279C676.5,253.667 679,216.167 680,198C680.513,188.675 680.563,179.329 681,170C681.5,159.333 682.5,144.167 683,134C683.41,125.67 683.833,115 684,109C684.102,105.335 684,101.333 684,98L684,86C684,85 683.833,83.667 684,83C684.114,82.543 684.608,82.261 685,82C685.5,81.667 686.333,81 687,81C687.667,81 688.706,81.315 689,82C689.5,83.167 689.732,85.99 690,88C690.333,90.5 690.853,93.985 691,97C691.333,103.833 691.833,119.333 692,129C692.149,137.665 692.155,146.335 692,155C691.833,164.333 691.484,175.006 691,185C690.5,195.333 689.72,206.337 689,217C688.167,229.333 686.667,246.667 686,259C685.424,269.656 685.333,281.833 685,291C684.721,298.669 684.348,306.334 684,314C683.5,325 682.5,345.333 682,357C681.614,365.998 681.493,375.007 681,384C680.333,396.167 678.667,419.333 678,430C677.625,435.998 677.25,441.996 677,448C676.667,456 676.667,468.167 676,478C675.343,487.696 673.833,499.833 673,507C672.456,511.682 671.603,516.325 671,521C670.333,526.167 669.333,532.833 669,538C668.7,542.657 669.333,547.833 669,552C668.703,555.715 667.167,560 667,563C666.869,565.353 668.5,568.5 668,570C667.529,571.414 665.333,571.333 664,572C662.667,572.667 661.473,573.773 660,574C657.833,574.333 653.998,574.12 651,574C646.833,573.833 640.344,573 635,573C619.667,573 584.332,573.589 559,574C528.167,574.5 485.333,575.5 450,576C415.668,576.486 370.333,577 347,577C334.662,577 319.333,576 310,576C303.658,576 295.167,577.333 291,577C288.771,576.822 286.333,575.667 285,574C283.667,572.333 283.284,569.41 283,567C282.667,564.167 283.162,560.329 283,557C282.667,550.167 281.498,536.343 281,526C280.333,512.167 279.5,485.667 279,474C278.743,467.996 278.167,460.833 278,456C277.874,452.336 278.111,448.665 278,445C277.833,439.5 277.319,430.334 277,423C276.667,415.333 276.167,406.333 276,399C275.849,392.335 276.167,383.833 276,379C275.896,375.983 275.177,373.013 275,370C274.667,364.333 274.167,353.167 274,345C273.837,337.002 274.129,328.999 274,321C273.833,310.667 273.617,295.656 273,283C272.333,269.333 270.833,253.667 270,239C269.167,224.342 268.667,207.667 268,195C267.438,184.327 266.577,173.672 266,163C265.333,150.667 264.5,131.833 264,121C263.646,113.334 263,103 263,98C263,95.643 263.667,92.5 264,91C264.162,90.272 264.534,89.582 265,89C265.667,88.167 267,86.667 268,86C268.877,85.415 269.949,85.081 271,85C273.167,84.833 277.667,85 281,85C288.167,85 303.001,85.137 314,85C327.333,84.833 345.346,84.712 361,84C379.333,83.167 402.988,81.126 424,80C452,78.5 497.833,76.333 529,75C556.327,73.831 593.833,72.667 611,72C618.003,71.728 625.5,71.167 632,71C637.998,70.846 644,71 650,71C656,71 663.333,70.833 668,71C671.348,71.12 675.833,71.667 678,72C679.042,72.16 680.333,72.667 681,73C681.422,73.211 681.667,73.667 682,74C682.5,74.5 683.5,75.333 684,76C684.447,76.596 684.833,77.333 685,78C685.162,78.647 685.333,79.5 685,80C684.667,80.5 683.692,80.723 683,81C682.167,81.333 680.833,81.833 680,82C679.346,82.131 678.667,82 678,82Z" style="fill:rgb(30,66,94);"/>
        <g transform="matrix(1.120205,-0.06138,0.06138,1.120205,-36.627568,9.802075)">
            <path d="M334.121,140.64C334.445,140.64 334.742,140.6 335.012,140.519C335.282,140.438 335.579,140.397 335.902,140.397C337.522,140.397 339.344,139.965 341.368,139.102C343.392,138.238 345.255,137.158 346.955,135.863C348.655,134.567 350.032,133.137 351.084,131.571C352.137,130.006 352.528,128.494 352.259,127.037C351.503,125.364 350.356,124.095 348.817,123.231C347.279,122.368 345.484,121.814 343.433,121.571C341.381,121.329 339.209,121.356 336.915,121.652C334.62,121.949 332.353,122.408 330.113,123.029C327.873,123.65 325.768,124.405 323.797,125.296C321.827,126.187 320.194,127.118 318.899,128.09C318.305,128.306 317.967,128.157 317.886,127.644C317.806,127.131 317.859,126.511 318.048,125.782C318.237,125.053 318.507,124.324 318.858,123.596C319.209,122.867 319.519,122.341 319.789,122.017C320.491,120.613 321.382,119.507 322.461,118.697C323.541,117.887 324.728,117.24 326.024,116.754C328.129,115.998 330.774,115.512 333.959,115.296C337.144,115.08 340.329,115.229 343.514,115.742C346.699,116.254 349.573,117.159 352.137,118.454C354.701,119.75 356.442,121.531 357.36,123.798C357.899,125.58 358.048,127.32 357.805,129.021C357.562,130.721 357.049,132.3 356.267,133.758C355.484,135.215 354.472,136.565 353.23,137.806C351.989,139.048 350.639,140.127 349.182,141.045C349.074,141.153 348.966,141.234 348.858,141.288C348.75,141.342 348.588,141.423 348.372,141.531C349.29,141.909 350.153,142.273 350.963,142.624C351.773,142.975 352.555,143.447 353.311,144.041C354.229,144.743 355.012,145.593 355.659,146.591C356.307,147.59 356.739,148.602 356.955,149.628C357.495,151.409 357.603,153.177 357.279,154.931C356.955,156.686 356.496,158.292 355.902,159.749C355.093,161.369 354.134,162.948 353.028,164.486C351.921,166.024 350.72,167.333 349.425,168.413C346.078,172.138 342.286,175.012 338.048,177.036C333.811,179.061 329.317,180.37 324.567,180.963C322.947,181.017 321.436,180.99 320.032,180.883C318.629,180.775 317.333,180.478 316.146,179.992C314.958,179.506 313.878,178.804 312.907,177.887C311.935,176.969 311.071,175.727 310.316,174.162C309.236,172.543 308.305,170.883 307.522,169.182C306.74,167.482 306.227,165.795 305.984,164.122C305.741,162.448 305.862,160.883 306.348,159.425C306.834,157.968 307.806,156.672 309.263,155.539C310.289,154.621 311.355,153.798 312.461,153.069C313.568,152.34 314.823,151.841 316.227,151.571C316.496,151.463 316.726,151.369 316.915,151.288C317.104,151.207 317.333,151.166 317.603,151.166L317.846,151.166C317.576,151.436 317.36,151.706 317.198,151.976C317.036,152.246 316.874,152.462 316.712,152.624C315.795,153.757 314.904,155.026 314.04,156.429C313.177,157.833 312.515,159.29 312.057,160.802C311.598,162.313 311.395,163.825 311.449,165.336C311.503,166.848 311.962,168.224 312.826,169.466C313.582,170.545 314.486,171.368 315.538,171.935C316.591,172.502 317.725,172.88 318.939,173.069C320.154,173.258 321.382,173.312 322.623,173.231C323.865,173.15 325.052,173.028 326.186,172.866C329.857,172.165 333.19,170.923 336.186,169.142C339.182,167.36 341.948,165.201 344.485,162.664C345.133,161.908 345.821,161.058 346.55,160.114C347.279,159.169 347.954,158.197 348.574,157.199C349.195,156.2 349.735,155.174 350.194,154.122C350.653,153.069 350.963,152.057 351.125,151.085C350.855,149.574 350.356,148.427 349.627,147.644C348.898,146.861 347.913,146.335 346.672,146.065C345.43,145.795 343.932,145.701 342.178,145.782C340.423,145.863 338.413,146.011 336.145,146.227C335.39,146.335 334.607,146.402 333.797,146.429C332.988,146.456 332.178,146.524 331.368,146.632C331.314,146.632 331.233,146.686 331.125,146.794C331.071,146.848 331.017,146.875 330.963,146.875C329.236,150.114 327.589,153.406 326.024,156.753C324.459,160.1 322.542,163.204 320.275,166.065C320.167,166.227 319.911,166.591 319.506,167.158C319.101,167.725 318.669,168.238 318.21,168.696C317.752,169.155 317.306,169.425 316.874,169.506C316.442,169.587 316.173,169.223 316.065,168.413C315.795,167.873 315.687,167.158 315.741,166.267C315.795,165.377 315.93,164.445 316.146,163.474C316.362,162.502 316.618,161.571 316.915,160.68C317.212,159.79 317.441,159.101 317.603,158.616C317.873,157.644 318.143,156.686 318.413,155.741C318.683,154.796 319.007,153.865 319.384,152.948C320.572,150.572 321.692,148.224 322.745,145.903C323.797,143.582 324.944,141.288 326.186,139.021C326.834,137.617 327.495,136.241 328.17,134.891C328.845,133.542 329.533,132.219 330.235,130.924C330.72,130.168 331.341,129.777 332.097,129.75C332.853,129.723 333.568,129.938 334.243,130.397C334.917,130.856 335.484,131.477 335.943,132.26C336.402,133.042 336.577,133.893 336.469,134.81C336.199,135.89 335.848,136.902 335.417,137.847C334.985,138.791 334.553,139.722 334.121,140.64Z" style="fill:rgb(30,66,94);fill-rule:nonzero;"/>
            <path d="M378.898,158.049C379.546,157.995 380.247,157.833 381.003,157.563C381.759,157.293 382.461,157.077 383.108,156.915C383.864,156.699 384.66,156.443 385.497,156.146C386.334,155.849 387.13,155.62 387.886,155.458C388.425,155.458 388.641,155.606 388.533,155.903C388.425,156.2 388.169,156.551 387.764,156.956C387.359,157.361 386.9,157.752 386.388,158.13C385.875,158.508 385.484,158.778 385.214,158.939C383.918,159.533 382.636,159.992 381.367,160.316C380.099,160.64 378.898,161.099 377.764,161.692C377.278,162.556 376.604,163.703 375.74,165.134C374.876,166.564 373.918,167.954 372.866,169.304C371.813,170.653 370.706,171.814 369.546,172.785C368.385,173.757 367.265,174.243 366.185,174.243C364.674,174.243 363.379,173.811 362.299,172.947C361.489,172.408 360.882,171.571 360.477,170.437C360.072,169.304 359.829,168.076 359.748,166.753C359.667,165.431 359.708,164.135 359.87,162.867C360.032,161.598 360.221,160.559 360.437,159.749C360.491,159.371 360.572,159.115 360.679,158.98C360.787,158.845 360.895,158.751 361.003,158.697C361.111,158.643 361.233,158.589 361.368,158.535C361.503,158.481 361.624,158.373 361.732,158.211C361.894,157.617 362.056,156.996 362.218,156.348C362.38,155.701 362.623,155.107 362.947,154.567C363.864,152.948 365.038,151.45 366.469,150.073C367.899,148.697 369.559,147.9 371.449,147.685C372.636,147.469 373.729,147.523 374.728,147.846C375.727,148.17 376.604,148.791 377.359,149.709C378.007,150.411 378.466,151.18 378.736,152.016C379.006,152.853 379.168,153.663 379.222,154.446C379.276,155.228 379.249,155.944 379.141,156.591C379.033,157.239 378.952,157.725 378.898,158.049ZM374.283,158.858C374.391,158.858 374.498,158.805 374.606,158.697C374.714,158.589 374.768,158.481 374.768,158.373C375.2,157.347 375.403,156.213 375.376,154.972C375.349,153.73 374.957,152.732 374.202,151.976C373.824,151.544 373.338,151.301 372.744,151.247C372.15,151.193 371.584,151.301 371.044,151.571C369.964,152.219 369.1,152.975 368.453,153.838C367.805,154.702 367.184,155.593 366.59,156.51C366.59,156.78 366.644,156.969 366.752,157.077C367.292,157.563 367.535,158.103 367.481,158.697C367.481,158.966 367.791,159.128 368.412,159.182C369.033,159.236 369.735,159.25 370.517,159.223C371.3,159.196 372.056,159.128 372.785,159.02C373.513,158.912 374.013,158.858 374.283,158.858ZM367.076,171.328C367.616,171.22 368.223,170.829 368.898,170.154C369.573,169.479 370.221,168.71 370.841,167.846C371.462,166.983 372.002,166.105 372.461,165.215C372.92,164.324 373.23,163.582 373.392,162.988C372.312,163.096 371.152,163.15 369.91,163.15C368.669,163.15 367.508,163.042 366.428,162.826C366.266,163.312 366.158,163.946 366.105,164.729C366.051,165.512 366.051,166.321 366.105,167.158C366.158,167.995 366.266,168.791 366.428,169.547C366.59,170.302 366.806,170.896 367.076,171.328Z" style="fill:rgb(30,66,94);fill-rule:nonzero;"/>
            <path d="M389.343,175.943C389.613,176.483 389.977,176.766 390.436,176.793C390.895,176.82 391.34,176.699 391.772,176.429C393.392,175.026 394.93,173.514 396.388,171.895C397.845,170.275 399.235,168.656 400.558,167.037C401.88,165.417 403.176,163.838 404.444,162.3C405.713,160.761 406.941,159.371 408.128,158.13C408.56,157.698 408.898,157.603 409.14,157.846C409.383,158.089 409.424,158.454 409.262,158.939C408.506,160.181 407.75,161.382 406.995,162.543C406.239,163.703 405.456,164.877 404.647,166.065C402.973,168.44 401.259,170.977 399.505,173.676C397.751,176.375 395.821,178.669 393.716,180.559C392.42,181.746 391.016,182.421 389.505,182.583C388.102,182.529 386.779,182.084 385.537,181.247C384.296,180.41 383.567,179.29 383.351,177.887C383.027,174.594 383.081,171.274 383.513,167.927C383.999,164.041 384.782,160.019 385.861,155.863C386.941,151.706 388.25,147.577 389.788,143.474C391.327,139.372 393.014,135.377 394.849,131.49C396.684,127.604 398.601,123.987 400.598,120.64C401.516,119.183 402.433,117.793 403.351,116.47C404.269,115.148 405.24,113.92 406.266,112.786C406.644,112.3 407.116,111.949 407.683,111.734C408.25,111.518 408.83,111.545 409.424,111.815C410.611,112.354 411.124,113.353 410.962,114.81C410.584,117.995 409.923,121.099 408.978,124.122C408.034,127.145 406.887,130.06 405.537,132.867C404.188,135.674 402.676,138.373 401.003,140.964C399.329,143.555 397.548,146.011 395.659,148.332C395.497,148.494 395.375,148.683 395.294,148.899C395.213,149.115 395.119,149.331 395.011,149.547C394.201,151.706 393.405,154.081 392.622,156.672C391.84,159.263 391.165,161.787 390.598,164.243C390.031,166.699 389.627,168.98 389.384,171.085C389.141,173.19 389.127,174.81 389.343,175.943ZM409.262,118.616C406.941,122.503 404.862,126.497 403.027,130.6C401.192,134.702 399.356,138.805 397.521,142.907C398.007,142.421 398.614,141.598 399.343,140.438C400.072,139.277 400.841,137.955 401.651,136.47C402.46,134.986 403.27,133.38 404.08,131.652C404.889,129.925 405.645,128.252 406.347,126.632C407.049,125.013 407.669,123.488 408.209,122.057C408.749,120.627 409.1,119.48 409.262,118.616Z" style="fill:rgb(30,66,94);fill-rule:nonzero;"/>
            <path d="M404.889,166.794C404.782,164.742 404.997,162.61 405.537,160.397C406.077,158.184 406.887,156.146 407.966,154.284C409.046,152.421 410.409,150.896 412.055,149.709C413.702,148.521 415.632,147.9 417.845,147.846C418.978,148.116 419.856,148.683 420.476,149.547C421.097,150.411 421.273,151.463 421.003,152.705C420.787,153.892 420.476,154.904 420.071,155.741C419.667,156.578 418.978,157.455 418.007,158.373C417.521,158.805 416.846,159.371 415.982,160.073C415.119,160.775 414.282,161.504 413.472,162.259C412.663,163.015 411.961,163.784 411.367,164.567C410.773,165.35 410.476,166.011 410.476,166.551C410.315,167.954 410.53,168.858 411.124,169.263C411.718,169.668 412.487,169.83 413.432,169.749C414.377,169.668 415.335,169.412 416.306,168.98C417.278,168.548 418.061,168.17 418.654,167.846C419.356,167.36 420.139,166.753 421.003,166.024C421.866,165.296 422.73,164.526 423.594,163.717C424.457,162.907 425.294,162.124 426.104,161.369C426.914,160.613 427.588,159.992 428.128,159.506C428.56,159.074 428.951,158.67 429.302,158.292C429.653,157.914 430.071,157.59 430.557,157.32C430.989,157.212 431.326,157.185 431.569,157.239C431.812,157.293 431.772,157.698 431.448,158.454C431.016,159.371 430.49,160.235 429.869,161.045C429.248,161.854 428.587,162.664 427.885,163.474C426.914,164.553 425.874,165.687 424.768,166.875C423.661,168.062 422.501,169.155 421.286,170.154C420.071,171.153 418.803,172.016 417.48,172.745C416.158,173.474 414.795,173.946 413.391,174.162C410.908,174.324 408.871,173.811 407.278,172.623C405.686,171.436 404.889,169.493 404.889,166.794ZM417.845,151.571C416.387,152.111 415.24,152.813 414.404,153.676C413.567,154.54 412.96,155.809 412.582,157.482C413.769,156.618 414.835,155.741 415.78,154.85C416.725,153.96 417.413,152.867 417.845,151.571Z" style="fill:rgb(30,66,94);fill-rule:nonzero;"/>
            <path d="M430.719,180.154C431.043,181.179 431.704,181.503 432.703,181.125C433.702,180.748 434.862,179.938 436.185,178.696C437.507,177.455 438.897,175.943 440.355,174.162C441.812,172.381 443.202,170.626 444.525,168.899C445.847,167.171 446.994,165.606 447.966,164.203C448.938,162.799 449.585,161.881 449.909,161.45C450.179,161.018 450.489,160.613 450.84,160.235C451.191,159.857 451.637,159.452 452.176,159.02C452.392,158.858 452.649,158.683 452.946,158.494C453.242,158.305 453.499,158.224 453.715,158.251C453.931,158.278 454.025,158.454 453.998,158.778C453.971,159.101 453.769,159.641 453.391,160.397C453.067,161.045 452.554,162.03 451.852,163.352C451.151,164.675 450.287,166.159 449.261,167.806C448.236,169.452 447.102,171.153 445.861,172.907C444.619,174.661 443.283,176.294 441.853,177.806C440.422,179.317 438.965,180.64 437.48,181.773C435.996,182.907 434.498,183.636 432.986,183.959C431.637,184.283 430.395,184.459 429.262,184.486C428.128,184.513 427.129,184.094 426.266,183.231C425.456,182.421 424.997,181.26 424.889,179.749C424.781,178.237 424.849,176.632 425.092,174.931C425.335,173.231 425.672,171.584 426.104,169.992C426.536,168.4 426.887,167.171 427.156,166.308C428.02,163.501 428.843,160.734 429.626,158.008C430.409,155.282 431.178,152.543 431.934,149.79C432.743,147.361 433.486,144.864 434.16,142.3C434.835,139.736 435.523,137.428 436.225,135.377C435.146,135.323 434.039,135.283 432.905,135.256C431.772,135.229 430.638,135.202 429.505,135.175C428.371,135.148 427.251,135.08 426.144,134.972C425.038,134.864 423.999,134.675 423.027,134.405C422.163,134.189 421.529,133.839 421.124,133.353C420.719,132.867 420.53,132.381 420.557,131.895C420.584,131.409 420.854,130.991 421.367,130.64C421.88,130.289 422.622,130.114 423.594,130.114C424.187,130.114 425.159,130.168 426.509,130.276C427.858,130.384 429.275,130.465 430.76,130.519C432.244,130.573 433.621,130.586 434.889,130.559C436.158,130.532 436.981,130.438 437.359,130.276C437.521,130.222 437.602,130.141 437.602,130.033C437.926,129.061 438.276,128.036 438.654,126.956C439.032,125.876 439.41,124.824 439.788,123.798C440.166,122.773 440.53,121.801 440.881,120.883C441.232,119.966 441.542,119.183 441.812,118.535C442.028,118.049 442.473,117.847 443.148,117.928C443.823,118.009 444.525,118.238 445.253,118.616C445.982,118.994 446.616,119.466 447.156,120.033C447.696,120.6 447.939,121.126 447.885,121.612C447.723,123.015 447.345,124.392 446.751,125.741C446.158,127.091 445.645,128.629 445.213,130.357C448.614,130.303 451.542,130.262 453.998,130.235C456.454,130.208 458.843,130.195 461.164,130.195C461.92,130.195 462.676,130.208 463.431,130.235C464.187,130.262 464.767,130.33 465.172,130.438C465.577,130.546 465.671,130.694 465.456,130.883C465.24,131.072 464.538,131.328 463.35,131.652C459.95,132.732 456.657,133.555 453.472,134.122C450.287,134.689 447.156,135.107 444.079,135.377C443.809,135.431 443.688,135.485 443.715,135.539C443.742,135.593 443.674,135.755 443.512,136.025C443.512,136.079 443.486,136.133 443.432,136.187C443.378,136.241 443.351,136.295 443.351,136.349C442.487,138.724 441.542,141.396 440.517,144.365C439.491,147.334 438.465,150.384 437.44,153.514C436.414,156.645 435.442,159.722 434.525,162.745C433.607,165.768 432.824,168.507 432.177,170.964C431.529,173.42 431.057,175.471 430.76,177.117C430.463,178.764 430.449,179.776 430.719,180.154Z" style="fill:rgb(30,66,94);fill-rule:nonzero;"/>
            <path d="M468.937,156.915L469.909,155.944L469.99,155.944L469.99,156.105C470.098,157.347 469.99,158.278 469.666,158.899C469.342,159.52 469.18,159.857 469.18,159.911C468.64,160.721 467.912,161.76 466.994,163.028C466.076,164.297 465.118,165.593 464.12,166.915C463.121,168.238 462.163,169.452 461.245,170.559C460.327,171.665 459.599,172.462 459.059,172.947C458.411,173.703 457.709,174.405 456.954,175.053C456.684,175.269 456.319,175.457 455.861,175.619C455.402,175.781 454.929,175.903 454.444,175.984C453.958,176.065 453.485,176.078 453.027,176.024C452.568,175.97 452.203,175.835 451.933,175.619C451.016,175.026 450.301,174.31 449.788,173.474C449.275,172.637 449.019,171.733 449.019,170.761C448.857,167.792 449.113,164.756 449.788,161.652C450.462,158.548 451.259,155.728 452.176,153.191C452.446,152.435 452.824,151.652 453.31,150.842C453.796,150.357 454.363,150.222 455.01,150.438C455.658,150.653 456.238,151.099 456.751,151.774C457.264,152.448 457.642,153.272 457.885,154.243C458.128,155.215 458.087,156.186 457.763,157.158C457.493,158.076 457.251,158.953 457.035,159.79C456.819,160.626 456.576,161.504 456.306,162.421C456.198,162.853 456.022,163.474 455.78,164.284C455.537,165.093 455.28,165.943 455.01,166.834C454.74,167.725 454.498,168.575 454.282,169.385C454.066,170.194 453.931,170.815 453.877,171.247C453.769,172.057 453.985,172.273 454.525,171.895C455.064,171.517 455.793,170.869 456.711,169.951C458.924,167.684 461.029,165.485 463.026,163.352C465.024,161.22 466.994,159.074 468.937,156.915ZM458.168,123.474C457.79,123.69 457.331,123.96 456.792,124.284C456.252,124.608 455.793,124.837 455.415,124.972C455.037,125.107 454.821,125.067 454.767,124.851C454.713,124.635 455.01,124.041 455.658,123.069C456.252,122.368 456.846,121.679 457.439,121.005C458.033,120.33 458.627,119.696 459.221,119.102C460.57,117.698 462.055,116.376 463.674,115.134C464.106,114.756 464.538,114.702 464.97,114.972C465.402,115.242 465.617,115.62 465.617,116.106C465.617,116.7 465.334,117.361 464.767,118.09C464.201,118.818 463.512,119.534 462.703,120.235C461.893,120.937 461.07,121.571 460.233,122.138C459.396,122.705 458.708,123.15 458.168,123.474Z" style="fill:rgb(30,66,94);fill-rule:nonzero;"/>
            <path d="M468.613,171.409C468.397,171.841 468.236,172.111 468.128,172.219C467.264,172.812 466.67,172.65 466.346,171.733C466.238,171.301 466.157,170.896 466.103,170.518C466.049,170.14 466.022,169.736 466.022,169.304C465.968,168.116 465.968,166.929 466.022,165.741C466.184,164.391 466.508,162.921 466.994,161.328C467.48,159.736 468.06,158.157 468.735,156.591C469.41,155.026 470.111,153.555 470.84,152.178C471.569,150.802 472.257,149.682 472.905,148.818C473.229,148.332 473.674,148.062 474.241,148.008C474.808,147.954 475.361,148.089 475.901,148.413C476.441,148.737 476.872,149.196 477.196,149.79C477.52,150.384 477.601,151.058 477.439,151.814C477.385,151.868 477.277,152.03 477.115,152.3C476.953,152.57 476.791,152.867 476.63,153.191C476.468,153.514 476.306,153.825 476.144,154.122C475.982,154.419 475.874,154.594 475.82,154.648C476.414,154.216 477.007,153.73 477.601,153.191C478.195,152.651 478.802,152.138 479.423,151.652C480.044,151.166 480.678,150.748 481.326,150.397C481.974,150.046 482.675,149.871 483.431,149.871C484.349,149.871 485.158,150.127 485.86,150.64C486.562,151.153 487.142,151.774 487.601,152.502C488.06,153.231 488.343,154.014 488.451,154.85C488.559,155.687 488.505,156.483 488.289,157.239C487.803,158.697 487.129,160.114 486.265,161.49C485.401,162.867 484.524,164.23 483.633,165.579C482.743,166.929 481.92,168.292 481.164,169.668C480.408,171.045 479.868,172.462 479.544,173.919C479.221,175.053 479.207,175.754 479.504,176.024C479.801,176.294 480.192,176.348 480.678,176.186C481.164,176.024 481.663,175.754 482.176,175.377C482.689,174.999 483.053,174.729 483.269,174.567C485.482,172.839 487.561,170.937 489.504,168.858C491.447,166.78 493.363,164.796 495.253,162.907C496.872,161.288 497.884,160.41 498.289,160.275C498.694,160.141 498.748,160.41 498.451,161.085C498.154,161.76 497.668,162.664 496.994,163.798C496.319,164.931 495.712,165.93 495.172,166.794C494.524,167.873 493.633,169.182 492.5,170.721C491.366,172.259 490.111,173.744 488.735,175.174C487.358,176.605 485.941,177.819 484.484,178.818C483.026,179.816 481.677,180.316 480.435,180.316C479.517,180.316 478.708,180.113 478.006,179.708C477.304,179.304 476.71,178.804 476.225,178.21C475.739,177.617 475.374,176.942 475.132,176.186C474.889,175.43 474.767,174.675 474.767,173.919C474.767,171.22 475.32,168.575 476.427,165.984C477.534,163.393 478.708,161.018 479.949,158.858C480.543,157.725 480.705,156.942 480.435,156.51C480.165,156.078 479.383,156.159 478.087,156.753C477.007,157.239 476.009,158.116 475.091,159.385C474.173,160.653 473.323,162.03 472.54,163.514C471.758,164.999 471.043,166.47 470.395,167.927C469.747,169.385 469.153,170.545 468.613,171.409Z" style="fill:rgb(30,66,94);fill-rule:nonzero;"/>
            <path d="M528.451,151.571C528.451,151.463 528.478,151.382 528.532,151.328C528.532,151.274 528.559,151.247 528.613,151.247C530.286,147.685 531.946,144.243 533.592,140.923C535.239,137.604 536.912,134.405 538.613,131.328C540.313,128.252 542.094,125.283 543.957,122.422C545.819,119.561 547.803,116.781 549.908,114.082C551.096,112.732 552.054,112.138 552.782,112.3C553.511,112.462 554.051,113.016 554.402,113.96C554.753,114.905 554.955,116.025 555.009,117.321C555.063,118.616 555.036,119.669 554.928,120.478C554.118,123.825 553.025,127.172 551.649,130.519C550.272,133.866 548.72,137.199 546.993,140.519C545.266,143.838 543.403,147.145 541.406,150.438C539.409,153.73 537.385,157.023 535.333,160.316C535.063,160.64 534.861,160.977 534.726,161.328C534.591,161.679 534.47,162.07 534.362,162.502C534.254,162.988 534.132,163.676 533.997,164.567C533.862,165.458 533.781,166.389 533.754,167.36C533.727,168.332 533.795,169.223 533.957,170.032C534.119,170.842 534.416,171.355 534.847,171.571C535.495,171.895 536.44,171.827 537.681,171.368C538.923,170.91 540.245,170.221 541.649,169.304C543.052,168.386 544.469,167.333 545.9,166.146C547.33,164.958 548.558,163.825 549.584,162.745C549.692,162.637 549.854,162.651 550.07,162.786C550.286,162.921 550.461,163.123 550.596,163.393C550.731,163.663 550.785,163.973 550.758,164.324C550.731,164.675 550.529,165.012 550.151,165.336C548.909,166.416 547.384,167.779 545.576,169.425C543.768,171.072 541.878,172.597 539.908,174C537.938,175.403 536.008,176.47 534.119,177.198C532.229,177.927 530.61,177.941 529.26,177.239C528.019,176.591 527.142,175.552 526.629,174.121C526.116,172.691 525.833,171.126 525.779,169.425C525.725,167.725 525.792,166.051 525.981,164.405C526.17,162.759 526.346,161.45 526.507,160.478C526.399,160.586 526.305,160.734 526.224,160.923C526.143,161.112 526.049,161.288 525.941,161.45C525.185,162.313 524.321,163.352 523.35,164.567C522.378,165.781 521.312,166.902 520.151,167.927C518.991,168.953 517.763,169.736 516.467,170.275C515.172,170.815 513.849,170.842 512.5,170.356C511.744,169.924 511.083,169.398 510.516,168.777C509.949,168.157 509.666,167.333 509.666,166.308C509.666,164.311 510.057,162.286 510.84,160.235C511.622,158.184 512.688,156.362 514.038,154.769C515.387,153.177 516.98,151.908 518.815,150.964C520.651,150.019 522.621,149.628 524.726,149.79C525.32,149.898 525.927,150.046 526.548,150.235C527.169,150.424 527.695,150.761 528.127,151.247L528.451,151.571ZM552.094,123.393C548.693,128.629 545.671,134 543.025,139.506C540.38,145.012 538.059,150.707 536.062,156.591C537.304,154.324 538.775,151.733 540.475,148.818C542.175,145.903 543.835,142.921 545.455,139.871C547.074,136.821 548.504,133.852 549.746,130.964C550.988,128.076 551.77,125.553 552.094,123.393ZM515.738,163.798L515.9,164.041C517.736,162.583 519.584,161.139 521.447,159.709C523.309,158.278 525.239,156.861 527.236,155.458C526.103,154.918 524.875,154.85 523.552,155.255C522.23,155.66 520.988,156.335 519.827,157.28C518.667,158.224 517.695,159.304 516.912,160.518C516.13,161.733 515.738,162.826 515.738,163.798Z" style="fill:rgb(30,66,94);fill-rule:nonzero;"/>
            <path d="M546.831,166.794C546.723,164.742 546.939,162.61 547.479,160.397C548.019,158.184 548.828,156.146 549.908,154.284C550.988,152.421 552.351,150.896 553.997,149.709C555.643,148.521 557.573,147.9 559.786,147.846C560.92,148.116 561.797,148.683 562.418,149.547C563.039,150.411 563.214,151.463 562.944,152.705C562.728,153.892 562.418,154.904 562.013,155.741C561.608,156.578 560.92,157.455 559.948,158.373C559.463,158.805 558.788,159.371 557.924,160.073C557.06,160.775 556.224,161.504 555.414,162.259C554.604,163.015 553.903,163.784 553.309,164.567C552.715,165.35 552.418,166.011 552.418,166.551C552.256,167.954 552.472,168.858 553.066,169.263C553.66,169.668 554.429,169.83 555.374,169.749C556.318,169.668 557.276,169.412 558.248,168.98C559.22,168.548 560.002,168.17 560.596,167.846C561.298,167.36 562.081,166.753 562.944,166.024C563.808,165.296 564.672,164.526 565.535,163.717C566.399,162.907 567.236,162.124 568.045,161.369C568.855,160.613 569.53,159.992 570.07,159.506C570.502,159.074 570.893,158.67 571.244,158.292C571.595,157.914 572.013,157.59 572.499,157.32C572.931,157.212 573.268,157.185 573.511,157.239C573.754,157.293 573.713,157.698 573.389,158.454C572.958,159.371 572.431,160.235 571.811,161.045C571.19,161.854 570.529,162.664 569.827,163.474C568.855,164.553 567.816,165.687 566.709,166.875C565.603,168.062 564.442,169.155 563.228,170.154C562.013,171.153 560.745,172.016 559.422,172.745C558.1,173.474 556.737,173.946 555.333,174.162C552.85,174.324 550.812,173.811 549.22,172.623C547.627,171.436 546.831,169.493 546.831,166.794ZM559.786,151.571C558.329,152.111 557.182,152.813 556.345,153.676C555.508,154.54 554.901,155.809 554.523,157.482C555.711,156.618 556.777,155.741 557.722,154.85C558.666,153.96 559.355,152.867 559.786,151.571Z" style="fill:rgb(30,66,94);fill-rule:nonzero;"/>
            <path d="M573.956,175.943C574.226,176.483 574.591,176.766 575.049,176.793C575.508,176.82 575.954,176.699 576.385,176.429C578.005,175.026 579.543,173.514 581.001,171.895C582.458,170.275 583.848,168.656 585.171,167.037C586.493,165.417 587.789,163.838 589.057,162.3C590.326,160.761 591.554,159.371 592.741,158.13C593.173,157.698 593.511,157.603 593.754,157.846C593.997,158.089 594.037,158.454 593.875,158.939C593.119,160.181 592.364,161.382 591.608,162.543C590.852,163.703 590.069,164.877 589.26,166.065C587.586,168.44 585.872,170.977 584.118,173.676C582.364,176.375 580.434,178.669 578.329,180.559C577.033,181.746 575.63,182.421 574.118,182.583C572.715,182.529 571.392,182.084 570.151,181.247C568.909,180.41 568.18,179.29 567.964,177.887C567.641,174.594 567.695,171.274 568.126,167.927C568.612,164.041 569.395,160.019 570.475,155.863C571.554,151.706 572.863,147.577 574.402,143.474C575.94,139.372 577.627,135.377 579.462,131.49C581.298,127.604 583.214,123.987 585.211,120.64C586.129,119.183 587.047,117.793 587.964,116.47C588.882,115.148 589.854,113.92 590.879,112.786C591.257,112.3 591.729,111.949 592.296,111.734C592.863,111.518 593.443,111.545 594.037,111.815C595.225,112.354 595.737,113.353 595.575,114.81C595.198,117.995 594.536,121.099 593.592,124.122C592.647,127.145 591.5,130.06 590.15,132.867C588.801,135.674 587.289,138.373 585.616,140.964C583.943,143.555 582.161,146.011 580.272,148.332C580.11,148.494 579.989,148.683 579.908,148.899C579.827,149.115 579.732,149.331 579.624,149.547C578.815,151.706 578.018,154.081 577.236,156.672C576.453,159.263 575.778,161.787 575.211,164.243C574.645,166.699 574.24,168.98 573.997,171.085C573.754,173.19 573.74,174.81 573.956,175.943ZM593.875,118.616C591.554,122.503 589.476,126.497 587.64,130.6C585.805,134.702 583.97,138.805 582.134,142.907C582.62,142.421 583.227,141.598 583.956,140.438C584.685,139.277 585.454,137.955 586.264,136.47C587.074,134.986 587.883,133.38 588.693,131.652C589.503,129.925 590.258,128.252 590.96,126.632C591.662,125.013 592.283,123.488 592.822,122.057C593.362,120.627 593.713,119.48 593.875,118.616Z" style="fill:rgb(30,66,94);fill-rule:nonzero;"/>
            <path d="M319.708,237.708C317.711,239.112 315.849,240.826 314.121,242.85C312.394,244.874 310.99,246.898 309.911,248.923C308.831,250.947 308.197,252.796 308.008,254.469C307.819,256.142 308.291,257.33 309.425,258.032C310.343,258.626 311.638,258.666 313.312,258.153C314.985,257.64 316.793,256.777 318.737,255.562C320.68,254.348 322.664,252.89 324.688,251.19C326.712,249.489 328.561,247.749 330.235,245.967C331.908,244.186 333.284,242.472 334.364,240.826C335.444,239.179 336.037,237.789 336.145,236.656C336.307,235.468 336.064,234.456 335.417,233.619C334.769,232.782 333.865,232.054 332.704,231.433C331.544,230.812 330.235,230.272 328.777,229.814C327.32,229.355 325.849,228.923 324.364,228.518C322.88,228.113 321.463,227.695 320.113,227.263C318.764,226.831 317.63,226.318 316.712,225.725C315.687,225.077 314.877,224.308 314.283,223.417C313.689,222.526 313.258,221.595 312.988,220.623C312.718,219.652 312.596,218.653 312.623,217.627C312.65,216.602 312.799,215.63 313.069,214.712C313.501,212.931 314.486,211.204 316.024,209.53C317.563,207.857 319.33,206.386 321.328,205.117C323.325,203.849 325.403,202.877 327.562,202.203C329.722,201.528 331.665,201.298 333.392,201.514C335.012,201.784 336.361,202.243 337.441,202.891C338.521,203.539 339.33,204.645 339.87,206.211C340.248,207.506 340.248,208.883 339.87,210.34C339.492,211.798 338.912,213.188 338.129,214.51C337.346,215.833 336.442,217.047 335.417,218.154C334.391,219.26 333.419,220.111 332.502,220.704C332.07,221.028 331.611,221.271 331.125,221.433C330.639,221.595 330.181,221.703 329.749,221.757C329.317,221.811 328.979,221.784 328.737,221.676C328.494,221.568 328.426,221.406 328.534,221.19C329.182,220.057 329.87,218.788 330.599,217.385C331.328,215.981 332.016,214.591 332.664,213.215C333.311,211.838 333.851,210.556 334.283,209.368C334.715,208.181 334.985,207.236 335.093,206.534C335.201,205.941 335.052,205.617 334.647,205.563C334.243,205.509 333.743,205.563 333.149,205.725C332.124,206.049 330.896,206.561 329.465,207.263C328.035,207.965 326.631,208.761 325.255,209.652C323.878,210.543 322.664,211.487 321.611,212.486C320.559,213.484 319.924,214.416 319.708,215.279C319.438,215.819 319.371,216.332 319.506,216.818C319.641,217.304 319.857,217.749 320.154,218.154C320.451,218.559 320.801,218.909 321.206,219.206C321.611,219.503 321.975,219.76 322.299,219.976C323.757,220.893 325.214,221.689 326.672,222.364C328.129,223.039 329.546,223.741 330.923,224.469C332.299,225.198 333.635,225.981 334.931,226.818C336.226,227.654 337.441,228.666 338.574,229.854C340.302,231.689 341.395,233.714 341.854,235.927C342.313,238.14 342.164,240.326 341.408,242.485C340.545,245.184 339.101,247.843 337.077,250.461C335.052,253.079 332.718,255.387 330.073,257.384C327.428,259.381 324.661,260.92 321.773,261.999C318.885,263.079 316.173,263.457 313.636,263.133C311.044,262.755 308.939,261.891 307.32,260.542C305.7,259.192 304.621,257.303 304.081,254.874C303.649,252.715 303.676,250.663 304.162,248.72C304.648,246.777 305.457,244.996 306.591,243.376C307.725,241.757 309.074,240.299 310.64,239.004C312.205,237.708 313.851,236.656 315.579,235.846C316.604,235.306 317.657,234.888 318.737,234.591C319.816,234.294 320.896,234.064 321.975,233.903C323.001,233.687 323.514,233.727 323.514,234.024C323.514,234.321 323.271,234.712 322.785,235.198C322.299,235.684 321.719,236.183 321.044,236.696C320.37,237.209 319.924,237.546 319.708,237.708Z" style="fill:rgb(30,66,94);fill-rule:nonzero;"/>
            <path d="M372.987,246.129C375.47,244.294 377.724,242.566 379.748,240.947C381.772,239.328 383.837,237.465 385.942,235.36L386.185,235.117C384.782,235.333 383.365,235.576 381.934,235.846C380.504,236.116 379.087,236.359 377.683,236.575C377.251,236.629 376.752,236.588 376.185,236.453C375.619,236.318 375.065,236.062 374.525,235.684C373.986,235.306 373.527,234.82 373.149,234.226C372.771,233.633 372.555,232.877 372.501,231.959C372.501,231.365 372.636,230.988 372.906,230.826C373.176,230.664 373.608,230.583 374.202,230.583C376.361,230.691 378.507,230.596 380.639,230.299C382.771,230.002 384.863,229.638 386.914,229.206C387.508,229.098 388.263,228.923 389.181,228.68C390.099,228.437 391.03,228.208 391.975,227.992C392.919,227.776 393.81,227.6 394.647,227.465C395.483,227.33 396.145,227.29 396.63,227.344C397.44,227.452 397.845,227.897 397.845,228.68C397.845,229.463 397.791,230.313 397.683,231.231C397.683,231.608 397.616,231.959 397.481,232.283C397.346,232.607 397.197,232.904 397.035,233.174C395.092,235.171 393.459,237.06 392.137,238.842C390.814,240.623 389.627,242.539 388.574,244.591C387.521,246.642 386.509,248.936 385.537,251.473C384.566,254.01 383.459,257.006 382.218,260.461C382.11,260.731 382.015,261.041 381.934,261.392C381.853,261.743 381.732,262.053 381.57,262.323C381.408,262.593 381.206,262.769 380.963,262.85C380.72,262.931 380.477,262.958 380.234,262.931C379.991,262.904 379.762,262.809 379.546,262.647C379.33,262.485 379.195,262.296 379.141,262.08C378.493,260.137 378.156,258.275 378.129,256.493C378.102,254.712 378.169,252.877 378.331,250.987C374.391,253.524 370.774,255.144 367.481,255.846C364.188,256.547 361.003,256.196 357.926,254.793C355.659,253.605 353.824,251.824 352.42,249.449C351.233,247.56 350.491,245.549 350.194,243.417C349.897,241.284 349.829,239.166 349.991,237.06C350.315,233.552 351.341,230.34 353.068,227.425C354.796,224.51 356.631,221.784 358.574,219.247C361.597,216.008 364.715,213.053 367.926,210.381C371.138,207.709 374.606,205.374 378.331,203.377C380.22,202.405 382.191,201.649 384.242,201.109C384.566,201.001 384.89,200.799 385.214,200.502C385.537,200.205 385.888,199.922 386.266,199.652C387.022,199.004 387.832,198.815 388.695,199.085C389.613,199.355 390.328,199.854 390.841,200.583C391.354,201.312 391.34,202.162 390.801,203.134C389.775,205.239 388.709,207.412 387.602,209.652C386.496,211.892 385.403,214.065 384.323,216.17C384.053,216.818 383.743,217.506 383.392,218.235C383.041,218.963 382.704,219.571 382.38,220.057C381.786,220.65 381.246,220.704 380.76,220.219C380.274,219.733 379.924,219.166 379.708,218.518C379.438,217.978 379.249,217.331 379.141,216.575C379.033,215.819 378.979,215.05 378.979,214.267C378.979,213.484 379.046,212.729 379.181,212C379.316,211.271 379.519,210.637 379.789,210.097C376.28,212.58 372.947,215.212 369.789,217.992C366.631,220.772 363.959,223.727 361.773,226.858C359.586,229.989 358.061,233.282 357.198,236.737C356.334,240.191 356.442,243.835 357.522,247.668C358.061,249.125 358.993,249.989 360.315,250.259C361.638,250.529 363.068,250.475 364.607,250.097C366.145,249.719 367.67,249.139 369.181,248.356C370.693,247.573 371.961,246.831 372.987,246.129Z" style="fill:rgb(30,66,94);fill-rule:nonzero;"/>
            <path d="M449.342,232.04C450.584,232.202 451.798,232.472 452.986,232.85C454.174,233.228 454.929,234.064 455.253,235.36C455.469,236.224 455.145,236.952 454.282,237.546C453.31,238.032 452.325,238.356 451.326,238.518C450.328,238.68 449.288,238.842 448.209,239.004C448.155,239.004 448.074,239.058 447.966,239.166C447.858,239.274 447.804,239.382 447.804,239.49C446.562,243.592 445.564,247.87 444.808,252.323C444.052,256.777 443.216,261.109 442.298,265.319C442.19,265.589 442.055,265.859 441.893,266.129C441.731,266.399 441.515,266.534 441.245,266.534C440.867,266.534 440.598,266.426 440.436,266.21C440.274,265.994 440.139,265.751 440.031,265.481C439.005,260.731 438.492,255.981 438.492,251.23C438.6,249.287 438.762,247.371 438.978,245.481C439.194,243.592 439.518,241.73 439.95,239.894L439.95,239.651C439.68,239.544 438.978,239.476 437.845,239.449C436.711,239.422 435.469,239.422 434.12,239.449C432.77,239.476 431.488,239.503 430.274,239.53C429.059,239.557 428.209,239.57 427.723,239.57C427.399,239.57 426.779,239.84 425.861,240.38C423.648,241.892 421.583,243.552 419.667,245.36C417.75,247.168 415.821,248.909 413.877,250.583C411.934,252.256 409.883,253.754 407.723,255.076C405.564,256.399 403.162,257.33 400.517,257.87C399.761,257.978 399.06,257.708 398.412,257.06C398.142,256.79 398.155,256.453 398.452,256.048C398.749,255.643 399.114,255.279 399.545,254.955C402.784,252.634 405.915,250.164 408.938,247.546C411.961,244.928 414.93,242.297 417.845,239.651C417.953,239.544 418.061,239.449 418.169,239.368C418.277,239.287 418.466,239.139 418.735,238.923C416.36,238.599 414.08,238.154 411.893,237.587C409.707,237.02 407.481,236.521 405.213,236.089C404.458,235.819 403.702,235.576 402.946,235.36C402.19,235.144 401.462,234.847 400.76,234.469C400.382,234.038 400.396,233.781 400.8,233.7C401.205,233.619 401.543,233.579 401.813,233.579C402.622,233.471 403.392,233.376 404.12,233.295C404.849,233.214 405.618,233.12 406.428,233.012C409.883,232.958 413.054,232.85 415.942,232.688C418.83,232.526 421.704,232.445 424.565,232.445C424.835,232.445 425.065,232.391 425.254,232.283C425.443,232.175 425.645,232.067 425.861,231.959C428.29,229.692 430.544,227.371 432.622,224.996C434.7,222.621 436.697,220.192 438.614,217.708C440.53,215.225 442.379,212.702 444.16,210.138C445.942,207.574 447.75,204.996 449.585,202.405C450.449,201.163 451.637,200.732 453.148,201.109C453.58,201.271 453.985,201.609 454.363,202.122C454.74,202.634 454.929,203.188 454.929,203.781C454.498,208.64 453.701,213.322 452.541,217.83C451.38,222.337 450.341,226.858 449.423,231.392C449.423,231.5 449.41,231.622 449.383,231.757C449.356,231.892 449.342,231.986 449.342,232.04ZM443.917,221.757C443.27,222.513 442.487,223.349 441.569,224.267C440.652,225.185 439.707,226.129 438.735,227.101C437.764,228.073 436.832,229.031 435.942,229.975C435.051,230.92 434.309,231.743 433.715,232.445L433.796,232.445C434.714,232.445 435.928,232.405 437.44,232.324C438.951,232.243 440.166,232.202 441.083,232.202C441.137,232.202 441.191,232.175 441.245,232.121C441.353,232.013 441.407,231.959 441.407,231.959C442.001,230.232 442.46,228.518 442.784,226.818C443.108,225.117 443.486,223.43 443.917,221.757Z" style="fill:rgb(30,66,94);fill-rule:nonzero;"/>
        </g>
        <path d="M370,311C374.5,310.833 384,310.167 390,310C395.331,309.852 400.668,310.13 406,310C412.833,309.833 424.167,309.167 431,309C436.332,308.87 443.833,308.833 447,309C448.053,309.055 449.167,309.5 450,310C450.808,310.485 451.5,311.333 452,312C452.447,312.596 452.877,313.265 453,314C453.167,315 453,316.667 453,318L453,351C453,360.167 452.833,372.333 453,382C453.155,391.005 454.167,404 454,409C453.96,410.201 452.833,411.167 452,412C451.167,412.833 450.105,413.527 449,414C447.833,414.5 446.333,414.833 445,415C443.677,415.165 442.332,414.952 441,415C436.333,415.167 424.167,415.667 417,416C410.665,416.295 403.833,416.833 398,417C392.669,417.152 387.167,417 382,417C377,417 371.999,416.907 367,417C358,417.167 335,418 328,418C326.946,418 326,417.167 325,417C324.014,416.836 322.833,417.5 322,417C321.167,416.5 320.333,415 320,414C319.684,413.051 320.11,411.994 320,411C319.833,409.5 319,407.028 319,405C319,400.833 320,392.342 320,386C320,378.333 319.167,366.333 319,359C318.871,353.335 319,347.167 319,342L319,328C319,326 318.833,323.667 319,322C319.137,320.632 319.667,319.167 320,318C320.29,316.986 320.5,315.833 321,315C321.485,314.192 322.192,313.485 323,313C323.833,312.5 324.954,312.131 326,312C327.333,311.833 329.333,312 331,312L336,312C337.333,312 338.673,312.133 340,312C341.667,311.833 344.333,311.167 346,311C347.327,310.867 348.667,311 350,311L363,311C365.167,311 367.668,311.086 370,311ZM372,320L362,320C358.667,320 355.33,320.159 352,320C348.5,319.833 344,319 341,319C338.643,319 335.833,319.833 334,320C332.672,320.121 331.167,319.667 330,320C328.844,320.33 327.473,320.895 327,322C326.5,323.167 326.924,325.335 327,327C327.167,330.667 327.833,339.5 328,344C328.123,347.331 327.861,350.67 328,354C328.167,358 328.833,363.833 329,368C329.147,371.664 329,375.333 329,379C329,382.833 329.167,387.5 329,391C328.856,394.015 328.167,397.667 328,400C327.881,401.662 327.667,403.667 328,405C328.291,406.166 329.333,407.333 330,408C330.527,408.527 331.269,408.854 332,409C332.833,409.167 334.001,409.034 335,409C339.833,408.833 354.5,408.167 361,408C365.332,407.889 369.668,408.111 374,408C380.5,407.833 392.667,407.333 400,407C406.003,406.727 411.993,406.154 418,406C424.5,405.833 435,406.167 439,406C440.053,405.956 441.333,405.5 442,405C442.596,404.553 442.867,403.733 443,403C443.333,401.167 444,397.018 444,394C444,387.167 443.167,372 443,362C442.844,352.668 443,340 443,334C443,331.333 443.167,328.167 443,326C442.87,324.305 442.333,322 442,321C441.851,320.553 441.333,320.333 441,320C440.667,319.667 440.457,319.114 440,319C439.333,318.833 438,319 437,319L413,319C407.833,319 396.5,318.833 392,319C389.974,319.075 388.025,319.899 386,320C382.667,320.167 376,320 372,320Z" style="fill:rgb(30,66,94);"/>
        <path d="M513,349L604,349C606,349 608.007,349.166 610,349C612,348.833 614.333,348.5 616,348C617.428,347.572 619.167,346.833 620,346C620.745,345.255 621.167,343.667 621,343C620.833,342.333 619.685,342.294 619,342C617.833,341.5 615.768,340.312 614,340C611.167,339.5 606.013,339.103 602,339C595.5,338.833 583.999,339.13 575,339C563.5,338.833 543.833,338 533,338C525.326,338 515.167,338.833 510,339C507.335,339.086 504.661,338.834 502,339C499.333,339.167 495.833,339.5 494,340C492.84,340.316 491.5,341.167 491,342C490.5,342.833 490.667,344.167 491,345C491.333,345.833 492.192,346.515 493,347C493.833,347.5 494.977,347.744 496,348C497.333,348.333 499.303,348.9 501,349C503.833,349.167 509,349 513,349Z" style="fill:rgb(30,66,94);"/>
        <path d="M573,380C570.167,379.667 564.344,379.15 560,379C555.167,378.833 549.331,378.852 544,379C538,379.167 529.167,379.833 524,380C520.335,380.118 516.663,379.847 513,380C509,380.167 503,380.833 500,381C498.336,381.092 496.333,380.667 495,381C493.834,381.291 492.5,382.333 492,383C491.6,383.533 491.6,384.467 492,385C492.5,385.667 493.875,386.578 495,387C496.333,387.5 498.317,387.76 500,388C502.333,388.333 505.982,388.94 509,389C517.333,389.167 540.667,389 550,389L565,389C568,389 571.667,389.333 574,389C575.777,388.746 577.833,387.833 579,387C579.978,386.301 580.833,384.833 581,384C581.146,383.269 580.596,382.447 580,382C579.333,381.5 578.014,381.29 577,381C575.833,380.667 574.365,380.161 573,380Z" style="fill:rgb(30,66,94);"/>
        <path d="M585,462C574,462.167 540,462 527,462L478,462C471,462 463.999,461.863 457,462C448.5,462.167 434.667,462.667 427,463C421.661,463.232 416.342,463.866 411,464C404.333,464.167 394.167,464 387,464L368,464C365.667,464 362.833,464.167 361,464C359.631,463.876 358.167,463.333 357,463C355.986,462.71 354.833,462.5 354,462C353.192,461.515 352.167,460.667 352,460C351.833,459.333 352.361,458.383 353,458C353.833,457.5 355.648,457.246 357,457C358.833,456.667 361.659,456.275 364,456C366.833,455.667 370.657,455.223 374,455C379,454.667 387.331,454.29 394,454C401.667,453.667 411.332,453.294 420,453C429.833,452.667 441.996,452.141 453,452C466,451.833 486,452 498,452L579,452C581.333,452 583.671,451.854 586,452C588.667,452.167 592.833,452.667 595,453C596.358,453.209 598.167,453.333 599,454C599.823,454.658 600.167,456 600,457C599.833,458 599.043,459.404 598,460C596.833,460.667 594.68,460.742 593,461C590.833,461.333 587.687,461.959 585,462Z" style="fill:rgb(30,66,94);"/>
        <path d="M469,492L444,492C439,492 433.833,491.833 429,492C424.324,492.161 418.833,492.833 415,493C412.003,493.13 408.833,493 406,493C403.333,493 400.167,492.833 398,493C396.305,493.13 394.5,493.667 393,494C391.658,494.298 389.833,494.333 389,495C388.177,495.658 387.833,497.167 388,498C388.167,498.833 389.181,499.532 390,500C391.167,500.667 393.259,501.565 395,502C397,502.5 399.647,502.862 402,503C404.833,503.167 408.667,503 412,503L449,503C455.667,503 463.167,503.167 469,503C474.009,502.857 478.991,502.147 484,502C489.667,501.833 498.167,502.167 503,502C506.348,501.885 510.667,501.5 513,501C514.458,500.688 516.333,500 517,499C517.667,498 517.5,495.833 517,495C516.5,494.167 515.023,494.256 514,494C512.667,493.667 510.689,493.188 509,493C506,492.667 500.167,492.167 496,492C492.003,491.84 488,492 484,492L471,492" style="fill:rgb(30,66,94);"/>
    </g>
</svg>
