<?xml version="1.0" encoding="UTF-8" standalone="no"?>
<!DOCTYPE svg PUBLIC "-//W3C//DTD SVG 1.1//EN" "http://www.w3.org/Graphics/SVG/1.1/DTD/svg11.dtd">
<svg width="100%" height="100%" viewBox="0 0 918 818" version="1.1" xmlns="http://www.w3.org/2000/svg" xmlns:xlink="http://www.w3.org/1999/xlink" xml:space="preserve" xmlns:serif="http://www.serif.com/" style="fill-rule:evenodd;clip-rule:evenodd;stroke-linejoin:round;stroke-miterlimit:2;">
    <g>
        <path d="M176,302L181,666L461.471,669.492L743,668L748,303L176,302" style="fill:rgb(0,162,255);"/>
        <path d="M815,789L591,787L316,785L122,785L103,780L88,767L74,748L68,732L66,717L68,712L129,712L129,446L130,372L133,300L138,271L149,259L162,255L192,253L702,251L756,254L780,260L793,275L797,297L798,348L797,405L796,553L795,672L794,715L826,716L846,716L855,717L853,734L847,757L833,775L815,789ZM706.03,669.94L728,672L743,669L743,647L744,600L746,553L746,443L748,318L747,304L698,303L212,302L179,303L175,314L180,653L183,665L226,667L238.999,665.96L239,666L706,671L706.03,669.94Z" style="fill:white;"/>
        <path d="M755,248C756.999,248.056 759.167,247.833 761,248C762.693,248.154 764.366,248.533 766,249C768.333,249.667 772.142,250.646 775,252C778.167,253.5 782.333,256.167 785,258C787.145,259.475 789.419,260.932 791,263C793.167,265.833 796.28,270.7 798,275C800,280 802.228,286.821 803,293C803.833,299.667 803,307.667 803,315L803,448C803,461 803.155,474.001 803,487C802.833,501 802.167,517 802,532C801.833,546.999 802.16,562.001 802,577C801.833,592.667 801.333,610.833 801,626C800.692,640.001 800.333,656 800,668C799.722,678.002 799.167,691.333 799,698C798.917,701.332 798.667,706 799,708C799.155,708.93 800.093,709.741 801,710C802.167,710.333 804.333,710 806,710L826,710C830.5,710 835.336,709.839 840,710C844.833,710.167 852,710.333 855,711C856.381,711.307 857.503,712.676 858,714C858.5,715.333 858.138,717.339 858,719C857.833,721 857.235,723.655 857,726C856.667,729.333 856.764,734.722 856,739C855.167,743.667 853.167,750 852,754C851.115,757.036 850.536,760.236 849,763C847.333,766 844.333,769.167 842,772C839.747,774.735 836.333,778.333 835,780C834.534,780.582 833.308,781.723 834,782C834.833,782.333 838.008,781.827 840,782C843.833,782.333 851.303,783.684 857,784C863,784.333 870.167,783.833 876,784C881.342,784.153 888.667,784.833 892,785C893.332,785.067 894.833,784.5 896,785C897.167,785.5 898.833,786.833 899,788C899.167,789.167 898.167,791.167 897,792C895.833,792.833 893.699,792.937 892,793C887.5,793.167 877.333,793 870,793L804,793C792.667,793 781.333,793.097 770,793C750.5,792.833 714.668,792.154 687,792C657,791.833 622.333,792.155 590,792C555.167,791.833 515.335,791.148 478,791C435.833,790.833 383,791 337,791C292,791 245.833,791.167 202,791C159.332,790.838 102.167,790.167 74,790C60.334,789.919 40.833,790 33,790C31,790 28.333,790.333 27,790C26.085,789.771 25.485,788.808 25,788C24.5,787.167 23.667,786 24,785C24.333,784 26,782.667 27,782C27.877,781.415 28.977,781.256 30,781C31.333,780.667 33.306,780.141 35,780C37,779.833 39.667,780 42,780L79,780C83.333,780 89.5,780.167 92,780C92.744,779.95 93.667,779.5 94,779C94.333,778.5 94.416,777.521 94,777C93.333,776.167 91.167,774.833 90,774C89.022,773.301 87.898,772.798 87,772C85.5,770.667 82.833,767.833 81,766C79.333,764.333 77.5,762.667 76,761C74.572,759.414 72.999,757.886 72,756C70.5,753.167 68.5,748 67,744C65.52,740.052 64.167,736 63,732C61.846,728.042 60.5,723.167 60,720C59.636,717.695 60,714.833 60,713C60,711.667 59.5,710 60,709C60.5,708 61.86,707.38 63,707C64.5,706.5 66.975,706.096 69,706C72.5,705.833 79.001,705.878 84,706C90.833,706.167 104.667,707 110,707C112.028,707 114.167,706.167 116,706C117.66,705.849 119.5,706.333 121,706C122.455,705.677 124.395,705.362 125,704C125.667,702.5 125,699.333 125,697L125,673C125,666 125.125,658.999 125,652C124.833,642.667 124.167,627.333 124,617C123.855,608.001 124,599 124,590L124,481C124,461.333 123.86,441.666 124,422C124.167,398.667 124.5,360.667 125,341C125.314,328.653 126.5,312.833 127,304C127.302,298.665 127.333,293.167 128,288C128.653,282.943 129.833,276.833 131,273C131.868,270.148 133.333,267.167 135,265C136.587,262.936 139,261.667 141,260C143,258.333 144.833,256.333 147,255C149.162,253.67 151.537,252.616 154,252C157.333,251.167 163,250.5 167,250C170.653,249.543 174.321,249.142 178,249C182.333,248.833 188.5,249 193,249L247,249C254,249 261,249.032 268,249C342,248.667 617,247.333 691,247C698,246.968 706.333,247 712,247C716.333,247 720.668,246.899 725,247C732.167,247.167 749,247.833 755,248ZM846,720C843.333,719.833 837.333,720 833,720L585,720C576,720 566.999,720.102 558,720C543.333,719.833 515.667,719.167 497,719C480.001,718.848 461.833,719.167 446,719C431.33,718.846 416.67,718.129 402,718C383,717.833 355.333,718.155 332,718C306.833,717.833 275.667,717.167 251,717C228.667,716.849 201.333,717 184,717L95,717C91,717 86.333,717.167 83,717C80.316,716.866 76.833,716 75,716C73.946,716 72.833,716.667 72,717C71.308,717.277 70.236,717.293 70,718C69.667,719 69.614,721.379 70,723C70.833,726.5 73.667,735.333 75,739C75.764,741.101 76.94,743.031 78,745C79.167,747.167 80.667,750 82,752C83.184,753.776 84.564,755.421 86,757C87.667,758.833 89.922,761.082 92,763C94.167,765 96.833,767.333 99,769C100.905,770.466 102.884,771.86 105,773C107.167,774.167 109.568,775.271 112,776C115.333,777 120.585,778.465 125,779C130.5,779.667 138.325,779.933 145,780C161.667,780.167 198.333,780 225,780L443,780C472.667,780 502.334,779.77 532,780C575,780.333 656.833,781.667 701,782C732.999,782.242 778,782.333 797,782C803.036,781.894 809.833,781.667 815,780C819.842,778.438 824.189,775.371 828,772C832.333,768.167 837.667,762.5 841,757C844.333,751.5 846.5,743.833 848,739C849.105,735.441 849.667,730.5 850,728C850.176,726.678 850.167,725.167 850,724C849.851,722.957 849.667,721.667 849,721C848.333,720.333 847.052,720.066 846,720ZM720,257C714.333,256.833 700.167,256.167 695,256C693.001,255.936 691,255.991 689,256C617.667,256.333 339.667,257.667 267,258C262.333,258.021 257.665,257.892 253,258C245.833,258.167 233.671,258.866 224,259C212,259.167 190.333,259 181,259C176.667,259 172.167,258.5 168,259C163.906,259.491 159.167,260.833 156,262C153.478,262.929 151.13,264.361 149,266C146.833,267.667 144.5,269.667 143,272C141.5,274.333 140.417,277.183 140,280C139.333,284.5 139.5,293.667 139,299C138.591,303.365 137.214,307.621 137,312C136.667,318.833 137.146,330.668 137,340C136.833,350.667 136.333,365 136,376C135.697,386.001 135.167,396.333 135,406C134.839,415.332 135,427.167 135,434L135,523C135,529.333 135.158,535.669 135,542C134.833,548.667 134,556.5 134,563C134,569.009 134.86,574.992 135,581C135.167,588.167 135,597.667 135,606C135,614.667 134.833,624.5 135,633C135.157,641.005 136,648.993 136,657C136,667.167 135.167,686 135,694C134.924,697.666 134.333,703 135,705C135.435,706.304 137.667,705.833 139,706C140.323,706.165 141.668,705.937 143,706C146.5,706.167 154.324,707 160,707C176.167,707 219.833,706.167 240,706C253.666,705.887 268.167,705.833 281,706C293.004,706.156 304.996,706.878 317,707C333.333,707.167 360.833,707 379,707L426,707C440.333,707 454.667,706.862 469,707C486.333,707.167 509.665,707.84 530,708C551.167,708.167 577.667,707.833 596,708C610.67,708.133 625.333,708.678 640,709C655.167,709.333 671.331,709.843 687,710C703.667,710.167 725,710 740,710L777,710C780,710 784.167,710.333 786,710C786.928,709.831 787.578,708.843 788,708C788.5,707 788.982,705.374 789,704C789.167,691.167 788.838,655.333 789,631C789.167,606 789.601,579.666 790,554C790.5,521.833 791.678,476.671 792,438C792.333,398 792.167,338.667 792,314C791.946,305.993 791.5,295.5 791,290C790.722,286.939 790,283.833 789,281C788.008,278.189 786.333,275 785,273C783.954,271.431 782.472,270.178 781,269C779.333,267.667 776.833,266.167 775,265C773.36,263.957 771.805,262.722 770,262C767.5,261 763.333,259.667 760,259C756.715,258.343 753.333,258.167 750,258C746.671,257.834 743.33,258.159 740,258C736.5,257.833 732.333,257.167 729,257C726.004,256.85 722.999,257.088 720,257ZM273,298C344.333,298 613.333,297.167 685,297C691,296.986 697.5,296.833 703,297C708.009,297.152 713,297.833 718,298C722.997,298.167 728.667,298 733,298L744,298C746,298 748.167,297.5 750,298C751.833,298.5 754.167,299.5 755,301C755.833,302.5 755,305 755,307C755,311.5 755.121,321.001 755,328C754.833,337.667 754.308,352.666 754,365C753.667,378.333 753.167,394.667 753,408C752.846,420.332 753,433.5 753,445C753,455.667 753.162,466.335 753,477C752.833,488 752.329,499.667 752,511C751.667,522.5 751.167,534.5 751,546C750.836,557.332 751.167,570.833 751,580C750.873,587.007 750.333,594.167 750,601C749.675,607.667 749.148,614.327 749,621C748.833,628.5 749.167,639.333 749,646C748.875,651.01 748.167,657.333 748,661C747.894,663.331 748.333,666.167 748,668C747.733,669.467 746.667,671 746,672C745.477,672.784 744.867,673.629 744,674C742.833,674.5 740.697,674.903 739,675C733.167,675.333 719.005,675.894 709,676C693.333,676.167 661.833,676 645,676L608,676C594.5,676 578.666,676.159 564,676C548.667,675.833 530.833,675.333 516,675C502.333,674.693 488.67,674.141 475,674C458.833,673.833 437.167,674.167 419,674C401.331,673.838 382.333,673.333 366,673C350.999,672.694 335.833,672.167 321,672C306.334,671.835 291.333,672.167 277,672C262.997,671.837 247.167,671.167 235,671C224.668,670.858 212.333,671.167 204,671C197.659,670.873 189.333,670.167 185,670C182.668,669.91 179.5,670.667 178,670C176.638,669.395 176.392,667.438 176,666C175.5,664.167 175.124,661.354 175,659C174.833,655.833 174.937,650.999 175,647C175.167,636.5 176,613.003 176,596C176,577.667 175.167,554.833 175,537C174.85,521.001 175.167,504.167 175,489C174.842,474.664 174.261,460.335 174,446C173.667,427.667 173.333,397 173,379C172.747,365.332 172.333,349.833 172,338C171.718,327.998 171,314.333 171,308C171,305.313 171,301.833 172,300C172.931,298.294 175.333,297.5 177,297C178.596,296.521 180.333,297 182,297L210,297C222.5,297 246.5,296.833 257,297C262.343,297.085 267.656,298 273,298ZM686,307L186,307C185,307 183.667,306.833 183,307C182.543,307.114 182.261,307.608 182,308C181.667,308.5 181.062,309.257 181,310C180.833,312 180.899,316.668 181,320C181.5,336.5 183.167,380.333 184,409C184.804,436.663 185.667,466.333 186,492C186.307,515.665 186,546 186,563L186,656C186,657 185.833,658.167 186,659C186.146,659.731 186.5,660.5 187,661C187.5,661.5 188.255,661.97 189,662C193.167,662.167 204.333,662 212,662L301,662C318,662 346.333,661.833 362,662C373.004,662.117 384.333,662.833 395,663C405.332,663.161 415.833,663 426,663C436,663 446.001,662.868 456,663C468.667,663.167 489,663.833 502,664C512.666,664.137 523.334,663.88 534,664C548.833,664.167 574.333,664.833 591,665C605.333,665.143 623.167,665 634,665C641.333,665 648.667,664.894 656,665C667.5,665.167 690.167,665.833 703,666C712.999,666.13 727.333,666 733,666C734.333,666 736,666.333 737,666C737.894,665.702 738.771,664.915 739,664C739.333,662.667 739,660 739,658C739,652.333 738.901,639.333 739,630C739.167,614.333 739.697,586 740,564C740.333,539.833 740.543,511.331 741,485C741.5,456.167 742.5,418.333 743,391C743.427,367.668 743.833,334 744,321C744.034,318.334 744,314.833 744,313C744,312 744.333,310.667 744,310C743.667,309.333 742.738,309.105 742,309C740.833,308.833 738.665,309.067 737,309C732.833,308.833 723.668,308.303 717,308C709.667,307.667 698.167,307.167 693,307C690.668,306.925 688.333,307 686,307Z" style="fill:rgb(30,66,94);"/>
    </g>
</svg>
