<?xml version="1.0" encoding="UTF-8" standalone="no"?>
<!DOCTYPE svg PUBLIC "-//W3C//DTD SVG 1.1//EN" "http://www.w3.org/Graphics/SVG/1.1/DTD/svg11.dtd">
<svg width="100%" height="100%" viewBox="0 0 918 818" version="1.1" xmlns="http://www.w3.org/2000/svg" xmlns:xlink="http://www.w3.org/1999/xlink" xml:space="preserve" xmlns:serif="http://www.serif.com/" style="fill-rule:evenodd;clip-rule:evenodd;stroke-linejoin:round;stroke-miterlimit:2;">
    <g>
        <path d="M249,442L249,480L250,555L251,656L253,664L685,667L691,666L696,448L678,455L617,492L537,544L507,565L472,551L444,563L289,462L265,446L254,440L249,442Z" style="fill:white;"/>
        <path d="M247,649C246.667,627.833 245.333,556.167 245,527C244.798,509.334 245,487.167 245,474L245,448C245,445.333 244.833,442 245,440C245.114,438.63 245.5,437 246,436C246.422,435.157 247.333,434.333 248,434C248.596,433.702 249.357,433.825 250,434C251.833,434.5 256.172,435.586 259,437C263.333,439.167 270.363,443.618 276,447C283.5,451.5 295,458.5 304,464C312.683,469.306 321.513,474.385 330,480C340.833,487.167 359.5,500.5 369,507C374.951,511.072 381,515 387,519C393,523 399.333,527.167 405,531C410.361,534.626 416.333,538.833 421,542C424.978,544.699 430.333,548 433,550C434.508,551.131 435.667,552.833 437,554C438.254,555.098 439.36,556.702 441,557C442.833,557.333 445.817,556.889 448,556C452.5,554.167 464.167,547.833 468,546C468.951,545.545 469.952,544.884 471,545C472.5,545.167 475.062,546.17 477,547C480.5,548.5 487.833,552 492,554C495.36,555.613 499.833,558 502,559C502.957,559.442 504,560 505,560C506,560 507.131,559.597 508,559C510.667,557.167 516.575,552.21 521,549C529.5,542.833 549,529 559,522C566.271,516.91 573.555,511.833 581,507C590.5,500.833 606,491.167 616,485C624.272,479.899 632.639,474.954 641,470C650,464.667 662.833,457.167 670,453C674.647,450.298 680.5,447 684,445C686.333,443.667 689.167,442 691,441C692.309,440.286 693.833,439.333 695,439C695.962,438.725 697.333,438.667 698,439C698.667,439.333 698.667,440.333 699,441C699.5,442 700.733,443.533 701,445C701.333,446.833 701,449.667 701,452L701,526C701,534.333 701.144,542.668 701,551C700.833,560.667 700,573.167 700,584C700,594.672 700.843,605.329 701,616C701.167,627.333 701,644.833 701,652L701,659C701,661.5 701.333,665.667 701,667C700.838,667.647 701.654,670.869 701,671C700.167,671.167 699.054,671 698,671C696.5,671 693.028,672 691,672C686.333,672 675.34,671.887 668,672C657.167,672.167 639.333,672 625,672C610.667,672 596.331,672.268 582,672C564.167,671.667 539.342,671.268 518,671C491.5,670.667 454.666,670.158 423,670C389.5,669.833 340.833,669.167 317,669C304.667,668.914 291.167,668 281,668L256,668C253,668 248.5,667.333 247,667C246.349,666.855 247,663.667 247,663L247,654C247,652.333 247.026,650.666 247,649ZM410,546C408.742,545.2 407.299,544.731 406,544C403.333,542.5 397.888,539.516 394,537C388.333,533.333 379.366,526.951 372,522C361.833,515.167 346.064,504.569 333,496C317.5,485.833 291.333,469.167 279,461C272.215,456.507 262.833,449.667 259,447C258.013,446.314 256.833,445.5 256,445C255.361,444.617 254.5,443.833 254,444C253.5,444.167 253.146,445.269 253,446C252.833,446.833 253,448 253,449L253,455C253,457.167 252.896,459.669 253,462C253.333,469.5 254.667,487.833 255,500C255.32,511.662 255,523.333 255,535L255,585C255,603.5 254.833,635.167 255,646C255.021,647.374 255.333,649.167 256,650C256.658,650.823 258.167,651.167 259,651C259.833,650.833 260.233,649.548 261,649C262.167,648.167 264.301,646.944 266,646C269,644.333 274.727,641.442 279,639C283.667,636.333 288.833,632.667 294,630C299.167,627.333 304.762,625.54 310,623C315.5,620.333 321.315,616.966 327,614C334.667,610 348.667,602.667 356,599C360.935,596.532 366.016,594.367 371,592C377.667,588.833 387.701,584.071 396,580C404.833,575.667 418.167,568.833 424,566C426.283,564.891 429.667,563.833 431,563C431.632,562.605 431.833,561.5 432,561C432.105,560.684 432.236,560.236 432,560C431.667,559.667 430.596,559.447 430,559C429.333,558.5 428.784,557.523 428,557C427,556.333 425.309,555.714 424,555C422.167,554 419.261,552.453 417,551C414.667,549.5 411.833,547.167 410,546ZM692,478L692,465C692,463 691.833,460.5 692,459C692.116,457.952 693,456.833 693,456C693,455.255 692.5,454.333 692,454C691.5,453.667 690.619,453.752 690,454C688.333,454.667 684.557,456.466 682,458C678.667,460 674.088,463.47 670,466C663,470.333 649.5,478.333 640,484C631.015,489.359 620.5,495.5 613,500C606.97,503.618 600,508 595,511C591.029,513.383 586.907,515.514 583,518C577.5,521.5 567,528.667 562,532C559,534 555.976,535.964 553,538C549.833,540.167 545.833,543.167 543,545C540.744,546.46 538.236,547.509 536,549C533.5,550.667 530.167,553.5 528,555C526.402,556.106 524.5,557.167 523,558C521.697,558.724 520,559.5 519,560C518.333,560.333 517.447,560.404 517,561C516.5,561.667 515.667,563.167 516,564C516.333,564.833 517.925,565.463 519,566C521.667,567.333 527.7,569.93 532,572C536.5,574.167 541.333,576.667 546,579L564,588C566.667,589.333 569.308,590.718 572,592C575.5,593.667 580.671,595.99 585,598C589.667,600.167 595.333,602.667 600,605C604.402,607.201 608.685,609.634 613,612C618.167,614.833 625.833,619.167 631,622C635.315,624.366 639.833,626.667 644,629C648.04,631.263 652.056,633.573 656,636C660.333,638.667 665.833,642.167 670,645C673.749,647.549 678.167,650.833 681,653C683.068,654.581 685.667,657 687,658C687.596,658.447 688.5,658.833 689,659C689.316,659.105 689.974,659.332 690,659C690.167,656.833 689.956,650.333 690,646C690.167,629.5 690.833,582.5 691,560C691.121,543.667 690.833,522.167 691,511C691.09,504.991 691.833,498.5 692,493C692.151,488.002 692,482.667 692,478ZM672,655C670.736,654.21 669.333,653.667 668,653C666.333,652.167 663.976,651.046 662,650C659.167,648.5 654.703,645.932 651,644C643.333,640 627.674,631.986 616,626C603,619.333 584,609.667 573,604C565.313,600.04 557.803,595.727 550,592C538.833,586.667 517.667,577.5 506,572C497.235,567.868 485.167,561.5 480,559C478.384,558.218 476.5,557.5 475,557C473.696,556.565 472.167,556 471,556C469.946,556 469,556.667 468,557C467,557.333 465.969,557.585 465,558C463.833,558.5 462.333,559.333 461,560C457.667,561.667 450.399,565.469 445,568C434.333,573 412.937,582.53 397,590C381,597.5 364.5,605.5 349,613C333.97,620.272 318,628.333 304,635C291.073,641.156 272.833,649.333 265,653C262.3,654.264 258.667,655.833 257,657C256.015,657.689 255.167,659.333 255,660C254.886,660.457 255.608,660.739 256,661C256.5,661.333 257.269,661.854 258,662C258.833,662.167 260,662 261,662L381,662C391.333,662 401.668,661.845 412,662C434.167,662.333 479.997,663.507 514,664C548.5,664.5 594.333,664.833 619,665C633.333,665.097 651,665 662,665C669.667,665 681.167,665.5 685,665C685.992,664.871 685.5,662.833 685,662C684.5,661.167 683.098,660.488 682,660C680.5,659.333 677.667,658.833 676,658C674.509,657.255 673.333,655.833 672,655Z" style="fill:rgb(30,66,94);"/>
    </g>
</svg>
