<?xml version="1.0" encoding="UTF-8" standalone="no"?><!DOCTYPE svg PUBLIC "-//W3C//DTD SVG 1.1//EN" "http://www.w3.org/Graphics/SVG/1.1/DTD/svg11.dtd"><svg width="100%" height="100%" viewBox="0 0 367 345" version="1.1" xmlns="http://www.w3.org/2000/svg" xmlns:xlink="http://www.w3.org/1999/xlink" xml:space="preserve" xmlns:serif="http://www.serif.com/" style="fill-rule:evenodd;clip-rule:evenodd;stroke-linejoin:round;stroke-miterlimit:2;"><g><path d="M185.7,94.127c54.441,0 98.64,44.199 98.64,98.64c0,54.441 -44.199,98.64 -98.64,98.64c-54.441,0 -98.64,-44.199 -98.64,-98.64c0,-54.441 44.199,-98.64 98.64,-98.64Zm0,20.16c-43.314,0 -78.48,35.166 -78.48,78.48c0,43.314 35.166,78.48 78.48,78.48c43.314,0 78.48,-35.166 78.48,-78.48c0,-43.314 -35.166,-78.48 -78.48,-78.48Z"/><path d="M91.78,137.732c-6.862,-13.151 -10.72,-27.955 -10.72,-43.605c0,-44.145 30.688,-81.555 72.946,-94.127c-27.323,12.812 -46.306,40.913 -46.306,73.487c0,44.639 35.65,80.88 79.56,80.88c43.91,0 79.56,-36.241 79.56,-80.88c0,-29.135 -15.187,-54.693 -37.945,-68.931c35.708,15.649 60.505,49.889 60.505,89.571c0,15.74 -3.901,30.623 -10.837,43.83c8.433,0.686 16.878,2.522 25.148,5.601c41.37,15.404 65.72,57.217 62.756,101.206c-2.472,-30.076 -22.184,-57.672 -52.71,-69.038c-41.833,-15.576 -88.236,5.186 -103.558,46.337c-15.322,41.15 6.201,87.205 48.034,102.782c27.304,10.167 56.554,4.853 77.839,-11.506c-27.125,28.003 -67.866,39.293 -105.054,25.446c-20.465,-7.62 -36.765,-21.703 -47.654,-39.314c-10.889,17.612 -27.189,31.694 -47.654,39.314c-37.188,13.847 -77.929,2.557 -105.054,-25.446c21.285,16.359 50.535,21.673 77.839,11.506c41.833,-15.576 63.356,-61.631 48.034,-102.782c-15.322,-41.15 -61.725,-61.913 -103.558,-46.337c-30.526,11.366 -50.238,38.962 -52.71,69.038c-2.964,-43.988 21.387,-85.802 62.756,-101.206c9.458,-3.522 19.145,-5.417 28.78,-5.826Zm93.92,37.275c-9.802,0 -17.76,7.958 -17.76,17.76c0,9.802 7.958,17.76 17.76,17.76c9.802,0 17.76,-7.958 17.76,-17.76c0,-9.802 -7.958,-17.76 -17.76,-17.76Z"/></g></svg>