<?xml version="1.0" encoding="UTF-8" standalone="no"?>
<!DOCTYPE svg PUBLIC "-//W3C//DTD SVG 1.1//EN" "http://www.w3.org/Graphics/SVG/1.1/DTD/svg11.dtd">
<svg width="100%" height="100%" viewBox="0 0 1204 1225" version="1.1" xmlns="http://www.w3.org/2000/svg" xmlns:xlink="http://www.w3.org/1999/xlink" xml:space="preserve" xmlns:serif="http://www.serif.com/" style="fill-rule:evenodd;clip-rule:evenodd;stroke-linejoin:round;stroke-miterlimit:2;">
    <g transform="matrix(1,0,0,1,-215.949719,-1150.767808)">
        <g transform="matrix(0.452564,0,0,0.452564,905.45613,1546.712148)">
            <path d="M843,924.973L843,1715.657L450.201,1715.657L450.201,924.973L843,924.973ZM621,1599.193C621,1591.36 614.64,1585 606.807,1585L512.193,1585C504.36,1585 498,1591.36 498,1599.193L498,1665.807C498,1673.64 504.36,1680 512.193,1680L606.807,1680C614.64,1680 621,1673.64 621,1665.807L621,1599.193ZM589,1617L589,1648L529,1648L529,1617L589,1617ZM792.5,1600.193C792.5,1592.36 786.14,1586 778.307,1586L683.693,1586C675.86,1586 669.5,1592.36 669.5,1600.193L669.5,1666.807C669.5,1674.64 675.86,1681 683.693,1681L778.307,1681C786.14,1681 792.5,1674.64 792.5,1666.807L792.5,1600.193ZM760.5,1618L760.5,1649L700.5,1649L700.5,1618L760.5,1618ZM782.797,1013L514,1013L514,1529.728L782.797,1529.728L782.797,1013Z" style="fill:rgb(255,0,0);"/>
            <path d="M1133.252,766.206L876.021,920.609L876.021,1715.657L1059,1601L1059,1216L1135,1168L1133.252,766.206Z" style="fill:rgb(255,0,0);"/>
            <path d="M1076.457,764.657L854,895L463,895L718,764.657L1076.457,764.657Z" style="fill:rgb(255,0,0);"/>
            <g transform="matrix(1,0,0,1,-11.399471,3)">
                <path d="M658,1077C658,1077 740,1258.3 740,1336C740,1381.257 703.257,1418 658,1418C612.743,1418 576,1381.257 576,1336C576,1258.3 658,1077 658,1077Z" style="fill:rgb(255,0,0);"/>
            </g>
        </g>
        <g transform="matrix(1,0,0,1,18.015748,921.15748)">
            <g transform="matrix(0.873874,0,0,0.873874,104.986486,123.837838)">
                <path d="M820.5,1077C820.5,1077 854,1131.25 854,1154.5C854,1172.989 838.989,1188 820.5,1188C802.011,1188 787,1172.989 787,1154.5C787,1131.25 820.5,1077 820.5,1077Z" style="fill:rgb(255,0,0);"/>
            </g>
            <g transform="matrix(1,0,0,0.671195,0.5,294.38879)">
                <path d="M801,969.332L801,901.543C801,884.686 810.186,871 821.5,871C832.814,871 842,884.686 842,901.543L842,969.332L801,969.332Z" style="fill:rgb(255,0,0);"/>
            </g>
            <g transform="matrix(1,0,0,1,1.5,1)">
                <path d="M758,986L758,983.25C758,966.003 772.003,952 789.25,952L851.75,952C868.997,952 883,966.003 883,983.25L883,986L758,986Z" style="fill:rgb(255,0,0);"/>
            </g>
            <g transform="matrix(1.252874,0,0,1,-221.643678,0)">
                <path d="M920,1038.409L920,1360.591C920,1383.445 905.19,1402 886.949,1402L779.051,1402C760.81,1402 746,1383.445 746,1360.591L746,1038.409C746,1015.555 760.81,997 779.051,997L886.949,997C905.19,997 920,1015.555 920,1038.409ZM882.885,1051L783.115,1051L783.115,1176L882.885,1176L882.885,1051Z" style="fill:rgb(255,0,0);"/>
            </g>
        </g>
        <g transform="matrix(0,-2.165422,2.165422,0,-2109.713699,4362.746804)">
            <g transform="matrix(1.666667,0,0,1.075,-664.666667,-89.975)">
                <path d="M1231.939,1233.413L1213,1233.413L1213,1241.372C1213,1247.79 1209.639,1253 1205.5,1253C1201.361,1253 1198,1247.79 1198,1241.372L1198,1233.413L1178.2,1233.413L1178.2,1241.372C1178.2,1247.79 1174.839,1253 1170.7,1253C1166.561,1253 1163.2,1247.79 1163.2,1241.372L1163.2,1233.413L1144,1233.413L1144,1241.372C1144,1247.79 1140.639,1253 1136.5,1253C1132.361,1253 1129,1247.79 1129,1241.372L1129,1233.413L1109.8,1233.413L1109.8,1241.372C1109.8,1247.79 1106.439,1253 1102.3,1253C1098.161,1253 1094.8,1247.79 1094.8,1241.372L1094.8,1233.413L1075,1233.413L1075,1241.372C1075,1247.79 1071.639,1253 1067.5,1253C1063.361,1253 1060,1247.79 1060,1241.372L1060,1233.413L1042,1233.413L1042,1241.372C1042,1247.79 1038.639,1253 1034.5,1253C1030.361,1253 1027,1247.79 1027,1241.372L1027,1233.413L1006,1233.413L1006,1241.372C1006,1247.79 1002.639,1253 998.5,1253C994.361,1253 991,1247.79 991,1241.372L991,1233.413L990.092,1233.413C976.685,1233.413 965.8,1216.537 965.8,1195.751L965.8,1120.429C965.8,1099.643 976.685,1082.767 990.092,1082.767L1249.308,1082.767C1262.715,1082.767 1273.6,1099.643 1273.6,1120.429L1273.6,1195.751C1273.6,1216.537 1262.715,1233.413 1249.308,1233.413L1246.939,1233.413L1246.939,1241.372C1246.939,1247.79 1243.578,1253 1239.439,1253C1235.3,1253 1231.939,1247.79 1231.939,1241.372L1231.939,1233.413ZM1108.405,1185.255C1108.405,1180.032 1105.669,1175.791 1102.3,1175.791C1098.931,1175.791 1096.195,1180.032 1096.195,1185.255L1096.195,1240.745C1096.195,1245.968 1098.931,1250.209 1102.3,1250.209C1105.669,1250.209 1108.405,1245.968 1108.405,1240.745L1108.405,1185.255ZM1254.4,1128.788C1254.4,1115.711 1247.552,1105.093 1239.116,1105.093L999.684,1105.093C991.248,1105.093 984.4,1115.711 984.4,1128.788L984.4,1130.674C984.4,1143.752 991.248,1154.369 999.684,1154.369L1239.116,1154.369C1247.552,1154.369 1254.4,1143.752 1254.4,1130.674L1254.4,1128.788ZM1252,1128.918L1252,1130.544C1252,1141.82 1246.095,1150.975 1238.822,1150.975L999.978,1150.975C992.705,1150.975 986.8,1141.82 986.8,1130.544L986.8,1128.918C986.8,1117.642 992.705,1108.488 999.978,1108.488L1238.822,1108.488C1246.095,1108.488 1252,1117.642 1252,1128.918ZM1142.605,1185.255C1142.605,1180.032 1139.869,1175.791 1136.5,1175.791C1133.131,1175.791 1130.395,1180.032 1130.395,1185.255L1130.395,1240.745C1130.395,1245.968 1133.131,1250.209 1136.5,1250.209C1139.869,1250.209 1142.605,1245.968 1142.605,1240.745L1142.605,1185.255ZM1176.805,1185.255C1176.805,1180.032 1174.069,1175.791 1170.7,1175.791C1167.331,1175.791 1164.595,1180.032 1164.595,1185.255L1164.595,1240.745C1164.595,1245.968 1167.331,1250.209 1170.7,1250.209C1174.069,1250.209 1176.805,1245.968 1176.805,1240.745L1176.805,1185.255ZM1211.605,1185.255C1211.605,1180.032 1208.869,1175.791 1205.5,1175.791C1202.131,1175.791 1199.395,1180.032 1199.395,1185.255L1199.395,1240.745C1199.395,1245.968 1202.131,1250.209 1205.5,1250.209C1208.869,1250.209 1211.605,1245.968 1211.605,1240.745L1211.605,1185.255ZM1004.605,1185.255C1004.605,1180.032 1001.869,1175.791 998.5,1175.791C995.131,1175.791 992.395,1180.032 992.395,1185.255L992.395,1240.745C992.395,1245.968 995.131,1250.209 998.5,1250.209C1001.869,1250.209 1004.605,1245.968 1004.605,1240.745L1004.605,1185.255ZM1245.544,1185.255C1245.544,1180.032 1242.808,1175.791 1239.439,1175.791C1236.07,1175.791 1233.334,1180.032 1233.334,1185.255L1233.334,1240.745C1233.334,1245.968 1236.07,1250.209 1239.439,1250.209C1242.808,1250.209 1245.544,1245.968 1245.544,1240.745L1245.544,1185.255ZM1040.605,1185.255C1040.605,1180.032 1037.869,1175.791 1034.5,1175.791C1031.131,1175.791 1028.395,1180.032 1028.395,1185.255L1028.395,1240.745C1028.395,1245.968 1031.131,1250.209 1034.5,1250.209C1037.869,1250.209 1040.605,1245.968 1040.605,1240.745L1040.605,1185.255ZM1073.605,1185.255C1073.605,1180.032 1070.869,1175.791 1067.5,1175.791C1064.131,1175.791 1061.395,1180.032 1061.395,1185.255L1061.395,1240.745C1061.395,1245.968 1064.131,1250.209 1067.5,1250.209C1070.869,1250.209 1073.605,1245.968 1073.605,1240.745L1073.605,1185.255Z" style="fill:rgb(255,0,0);"/>
            </g>
            <g transform="matrix(0.980923,0,0,1,23.094489,-1.028109)">
                <path d="M936.591,1185L926.782,1185C918.624,1185 912,1178.503 912,1170.5L912,1141.5C912,1133.497 918.624,1127 926.782,1127L936.591,1127L936.591,1185ZM1465.388,1127L1473.826,1127C1481.984,1127 1488.608,1133.497 1488.608,1141.5L1488.608,1170.5C1488.608,1178.503 1481.984,1185 1473.826,1185L1465.388,1185L1465.388,1127Z" style="fill:rgb(255,0,0);"/>
            </g>
        </g>
    </g>
</svg>
