<?xml version="1.0" encoding="UTF-8" standalone="no"?><!DOCTYPE svg PUBLIC "-//W3C//DTD SVG 1.1//EN" "http://www.w3.org/Graphics/SVG/1.1/DTD/svg11.dtd"><svg width="100%" height="100%" viewBox="0 0 274 192" version="1.1" xmlns="http://www.w3.org/2000/svg" xmlns:xlink="http://www.w3.org/1999/xlink" xml:space="preserve" xmlns:serif="http://www.serif.com/" style="fill-rule:evenodd;clip-rule:evenodd;stroke-linejoin:round;stroke-miterlimit:2;"><g><path d="M71.623,154.37l27.913,0l0,20.143l-99.536,0l0,-20.143l45.318,0l0,3.111l0.96,0.864l0.192,0.96l1.152,0.768l1.385,0.096c0,0 0.295,1.872 0.775,1.68c0.48,-0.192 -0.336,0.96 0.24,1.44c0.576,0.48 1.44,1.152 1.44,1.152l3.176,0.384c0,0 0.616,0.912 1.48,0.768l2.592,-0.432l0.96,-1.296l0,-0.576l1.824,-1.392l0.336,-0.48l2.512,-1.296l2.096,-0.048c0,0 1.488,0.528 2.064,-0.144c0.576,-0.672 0.624,-2.256 0.624,-2.256c0,0 0.672,-0.768 1.056,-1.536c0.384,-0.768 1.392,-1.488 1.392,-1.488l0.048,-0.279Z"/><path d="M161.625,23.613l-58.558,13.199c-5.677,1.279 -11.324,-2.29 -12.604,-7.967c-1.279,-5.677 2.29,-11.324 7.967,-12.604l58.558,-13.199l-0.556,-2.467l2.553,-0.576l5.848,25.947l-2.553,0.576l-0.656,-2.909Zm-14.267,1.3l14.05,-3.167l-3.807,-16.89l-57.069,12.863c-4.12,0.929 -7.185,3.838 -8.034,7.193l54.86,0Z"/><path d="M64.591,74.582l-0.315,2.811l-2.506,-0.281l2.808,-25.075l2.506,0.281l-0.267,2.384l57.464,6.436c5.571,0.624 9.594,5.584 8.98,11.07c-0.614,5.486 -5.636,9.433 -11.206,8.809l-57.464,-6.436Zm0.023,-1.918l66.603,-0c0.045,-0.215 0.081,-0.434 0.106,-0.656c0.504,-4.504 -3.48,-8.653 -8.893,-9.259l-56.003,-6.272l-1.813,16.188Z"/><path d="M160.766,130.573l1.639,0c-0.003,0.062 -0.004,0.125 -0.004,0.188c0,2.939 3.193,5.325 7.125,5.325c3.932,0 7.125,-2.386 7.125,-5.325c0,-0.063 -0.001,-0.125 -0.004,-0.188l23.633,0c0,0 1.833,-1 -1,-2.333c-2.833,-1.333 -2.667,-1 -6.917,-2.083c-4.25,-1.083 -6.583,-1.083 -8.833,-3.167c-2.25,-2.083 -5,-3.75 -4.833,-5.583c0.167,-1.833 1.083,-5.833 1.667,-6.667c0.583,-0.833 1,-1.083 2.083,-0.667c1.083,0.417 4.75,1.667 6.25,2.167c1.5,0.5 2.291,0.197 3.417,0.417c2.278,0.444 7.972,1.903 10.25,2.25c1.127,0.172 2.296,-0.377 3.417,-0.167c3.472,0.653 17.417,4.083 17.417,4.083c0,0 26.833,7.333 31.667,8.5c4.833,1.167 18.917,6.167 18.917,6.167l0,51c0,0 -7.517,2.899 -11.437,3.75c-5.469,1.187 -14.181,2.851 -21.375,3.375c-7.719,0.562 -18.562,0.312 -24.937,0c-4.476,-0.219 -9.156,-1.406 -13.312,-1.875c-3.863,-0.436 -7.738,-0.873 -11.625,-0.937c-9.375,-0.156 -44.625,0 -44.625,0c0,0 -5.188,-0.062 -5.188,-5.396c0,-5.333 5.5,-5.5 5.5,-5.5l43.917,0c0,0 1.375,0 1.375,-1.375c0,-1.375 -1.042,-1.458 -1.042,-1.458l-64.083,0c0,0 -6.083,-0.75 -6.083,-6.833c0,-6.083 6,-6.667 6,-6.667l54.333,0c0,0 1.417,0.25 1.417,-1.583c0,-1.833 -1.167,-1.083 -1.167,-1.083l-60.667,0c0,0 -4.917,-1.333 -4.917,-6.083c0,-4.75 4.5,-5.583 4.5,-5.583l67.25,0c0,0 1.5,-0.25 1.5,-1.667c0,-1.417 -1,-1.167 -1,-1.167l-57.917,0c0,0 -4.75,-1.75 -4.75,-6.75c0,-5 6.5,-7.084 6.5,-7.084l18.162,0c-0.09,0.489 -0.145,0.939 -0.145,1.309c0,2.025 1.725,2.475 3.825,2.85c2.1,0.375 3.75,-0.675 5.55,-2.025c0.907,-0.68 1.281,-1.494 1.428,-2.134Z"/><path d="M165.907,83.86c0,0 5.953,14.995 5.953,21.422c0,3.286 -2.668,5.953 -5.953,5.953c-3.286,0 -5.953,-2.668 -5.953,-5.953c0,-6.427 5.953,-21.422 5.953,-21.422Zm-0.844,7.617c0,0 -3.456,8.705 -3.456,12.435c0,1.907 1.548,3.456 3.456,3.456c1.907,0 3.456,-1.548 3.456,-3.456c0,-3.731 -3.456,-12.435 -3.456,-12.435Z"/><path d="M54.639,123.985c0,0 5.632,13 5.632,18.571c0,2.848 -2.523,5.161 -5.632,5.161c-3.108,0 -5.632,-2.313 -5.632,-5.161c0,-5.571 5.632,-18.571 5.632,-18.571Zm-0.798,6.603c0,0 -3.269,7.546 -3.269,10.781c0,1.654 1.465,2.996 3.269,2.996c1.804,0 3.269,-1.342 3.269,-2.996c0,-3.234 -3.269,-10.781 -3.269,-10.781Z"/><path d="M58.71,85.145c0,0 5.632,14.291 5.632,20.416c0,3.131 -2.523,5.674 -5.632,5.674c-3.108,0 -5.632,-2.542 -5.632,-5.674c0,-6.125 5.632,-20.416 5.632,-20.416Zm-0.798,7.259c0,0 -3.269,8.296 -3.269,11.851c0,1.818 1.465,3.294 3.269,3.294c1.804,0 3.269,-1.476 3.269,-3.294c0,-3.555 -3.269,-11.851 -3.269,-11.851Z"/><path d="M169.432,42.61c0,0 5.128,14.338 5.128,20.483c0,3.142 -2.298,5.692 -5.128,5.692c-2.83,0 -5.128,-2.551 -5.128,-5.692c0,-6.145 5.128,-20.483 5.128,-20.483Zm-0.727,7.283c0,0 -2.977,8.323 -2.977,11.89c0,1.824 1.334,3.304 2.977,3.304c1.643,0 2.977,-1.481 2.977,-3.304c0,-3.567 -2.977,-11.89 -2.977,-11.89Z"/></g></svg>