<?xml version="1.0" encoding="UTF-8" standalone="no"?>
<!DOCTYPE svg PUBLIC "-//W3C//DTD SVG 1.1//EN" "http://www.w3.org/Graphics/SVG/1.1/DTD/svg11.dtd">
<svg width="100%" height="100%" viewBox="0 0 1140 650" version="1.1" xmlns="http://www.w3.org/2000/svg" xmlns:xlink="http://www.w3.org/1999/xlink" xml:space="preserve" xmlns:serif="http://www.serif.com/" style="fill-rule:evenodd;clip-rule:evenodd;stroke-linecap:round;stroke-linejoin:round;stroke-miterlimit:1.5;">
    <g transform="matrix(1,0,0,1,-304.159405,-648.977171)">
        <g transform="matrix(0.729751,0,0,0.729751,-154.81141,321.126314)">
            <rect x="719.353" y="516.139" width="1380.958" height="815.198" style="fill:rgb(80,159,138);stroke:white;stroke-width:17.13px;"/>
            <g transform="matrix(1.118537,0,0,-0.07153,-167.117298,553.058437)">
                <rect x="719.353" y="516.139" width="1380.958" height="815.198" style="fill:rgb(80,159,138);stroke:white;stroke-width:21.61px;"/>
            </g>
            <g transform="matrix(1,0,0,1,584.557001,-177.240467)">
                <rect x="315.903" y="955.856" width="360.33" height="552.723" style="fill:rgb(80,159,138);stroke:white;stroke-width:17.13px;"/>
            </g>
            <g transform="matrix(0.952917,0,0,0.952917,336.558312,-173.716676)">
                <g transform="matrix(1.227494,0,0,1.227494,-173.202569,136.587708)">
                    <circle cx="1304.955" cy="826.861" r="249.264" style="fill:rgb(130,202,40);"/>
                </g>
                <g transform="matrix(1,0,0,1,-9,-8)">
                    <path d="M1115.209,1032.647L1059.913,997.932L1226.934,910.908L1221.138,1099.151L1170.432,1067.317C1163.532,1093.185 1159.845,1120.431 1159.845,1148.561C1159.845,1317.038 1292.099,1453.82 1454.998,1453.82C1477.299,1453.82 1499.025,1451.257 1519.901,1446.403L1528.731,1499.915C1504.949,1504.891 1480.277,1507.509 1454.998,1507.509C1256.889,1507.509 1096.05,1346.67 1096.05,1148.561C1096.05,1108.008 1102.789,1069.017 1115.209,1032.647Z" style="fill:rgb(38,79,107);"/>
                </g>
                <g transform="matrix(-0.996987,-0.077567,0.077567,-0.996987,2773.781403,2420.773103)">
                    <path d="M1115.209,1032.647L1059.913,997.932L1226.934,910.908L1221.138,1099.151L1170.432,1067.317C1163.532,1093.185 1159.845,1120.431 1159.845,1148.561C1159.845,1317.038 1292.099,1453.82 1454.998,1453.82C1477.299,1453.82 1499.025,1451.257 1519.901,1446.403L1528.731,1499.915C1504.949,1504.891 1480.277,1507.509 1454.998,1507.509C1256.889,1507.509 1096.05,1346.67 1096.05,1148.561C1096.05,1108.008 1102.789,1069.017 1115.209,1032.647Z" style="fill:rgb(38,79,107);"/>
                </g>
            </g>
        </g>
    </g>
</svg>
