<?xml version="1.0" encoding="UTF-8" standalone="no"?>
<!DOCTYPE svg PUBLIC "-//W3C//DTD SVG 1.1//EN" "http://www.w3.org/Graphics/SVG/1.1/DTD/svg11.dtd">
<svg width="100%" height="100%" viewBox="0 0 891 995" version="1.1" xmlns="http://www.w3.org/2000/svg" xmlns:xlink="http://www.w3.org/1999/xlink" xml:space="preserve" xmlns:serif="http://www.serif.com/" style="fill-rule:evenodd;clip-rule:evenodd;stroke-linejoin:round;stroke-miterlimit:2;">
    <g transform="matrix(1,0,0,1,-247.214407,-944.89458)">
        <g transform="matrix(1,0,0,1,-605.960875,40.397392)">
            <path d="M990.205,1548.384L990.205,1523.289C956.082,1522.135 928.591,1518.599 928.591,1512.188C928.591,1505.037 956.082,1500.97 990.205,1499.553L990.205,1495.289C956.082,1494.135 928.591,1490.599 928.591,1484.188C928.591,1477.037 956.082,1472.97 990.205,1471.553L990.205,1467.289C956.082,1466.135 928.591,1462.599 928.591,1456.188C928.591,1449.037 956.082,1444.97 990.205,1443.553L990.205,1438.289C956.082,1437.135 928.591,1433.599 928.591,1427.188C928.591,1420.037 956.082,1415.97 990.205,1414.553L990.205,1411.289C956.082,1410.135 928.591,1406.599 928.591,1400.188C928.591,1393.037 956.082,1388.97 990.205,1387.553L990.205,1383.289C956.082,1382.135 928.591,1378.599 928.591,1372.188C928.591,1365.037 956.082,1360.97 990.205,1359.553L990.205,1355.289C956.082,1354.135 928.591,1350.599 928.591,1344.188C928.591,1337.037 956.082,1332.97 990.205,1331.553L990.205,1327.289C956.082,1326.135 928.591,1322.599 928.591,1316.188C928.591,1309.037 956.082,1304.97 990.205,1303.553L990.205,1300.289C956.082,1299.135 928.591,1295.599 928.591,1289.188C928.591,1282.037 956.082,1277.97 990.205,1276.553L990.205,1272.289C956.082,1271.135 928.591,1267.599 928.591,1261.188C928.591,1254.037 956.082,1249.97 990.205,1248.553L990.205,1244.289C956.082,1243.135 928.591,1239.599 928.591,1233.188C928.591,1226.037 956.082,1221.97 990.205,1220.553L990.205,1216.289C956.082,1215.135 928.591,1211.599 928.591,1205.188C928.591,1198.037 956.082,1193.97 990.205,1192.553L990.205,1188.289C956.082,1187.135 928.591,1183.599 928.591,1177.188C928.591,1170.037 956.082,1165.97 990.205,1164.553L990.205,1160.289C956.082,1159.135 928.591,1155.599 928.591,1149.188C928.591,1142.037 956.082,1137.97 990.205,1136.553L990.205,1113.141L922.034,1113.141L922.034,1007.786L853.175,1007.786L853.175,980.931L922.034,980.931L922.034,935.484L908.951,935.484L908.951,904.497L1138.941,904.497L1138.941,935.484L1125.858,935.484L1125.858,965.093L1138.941,965.093L1138.941,981.619L1199.537,981.619L1199.537,1007.786L1138.941,1007.786L1138.941,1023.624L1125.858,1023.624L1125.858,1113.141L1057.687,1113.141L1057.687,1136.939C1091.906,1138.708 1119.529,1142.861 1119.593,1148.963C1119.649,1154.311 1091.98,1158.069 1057.687,1159.741L1057.687,1164.939C1091.906,1166.708 1119.529,1170.861 1119.593,1176.963C1119.649,1182.311 1091.98,1186.069 1057.687,1187.741L1057.687,1192.939C1091.906,1194.708 1119.529,1198.861 1119.593,1204.963C1119.649,1210.311 1091.98,1214.069 1057.687,1215.741L1057.687,1220.939C1091.906,1222.708 1119.529,1226.861 1119.593,1232.963C1119.649,1238.311 1091.98,1242.069 1057.687,1243.741L1057.687,1248.939C1091.906,1250.708 1119.529,1254.861 1119.593,1260.963C1119.649,1266.311 1091.98,1270.069 1057.687,1271.741L1057.687,1276.939C1091.906,1278.708 1119.529,1282.861 1119.593,1288.963C1119.649,1294.311 1091.98,1298.069 1057.687,1299.741L1057.687,1303.939C1091.906,1305.708 1119.529,1309.861 1119.593,1315.963C1119.649,1321.311 1091.98,1325.069 1057.687,1326.741L1057.687,1331.939C1091.906,1333.708 1119.529,1337.861 1119.593,1343.963C1119.649,1349.311 1091.98,1353.069 1057.687,1354.741L1057.687,1359.939C1091.906,1361.708 1119.529,1365.861 1119.593,1371.963C1119.649,1377.311 1091.98,1381.069 1057.687,1382.741L1057.687,1387.939C1091.906,1389.708 1119.529,1393.861 1119.593,1399.963C1119.649,1405.311 1091.98,1409.069 1057.687,1410.741L1057.687,1414.939C1091.906,1416.708 1119.529,1420.861 1119.593,1426.963C1119.649,1432.311 1091.98,1436.069 1057.687,1437.741L1057.687,1443.939C1091.906,1445.708 1119.529,1449.861 1119.593,1455.963C1119.649,1461.311 1091.98,1465.069 1057.687,1466.741L1057.687,1471.939C1091.906,1473.708 1119.529,1477.861 1119.593,1483.963C1119.649,1489.311 1091.98,1493.069 1057.687,1494.741L1057.687,1499.939C1091.906,1501.708 1119.529,1505.861 1119.593,1511.963C1119.649,1517.311 1091.98,1521.069 1057.687,1522.741L1057.687,1548.384L1193.539,1548.384L1193.539,1593.831L1171.504,1593.831L1171.504,1852.053L1147.962,1852.053L1147.962,1888.449C1147.962,1894.205 1143.289,1898.878 1137.533,1898.878L1071.628,1898.878C1065.872,1898.878 1061.199,1894.205 1061.199,1888.449L1061.199,1852.053L986.962,1852.053L986.962,1888.449C986.962,1894.205 982.289,1898.878 976.533,1898.878L910.628,1898.878C904.872,1898.878 900.199,1894.205 900.199,1888.449L900.199,1852.053L874.016,1852.053L874.016,1593.831L856.129,1593.831L856.129,1548.384L990.205,1548.384ZM975.02,1852.053L913.243,1852.053L913.243,1886.607L975.02,1886.607L975.02,1852.053ZM1136.02,1852.053L1074.243,1852.053L1074.243,1886.607L1136.02,1886.607L1136.02,1852.053Z" style="fill:rgb(255,0,2);"/>
        </g>
        <g transform="matrix(0.550026,0,0,0.550026,268.965916,835.926152)">
            <path d="M944.473,1383.202L944.473,1307.975C944.473,1307.975 952.655,1290.434 962.263,1281.819C972.079,1273.019 991.935,1271.44 991.935,1271.44L1291.356,1271.44C1291.356,1271.44 1313.334,1277.025 1320.463,1285.204C1332.886,1299.456 1334.453,1309.686 1334.453,1309.686L1334.453,1383.202L1309.52,1383.202L1309.52,1320.065C1309.52,1320.065 1307.019,1313.669 1301.848,1307.542C1295.094,1299.537 1285.264,1298.968 1285.264,1298.968L992.95,1298.968C992.95,1298.968 983.248,1301.224 978.622,1305.173C973.707,1309.368 969.935,1318.485 969.935,1318.485L969.616,1383.202L944.473,1383.202Z" style="fill:rgb(255,0,0);"/>
            <g transform="matrix(1,0,0,1,-0.881398,-0.440699)">
                <path d="M743.611,1414.363L743.611,1377.835L811.699,1377.835L811.699,1414.921C821.539,1418.523 824.038,1422.787 824.038,1422.787L731.271,1422.787C731.271,1422.787 733.141,1418.066 743.611,1414.363Z" style="fill:rgb(255,0,0);"/>
            </g>
            <g transform="matrix(1,0,0,1,729.118602,-0.440699)">
                <path d="M743.611,1414.363L743.611,1377.835L811.699,1377.835L811.699,1414.921C821.539,1418.523 824.038,1422.787 824.038,1422.787L731.271,1422.787C731.271,1422.787 733.141,1418.066 743.611,1414.363Z" style="fill:rgb(255,0,0);"/>
            </g>
            <g transform="matrix(1,0,0,1,0.481897,1.836245)">
                <rect x="699.757" y="1963.008" width="879.561" height="27.544" style="fill:rgb(255,0,0);"/>
            </g>
            <g transform="matrix(1,0,0,1,0.918123,0)">
                <path d="M1431.982,1428.661L1578.4,1428.661L1578.4,1472.731L698.839,1472.731L698.839,1428.661L846.22,1428.661L846.22,1389.182L1431.982,1389.182L1431.982,1428.661Z" style="fill:rgb(255,0,0);"/>
            </g>
            <path d="M1558.683,1480.076L1558.683,1955.663L721.355,1955.663L721.355,1480.076L1558.683,1480.076ZM1185.193,1538.571L1029.847,1773.794L1149.937,1737.436L1100.909,1897.741L1249.645,1661.967L1129.555,1695.019L1185.193,1538.571Z" style="fill:rgb(255,0,0);"/>
        </g>
    </g>
</svg>
