<?xml version="1.0" encoding="UTF-8" standalone="no"?><!DOCTYPE svg PUBLIC "-//W3C//DTD SVG 1.1//EN" "http://www.w3.org/Graphics/SVG/1.1/DTD/svg11.dtd"><svg width="100%" height="100%" viewBox="0 0 335 340" version="1.1" xmlns="http://www.w3.org/2000/svg" xmlns:xlink="http://www.w3.org/1999/xlink" xml:space="preserve" xmlns:serif="http://www.serif.com/" style="fill-rule:evenodd;clip-rule:evenodd;stroke-linejoin:round;stroke-miterlimit:2;"><g><path d="M334.32,25.265l-271.2,260.335l47.388,-56.891c-0.604,-0.787 -1.019,-1.791 -1.548,-2.629c-0.96,-1.52 -2.16,-3.64 -3.12,-5.52c-0.96,-1.88 -1.92,-3.8 -2.64,-5.76c-0.716,-1.95 -1.32,-4.28 -1.68,-6c-0.264,-1.263 -0.407,-2.847 -0.463,-3.941l-0.257,-0.139l0.226,-0.699c-0.011,-0.584 0.018,-1.179 0.254,-1.701c0.216,-0.476 0.534,-1.146 0.916,-1.927l64.664,-200.393l31.24,0l-83.258,189.036c0.036,0.032 0.075,0.061 0.118,0.084c0.44,0.24 1.12,0.16 1.68,0.24c0.56,0.08 1.114,0.24 1.68,0.24c0.68,0 1.6,-0.2 2.4,-0.24c0.799,-0.04 1.6,0 2.4,0c0.84,0 1.92,-0.12 2.64,0c0.601,0.1 1.24,0.56 1.68,0.72c0.31,0.113 0.651,0.356 0.96,0.24c0.32,-0.12 0.575,-0.723 0.96,-0.96c0.52,-0.32 1.386,-0.813 2.16,-0.96c0.84,-0.16 2,-0.08 2.88,0c0.812,0.074 2.08,0 2.4,0.48c0.32,0.48 -0.182,1.641 -0.48,2.4c-0.44,1.12 -1.84,3.2 -2.16,4.32c-0.221,0.773 -0.08,2.12 0.24,2.4c0.32,0.28 1.163,-0.397 1.68,-0.72c0.491,-0.307 1.088,-0.789 1.656,-1.26l163.276,-196.02l33.308,0l0,25.265Z"/><path d="M0,138.411l0,-45.657l65.482,126.053c0.087,0.139 0.155,0.313 0.278,0.313c0.183,0 0.432,-0.267 0.657,-0.436l-51.777,-161.564l22.32,-2.16l4.005,19.395c0.327,0.071 0.615,0.108 0.795,0.045c0.589,-0.208 0.921,-0.881 1.2,-1.44c0.32,-0.64 0.491,-1.597 0.72,-2.4c0.24,-0.84 0.48,-1.84 0.72,-2.64c0.218,-0.727 0.4,-1.6 0.72,-2.16c0.281,-0.491 0.785,-0.815 1.2,-1.2c0.56,-0.52 1.48,-1.24 2.16,-1.92c0.68,-0.68 1.4,-1.4 1.92,-2.16c0.505,-0.738 0.874,-1.567 1.2,-2.4c0.36,-0.92 0.68,-2.12 0.96,-3.12c0.267,-0.953 0.48,-2.08 0.72,-2.88c0.196,-0.655 0.36,-1.36 0.72,-1.92c0.36,-0.56 0.901,-1.028 1.44,-1.44c0.68,-0.52 1.752,-1.133 2.64,-1.68c1.04,-0.64 2.373,-1.487 3.6,-2.16c1.24,-0.68 2.537,-1.328 3.84,-1.92c1.32,-0.6 2.76,-1.16 4.08,-1.68c1.272,-0.501 2.84,-1.04 3.84,-1.44c0.732,-0.293 1.48,-1.08 2.16,-0.96c0.68,0.12 1.441,0.977 1.92,1.68c0.6,0.88 1.305,2.33 1.68,3.6c0.52,1.76 0.92,4.8 1.44,6.96c0.486,2.019 1.24,4.84 1.68,6c0.16,0.423 0.64,0.88 0.96,0.96c0.246,0.062 0.502,-0.145 0.745,-0.329l1.846,-57.751l27.729,0l-29.12,216.48c0,0.36 -1.28,0.4 -1.68,0.72c-0.364,0.291 -0.44,0.84 -0.72,1.2c-0.278,0.357 -0.76,0.64 -0.96,0.96c-0.175,0.28 -0.294,0.635 -0.24,0.96c0.08,0.48 0.56,1.44 0.72,1.92c0.104,0.313 0.356,0.651 0.24,0.96c-0.12,0.32 -0.589,0.7 -0.96,0.96c-0.4,0.28 -0.985,0.436 -1.44,0.72c-0.64,0.4 -1.84,1.32 -2.4,1.68c-0.301,0.193 -0.72,0.4 -0.96,0.48c-0.152,0.051 -0.321,-0.018 -0.48,0c-0.36,0.04 -1.24,0.32 -1.68,0.24c-0.394,-0.072 -0.617,-0.514 -0.96,-0.72c-0.4,-0.24 -0.92,-0.6 -1.44,-0.72c-0.52,-0.12 -1.16,0.08 -1.68,0c-0.5,-0.077 -0.96,-0.32 -1.44,-0.48c-0.6,-0.2 -1.52,-0.52 -2.16,-0.72c-0.556,-0.174 -1.24,-0.24 -1.68,-0.48c-0.397,-0.217 -0.64,-0.68 -0.96,-0.96c-0.301,-0.263 -0.72,-0.52 -0.96,-0.72c-0.174,-0.145 -0.37,-0.282 -0.48,-0.48c-0.022,-0.04 -0.051,-0.086 -0.083,-0.136l-0.157,0.136l-14.192,-17.641c-0.348,0.336 -0.725,0.65 -0.928,1.081c-0.32,0.68 -0.149,1.654 -0.48,2.4c-0.48,1.08 -1.6,3.28 -2.4,4.08c-0.591,0.591 -1.68,0.52 -2.4,0.72c-0.636,0.177 -1.35,0.812 -1.92,0.48c-0.96,-0.56 -2.88,-2.68 -3.84,-3.84c-0.779,-0.941 -1.28,-2.36 -1.92,-3.12c-0.515,-0.612 -1.36,-0.88 -1.92,-1.44c-0.56,-0.56 -1.187,-1.161 -1.44,-1.92c-0.32,-0.96 -0.4,-2.68 -0.48,-3.84c-0.072,-1.038 -0.08,-2.48 0,-3.12c0.036,-0.286 0.237,-0.565 0.48,-0.72c0.44,-0.28 1.44,-0.64 2.16,-0.96c0.72,-0.32 1.548,-0.463 2.16,-0.96c0.64,-0.52 1.2,-1.384 1.68,-2.16c0.073,-0.119 0.137,-0.273 0.194,-0.448l-36.674,-52.181Z"/><path d="M52.32,221.52c-0.48,0.16 -1.12,0.36 -1.68,0.48c-0.553,0.119 -1.16,0.16 -1.68,0.24c-0.481,0.074 -1,0.2 -1.44,0.24c-0.398,0.036 -0.88,0.12 -1.2,0c-0.318,-0.119 -0.512,-0.452 -0.72,-0.72c-0.28,-0.36 -0.835,-0.877 -0.96,-1.44c-0.16,-0.72 -0.28,-2.16 0,-2.88c0.267,-0.687 1.08,-1.08 1.68,-1.44c0.586,-0.352 1.255,-0.563 1.92,-0.72c0.68,-0.16 1.436,-0.276 2.16,-0.24c0.8,0.04 2.08,0.12 2.64,0.48c0.512,0.329 0.52,1.12 0.72,1.68c0.196,0.548 0.44,1.2 0.48,1.68c0.034,0.407 -0.12,0.84 -0.24,1.2c-0.113,0.339 -0.208,0.727 -0.48,0.96c-0.28,0.24 -0.791,0.344 -1.2,0.48Z"/><path d="M44.64,224.64c0.069,-0.447 -0.673,-0.61 -0.96,-0.96c-0.36,-0.44 -0.8,-1.2 -1.2,-1.68c-0.362,-0.435 -0.687,-0.961 -1.2,-1.2c-0.6,-0.28 -1.76,-0.36 -2.4,-0.48c-0.478,-0.09 -0.955,-0.277 -1.44,-0.24c-0.52,0.04 -1.159,0.22 -1.68,0.48c-0.56,0.28 -1.16,0.8 -1.68,1.2c-0.495,0.381 -1.036,0.723 -1.44,1.2c-0.44,0.52 -0.88,1.36 -1.2,1.92c-0.266,0.466 -0.48,0.96 -0.72,1.44c-0.24,0.48 -0.653,0.907 -0.72,1.44c-0.08,0.64 0.08,1.72 0.24,2.4c0.14,0.593 0.308,1.231 0.72,1.68c0.44,0.48 1.192,1.001 1.92,1.2c0.88,0.24 2.56,0.32 3.36,0.24c0.534,-0.053 0.974,-0.454 1.44,-0.72c0.56,-0.32 1.4,-0.8 1.92,-1.2c0.448,-0.345 0.88,-0.76 1.2,-1.2c0.316,-0.434 0.408,-1.003 0.72,-1.44c0.4,-0.56 1.163,-1.244 1.68,-1.92c0.52,-0.68 1.36,-1.64 1.44,-2.16Z"/><path d="M93.84,239.28c-0.095,0.324 -0.285,0.973 -0.48,1.44c-0.2,0.48 -0.388,1.018 -0.72,1.44c-0.44,0.56 -1.2,1.371 -1.92,1.92c-0.84,0.64 -2.36,1.4 -3.12,1.92c-0.516,0.353 -1.08,0.88 -1.44,1.2c-0.254,0.225 -0.416,0.568 -0.72,0.72c-0.4,0.2 -1.098,0.508 -1.68,0.48c-0.84,-0.04 -2.48,-0.36 -3.36,-0.72c-0.74,-0.303 -1.36,-1.04 -1.92,-1.44c-0.469,-0.335 -1.08,-0.72 -1.44,-0.96c-0.24,-0.16 -0.437,-0.423 -0.72,-0.48c-0.4,-0.08 -1.123,-0.053 -1.68,0c-0.84,0.08 -2.6,0.4 -3.36,0.48c-0.398,0.042 -0.8,0 -1.2,0c-0.48,0 -1.173,0.237 -1.68,0c-0.6,-0.28 -1.56,-1.2 -1.92,-1.68c-0.245,-0.326 -0.304,-0.797 -0.24,-1.2c0.12,-0.76 0.4,-2.339 0.96,-3.36c0.68,-1.24 2.44,-3.04 3.12,-4.08c0.431,-0.659 0.403,-1.603 0.96,-2.16c0.64,-0.64 1.832,-1.31 2.88,-1.68c1.36,-0.48 3.76,-0.92 5.28,-1.2c1.269,-0.234 2.72,-0.6 3.84,-0.48c1.034,0.111 1.897,0.861 2.88,1.2c1.16,0.4 2.92,0.88 4.08,1.2c0.954,0.263 2.12,0.48 2.88,0.72c0.581,0.183 1.28,0.28 1.68,0.72c0.4,0.44 0.56,1.4 0.72,1.92c0.12,0.39 0.307,0.798 0.24,1.2c-0.08,0.48 -0.507,1.28 -0.72,1.68"/><path d="M334.32,268.564l-167.524,-12.309c-0.229,0.115 -0.41,0.221 -0.476,0.306c-0.203,0.26 0.106,0.659 0.24,0.96c0.16,0.36 0.485,0.797 0.72,1.2c0.28,0.48 0.778,1.061 0.96,1.68c0.2,0.68 0.36,1.68 0.24,2.4c-0.118,0.706 -0.625,1.288 -0.96,1.92c-0.36,0.68 -0.68,1.6 -1.2,2.16c-0.514,0.553 -1.48,0.84 -1.92,1.2c-0.31,0.253 -0.4,0.72 -0.72,0.96c-0.32,0.24 -0.88,0.4 -1.2,0.48c-0.233,0.058 -0.482,0.03 -0.72,0c-0.32,-0.04 -0.819,-0.094 -1.2,-0.24c-0.52,-0.2 -1.4,-0.64 -1.92,-0.96c-0.436,-0.268 -0.971,-0.502 -1.2,-0.96c-0.28,-0.56 -0.4,-1.68 -0.48,-2.4c-0.071,-0.636 0.24,-1.52 0,-1.92c-0.24,-0.4 -0.96,-0.44 -1.44,-0.48c-0.48,-0.04 -0.978,0.086 -1.44,0.24c-0.48,0.16 -0.998,0.416 -1.44,0.72c-0.64,0.44 -1.72,1.36 -2.4,1.92c-0.569,0.469 -1.16,1.24 -1.68,1.44c-0.454,0.175 -0.961,-0.155 -1.44,-0.24c-0.68,-0.12 -1.8,-0.2 -2.64,-0.48c-0.84,-0.28 -1.672,-0.68 -2.4,-1.2c-0.84,-0.6 -2,-1.76 -2.64,-2.4c-0.442,-0.442 -0.89,-0.898 -1.2,-1.44c-0.32,-0.56 -0.72,-1.28 -0.72,-1.92c0,-0.64 0.48,-1.4 0.72,-1.92c0.195,-0.424 0.68,-0.8 0.72,-1.2c0.04,-0.4 -0.28,-0.84 -0.48,-1.2c-0.123,-0.221 -0.539,-0.55 -0.727,-0.76l-5.993,-0.44l202.56,-8.605l0,23.489Z"/><path d="M209.289,339.12l-100.569,-48.72l0.179,-0.019c-0.172,-0.057 -0.354,-0.141 -0.529,-0.24c-0.794,0.38 -2.002,0.45 -2.769,0.98c-1.16,0.8 -2.84,2.12 -3.6,3.36c-0.73,1.191 -1,2.96 -0.96,4.08c0.028,0.797 0.203,1.868 0.778,2.39c-0.069,0.068 -0.138,0.136 -0.207,0.203c0.051,0.02 0.101,0.036 0.149,0.047c0.39,0.09 0.88,0.08 1.2,0c0.28,-0.07 0.449,-0.381 0.72,-0.48c0.44,-0.16 1.261,-0.443 1.92,-0.48c1.44,-0.08 4.487,-0.177 6.72,0c2.52,0.2 6.84,0.88 8.4,1.2c0.392,0.08 0.648,0.47 0.96,0.72c0.6,0.48 1.76,1.56 2.64,2.16c0.828,0.565 2.08,0.84 2.64,1.44c0.518,0.555 0.72,1.52 0.72,2.16c0,0.609 -0.58,1.087 -0.72,1.68c-0.16,0.68 -0.32,1.8 -0.24,2.4c0.062,0.462 0.643,0.74 0.72,1.2c0.08,0.48 -0.085,1.136 -0.24,1.68c-0.16,0.56 -0.36,1.36 -0.72,1.68c-0.36,0.32 -1.011,0.011 -1.44,0.24c-0.6,0.32 -1.44,1.28 -2.16,1.68c-0.663,0.369 -1.44,0.76 -2.16,0.72c-0.72,-0.04 -1.509,-0.516 -2.16,-0.96c-0.88,-0.6 -1.975,-1.901 -3.12,-2.64c-1.24,-0.8 -3.04,-1.64 -4.32,-2.16c-1.079,-0.438 -2.32,-0.8 -3.36,-0.96c-0.949,-0.146 -2.12,0.16 -2.88,0c-0.631,-0.133 -1.243,-0.486 -1.68,-0.96c-0.48,-0.52 -0.832,-1.423 -1.2,-2.16c-0.44,-0.88 -1,-2.44 -1.44,-3.12c-0.278,-0.43 -0.768,-0.685 -1.2,-0.96c-0.44,-0.28 -1.091,-0.313 -1.44,-0.72l-0.094,-0.109c-7.275,5.64 -16.35,8.989 -26.186,8.989c-23.909,0 -43.32,-19.787 -43.32,-44.16c0,-17.323 9.806,-32.33 24.063,-39.562c0.32,-0.266 0.679,-0.528 0.897,-0.758c0.68,-0.72 1.92,-1.88 2.64,-2.4c0.494,-0.357 1.2,-0.84 1.68,-0.72c0.48,0.12 0.89,0.898 1.2,1.44c0.289,0.506 0.864,1.153 0.773,1.737c0.294,0.391 0.533,0.776 0.667,1.143c1.04,2.84 2.96,8.36 3.12,11.04c0.109,1.825 -1.44,3.8 -2.16,5.04c-0.54,0.931 -2,1.44 -2.16,2.4c-0.16,0.96 0.105,2.896 1.2,3.36c1.32,0.56 4.92,-0.2 6.72,0c1.409,0.157 2.722,0.793 4.08,1.2c2.8,0.84 10.16,3.12 12.72,3.84c0.861,0.242 1.849,0.897 2.64,0.48c2.2,-1.16 7.8,-5.2 10.56,-7.44c1.256,-1.019 2.449,-2.443 3.577,-3.699c0.053,-0.146 0.135,-0.276 0.263,-0.381c0.069,-0.057 0.149,-0.113 0.238,-0.169c0.664,-0.715 1.305,-1.34 1.922,-1.751c0.988,-0.658 2.211,-1.053 3.416,-1.178c0.157,0.215 0.313,0.431 0.466,0.649c0.514,-0.301 1.01,-0.598 1.398,-0.671c0.497,-0.093 0.949,0.357 1.44,0.48c0.64,0.16 1.626,0.222 2.4,0.48c0.84,0.28 2.029,0.451 2.64,1.2c0.88,1.08 2.095,3.389 2.64,5.28c0.6,2.08 0.88,5.48 0.96,7.2c0.049,1.051 -0.12,2.131 -0.48,3.12c-0.48,1.32 -1.72,3.72 -2.4,4.8c-0.172,0.273 -0.365,0.544 -0.582,0.793c0.012,0.181 0.023,0.363 0.033,0.545c-0.056,0.035 -0.114,0.069 -0.171,0.102c-0.491,0.278 -1.122,0.447 -1.826,0.563c-0.702,0.199 -1.524,0.322 -2.254,0.397c-0.556,0.058 -1.177,0.042 -1.809,0.018c-0.739,0.096 -1.437,0.233 -2.031,0.462c-2.153,0.831 -3.49,3.424 -5.76,3.84c-2.4,0.44 -6.2,-1.16 -8.64,-1.2c-2.025,-0.033 -4.6,-0.2 -6,0.96c-1.4,1.16 -2.8,4.48 -2.4,6c0.4,1.52 3.24,2.08 4.8,3.12c1.532,1.022 3.4,2.08 4.56,3.12c0.977,0.876 1.24,2.52 2.4,3.12c1.16,0.6 3.032,0.518 4.56,0.48c1.6,-0.04 3.92,-0.32 5.04,-0.72c0.746,-0.266 1.04,-1.52 1.68,-1.68c0.64,-0.16 1.852,0.026 2.16,0.72c0.097,0.218 0.168,0.556 0.203,0.945c0.012,0.006 0.024,0.011 0.037,0.015c0.44,0.16 1.121,0.316 1.68,0.48c1.36,0.4 6,1.28 6.48,1.92l44.207,15.227c-0.016,-0.037 -0.032,-0.073 -0.047,-0.107c-0.169,-0.371 -0.2,-0.84 -0.24,-1.2c-0.035,-0.318 -0.159,-0.682 0,-0.96c0.16,-0.28 0.602,-0.541 0.96,-0.72c0.4,-0.2 1,-0.28 1.44,-0.48c0.425,-0.193 0.84,-0.52 1.2,-0.72c0.313,-0.174 0.657,-0.29 0.96,-0.48c0.32,-0.2 0.72,-0.56 0.96,-0.72c0.149,-0.099 0.303,-0.215 0.48,-0.24c0.28,-0.04 0.801,-0.031 1.2,0c0.52,0.04 1.32,0.04 1.92,0.24c0.6,0.2 1.299,0.44 1.68,0.96c0.44,0.6 0.6,1.776 0.96,2.64c0.4,0.96 1,2.16 1.44,3.12c0.403,0.879 0.571,1.906 1.2,2.64c0.439,0.512 1.709,1.231 2.508,1.752l83.405,28.728l-52.543,0Z"/><path d="M334.32,323.945l-57.039,-12.69c-0.223,0.108 -0.42,0.198 -0.561,0.265c-0.651,0.308 -1.52,0 -2.16,0c-0.56,0 -1.121,-0.04 -1.68,0c-0.56,0.04 -1.6,0.08 -1.68,0.24c-0.08,0.16 0.84,0.52 1.2,0.72c0.313,0.174 0.674,0.265 0.96,0.48c0.32,0.24 0.743,0.563 0.96,0.96c0.24,0.44 0.441,1.099 0.48,1.68c0.04,0.6 -0.2,1.44 -0.24,1.92c-0.027,0.319 -0.13,0.668 0,0.96c0.16,0.36 0.64,0.88 0.96,1.2c0.283,0.283 0.68,0.48 0.96,0.72c0.258,0.221 0.566,0.554 0.72,0.72l0,0.72c-0.016,0.28 -0.047,0.841 -0.24,1.2c-0.28,0.52 -0.92,1.32 -1.44,1.92c-0.519,0.598 -0.96,1.44 -1.68,1.68c-0.72,0.24 -1.757,-0.21 -2.64,-0.24c-1.16,-0.04 -3.36,-0.08 -4.32,0c-0.504,0.042 -1,0.24 -1.44,0.48c-0.44,0.24 -0.819,0.617 -1.2,0.96c-0.4,0.36 -0.673,0.995 -1.2,1.2c-0.72,0.28 -2.08,0.56 -3.12,0.48c-1.04,-0.08 -2.133,-0.502 -3.12,-0.96c-1.64,-0.76 -5.08,-2.84 -6.72,-3.6c-0.987,-0.458 -2.12,-0.64 -3.12,-0.96c-0.964,-0.308 -1.92,-0.76 -2.88,-0.96c-0.943,-0.196 -1.917,-0.24 -2.88,-0.24c-1.04,0 -2.36,0.28 -3.36,0.24c-0.894,-0.036 -1.784,-0.22 -2.64,-0.48c-0.92,-0.28 -2.12,-0.76 -2.88,-1.2c-0.638,-0.37 -1,-1.2 -1.68,-1.44c-0.68,-0.24 -1.635,0.233 -2.4,0c-0.92,-0.28 -2.12,-1.12 -3.12,-1.68c-0.97,-0.543 -2.12,-1.32 -2.88,-1.68c-0.526,-0.249 -1.217,-0.127 -1.68,-0.48c-0.84,-0.64 -2.48,-2.08 -3.36,-3.36c-0.88,-1.28 -1.6,-3.2 -1.92,-4.32c-0.22,-0.769 -0.32,-1.68 0,-2.4c0.32,-0.72 1.213,-1.355 1.92,-1.92c0.8,-0.64 2.16,-1.36 2.88,-1.92c0.536,-0.417 1.182,-0.812 1.44,-1.44c0.183,-0.445 -0.109,-1.268 -0.111,-1.895l-91.809,-20.425l56.446,6.671c0.191,-0.149 0.367,-0.299 0.434,-0.431c0.182,-0.365 0.167,-0.799 0.24,-1.2c0.08,-0.44 0.24,-0.953 0.24,-1.44c0,-0.52 -0.24,-1.16 -0.24,-1.68c0,-0.487 0.12,-1.04 0.24,-1.44c0.103,-0.343 0.227,-0.707 0.48,-0.96c0.36,-0.36 1.157,-0.752 1.68,-1.2c0.56,-0.48 1.16,-1.2 1.68,-1.68c0.459,-0.424 1.08,-0.92 1.44,-1.2c0.228,-0.177 0.433,-0.51 0.72,-0.48c0.76,0.08 2.72,0.52 3.84,0.96c1.034,0.406 2.007,0.992 2.88,1.68c1.32,1.04 3.8,3.08 5.04,4.56c1.058,1.263 1.68,2.96 2.4,4.32c0.487,0.919 1.598,2.003 1.937,2.91l125.263,14.804l0,21.351Z"/><path d="M334.32,236.918l-158.4,5.242l158.4,-24.069l0,18.827Z"/><path d="M266.815,0l-128.575,170.16l65.091,-107.274c-0.876,-0.054 -1.629,-1.206 -2.451,-1.206c-0.88,0 -1.836,0.664 -2.64,1.2c-0.84,0.56 -1.56,1.56 -2.4,2.16c-0.816,0.583 -1.67,1.188 -2.64,1.44c-1.08,0.28 -2.92,0.24 -3.84,0.24c-0.566,0 -1.232,0.105 -1.68,-0.24c-0.52,-0.4 -0.8,-1.6 -1.44,-2.16c-0.64,-0.56 -1.559,-0.894 -2.4,-1.2c-0.88,-0.32 -2.08,-0.36 -2.88,-0.72c-0.73,-0.328 -1.468,-0.78 -1.92,-1.44c-0.52,-0.76 -1.04,-2.12 -1.2,-3.12c-0.152,-0.951 0.24,-1.917 0.24,-2.88c0,-1.12 -0.08,-3.04 -0.24,-3.84c-0.078,-0.392 -0.362,-0.781 -0.72,-0.96c-0.4,-0.2 -1.329,0.204 -1.68,-0.24c-0.6,-0.76 -2.193,-2.768 -1.92,-4.32c0.52,-2.96 3.36,-11.24 5.04,-13.44c1.021,-1.337 3.92,0.04 5.04,0.24c0.635,0.113 1.096,0.687 1.68,0.96c0.6,0.28 1.246,0.608 1.92,0.72c0.72,0.12 1.6,0 2.4,0c0.8,0 1.601,0.04 2.4,0c0.8,-0.04 1.68,-0.12 2.4,-0.24c0.651,-0.108 1.36,-0.24 1.92,-0.48c0.53,-0.227 0.949,-0.658 1.44,-0.96c0.52,-0.32 1.11,-0.658 1.68,-0.96c0.68,-0.36 1.64,-0.76 2.4,-1.2c0.749,-0.434 1.6,-1.08 2.16,-1.44c0.392,-0.252 0.735,-0.681 1.2,-0.72c0.48,-0.04 1.165,0.209 1.68,0.48c0.76,0.4 2.04,1.24 2.88,1.92c0.791,0.641 1.72,1.32 2.16,2.16c0.44,0.84 0.244,1.936 0.48,2.88c0.24,0.96 0.492,1.983 0.96,2.88c0.48,0.92 1.32,2.12 1.92,2.64c0.286,0.248 0.673,0.343 1.063,0.4l25.145,-41.44l25.327,0Zm67.505,191.264l-168.029,40.707c-0.061,0.051 -0.13,0.09 -0.211,0.109c-1.64,0.4 -6.082,0.95 -9.12,1.44c-3.72,0.6 -10.84,1.96 -13.2,2.16c-0.451,0.038 -0.702,-0.588 -0.96,-0.96c-0.36,-0.52 -1.015,-1.357 -1.2,-2.16c-0.24,-1.04 -0.28,-2.96 -0.24,-4.08c0.032,-0.894 0.32,-2 0.48,-2.64c0.104,-0.418 0.6,-0.8 0.48,-1.2c-0.12,-0.4 -0.702,-0.932 -1.2,-1.2c-0.52,-0.28 -1.269,-0.372 -1.92,-0.48c-0.72,-0.12 -1.603,-0.136 -2.4,-0.24c-0.92,-0.12 -2.126,-0.136 -3.12,-0.48c-1.04,-0.36 -2.94,-0.513 -3.12,-1.68c-0.24,-1.56 0.6,-6.08 1.68,-7.68c0.964,-1.428 3.76,-1.72 4.8,-1.92c0.527,-0.101 1.2,0.36 1.44,0.72c0.24,0.36 -0.04,1.08 0,1.44c0.028,0.251 0.014,0.607 0.24,0.72c0.56,0.28 2.048,0.775 3.12,0.96c1.16,0.2 2.56,0.28 3.84,0.24c0.518,-0.016 1.041,-0.045 1.563,-0.094l187.077,-142.556l0,34.695l-171.601,104.506c-0.301,0.371 -0.609,0.762 -0.719,1.049c-0.32,0.84 -0.607,1.897 -0.72,2.88c-0.12,1.04 -0.12,2.32 0,3.36c0.113,0.983 0.4,2.16 0.72,2.88c0.254,0.571 0.654,1.137 1.2,1.44c0.166,0.092 0.384,0.148 0.63,0.191l170.49,-63.193l0,31.066Zm-217.92,-72.464c0.56,0.12 1.387,0.577 1.68,1.2c0.32,0.68 0.24,1.917 0.24,2.88c0,1.12 -0.318,2.56 -0.24,3.84c0.08,1.32 0.72,2.96 0.72,4.08c0,0.912 -0.4,1.786 -0.72,2.64c-0.36,0.96 -0.942,2.088 -1.44,3.12c-0.56,1.16 -1.44,2.8 -1.92,3.84c-0.361,0.782 -0.688,1.583 -0.96,2.4c-0.28,0.84 -0.56,1.76 -0.72,2.64c-0.158,0.869 -0.041,1.779 -0.24,2.64c-0.24,1.04 -0.847,2.385 -1.2,3.6c-0.36,1.24 -0.8,2.72 -0.96,3.84c-0.136,0.95 0.04,2.16 0,2.88c-0.027,0.486 0.087,1.08 -0.24,1.44c-0.4,0.44 -1.48,0.8 -2.16,1.2c-0.651,0.383 -1.28,1.08 -1.92,1.2c-0.64,0.12 -1.4,-0.08 -1.92,-0.48c-0.52,-0.4 -0.951,-1.208 -1.2,-1.92c-0.28,-0.8 -0.415,-1.909 -0.48,-2.88c-0.08,-1.2 0.16,-3.12 0,-4.32c-0.134,-1.003 -0.62,-1.927 -0.96,-2.88c-0.4,-1.12 -1.12,-2.52 -1.44,-3.84c-0.32,-1.32 -0.36,-3.08 -0.48,-4.08c-0.077,-0.64 -0.084,-1.294 -0.24,-1.92c-0.2,-0.8 -0.84,-1.88 -0.96,-2.88c-0.12,-1 0.12,-2.2 0.24,-3.12c0.106,-0.809 0.24,-1.64 0.48,-2.4c0.237,-0.751 0.608,-1.455 0.96,-2.16c0.4,-0.8 0.713,-1.95 1.44,-2.64c0.8,-0.76 2.176,-1.407 3.36,-1.92c1.2,-0.52 2.8,-0.76 3.84,-1.2c0.859,-0.364 1.72,-0.96 2.4,-1.44c0.603,-0.425 1.12,-0.96 1.68,-1.44c0.56,-0.48 1.12,-1.12 1.68,-1.44c0.506,-0.289 1.12,-0.6 1.68,-0.48Zm11.52,-50.16c0.36,1.32 0.36,5.76 0.48,7.92c0.093,1.679 0.164,3.36 0.24,5.04c0.08,1.76 0.16,3.88 0.24,5.52c0.07,1.441 0.2,3.2 0.24,4.32c0.029,0.799 0.17,1.618 0,2.4c-0.2,0.92 -0.76,2.2 -1.2,3.12c-0.403,0.842 -0.965,1.597 -1.44,2.4c-0.52,0.88 -1.229,1.864 -1.68,2.88c-0.48,1.08 -0.84,2.6 -1.2,3.6c-0.292,0.811 -0.72,1.6 -0.96,2.4c-0.234,0.781 -0.28,1.96 -0.48,2.4c-0.105,0.23 -0.481,0.324 -0.72,0.24c-0.68,-0.24 -2.562,-0.715 -3.36,-1.68c-0.96,-1.16 -1.8,-3.64 -2.4,-5.28c-0.54,-1.476 -0.84,-3.04 -1.2,-4.56c-0.358,-1.512 -0.48,-3.44 -0.96,-4.56c-0.379,-0.885 -1.52,-1.56 -1.92,-2.16c-0.281,-0.421 -0.603,-0.949 -0.48,-1.44c0.16,-0.64 0.901,-1.639 1.44,-2.4c0.68,-0.96 1.942,-2.119 2.64,-3.36c0.72,-1.28 1.17,-2.862 1.68,-4.32c0.56,-1.6 1.04,-3.72 1.68,-5.28c0.584,-1.424 1.32,-3.04 2.16,-4.08c0.754,-0.934 1.96,-1.64 2.88,-2.16c0.815,-0.461 1.92,-0.8 2.64,-0.96c0.547,-0.121 1.533,-0.54 1.68,0Zm23.52,-50.16c0.659,0.198 1.418,0.564 1.68,1.2c0.28,0.68 0.116,1.927 0,2.88c-0.16,1.32 -0.654,3.357 -0.96,5.04c-0.32,1.76 -0.56,3.88 -0.96,5.52c-0.36,1.475 -0.989,2.871 -1.44,4.32c-0.56,1.8 -1.44,5.04 -1.92,6.48c-0.249,0.747 -0.64,1.56 -0.96,2.16c-0.271,0.509 -0.618,0.976 -0.96,1.44c-0.56,0.76 -1.8,2.16 -2.4,3.12c-0.512,0.82 -0.84,1.84 -1.2,2.64c-0.323,0.719 -0.52,1.56 -0.96,2.16c-0.436,0.595 -1.098,0.987 -1.68,1.44c-0.72,0.56 -1.79,1.24 -2.64,1.92c-1,0.8 -2.4,2.04 -3.36,2.88c-0.81,0.709 -1.8,1.6 -2.4,2.16c-0.414,0.386 -0.638,1.266 -1.2,1.2c-0.68,-0.08 -2.012,-0.986 -2.88,-1.68c-1,-0.8 -2.157,-2.009 -3.12,-3.12c-1.04,-1.2 -2.44,-3.08 -3.12,-4.08c-0.402,-0.592 -0.779,-1.228 -0.96,-1.92c-0.24,-0.92 -0.402,-2.392 -0.48,-3.6c-0.08,-1.24 0,-2.76 0,-3.84c0,-0.88 -0.16,-1.84 0,-2.64c0.155,-0.773 0.65,-1.436 0.96,-2.16c0.48,-1.12 1.36,-3.2 1.92,-4.56c0.492,-1.195 0.908,-2.422 1.44,-3.6c0.56,-1.24 1.28,-2.56 1.92,-3.84c0.72,-1.44 1.68,-3.72 2.4,-4.8c0.472,-0.708 1.178,-1.264 1.92,-1.68c1,-0.56 2.88,-1.32 4.08,-1.68c1.008,-0.302 2.36,-0.36 3.12,-0.48c0.481,-0.076 0.994,-0.046 1.44,-0.24c0.92,-0.4 3,-1.6 4.08,-2.16c0.794,-0.412 1.84,-0.92 2.4,-1.2c0.32,-0.16 0.606,-0.534 0.96,-0.48c0.52,0.08 1.392,0.785 2.16,0.96c0.88,0.2 2.32,0 3.12,0.24Z"/><path d="M158.16,127.44c0.286,-0.92 0.203,-1.917 0.24,-2.88c0.04,-1.04 0.12,-2.28 0,-3.36c-0.118,-1.061 -0.4,-2.32 -0.72,-3.12c-0.256,-0.639 -0.659,-1.255 -1.2,-1.68c-0.56,-0.44 -1.64,-0.96 -2.16,-0.96c-0.453,0 -0.64,0.64 -0.96,0.96c-0.4,0.4 -0.884,1.051 -1.44,1.44c-0.8,0.56 -2.4,1.28 -3.36,1.92c-0.852,0.568 -1.8,1.32 -2.4,1.92c-0.487,0.487 -0.92,1.08 -1.2,1.68c-0.279,0.598 -0.32,1.28 -0.48,1.92c-0.16,0.64 -0.312,1.282 -0.48,1.92c-0.2,0.76 -0.655,1.73 -0.72,2.64c-0.08,1.12 0,2.84 0.24,4.08c0.226,1.168 0.76,2.4 1.2,3.36c0.389,0.848 1.04,1.68 1.44,2.4c0.347,0.625 0.6,1.32 0.96,1.92c0.354,0.59 0.72,1.44 1.2,1.68c0.48,0.24 1.253,0.13 1.68,-0.24c0.6,-0.52 1.326,-1.891 1.92,-2.88c0.72,-1.2 1.68,-2.88 2.4,-4.32c0.705,-1.409 1.28,-2.92 1.92,-4.32c0.625,-1.367 1.56,-2.92 1.92,-4.08Z"/><path d="M257.04,177.12c-0.44,0.76 -2.88,1.16 -3.6,1.68c-0.435,0.314 -0.649,0.908 -0.72,1.44c-0.08,0.6 0.443,1.465 0.24,2.16c-0.28,0.96 -1.12,2.56 -1.92,3.6c-0.794,1.032 -2,1.8 -2.88,2.64c-0.818,0.781 -1.56,1.88 -2.4,2.4c-0.776,0.48 -1.742,0.559 -2.64,0.72c-1.56,0.28 -5.08,0.72 -6.72,0.96c-1.041,0.152 -2.16,0.4 -3.12,0.48c-0.877,0.073 -1.805,-0.278 -2.64,0c-1.08,0.36 -2.48,1.8 -3.84,2.16c-1.36,0.36 -3.2,0.2 -4.32,0c-0.88,-0.157 -1.768,-0.568 -2.4,-1.2c-0.8,-0.8 -1.6,-2.6 -2.4,-3.6c-0.707,-0.883 -1.96,-1.68 -2.4,-2.4c-0.336,-0.55 -0.272,-1.276 -0.24,-1.92c0.04,-0.8 -0.03,-2.051 0.48,-2.88c0.64,-1.04 2.28,-2.44 3.36,-3.36c0.963,-0.82 1.95,-1.678 3.12,-2.16c1.36,-0.56 3.96,-0.84 5.04,-1.2c0.547,-0.182 1.043,-0.541 1.44,-0.96c0.72,-0.76 2.12,-2.76 2.88,-3.6c0.495,-0.547 1,-1.2 1.68,-1.44c0.68,-0.24 1.61,0.126 2.4,0c1,-0.16 2.462,-0.462 3.6,-0.96c1.28,-0.56 2.76,-1.96 4.08,-2.4c1.217,-0.406 2.6,-0.4 3.84,-0.24c1.24,0.16 2.56,0.6 3.6,1.2c1.03,0.594 1.835,1.525 2.64,2.4c0.92,1 2.24,2.52 2.88,3.6c0.516,0.871 1.4,2.12 0.96,2.88Z"/><path d="M299.76,72c-0.88,-0.04 -2.281,0.699 -3.36,1.2c-1.12,0.52 -2.6,1.48 -3.36,1.92c-0.404,0.234 -0.745,0.619 -1.2,0.72c-0.72,0.16 -2.28,-0.12 -3.12,0.24c-0.832,0.357 -1.206,1.364 -1.92,1.92c-0.72,0.56 -1.68,0.92 -2.4,1.44c-0.689,0.498 -1.44,1.2 -1.92,1.68c-0.362,0.362 -0.731,0.742 -0.96,1.2c-0.28,0.56 -0.626,1.407 -0.72,2.16c-0.12,0.96 -0.04,2.44 0,3.6c0.039,1.122 0,2.4 0.24,3.36c0.217,0.868 0.68,1.84 1.2,2.4c0.487,0.524 1.267,0.666 1.92,0.96c0.8,0.36 1.964,0.707 2.88,1.2c1.04,0.56 2.4,1.6 3.36,2.16c0.773,0.451 1.6,1.32 2.4,1.2c0.8,-0.12 1.566,-1.325 2.4,-1.92c0.84,-0.6 1.8,-1.12 2.64,-1.68c0.813,-0.542 1.681,-1.019 2.4,-1.68c1,-0.92 2.96,-2.6 3.6,-3.84c0.552,-1.069 0.334,-2.401 0.24,-3.6c-0.16,-2.04 -0.8,-6.44 -1.2,-8.64c-0.281,-1.546 -0.68,-3.56 -1.2,-4.56c-0.369,-0.71 -1.121,-1.404 -1.92,-1.44Z"/><path d="M248.88,271.2c-0.56,-0.32 -1.64,-0.4 -2.4,-0.48c-0.716,-0.075 -1.45,0.118 -2.16,0c-0.96,-0.16 -2.52,-0.64 -3.6,-0.96c-0.97,-0.287 -2,-0.56 -2.88,-0.96c-0.849,-0.386 -1.72,-1.08 -2.4,-1.44c-0.538,-0.285 -1.12,-0.52 -1.68,-0.72c-0.548,-0.196 -1.2,-0.48 -1.68,-0.48c-0.431,0 -0.84,0.32 -1.2,0.48c-0.327,0.145 -0.633,0.335 -0.96,0.48c-0.36,0.16 -0.795,0.333 -1.2,0.48c-0.44,0.16 -0.96,0.48 -1.44,0.48c-0.48,0 -0.949,-0.357 -1.44,-0.48c-0.64,-0.16 -1.6,-0.4 -2.4,-0.48c-0.796,-0.08 -1.615,0.152 -2.4,0c-1.24,-0.24 -3.8,-1.04 -5.04,-1.44c-0.82,-0.265 -1.576,-0.709 -2.4,-0.96c-0.92,-0.28 -2.32,-0.52 -3.12,-0.72c-0.565,-0.141 -1.108,-0.373 -1.68,-0.48c-0.64,-0.12 -1.6,-0.24 -2.16,-0.24c-0.408,0 -0.88,0.08 -1.2,0.24c-0.304,0.152 -0.594,0.405 -0.72,0.72c-0.16,0.4 -0.205,1.115 -0.24,1.68c-0.04,0.64 -0.2,1.48 0,2.16c0.2,0.68 0.717,1.34 1.2,1.92c0.6,0.72 1.68,1.6 2.4,2.4c0.685,0.762 1.44,1.8 1.92,2.4c0.32,0.4 0.809,0.71 0.96,1.2c0.16,0.52 0,1.28 0,1.92c0,0.64 -0.08,1.32 0,1.92c0.077,0.577 0.104,1.235 0.48,1.68c0.44,0.52 1.351,1.133 2.16,1.44c1.16,0.44 3.4,0.88 4.8,1.2c1.193,0.273 2.6,0.36 3.6,0.72c0.878,0.316 1.531,1.1 2.4,1.44c0.92,0.36 2.055,0.647 3.12,0.72c1.16,0.08 2.6,-0.04 3.84,-0.24c1.226,-0.198 2.403,-0.628 3.6,-0.96c1.44,-0.4 3.68,-1.16 5.04,-1.44c1.022,-0.21 2.12,-0.24 3.12,-0.24c0.963,0 1.929,0.088 2.88,0.24c1,0.16 2.2,0.88 3.12,0.72c0.92,-0.16 1.88,-0.96 2.4,-1.68c0.52,-0.72 0.56,-2 0.72,-2.64c0.099,-0.396 0.352,-0.808 0.24,-1.2c-0.16,-0.56 -0.88,-1.64 -1.2,-2.16c-0.21,-0.341 -0.615,-0.574 -0.72,-0.96c-0.12,-0.44 0.103,-1.13 0,-1.68c-0.12,-0.64 -0.44,-1.56 -0.72,-2.16c-0.244,-0.523 -0.459,-1.154 -0.96,-1.44Z"/></g></svg>