<?xml version="1.0" encoding="UTF-8" standalone="no"?><!DOCTYPE svg PUBLIC "-//W3C//DTD SVG 1.1//EN" "http://www.w3.org/Graphics/SVG/1.1/DTD/svg11.dtd"><svg width="100%" height="100%" viewBox="0 0 173 240" version="1.1" xmlns="http://www.w3.org/2000/svg" xmlns:xlink="http://www.w3.org/1999/xlink" xml:space="preserve" xmlns:serif="http://www.serif.com/" style="fill-rule:evenodd;clip-rule:evenodd;stroke-linejoin:round;stroke-miterlimit:2;"><g><path d="M85.761,210.475c0,0 -21.477,-5.212 -30.7,-15.037c-9.204,-9.805 -14.145,-25.88 -14.145,-25.88c0,0 8.377,5.861 12.959,7.443c4.191,1.447 14.537,2.049 14.537,2.049c0,0 -6.391,-9.063 -8.573,-13.373c-2.052,-4.053 -3.931,-9.121 -4.52,-12.486c-0.446,-2.551 0.332,-5.58 0.987,-7.708c0.653,-2.122 2.941,-5.058 2.941,-5.058c0,0 3.164,9.351 6.478,12.529c3.951,3.789 13.489,6.456 13.489,6.456c0,0 -0.582,-13.804 0.291,-19.859c0.776,-5.382 3.931,-10.832 4.946,-16.475c1.152,-6.401 1.964,-21.931 1.964,-21.931c0,0 5.467,5.426 7.873,8.303c2.51,3.001 7.185,9.7 7.185,9.7c0,0 3.148,9.867 3.904,14.8c1.037,6.765 2.315,25.789 2.315,25.789c0,0 4.474,-4.528 7.201,-6.547c2.678,-1.981 7.312,-2.859 9.165,-5.565c2.251,-3.287 4.583,-8.511 4.583,-8.511c0,0 0.916,8.611 0.589,12.375c-0.305,3.513 -1.859,6.772 -2.553,10.211c-0.971,4.811 -11.129,16.694 -11.129,16.694c0,0 5.05,1.309 7.411,1.309c2.4,0 6.746,-1.104 8.956,-1.964c2.802,-1.091 7.856,-4.583 7.856,-4.583c0,0 -3.015,4.703 -4.359,7.055c-1.746,3.055 -2.613,6.123 -6.116,11.276c-3.761,5.532 -20.622,18.658 -20.622,18.658c0,0 23.719,-0.824 31.424,-6.219c4.237,-2.967 12.056,-8.506 17.216,-14.785c6.314,-7.683 7.573,-10.336 9.298,-16.312c1.435,-4.974 4.129,-13.306 5.225,-21.41c1.379,-10.192 0.994,-19.834 0.994,-19.834c0,0 -2.313,7.195 -4.91,9.493c-2.837,2.51 -8.02,4.801 -11.129,5.892c-2.082,0.731 -7.529,0.655 -7.529,0.655c0,0 7.338,-9.908 9.684,-14.818c2.228,-4.663 4.177,-9.551 4.392,-14.642c0.145,-3.448 0.826,-10.466 0.148,-16.383c-0.702,-6.135 -2.767,-11.113 -2.767,-11.113l-1.964,-4.583c0,0 -8.892,13.066 -11.784,16.039c-3.873,3.983 -11.457,7.856 -11.457,7.856c0,0 4.037,-15.003 4.583,-22.586c0.546,-7.583 -0.327,-16.148 -1.964,-22.913c-1.538,-6.356 -7.856,-17.676 -7.856,-17.676c0,0 -0.577,10.338 -1.637,15.385c-1.146,5.456 -2.237,13.312 -4.91,17.676c-2.43,3.967 -11.129,8.511 -11.129,8.511c0,0 1.089,-17.355 -1.309,-25.532c-3.328,-11.348 -15.112,-32.079 -19.313,-42.553c-2.646,-6.597 -5.892,-20.295 -5.892,-20.295c0,0 -5.421,10.585 -6.219,16.367c-1.146,8.292 0,24.659 -0.655,33.388c-0.48,6.404 -1.964,13.584 -3.601,18.985c-1.443,4.764 -6.219,13.421 -6.219,13.421c0,0 -1.637,-0.327 -4.583,-6.547c-2.387,-5.04 -3.297,-19.833 -8.183,-26.514c-3.44,-4.703 -11.129,-5.237 -11.129,-5.237c0,0 -0.253,5.213 0,12.766c0.146,4.344 -4.032,19.128 -3.628,28.39c0.505,11.559 5.592,17.437 5.592,17.437c0,0 -3.784,-0.679 -7.856,-4.91c-2.256,-2.344 -6.44,-9.291 -10.435,-14.311c-3.442,-4.325 -6.914,-6.966 -6.914,-6.966c0,0 -1.2,24.113 0.655,35.025c1.816,10.681 10.475,30.442 10.475,30.442c0,0 -5.614,0.028 -8.421,-0.94c-3.164,-1.091 -11.014,-6.438 -14.165,-8.88c-4.161,-3.226 -10.802,-10.475 -10.802,-10.475c0,0 2.435,16.291 4.583,24.223c2.673,9.875 6.346,25.164 11.457,35.025c5.727,11.051 12.866,18.106 22.586,22.259c11.62,4.965 47.136,7.529 47.136,7.529Z"/><rect x="19.967" y="225.205" width="140.426" height="14.075"/></g></svg>