<?xml version="1.0" encoding="UTF-8" standalone="no"?>
<!DOCTYPE svg PUBLIC "-//W3C//DTD SVG 1.1//EN" "http://www.w3.org/Graphics/SVG/1.1/DTD/svg11.dtd">
<svg width="100%" height="100%" viewBox="0 0 691 1628" version="1.1" xmlns="http://www.w3.org/2000/svg" xmlns:xlink="http://www.w3.org/1999/xlink" xml:space="preserve" xmlns:serif="http://www.serif.com/" style="fill-rule:evenodd;clip-rule:evenodd;stroke-linejoin:round;stroke-miterlimit:2;">
    <g transform="matrix(1,0,0,1,-441.330332,-206.675883)">
        <g transform="matrix(0.618646,0,0,0.620519,6.729321,515.118749)">
            <path d="M710.668,1031.483C708.473,1011.929 722.291,994.06 741.897,991.364L1003.078,955.454C1022.988,952.716 1041.374,966.658 1044.112,986.568C1046.849,1006.478 1032.908,1024.864 1012.998,1027.602L882.568,1045.535C882.851,1048.348 882.809,1051.24 882.407,1054.165C879.67,1074.075 861.283,1088.017 841.373,1085.279L741.897,1071.602C722.291,1068.906 708.473,1051.037 710.668,1031.483Z" style="fill:rgb(226,63,60);"/>
            <path d="M1141.812,1091.744C1141.335,1088.446 1141.306,1085.03 1141.782,1081.568C1144.52,1061.658 1162.907,1047.716 1182.817,1050.454L1282.293,1064.131C1294.798,1065.85 1304.949,1073.743 1310.091,1084.309C1314.997,1089.6 1318.384,1096.394 1319.44,1104.078C1322.178,1123.988 1308.236,1142.374 1288.326,1145.112L881.817,1201.004C882.79,1205.2 883.029,1209.643 882.407,1214.165C879.67,1234.075 861.283,1248.017 841.373,1245.279L741.897,1231.602C725.654,1229.369 713.384,1216.72 710.9,1201.324C708.691,1197.425 707.17,1193.054 706.523,1188.349C703.786,1168.439 717.728,1150.053 737.638,1147.315L1141.812,1091.744Z" style="fill:rgb(226,63,60);"/>
            <path d="M1141.444,1245.981C1141.467,1244.522 1141.579,1243.049 1141.782,1241.568C1144.52,1221.658 1162.907,1207.716 1182.817,1210.454L1282.293,1224.131C1287.539,1224.852 1292.371,1226.66 1296.593,1229.296C1308.484,1233.949 1317.579,1244.727 1319.44,1258.264C1322.178,1278.174 1308.236,1296.561 1288.326,1299.298L745.722,1373.902C725.812,1376.64 707.425,1362.698 704.688,1342.788C701.95,1322.878 715.892,1304.491 735.802,1301.754L1141.444,1245.981Z" style="fill:rgb(226,63,60);"/>
            <path d="M810.907,1639.425C811.007,1626.315 811.131,1613.763 811.236,1603.923L751.325,1536.17C750.656,1535.414 750.025,1534.638 749.433,1533.846L743.881,1534.61C723.971,1537.347 705.584,1523.405 702.846,1503.495C700.109,1483.585 714.051,1465.199 733.961,1462.461L1142.761,1406.254C1141.47,1401.615 1141.085,1396.641 1141.782,1391.568C1144.52,1371.658 1162.907,1357.716 1182.817,1360.454L1282.293,1374.131C1297.817,1376.265 1309.712,1387.913 1312.902,1402.377C1316.285,1407.056 1318.6,1412.606 1319.44,1418.718C1321.025,1430.244 1317.02,1441.259 1309.504,1449.023C1308.066,1452.078 1306.177,1454.98 1303.83,1457.634L1210.821,1562.818L1210.821,1639.425L1283.004,1639.425L1283.004,1740.017C1283.004,1781.568 1249.269,1815.303 1207.718,1815.303L822.237,1815.303C780.686,1815.303 746.952,1781.568 746.952,1740.017L746.952,1639.425L810.907,1639.425ZM1143.742,1639.425L878.557,1639.425L878.288,1583.914L878.288,1583.914C878.364,1575.234 875.358,1566.497 869.161,1559.489L835.965,1521.949L1193.173,1472.835L1152.803,1518.489C1147.214,1524.809 1144.221,1532.535 1143.743,1540.358L1143.742,1540.361C1143.651,1541.85 1143.652,1543.343 1143.742,1544.83L1143.742,1639.425Z" style="fill:rgb(226,63,60);"/>
            <path d="M815.516,1900.308L815.516,2016.023L820.767,2016.023L956.706,2093.696L956.706,2126.266L1069.258,2126.266L1069.258,2088.526L1196.148,2016.023L1201.399,2016.023L1201.399,1900.308L815.516,1900.308Z" style="fill:rgb(226,63,60);"/>
        </g>
        <g transform="matrix(1.452599,0,0,1.452599,-756.069827,-924.462751)">
            <g transform="matrix(1.042254,0,0,1.147994,-49.666643,-113.436095)">
                <path d="M1175.444,827.511L1175.444,789.808C1175.444,782.809 1181.703,777.126 1189.412,777.126C1197.122,777.126 1203.381,782.809 1203.381,789.808L1203.381,827.511L1175.444,827.511Z" style="fill:rgb(255,0,0);"/>
            </g>
            <g transform="matrix(1.042254,0,0,1.147994,29.333357,-113.436095)">
                <path d="M1175.444,827.511L1175.444,789.808C1175.444,782.809 1181.703,777.126 1189.412,777.126C1197.122,777.126 1203.381,782.809 1203.381,789.808L1203.381,827.511L1175.444,827.511Z" style="fill:rgb(255,0,0);"/>
            </g>
            <g transform="matrix(-1.042254,0,-0,-1.147994,2429.672028,2791.470032)">
                <path d="M1175.444,827.511L1175.444,789.808C1175.444,782.809 1181.703,777.126 1189.412,777.126C1197.122,777.126 1203.381,782.809 1203.381,789.808L1203.381,827.511L1175.444,827.511Z" style="fill:rgb(255,0,0);"/>
            </g>
            <g transform="matrix(-1.042254,0,-0,-1.147994,2508.672028,2791.470032)">
                <path d="M1175.444,827.511L1175.444,789.808C1175.444,782.809 1181.703,777.126 1189.412,777.126C1197.122,777.126 1203.381,782.809 1203.381,789.808L1203.381,827.511L1175.444,827.511Z" style="fill:rgb(255,0,0);"/>
            </g>
            <g transform="matrix(1,0,0,1.004657,0,-8.072868)">
                <rect x="1162.984" y="944.981" width="133.128" height="788.667" style="fill:rgb(255,0,0);"/>
            </g>
            <g transform="matrix(1.055172,0,0,0.088603,-67.837106,767.69768)">
                <path d="M1296.111,1142.148L1296.111,1536.482C1296.111,1645.301 1288.693,1733.648 1279.555,1733.648L1179.54,1733.648C1170.402,1733.648 1162.984,1645.301 1162.984,1536.482L1162.984,1142.148C1162.984,1033.329 1170.402,944.981 1179.54,944.981L1279.555,944.981C1288.693,944.981 1296.111,1033.329 1296.111,1142.148Z" style="fill:rgb(255,0,0);"/>
            </g>
            <g transform="matrix(1.055172,0,0,0.088603,-67.837106,1672.966515)">
                <path d="M1296.111,1142.148L1296.111,1536.482C1296.111,1645.301 1288.693,1733.648 1279.555,1733.648L1179.54,1733.648C1170.402,1733.648 1162.984,1645.301 1162.984,1536.482L1162.984,1142.148C1162.984,1033.329 1170.402,944.981 1179.54,944.981L1279.555,944.981C1288.693,944.981 1296.111,1033.329 1296.111,1142.148Z" style="fill:rgb(255,0,0);"/>
            </g>
        </g>
    </g>
</svg>
