<?xml version="1.0" encoding="UTF-8" standalone="no"?>
<!DOCTYPE svg PUBLIC "-//W3C//DTD SVG 1.1//EN" "http://www.w3.org/Graphics/SVG/1.1/DTD/svg11.dtd">
<svg width="100%" height="100%" viewBox="0 0 1408 1408" version="1.1" xmlns="http://www.w3.org/2000/svg" xmlns:xlink="http://www.w3.org/1999/xlink" xml:space="preserve" xmlns:serif="http://www.serif.com/" style="fill-rule:evenodd;clip-rule:evenodd;stroke-linejoin:round;stroke-miterlimit:2;">
    <g transform="matrix(1,0,0,1,-207,-384)">
        <g transform="matrix(1,0,0,1,-141,-22)">
            <path d="M1052,406C1440.548,406 1756,721.452 1756,1110C1756,1498.548 1440.548,1814 1052,1814C663.452,1814 348,1498.548 348,1110C348,721.452 663.452,406 1052,406ZM871.366,521.429C844.34,547.193 853.688,583.412 853.688,583.412L943.845,1286.573L1148.581,1286.573L1241.334,592.87C1241.334,592.87 1248.358,533.561 1227.038,516.945C1203.471,498.579 1154.904,499.012 1154.904,499.012L927.681,499.012C927.681,499.012 896.925,497.063 871.366,521.429ZM1045.466,1386.699C956.801,1386.699 884.815,1458.684 884.815,1547.35C884.815,1636.015 956.801,1708 1045.466,1708C1134.131,1708 1206.116,1636.015 1206.116,1547.35C1206.116,1458.684 1134.131,1386.699 1045.466,1386.699Z" style="fill:rgb(255,125,0);"/>
        </g>
    </g>
</svg>
