<?xml version="1.0" encoding="UTF-8" standalone="no"?>
<!DOCTYPE svg PUBLIC "-//W3C//DTD SVG 1.1//EN" "http://www.w3.org/Graphics/SVG/1.1/DTD/svg11.dtd">
<svg width="100%" height="100%" viewBox="0 0 849 597" version="1.1" xmlns="http://www.w3.org/2000/svg" xmlns:xlink="http://www.w3.org/1999/xlink" xml:space="preserve" xmlns:serif="http://www.serif.com/" style="fill-rule:evenodd;clip-rule:evenodd;stroke-linecap:round;stroke-linejoin:round;stroke-miterlimit:1.5;">
    <g transform="matrix(1,0,0,1,-499.229822,-1180)">
        <g transform="matrix(0.777395,0.526216,-0.655285,0.968073,1142.379946,-172.870463)">
            <path d="M772,1261.819L772,1535.181C772,1596.344 710.164,1646 634,1646C557.836,1646 496,1596.344 496,1535.181L496,1261.819C496,1200.656 557.836,1151 634,1151C710.164,1151 772,1200.656 772,1261.819ZM705.061,1537.6C705.292,1530.244 700.475,1525.511 693.431,1525.329C683.345,1525.067 680.795,1533.23 680.795,1533.23C680.795,1533.23 680.035,1558.779 671.335,1566.263C662.636,1573.746 642.528,1571.764 633.294,1574.545C627.923,1576.162 623.055,1578.559 623.93,1584.8C624.804,1591.04 629.043,1594.26 634.651,1594.467C645.316,1594.86 679.539,1588.756 689.664,1580.074C703.034,1568.61 704.871,1543.647 705.061,1537.6ZM530.236,1384.597L728.041,1384.597C731.449,1384.597 734.82,1384.729 738.144,1384.987L738.144,1259.934C738.144,1213.861 691.564,1176.456 634.19,1176.456C576.817,1176.456 530.236,1213.861 530.236,1259.934L530.236,1384.597Z" style="fill:rgb(255,0,0);stroke:rgb(235,235,235);stroke-width:0.94px;"/>
        </g>
        <path d="M845,1327C838,1322 830.884,1322.644 827,1328C821.44,1335.669 828,1343 828,1343C828,1343 852.333,1360.333 855,1372C857.667,1383.667 845.167,1398 843,1407C841.74,1412.236 841.498,1417.591 848,1421C854.502,1424.409 859.848,1423.224 863,1419C868.993,1410.967 881.092,1380.362 878.016,1366.802C873.953,1348.896 850.754,1331.11 845,1327Z" style="fill:rgb(255,0,0);"/>
        <path d="M962,1654C962,1654 1017.601,1698.612 1162,1696C1306.399,1693.388 1348,1653 1348,1653L1348,1728C1348,1728 1316.94,1773 1166,1773C1015.06,1773 962,1728 962,1728L962,1654Z" style="fill:rgb(255,0,0);"/>
        <g transform="matrix(1.06044,0,0,1.277108,-72.989011,-450.277108)">
            <path d="M1204.452,1659.634C1189.621,1660.525 1174.052,1661 1158,1661C1057.551,1661 976,1642.404 976,1619.5C976,1603.069 1017.968,1588.855 1078.775,1582.134L1204.452,1659.634ZM1109.307,1579.504C1124.808,1578.524 1141.138,1578 1158,1578C1258.449,1578 1340,1596.596 1340,1619.5C1340,1636.119 1297.065,1650.47 1235.13,1657.094L1109.307,1579.504Z" style="fill:rgb(255,0,0);"/>
        </g>
        <g transform="matrix(1.035928,0,0,1.035928,-111.94012,-73.473054)">
            <path d="M1223,1210C1315.17,1210 1390,1284.83 1390,1377C1390,1469.17 1315.17,1544 1223,1544C1130.83,1544 1056,1469.17 1056,1377C1056,1284.83 1130.83,1210 1223,1210ZM1356.214,1377.483C1356.214,1369.757 1349.942,1363.486 1342.217,1363.486L1103.783,1363.486C1096.058,1363.486 1089.786,1369.757 1089.786,1377.483C1089.786,1385.208 1096.058,1391.48 1103.783,1391.48L1342.217,1391.48C1349.942,1391.48 1356.214,1385.208 1356.214,1377.483Z" style="fill:rgb(255,0,0);"/>
        </g>
    </g>
</svg>
