<?xml version="1.0" encoding="UTF-8" standalone="no"?>
<!DOCTYPE svg PUBLIC "-//W3C//DTD SVG 1.1//EN" "http://www.w3.org/Graphics/SVG/1.1/DTD/svg11.dtd">
<svg width="100%" height="100%" viewBox="0 0 618 851" version="1.1" xmlns="http://www.w3.org/2000/svg" xmlns:xlink="http://www.w3.org/1999/xlink" xml:space="preserve" xmlns:serif="http://www.serif.com/" style="fill-rule:evenodd;clip-rule:evenodd;stroke-linejoin:round;stroke-miterlimit:2;">
    <g transform="matrix(1,0,0,1,-518.82502,-742.774578)">
        <g transform="matrix(1.144583,0,0,1.144583,8.877883,814.588833)">
            <path d="M984.979,322.037L984.741,622.134L985.023,668.626C984.613,677.706 970.939,679.569 970.939,679.569L898.841,680.019L785.024,679.536C775.652,679.753 773.279,665.779 773.279,665.779L773.358,310.554L773.36,310.554L773.399,126.071C773.044,112.855 788.894,112.774 788.894,112.774L846.624,112.699L846.378,90.436C846.378,90.436 845.841,84.276 851.289,84.11C856.737,83.945 905.879,83.633 905.879,83.633C905.879,83.633 911.728,83.643 911.536,92.493C911.44,96.907 911.406,105.305 911.398,112.615L970.996,112.538C984.023,112.579 985.134,126.373 985.134,126.373L984.988,322.037L984.979,322.037ZM909.435,602.259L848.47,602.259L848.47,622.146L909.435,622.146L909.435,602.259ZM849.537,182.198L849.537,200.717L870.603,200.717L870.603,222.402L890.101,222.402L890.101,200.717L910.502,200.717L910.502,182.198L890.101,182.198L890.101,161.799L870.603,161.799L870.603,182.198L849.537,182.198Z" style="fill:rgb(226,63,60);"/>
        </g>
        <g transform="matrix(1.425507,0,0,1.425507,-583.490507,623.554579)">
            <path d="M984.979,322.037L984.741,622.134L985.023,668.626C984.613,677.706 970.939,679.569 970.939,679.569L898.841,680.019L785.024,679.536C775.652,679.753 773.279,665.779 773.279,665.779L773.358,310.554L773.36,310.554L773.399,126.071C773.044,112.855 788.894,112.774 788.894,112.774L846.624,112.699L846.378,90.436C846.378,90.436 845.841,84.276 851.289,84.11C856.737,83.945 905.879,83.633 905.879,83.633C905.879,83.633 911.728,83.643 911.536,92.493C911.44,96.907 911.406,105.305 911.398,112.615L970.996,112.538C984.023,112.579 985.134,126.373 985.134,126.373L984.988,322.037L984.979,322.037ZM849.537,182.198L849.537,200.717L870.603,200.717L870.603,222.402L890.101,222.402L890.101,200.717L910.502,200.717L910.502,182.198L890.101,182.198L890.101,161.799L870.603,161.799L870.603,182.198L849.537,182.198ZM909.435,602.259L848.47,602.259L848.47,622.146L909.435,622.146L909.435,602.259Z" style="fill:rgb(226,63,60);"/>
        </g>
    </g>
</svg>
