<?xml version="1.0" encoding="UTF-8" standalone="no"?><!DOCTYPE svg PUBLIC "-//W3C//DTD SVG 1.1//EN" "http://www.w3.org/Graphics/SVG/1.1/DTD/svg11.dtd"><svg width="100%" height="100%" viewBox="0 0 266 249" version="1.1" xmlns="http://www.w3.org/2000/svg" xmlns:xlink="http://www.w3.org/1999/xlink" xml:space="preserve" xmlns:serif="http://www.serif.com/" style="fill-rule:evenodd;clip-rule:evenodd;stroke-linejoin:round;stroke-miterlimit:2;"><g><path d="M98.085,116.143l-98.085,0l-0,-0.36c0,-49.357 25.823,-92.52 64.233,-115.783l50.963,85.525c-10.242,6.128 -17.112,17.39 -17.112,30.257c0,0.12 0.001,0.24 0.002,0.36Z"/><path d="M167.351,116.143l98.085,0l0,-0.36c0,-49.357 -25.823,-92.52 -64.233,-115.783l-50.963,85.525c10.242,6.128 17.112,17.39 17.112,30.257c0,0.12 -0.001,0.24 -0.002,0.36Z"/><path d="M150.983,145.137l47.142,86.013l-0.315,0.173c-43.283,23.722 -93.544,21.822 -132.405,-0.68l50.506,-85.796c10.296,6.036 23.475,6.648 34.758,0.464c0.105,-0.058 0.21,-0.116 0.315,-0.175Z"/><ellipse cx="132.96" cy="115.783" rx="23.45" ry="23.64"/></g></svg>