<?xml version="1.0" encoding="UTF-8" standalone="no"?>
<!DOCTYPE svg PUBLIC "-//W3C//DTD SVG 1.1//EN" "http://www.w3.org/Graphics/SVG/1.1/DTD/svg11.dtd">
<svg width="100%" height="100%" viewBox="0 0 1408 1408" version="1.1" xmlns="http://www.w3.org/2000/svg" xmlns:xlink="http://www.w3.org/1999/xlink" xml:space="preserve" xmlns:serif="http://www.serif.com/" style="fill-rule:evenodd;clip-rule:evenodd;stroke-linejoin:round;stroke-miterlimit:2;">
    <g transform="matrix(1,0,0,1,-207,-384)">
        <g transform="matrix(1,0,0,1,-141,-22)">
            <path d="M1052,406C1440.548,406 1756,721.452 1756,1110C1756,1498.548 1440.548,1814 1052,1814C663.452,1814 348,1498.548 348,1110C348,721.452 663.452,406 1052,406ZM741.36,1518.422C750.296,1513.186 753.3,1501.679 748.064,1492.743L592.722,1227.638C587.485,1218.702 575.979,1215.698 567.042,1220.935L469.771,1277.932C460.834,1283.169 457.83,1294.675 463.067,1303.612L618.409,1568.716C623.645,1577.653 635.152,1580.657 644.088,1575.42L741.36,1518.422ZM1255.47,1230.239C1255.47,1230.239 1266.286,1219.485 1284.054,1206.42C1301.821,1193.355 1320.339,1181.86 1330.501,1175.455C1340.663,1169.05 1352.386,1162.46 1363.848,1156.399C1375.311,1150.339 1382.904,1146.872 1382.904,1146.872C1382.904,1146.872 1369.372,1134.003 1344.793,1133.771C1320.214,1133.539 1322.395,1131.108 1297.154,1140.917C1271.913,1150.725 1253.375,1162.928 1242.37,1169.5C1231.365,1176.072 1218.551,1184.983 1218.551,1184.983C1218.551,1184.983 1228.657,1191.721 1236.415,1201.656C1244.173,1211.591 1255.47,1230.239 1255.47,1230.239ZM1089.214,840.088L1088.735,838.412C1088.735,838.412 1090.31,804.546 1088.735,782.437C1087.161,760.327 1068.304,699.112 1056.579,681.205C1044.854,663.297 1013.729,622.873 1000.604,612.129C987.479,601.384 961.724,576.015 957.729,571.636C953.734,567.257 942.974,559.741 938.674,559.726C934.374,559.711 930.499,559.83 927.955,562.108C925.412,564.387 922.511,568.055 922,571.636C921.49,575.217 922.224,591.136 922,602.601C921.777,614.066 923.023,655.522 925.573,671.677C928.124,687.832 938.908,723.657 941.056,731.225C943.203,738.793 953.689,766.006 967.257,781.246C980.825,796.485 1004.238,820.389 1017.278,827.693C1030.317,834.998 1043.15,844.697 1053.006,846.749C1060.692,848.348 1063.918,857.195 1069.68,861.057C1072.594,863.011 1076.954,862.443 1077.186,875.089C1077.809,908.994 1075.635,972.972 1075.635,972.972L1035.979,930.383C1033.817,915.732 1029.316,890.252 1022.041,871.759C1011.246,844.317 992.13,821.857 985.121,812.211C978.113,802.564 952.621,778.985 941.056,770.527C929.491,762.069 906.294,746.35 886.271,735.989C866.249,725.628 835.371,709.902 831.487,708.597C827.603,707.292 818.661,705.875 814.814,708.597C810.966,711.318 809.83,715.675 810.05,722.888C810.269,730.102 818.063,757.296 823.15,775.291C828.237,793.286 837.045,816.893 843.397,826.502C849.749,836.111 858.808,864.378 869.598,874.141C880.388,883.904 891.701,897.799 901.754,906.297C911.807,914.795 924.097,925.012 936.292,931.307C948.487,937.602 964.795,945.885 980.358,947.981C995.92,950.076 996.825,952.066 1012.514,952.745C1014.782,952.843 1016.941,952.912 1018.977,952.96L1075.635,1013.808L1075.635,1084.955C1000.209,1089.179 961.302,1142.108 961.302,1142.108L976.785,1152.827C976.785,1152.827 1009.062,1152.966 1023.232,1151.636C1037.403,1150.306 1099.367,1152.108 1132.801,1154.018C1166.235,1155.927 1201.877,1175.455 1201.877,1175.455L1205.45,1176.646C1205.45,1176.646 1213.007,1171.431 1219.741,1167.118C1226.476,1162.805 1232.842,1157.59 1232.842,1157.59C1232.842,1157.59 1185.778,1093.916 1103.027,1085.583L1103.027,927.269L1138.503,901.309C1144.028,902.538 1154.802,903.848 1175.676,903.915C1215.44,904.043 1287.906,879.708 1315.019,858.658C1342.131,837.608 1393.3,786.094 1400.768,776.482C1408.236,766.869 1404.452,769.541 1410.296,764.572C1416.14,759.603 1419.45,753.939 1417.442,746.708C1415.433,739.476 1416.81,738.319 1403.15,737.18C1389.49,736.041 1289.057,734.71 1260.234,747.899C1231.412,761.087 1189.817,776.377 1168.53,805.065C1149.226,831.081 1130.653,868.678 1127.361,875.456L1103.027,893.262L1103.027,874.432L1150.06,798.089C1153.092,796.266 1157.163,793.88 1162.575,790.773C1193.727,772.894 1240.092,736.278 1249.516,719.315C1254.477,710.386 1269.313,687.043 1279.577,664.184C1288.81,643.62 1293.662,623.448 1295.963,614.511C1300.822,595.639 1309.985,551.659 1311.446,543.053C1312.907,534.446 1310.212,528.706 1305.491,526.379C1300.77,524.052 1293.464,521.353 1284.054,527.57C1274.643,533.787 1255.041,538.943 1244.752,547.817C1234.462,556.69 1220.448,565.01 1216.169,569.254C1214.111,571.294 1196.949,583.32 1180.348,600.521C1162.521,618.992 1145.158,642.883 1142.329,650.24C1136.865,664.446 1117.082,696.248 1118.51,730.034C1119.708,758.415 1120.574,781.974 1120.82,788.786L1089.214,840.088ZM746.929,1462.477L810.05,1427.939C810.05,1427.939 820.247,1432.268 825.532,1433.894C833.274,1436.276 846.071,1439.877 856.497,1442.231C868.804,1445.01 885.067,1447.861 899.372,1450.568C914.061,1453.347 929.374,1457.299 944.629,1458.904C963.486,1460.889 993.061,1461.683 1012.514,1462.477C1028.781,1463.141 1045.265,1464.661 1061.343,1463.668C1077.37,1462.679 1093.311,1460.025 1108.982,1456.523C1125.854,1452.751 1145.902,1446.399 1162.575,1441.04C1178.236,1436.006 1194.029,1431.132 1209.023,1424.366C1225.299,1417.022 1244.355,1406.304 1260.234,1396.974C1275.33,1388.106 1290.405,1378.117 1304.3,1368.391C1317.764,1358.966 1330.7,1348.343 1343.602,1338.617C1356.282,1329.058 1369.009,1319.562 1381.713,1310.034C1398.386,1297.529 1423.198,1278.473 1443.643,1263.586C1463.677,1248.998 1490.686,1231.033 1504.382,1220.712C1512.017,1214.957 1522.445,1207.015 1525.819,1201.656C1528.156,1197.945 1526.409,1192.562 1524.628,1188.555C1522.246,1183.196 1516.515,1175.378 1511.528,1169.5C1505.97,1162.95 1499.42,1153.819 1491.281,1149.254C1483.143,1144.688 1472.506,1142.624 1462.698,1142.108C1451.384,1141.512 1436.032,1142.023 1423.396,1145.681C1408.311,1150.048 1388.263,1160.171 1372.185,1168.309C1356.632,1176.181 1341.597,1185.093 1326.928,1194.51C1310.85,1204.832 1289.214,1219.322 1275.717,1230.239C1264.804,1239.066 1257.215,1251.65 1245.943,1260.013C1233.636,1269.144 1217.161,1278.672 1201.877,1285.024C1186.669,1291.344 1169.919,1293.956 1154.238,1298.124C1138.791,1302.23 1123.492,1307.043 1107.791,1310.034C1086.949,1314.004 1045.265,1319.959 1029.187,1321.944C1023.277,1322.673 1015.293,1322.936 1011.323,1321.944C1008.599,1321.263 1005.368,1318.371 1005.368,1315.989C1005.368,1313.607 1008.194,1309.021 1011.323,1307.652C1014.499,1306.262 1020.076,1308.066 1024.423,1307.652C1032.76,1306.858 1049.063,1304.671 1061.343,1302.888C1073.65,1301.102 1086.046,1299.412 1098.263,1296.933C1111.959,1294.154 1128.537,1290.197 1143.52,1286.215C1159.201,1282.046 1178.653,1276.687 1192.349,1271.923C1203.772,1267.95 1217.161,1261.998 1225.696,1257.631C1232.068,1254.372 1241.576,1250.883 1243.561,1245.722C1245.546,1240.561 1241.16,1232.293 1237.606,1226.666C1232.842,1219.124 1224.145,1207.475 1214.978,1200.465C1204.854,1192.724 1190.414,1185.057 1176.867,1180.219C1162.972,1175.256 1146.86,1172.95 1131.61,1170.691C1115.532,1168.309 1097.537,1166.386 1080.399,1165.927C1058.167,1165.332 1016.484,1167.118 998.222,1167.118C989.083,1167.118 979.584,1168.553 970.83,1165.927C960.905,1162.95 950.115,1153.11 938.674,1149.254C921.008,1143.299 890.227,1131.361 864.834,1130.198C838.831,1129.007 809.103,1133.941 782.658,1142.108C755.662,1150.445 728.203,1165.162 702.863,1180.219C675.471,1196.495 618.304,1239.767 618.304,1239.767L746.929,1462.477Z" style="fill:rgb(138,227,140);"/>
        </g>
    </g>
</svg>
