<?xml version="1.0" encoding="UTF-8" standalone="no"?><!DOCTYPE svg PUBLIC "-//W3C//DTD SVG 1.1//EN" "http://www.w3.org/Graphics/SVG/1.1/DTD/svg11.dtd"><svg width="100%" height="100%" viewBox="0 0 254 190" version="1.1" xmlns="http://www.w3.org/2000/svg" xmlns:xlink="http://www.w3.org/1999/xlink" xml:space="preserve" xmlns:serif="http://www.serif.com/" style="fill-rule:evenodd;clip-rule:evenodd;stroke-linejoin:round;stroke-miterlimit:2;"><g><path d="M114.472,134.056c-0.38,-0.406 -1.141,-1.218 -1.456,-1.971c-0.371,-0.886 -0.806,-2.231 -0.77,-3.346c0.036,-1.115 0.607,-2.248 0.989,-3.346c1.192,-3.428 4.666,-13.18 6.161,-17.223c0.876,-2.367 1.911,-4.673 2.812,-7.031c1.067,-2.79 2.505,-7.082 3.588,-9.71c0.854,-2.07 1.938,-4.038 2.911,-6.055c1.265,-2.622 3.104,-6.616 4.678,-9.675c1.51,-2.934 3.312,-6.205 4.764,-8.678c1.235,-2.103 2.809,-4.399 3.951,-6.159c0.957,-1.474 1.986,-2.902 2.902,-4.402c1.116,-1.829 2.637,-4.558 3.796,-6.572c1.057,-1.835 2.176,-3.637 3.16,-5.512c0.99,-1.886 1.984,-4.296 2.778,-5.807c0.592,-1.126 1.146,-2.303 1.988,-3.256c0.971,-1.098 2.355,-2.708 3.835,-3.331c1.481,-0.623 3.375,-0.63 5.049,-0.408c1.868,0.248 4.334,1.052 6.157,1.896c1.735,0.803 3.171,2.136 4.78,3.168c2.316,1.487 6.409,3.888 9.115,5.751c2.459,1.693 4.772,3.588 7.122,5.428c2.807,2.197 6.428,5.24 9.719,7.752c3.289,2.511 7.139,5.194 10.025,7.323c2.441,1.801 4.993,3.6 7.29,5.448c2.233,1.797 4.479,3.837 6.489,5.639c1.887,1.691 3.891,3.6 5.571,5.172c1.509,1.412 2.952,2.897 4.506,4.259c1.674,1.467 3.811,3.064 5.538,4.541c1.641,1.403 3.325,3.076 4.825,4.319c1.341,1.112 3.1,2.178 4.177,3.141c0.867,0.775 1.995,1.512 2.282,2.639c0.408,1.6 0.429,4.704 0.167,6.964c-0.262,2.259 -0.85,4.581 -1.738,6.597c-0.883,2.003 -2.374,3.678 -3.593,5.497c-1.303,1.944 -2.781,4.139 -4.228,6.17c-1.45,2.036 -3.234,4.447 -4.474,6.044c-0.944,1.215 -1.965,2.37 -2.968,3.536c-1.002,1.165 -2.168,2.206 -3.05,3.459c-0.882,1.253 -1.708,2.61 -2.24,4.061c-0.604,1.649 -0.87,3.902 -1.383,5.834c-0.614,2.311 -1.534,5.391 -2.302,8.033c-0.759,2.61 -1.55,5.699 -2.307,7.822c-0.605,1.695 -1.481,3.589 -2.238,4.914c-0.63,1.102 -1.534,2.023 -2.303,3.033c-0.976,1.282 -2.476,3.239 -3.555,4.658c-0.976,1.283 -2.162,2.495 -2.92,3.857c-0.747,1.342 -0.903,2.956 -1.626,4.312c-0.767,1.438 -2.041,3.198 -2.977,4.317c-0.762,0.911 -1.502,2.043 -2.636,2.397c-1.297,0.405 -3.558,0.679 -5.148,0.035c-2.607,-1.055 -6.958,-4.308 -10.493,-6.368c-3.645,-2.124 -7.969,-4.522 -11.378,-6.374c-2.999,-1.629 -6.294,-3.089 -9.076,-4.738c-2.638,-1.564 -5.057,-3.472 -7.619,-5.157c-3.079,-2.025 -7.813,-5.12 -10.855,-6.992c-2.421,-1.49 -5.064,-2.621 -7.399,-4.243c-2.396,-1.665 -4.517,-4.009 -6.978,-5.75c-3.141,-2.223 -8.871,-5.594 -11.871,-7.589c-2.091,-1.39 -4.782,-3.383 -6.128,-4.38l-5.419,-3.942Zm3.615,-1.234c-0.36,-0.384 -1.081,-1.153 -1.379,-1.867c-0.351,-0.839 -0.763,-2.113 -0.729,-3.17c0.035,-1.057 0.575,-2.129 0.936,-3.17c1.129,-3.247 4.419,-12.484 5.836,-16.313c0.83,-2.242 1.81,-4.426 2.664,-6.659c1.01,-2.643 2.373,-6.708 3.399,-9.197c0.808,-1.961 1.835,-3.825 2.757,-5.735c1.198,-2.483 2.94,-6.266 4.43,-9.164c1.43,-2.779 3.137,-5.877 4.513,-8.22c1.17,-1.992 2.661,-4.167 3.742,-5.834c0.906,-1.396 1.881,-2.748 2.748,-4.169c1.057,-1.732 2.498,-4.317 3.596,-6.225c1.001,-1.739 2.061,-3.445 2.993,-5.221c0.937,-1.787 1.879,-4.069 2.631,-5.5c0.561,-1.066 1.085,-2.182 1.883,-3.084c0.919,-1.04 2.23,-2.565 3.633,-3.155c1.403,-0.59 3.197,-0.597 4.782,-0.386c1.769,0.235 4.105,0.996 5.831,1.796c1.643,0.761 3.004,2.023 4.527,3.001c2.193,1.408 6.07,3.683 8.633,5.448c2.329,1.603 4.52,3.399 6.746,5.141c2.659,2.081 6.089,4.963 9.205,7.343c3.115,2.379 6.762,4.92 9.495,6.936c2.312,1.705 4.729,3.41 6.904,5.16c2.115,1.702 4.243,3.634 6.147,5.341c1.787,1.602 3.686,3.41 5.276,4.899c1.429,1.338 2.796,2.744 4.268,4.034c1.586,1.389 3.61,2.902 5.246,4.301c1.554,1.329 3.149,2.913 4.57,4.091c1.27,1.053 2.936,2.063 3.956,2.975c0.821,0.735 1.89,1.432 2.162,2.499c0.387,1.516 0.406,4.456 0.158,6.596c-0.248,2.14 -0.805,4.339 -1.647,6.249c-0.836,1.897 -2.249,3.484 -3.403,5.206c-1.235,1.842 -2.634,3.921 -4.004,5.844c-1.374,1.928 -3.063,4.212 -4.237,5.725c-0.894,1.151 -1.861,2.245 -2.811,3.349c-0.95,1.104 -2.054,2.089 -2.889,3.277c-0.835,1.187 -1.618,2.472 -2.121,3.847c-0.572,1.562 -0.824,3.696 -1.31,5.526c-0.582,2.189 -1.453,5.106 -2.18,7.609c-0.719,2.472 -1.468,5.398 -2.185,7.409c-0.573,1.605 -1.403,3.4 -2.12,4.654c-0.597,1.044 -1.453,1.916 -2.182,2.872c-0.925,1.214 -2.345,3.068 -3.367,4.412c-0.924,1.216 -2.048,2.364 -2.765,3.653c-0.707,1.271 -0.855,2.8 -1.54,4.084c-0.727,1.362 -1.933,3.029 -2.819,4.089c-0.721,0.863 -1.423,1.935 -2.496,2.271c-1.229,0.384 -3.37,0.643 -4.876,0.033c-2.469,-1 -6.59,-4.081 -9.939,-6.031c-3.453,-2.011 -7.548,-4.283 -10.777,-6.038c-2.84,-1.543 -5.961,-2.926 -8.597,-4.488c-2.499,-1.481 -4.79,-3.288 -7.217,-4.885c-2.916,-1.918 -7.4,-4.849 -10.282,-6.623c-2.293,-1.412 -4.797,-2.482 -7.008,-4.019c-2.269,-1.577 -4.279,-3.797 -6.609,-5.446c-2.975,-2.106 -8.402,-5.299 -11.244,-7.188c-1.98,-1.317 -4.53,-3.205 -5.804,-4.148l-5.133,-3.734Z" style="fill:#e23f3c;"/><path d="M120.997,131.83c-0.344,-0.367 -1.032,-1.101 -1.317,-1.783c-0.336,-0.802 -0.729,-2.018 -0.696,-3.027c0.033,-1.009 0.549,-2.033 0.894,-3.027c1.078,-3.101 4.221,-11.923 5.574,-15.58c0.792,-2.142 1.729,-4.227 2.544,-6.36c0.965,-2.524 2.266,-6.407 3.246,-8.784c0.772,-1.873 1.753,-3.653 2.633,-5.478c1.144,-2.372 2.808,-5.985 4.232,-8.752c1.366,-2.655 2.996,-5.613 4.31,-7.851c1.118,-1.903 2.541,-3.98 3.574,-5.572c0.865,-1.334 1.797,-2.625 2.625,-3.982c1.01,-1.655 2.385,-4.123 3.434,-5.945c0.956,-1.66 1.968,-3.29 2.858,-4.987c0.895,-1.707 1.794,-3.886 2.513,-5.253c0.535,-1.018 1.037,-2.084 1.798,-2.946c0.878,-0.993 2.13,-2.45 3.47,-3.014c1.34,-0.564 3.053,-0.57 4.568,-0.369c1.69,0.224 3.921,0.952 5.57,1.715c1.569,0.727 2.869,1.932 4.324,2.866c2.095,1.345 5.797,3.517 8.246,5.203c2.224,1.531 4.317,3.246 6.443,4.911c2.539,1.987 5.815,4.74 8.792,7.013c2.975,2.272 6.459,4.699 9.069,6.625c2.208,1.629 4.517,3.257 6.594,4.928c2.02,1.625 4.052,3.471 5.871,5.101c1.707,1.53 3.52,3.257 5.04,4.679c1.365,1.278 2.67,2.621 4.076,3.853c1.514,1.327 3.448,2.772 5.01,4.108c1.484,1.269 3.008,2.783 4.365,3.907c1.213,1.006 2.805,1.97 3.778,2.842c0.784,0.702 1.805,1.368 2.065,2.387c0.369,1.448 0.388,4.255 0.151,6.3c-0.237,2.044 -0.769,4.145 -1.573,5.968c-0.799,1.812 -2.148,3.328 -3.25,4.972c-1.179,1.759 -2.516,3.745 -3.824,5.581c-1.312,1.841 -2.925,4.023 -4.047,5.468c-0.854,1.099 -1.777,2.144 -2.685,3.199c-0.907,1.054 -1.961,1.996 -2.759,3.13c-0.797,1.134 -1.545,2.361 -2.026,3.674c-0.546,1.492 -0.787,3.53 -1.251,5.278c-0.556,2.091 -1.388,4.877 -2.083,7.267c-0.687,2.361 -1.402,5.156 -2.087,7.076c-0.547,1.533 -1.34,3.247 -2.024,4.445c-0.57,0.997 -1.388,1.83 -2.084,2.743c-0.883,1.16 -2.24,2.93 -3.216,4.214c-0.883,1.161 -1.956,2.257 -2.641,3.489c-0.676,1.214 -0.817,2.674 -1.471,3.9c-0.694,1.301 -1.847,2.893 -2.693,3.905c-0.689,0.824 -1.359,1.848 -2.384,2.169c-1.174,0.367 -3.218,0.614 -4.657,0.031c-2.358,-0.955 -6.294,-3.897 -9.492,-5.76c-3.298,-1.921 -7.209,-4.091 -10.293,-5.767c-2.713,-1.474 -5.693,-2.795 -8.211,-4.286c-2.387,-1.415 -4.575,-3.141 -6.893,-4.665c-2.785,-1.832 -7.068,-4.632 -9.82,-6.326c-2.19,-1.348 -4.581,-2.371 -6.693,-3.839c-2.168,-1.507 -4.087,-3.626 -6.312,-5.201c-2.842,-2.011 -8.025,-5.061 -10.739,-6.865c-1.891,-1.258 -4.326,-3.061 -5.544,-3.962l-4.902,-3.566Zm3.691,-1.005c-0.323,-0.355 -0.968,-1.064 -1.236,-1.723c-0.315,-0.775 -0.684,-1.95 -0.653,-2.925c0.031,-0.975 0.515,-1.965 0.839,-2.925c1.011,-2.996 3.959,-11.521 5.229,-15.054c0.743,-2.069 1.622,-4.085 2.387,-6.145c0.905,-2.439 2.126,-6.191 3.045,-8.487c0.724,-1.81 1.645,-3.53 2.47,-5.293c1.073,-2.292 2.634,-5.783 3.97,-8.456c1.281,-2.565 2.811,-5.424 4.043,-7.585c1.048,-1.838 2.384,-3.845 3.353,-5.384c0.812,-1.289 1.685,-2.536 2.462,-3.847c0.947,-1.599 2.238,-3.984 3.222,-5.745c0.897,-1.604 1.846,-3.179 2.681,-4.818c0.84,-1.649 1.683,-3.755 2.357,-5.075c0.502,-0.984 0.972,-2.013 1.687,-2.846c0.824,-0.96 1.998,-2.367 3.255,-2.912c1.257,-0.545 2.864,-0.551 4.285,-0.357c1.585,0.217 3.678,0.92 5.225,1.657c1.472,0.702 2.691,1.867 4.056,2.769c1.965,1.299 5.438,3.399 7.735,5.027c2.086,1.48 4.049,3.137 6.044,4.745c2.382,1.92 5.455,4.58 8.248,6.776c2.791,2.195 6.059,4.54 8.508,6.401c2.072,1.574 4.237,3.147 6.186,4.762c1.895,1.57 3.801,3.354 5.507,4.929c1.601,1.478 3.302,3.147 4.728,4.521c1.281,1.235 2.505,2.532 3.824,3.723c1.421,1.282 3.234,2.678 4.7,3.969c1.392,1.226 2.821,2.688 4.095,3.775c1.138,0.972 2.631,1.904 3.545,2.746c0.735,0.678 1.693,1.321 1.937,2.306c0.346,1.399 0.364,4.112 0.142,6.087c-0.222,1.975 -0.721,4.005 -1.475,5.766c-0.749,1.751 -2.015,3.215 -3.049,4.804c-1.106,1.7 -2.36,3.618 -3.588,5.393c-1.231,1.779 -2.744,3.887 -3.797,5.283c-0.801,1.062 -1.667,2.072 -2.518,3.091c-0.851,1.019 -1.84,1.928 -2.588,3.024c-0.748,1.096 -1.45,2.281 -1.901,3.55c-0.512,1.442 -0.738,3.411 -1.174,5.099c-0.521,2.02 -1.302,4.712 -1.954,7.022c-0.644,2.282 -1.315,4.982 -1.958,6.837c-0.513,1.482 -1.257,3.137 -1.899,4.295c-0.534,0.963 -1.302,1.768 -1.955,2.651c-0.829,1.12 -2.101,2.831 -3.017,4.071c-0.828,1.122 -1.835,2.181 -2.478,3.371c-0.634,1.173 -0.766,2.584 -1.38,3.769c-0.651,1.257 -1.732,2.795 -2.526,3.773c-0.646,0.796 -1.275,1.786 -2.237,2.095c-1.101,0.354 -3.019,0.593 -4.369,0.03c-2.212,-0.923 -5.905,-3.766 -8.905,-5.566c-3.093,-1.856 -6.763,-3.953 -9.656,-5.572c-2.545,-1.424 -5.341,-2.7 -7.702,-4.142c-2.239,-1.367 -4.291,-3.035 -6.466,-4.508c-2.613,-1.77 -6.63,-4.475 -9.212,-6.112c-2.055,-1.303 -4.298,-2.291 -6.279,-3.709c-2.033,-1.456 -3.834,-3.504 -5.921,-5.026c-2.666,-1.943 -7.528,-4.89 -10.074,-6.633c-1.774,-1.215 -4.058,-2.957 -5.2,-3.828l-4.599,-3.446Z" style="fill:#e23f3c;"/><path d="M181.442,112.606c-0.782,0.835 -2.194,2.652 -3.24,4.018c-1.26,1.647 -2.922,3.969 -4.321,5.862c-1.356,1.834 -2.796,3.935 -4.074,5.496c-1.115,1.362 -2.664,3.022 -3.593,3.869c-0.572,0.521 -1.239,1.056 -1.98,1.212c-0.741,0.156 -1.88,0.156 -2.466,-0.273c-0.586,-0.43 -1.147,-1.466 -1.052,-2.305c0.102,-0.897 0.893,-2.203 1.664,-3.079c1.324,-1.505 4.358,-4.232 6.278,-5.951c1.694,-1.517 3.89,-3.2 5.243,-4.366c0.985,-0.848 2.177,-1.715 2.878,-2.63c0.639,-0.833 1.367,-2.231 1.326,-2.856c-0.039,-0.6 -0.967,-0.931 -1.567,-0.895c-1.116,0.066 -3.494,0.626 -5.127,1.29c-2.234,0.91 -5.921,3.001 -8.276,4.167c-1.942,0.962 -4.207,2.334 -5.855,2.829c-1.288,0.387 -3.132,0.469 -4.033,0.143c-0.787,-0.285 -1.353,-1.3 -1.376,-2.099c-0.023,-0.8 0.443,-2.109 1.237,-2.699c1.171,-0.869 3.788,-1.859 5.786,-2.514c2.941,-0.964 9.03,-2.4 11.858,-3.27c1.742,-0.536 3.84,-1.322 5.109,-1.947c0.922,-0.454 2.201,-1.221 2.503,-1.802c0.28,-0.537 -0.104,-1.53 -0.69,-1.681c-1.276,-0.328 -4.644,-0.336 -6.968,-0.289c-2.967,0.06 -7.932,0.559 -10.834,0.647c-2.191,0.066 -5.016,0.185 -6.574,-0.121c-1.067,-0.21 -2.274,-0.944 -2.777,-1.714c-0.503,-0.77 -0.594,-2.217 -0.241,-2.908c0.353,-0.69 1.474,-1.181 2.36,-1.235c1.739,-0.106 5.545,0.321 8.071,0.598c2.375,0.26 5.477,1.071 7.088,1.064c0.934,-0.004 2.107,-0.612 2.577,-1.102c0.428,-0.446 0.629,-1.397 0.242,-1.839c-0.387,-0.442 -1.955,-0.392 -2.564,-0.814c-0.558,-0.386 -1.148,-1.043 -1.09,-1.719c0.071,-0.822 0.788,-2.647 1.516,-3.214c0.728,-0.567 1.995,-0.608 2.851,-0.19c1.267,0.619 3.33,2.701 4.751,3.902c1.278,1.08 2.754,2.713 3.778,3.307c0.687,0.398 1.863,0.433 2.368,0.256c0.465,-0.163 0.829,-0.855 0.665,-1.319c-0.249,-0.704 -1.346,-2.012 -2.158,-2.903c-1.58,-1.734 -5.609,-5.711 -7.32,-7.502c-1.009,-1.056 -2.501,-2.155 -2.948,-3.242c-0.417,-1.015 -0.241,-2.561 0.269,-3.28c0.509,-0.719 1.839,-1.321 2.786,-1.032c1.028,0.314 2.57,1.67 3.384,2.918c1.05,1.609 2.074,5.171 2.917,6.735c0.539,0.999 1.415,2.144 2.141,2.648c0.614,0.427 1.773,0.778 2.212,0.381c0.439,-0.397 0.643,-1.859 0.422,-2.764c-0.373,-1.524 -2.151,-4.637 -2.657,-6.378c-0.38,-1.307 -0.539,-3.101 -0.38,-4.067c0.118,-0.719 0.647,-1.485 1.332,-1.733c0.753,-0.273 2.248,-0.229 3.187,0.097c0.939,0.326 2.237,0.856 2.447,1.859c0.287,1.368 -0.642,4.629 -0.727,6.35c-0.065,1.326 -0.328,3.141 0.217,3.976c0.545,0.835 2.466,1.397 3.054,1.036c0.588,-0.361 0.069,-2.379 0.473,-3.201c0.384,-0.78 1.162,-1.562 1.953,-1.728c0.79,-0.166 2.298,-0.015 2.79,0.73c0.492,0.745 0.191,2.597 0.162,3.739c-0.027,1.044 -0.757,2.272 -0.337,3.113c0.42,0.842 1.72,1.813 2.854,1.936c1.135,0.123 2.715,-0.598 3.955,-1.198c1.399,-0.677 3.053,-2.424 4.441,-2.866c1.236,-0.394 2.705,-0.25 3.886,0.213c1.182,0.464 2.652,1.492 3.203,2.569c0.552,1.076 0.67,2.861 0.107,3.889c-0.563,1.028 -2.181,1.909 -3.486,2.281c-1.305,0.372 -2.927,0.009 -4.344,-0.047c-1.39,-0.055 -3.173,-0.465 -4.162,-0.288c-0.731,0.131 -1.472,0.773 -1.772,1.352c-0.299,0.579 -0.484,1.586 -0.023,2.122c0.483,0.562 1.926,0.886 2.92,1.25c1.089,0.399 2.812,0.809 3.612,1.146c0.454,0.191 0.982,0.43 1.189,0.878c0.228,0.494 0.383,1.417 0.18,2.084c-0.21,0.69 -0.839,1.609 -1.442,2.058c-0.603,0.449 -1.423,0.671 -2.178,0.636c-0.797,-0.038 -1.902,-0.51 -2.603,-0.862c-0.606,-0.304 -1.752,-1.865 -1.605,-1.251c0.147,0.614 1.937,3.459 2.487,4.937c0.467,1.255 0.839,2.963 0.817,3.933c-0.016,0.704 -0.471,1.482 -0.95,1.886c-0.479,0.404 -1.293,0.752 -1.923,0.537c-0.642,-0.219 -1.483,-1.081 -1.932,-1.852c-0.551,-0.945 -0.947,-2.745 -1.373,-3.819c-0.354,-0.893 -0.771,-2.008 -1.182,-2.629c-0.31,-0.47 -0.844,-1.038 -1.28,-1.1c-0.436,-0.063 -1.192,0.239 -1.335,0.725c-0.152,0.517 0.109,1.634 0.422,2.375c0.336,0.796 1.188,1.61 1.596,2.4c0.381,0.737 0.911,1.535 0.852,2.34c-0.06,0.804 -0.571,1.954 -1.211,2.487c-0.64,0.533 -1.798,0.673 -2.63,0.712c-0.803,0.037 -1.848,-0.142 -2.363,-0.482c-0.479,-0.316 -0.503,-1.032 -0.729,-1.559c-0.235,-0.547 -0.299,-1.309 -0.678,-1.724c-0.379,-0.415 -1.11,-0.718 -1.598,-0.763c-0.472,-0.043 -0.991,0.166 -1.333,0.493c-0.362,0.346 -0.733,0.994 -0.837,1.582c-0.193,1.095 -0.247,3.56 -0.324,4.989c-0.064,1.194 0.062,2.715 -0.134,3.584c-0.142,0.629 -0.51,1.269 -1.045,1.629c-0.554,0.372 -1.562,0.736 -2.28,0.606c-0.718,-0.13 -1.723,-0.627 -2.03,-1.387c-0.339,-0.84 -0.293,-2.471 -0.004,-3.654c0.315,-1.285 1.205,-2.73 1.892,-4.054c0.797,-1.536 2.298,-3.863 2.888,-5.164c0.375,-0.826 0.669,-2.002 0.652,-2.641c-0.012,-0.469 -0.356,-1.046 -0.753,-1.19c-0.397,-0.144 -1.121,0.107 -1.631,0.325c-0.514,0.22 -1.052,0.566 -1.453,0.995Z" style="fill:#e23f3c;"/></g><g><path d="M29.911,18.807l-18.391,17.762l1.876,1.942l18.391,-17.762l-1.876,-1.942Z" style="fill:#e23f3c;"/><path d="M20.558,7.283c-0.58,-0.613 -1.549,-0.64 -2.162,-0.06l-17.918,16.955c-0.613,0.58 -0.64,1.549 -0.06,2.162l7.418,7.839c0.58,0.613 1.549,0.64 2.162,0.06l17.918,-16.955c0.613,-0.58 0.64,-1.549 0.06,-2.162l-7.418,-7.839Z" style="fill:#e23f3c;"/><path d="M10.784,52.614c0,0 -0.686,-3.437 2.29,-7.323c2.976,-3.887 23.402,-22.896 23.402,-22.896c0,0 7.55,-7.979 9.103,-10.97c1.553,-2.991 4.049,-5.817 5.216,-6.862c1.167,-1.045 3.001,-2.464 4.762,-3.291c1.761,-0.827 4.442,-1.27 4.442,-1.27l66.611,0c0,0 6.391,0.321 10.799,5.243c4.408,4.922 5.174,9.439 5.174,9.439l0,153.026c0,0 0.465,4.636 -4.507,10.128c-4.971,5.492 -9.507,5.855 -9.507,5.855l-102.338,0c0,0 -5.134,-0.341 -8.885,-4.206c-3.751,-3.865 -6.167,-10.952 -6.24,-11.013c-0.073,-0.061 -0.322,-115.858 -0.322,-115.858Zm66.084,-8.275c0,0 -22.906,29.657 -22.906,42.367c0,12.642 10.264,22.906 22.906,22.906c12.642,0 22.906,-10.264 22.906,-22.906c0,-12.71 -22.906,-42.367 -22.906,-42.367Zm-18.28,-35.359c-0.01,0.033 -5.993,8.217 -5.993,8.217c0,0 -1.654,1.629 -0.461,3.05c1.193,1.422 1.79,1.202 1.79,1.202l56.229,0c0,0 0.862,0.167 1.678,-0.885c0.816,-1.052 7.144,-9.646 7.144,-9.646c0,0 0.699,-1.279 0.248,-2.287c-0.451,-1.008 -1.957,-1.577 -1.957,-1.577l-56.461,0c0,0 -0.832,0.197 -1.294,0.759c-0.462,0.562 -0.914,1.135 -0.924,1.168Z" style="fill:#e23f3c;"/></g></svg>