<?xml version="1.0" encoding="UTF-8" standalone="no"?><!DOCTYPE svg PUBLIC "-//W3C//DTD SVG 1.1//EN" "http://www.w3.org/Graphics/SVG/1.1/DTD/svg11.dtd"><svg width="100%" height="100%" viewBox="0 0 224 230" version="1.1" xmlns="http://www.w3.org/2000/svg" xmlns:xlink="http://www.w3.org/1999/xlink" xml:space="preserve" xmlns:serif="http://www.serif.com/" style="fill-rule:evenodd;clip-rule:evenodd;stroke-linejoin:round;stroke-miterlimit:2;"><g><path d="M111.84,53.791c0,0 50.16,46.461 50.16,78.48c0,27.684 -22.476,50.16 -50.16,50.16c-27.684,0 -50.16,-22.476 -50.16,-50.16c0,-32.019 50.16,-78.48 50.16,-78.48Zm41.82,76.567c-2.299,-27.793 -41.82,-66.007 -41.82,-66.007c0,0 -31.248,30.215 -39.79,56.45c4.364,-2.39 11.167,-5.382 17.47,-5.09c10.364,0.48 23.402,10.261 27.36,12.48c3.958,2.219 11.636,6.782 20.16,6c6.16,-0.565 13.193,-2.695 16.62,-3.833Z" style="fill:#00c0f7;"/><path d="M25.583,189.607l-7.779,4.581l0.35,-26.945l23.734,12.76l-7.905,4.655c19.272,22.574 47.525,35.676 77.376,35.676c31.693,0 61.485,-14.761 80.687,-39.763c0.906,-1.179 4.293,-2.594 6.915,-0.542c2.556,2.001 1.842,4.916 0.927,6.115c-21.009,27.537 -53.721,43.805 -88.529,43.805c-33.239,0 -64.667,-14.843 -85.777,-40.343Z" style="fill:#00c0f7;"/><path d="M207.471,151.98c3.729,-10.733 5.635,-22.019 5.635,-33.389c0,-50.075 -37.567,-92.897 -86.482,-100.887c-1.719,-0.281 -4.183,-1.546 -3.441,-5.286c0.77,-3.879 4.17,-4.049 5.981,-3.757c53.646,8.655 93.557,55.049 93.557,109.93c0,13.015 -2.282,25.93 -6.741,38.156l8.004,4.484l-23.454,13.269l-0.93,-26.931l7.872,4.411Z" style="fill:#00c0f7;"/><path d="M94.802,18.201c-48.982,8.06 -85.187,50.45 -85.187,100.39c0,13.219 2.576,26.297 7.568,38.507c0.563,1.376 0.393,4.808 -2.1,5.884c-4.111,1.775 -6.262,-0.922 -6.912,-2.522c-5.39,-13.284 -8.171,-27.5 -8.171,-41.869c0,-55.188 40.397,-101.952 94.797,-110.122l-0.004,-8.469l23.046,13.965l-23.034,13.986l-0.005,-9.75Z" style="fill:#00c0f7;"/></g></svg>