<?xml version="1.0" encoding="UTF-8" standalone="no"?><!DOCTYPE svg PUBLIC "-//W3C//DTD SVG 1.1//EN" "http://www.w3.org/Graphics/SVG/1.1/DTD/svg11.dtd"><svg width="100%" height="100%" viewBox="0 0 65 36" version="1.1" xmlns="http://www.w3.org/2000/svg" xmlns:xlink="http://www.w3.org/1999/xlink" xml:space="preserve" xmlns:serif="http://www.serif.com/" style="fill-rule:evenodd;clip-rule:evenodd;stroke-linejoin:round;stroke-miterlimit:2;"><g><path d="M18.06,23.585c0,0 -2.553,0.296 -3.938,0.921c-1.385,0.625 -3.206,1.515 -3.466,1.878c-0.259,0.363 -0.712,1.595 0.155,2.225c0.867,0.63 1.951,2.132 7.056,2.795c5.106,0.663 7.533,1.199 10.507,1.223c2.974,0.024 12.501,0.189 13.96,0.076c1.46,-0.113 8.452,-0.852 11.081,-1.755c2.628,-0.903 5.024,-2.366 5.058,-3.093c0.035,-0.727 -0.154,-1.384 -0.83,-1.785c-0.676,-0.4 -1.684,-1.755 -5.349,-2.382c-3.665,-0.627 -5.265,-0.679 -5.265,-0.679l0.288,-1.424c0,0 4.709,-0.014 8.406,0.91c3.697,0.923 5.221,1.521 6.221,2.044c1,0.523 2.366,1.374 2.697,2.07c0.331,0.696 0.422,1.627 -0.853,2.544c-1.275,0.918 -4.392,3.038 -10.145,3.701c-5.753,0.663 -8.273,1.191 -11.549,1.323c-3.276,0.133 -16.205,-0.11 -20.825,-0.655c-4.619,-0.545 -10.817,-1.976 -12.287,-2.37c-1.47,-0.394 -3.533,-1.356 -4.434,-2.196c-0.902,-0.84 -0.88,-2.002 -0.218,-2.687c0.662,-0.685 2.976,-2.215 4.982,-2.826c2.006,-0.611 5.232,-1.436 6.734,-1.587c1.501,-0.151 2.348,-0.155 2.348,-0.155c0,0 0.717,0.327 0.711,0.656c-0.006,0.329 0.015,0.869 -0.299,1.06c-0.314,0.19 -0.748,0.168 -0.748,0.168Z" style="fill:#00c0f7;"/><circle cx="20.386" cy="12.368" r="1.659" style="fill:#00c0f7;"/><circle cx="10.018" cy="9.38" r="3.651" style="fill:#00c0f7;"/><circle cx="47.682" cy="9.829" r="1.659" style="fill:#00c0f7;"/><circle cx="29.93" cy="3.651" r="3.651" style="fill:#00c0f7;"/><circle cx="57.986" cy="6.515" r="2.864" style="fill:#00c0f7;"/><path d="M14.857,14.507c0,0 -0.868,-0.577 -1.407,0.121c-0.539,0.698 -0.483,1.055 -0.283,1.341c0.2,0.286 1.117,0.998 1.612,1.555c0.495,0.557 1.398,1.353 2.201,2.34c0.803,0.987 1.394,1.831 1.384,2.517c-0.01,0.686 0.396,2.307 -0.223,2.947c-0.618,0.64 -1.731,1.098 -1.81,1.488c-0.079,0.39 0.615,0.571 0.615,0.571c0,0 3.692,1.401 6.361,1.528c2.669,0.127 7.744,0.498 9.761,0.419c2.017,-0.079 8.843,-0.448 11.101,-0.852c2.258,-0.404 4.064,-0.945 4.485,-1.201c0.421,-0.256 0.207,-1.302 0.008,-1.669c-0.199,-0.367 -1.144,-1.647 -1.305,-2.21c-0.161,-0.563 -0.267,-2.544 0.021,-3.362c0.288,-0.818 3.1,-4.435 3.885,-4.888c0.785,-0.453 2.74,-2.369 3.051,-2.899c0.311,-0.53 0.324,-1.434 -0.586,-1.495c-0.911,-0.061 -2.018,-0.01 -4.942,3.37c-2.924,3.38 -4.303,5.428 -5.948,5.888c-1.645,0.46 -6.262,1.103 -8.483,-3.176c-2.221,-4.279 -2.567,-5.332 -3.121,-6.089c-0.554,-0.756 -2.768,-1.203 -2.928,1.756c-0.16,2.959 0.145,5.56 -0.503,6.285c-0.647,0.725 -2.511,2.342 -4.439,-0.351c-1.927,-2.693 -1.897,-1.74 -2.439,-1.68c-0.542,0.06 -1.884,0.895 -2.762,0.212c-0.878,-0.683 -3.306,-2.465 -3.306,-2.465Z" style="fill:#00c0f7;"/><path d="M53.696,25.328c0,0 1.741,0.989 1.367,1.592c-0.374,0.603 -0.408,2.256 -5.622,3.11c-5.213,0.853 -13.356,1.396 -15.087,1.432c-1.731,0.036 -10.629,0.037 -10.629,0.037c0,0 5.505,0.6 7.886,0.646c2.381,0.046 11.062,-0.183 13.346,-0.476c2.284,-0.292 9.108,-1.462 10.573,-2.324c1.465,-0.862 1.481,-1.389 1.516,-1.758c0.035,-0.369 -0.593,-1.177 -1.024,-1.5c-0.431,-0.322 -2.326,-0.759 -2.326,-0.759Z" style="fill:#00c0f7;"/><path d="M3.853,25.612c0,0 -1.827,1.847 -1.363,2.644c0.464,0.797 1.801,2.688 4.798,3.571c2.997,0.883 7.204,2.23 9.004,2.384c1.8,0.154 15.676,0.955 17.085,0.925c1.409,-0.03 4.707,-0.044 4.707,-0.044c0,0 -9.803,0.255 -12.415,0.521c-2.612,0.266 -12.158,-0.815 -14.991,-1.402c-2.833,-0.587 -6.724,-1.606 -8.188,-2.393c-1.463,-0.787 -2.259,-1.507 -2.421,-2.211c-0.162,-0.704 -0.137,-1.417 1.136,-2.487c1.272,-1.07 2.031,-1.508 2.031,-1.508l0.811,-0.284l-0.194,0.284Z" style="fill:#00c0f7;"/></g></svg>