<?xml version="1.0" encoding="UTF-8" standalone="no"?><!DOCTYPE svg PUBLIC "-//W3C//DTD SVG 1.1//EN" "http://www.w3.org/Graphics/SVG/1.1/DTD/svg11.dtd"><svg width="100%" height="100%" viewBox="0 0 338 338" version="1.1" xmlns="http://www.w3.org/2000/svg" xmlns:xlink="http://www.w3.org/1999/xlink" xml:space="preserve" xmlns:serif="http://www.serif.com/" style="fill-rule:evenodd;clip-rule:evenodd;stroke-linejoin:round;stroke-miterlimit:2;"><path d="M168.96,0c93.252,0 168.96,75.708 168.96,168.96c0,93.252 -75.708,168.96 -168.96,168.96c-93.252,0 -168.96,-75.708 -168.96,-168.96c0,-93.252 75.708,-168.96 168.96,-168.96Zm-45.88,102.672l-92.188,0c-4.525,0 -8.199,3.915 -8.199,8.737l0,122.7c0,4.822 3.674,8.737 8.199,8.737l62.714,0l0,15.893c0,0 -0.007,1.386 -0.791,2.763c-0.784,1.377 -2.026,1.604 -2.026,1.604l-21.152,0c0,0 -1.565,0.131 -2.139,0.112c-0.574,-0.017 -0.802,0.949 -0.802,0.949l-3.538,7.793c0,0 -1.079,1.603 -0.546,2.071c0.533,0.468 1.663,0.225 1.663,0.225l112.977,0c0,0 1.13,0.243 1.663,-0.225c0.531,-0.468 -0.548,-2.071 -0.548,-2.071l-3.536,-7.793c0,0 -0.23,-0.967 -0.802,-0.949c-0.574,0.019 -2.14,-0.112 -2.14,-0.112l-21.152,0c0,0 -1.24,-0.227 -2.024,-1.604c-0.784,-1.377 -0.791,-2.763 -0.791,-2.763l0,-15.893l62.714,0c4.525,0 8.199,-3.915 8.199,-8.737l0,-122.7c0,-4.822 -3.674,-8.737 -8.199,-8.737l-85.556,0l-0,-14.524c0,-0.109 -0.018,-0.217 -0.053,-0.321c0,0 -0.94,-3.231 3.814,-7.655c0.628,-0.584 1.974,-1.013 3.82,-1.412c3.089,-0.668 7.486,-1.12 12.525,-1.421c19.796,-1.184 49.418,-0.02 49.418,-0.02c0.013,0.001 0.026,0.001 0.039,0.001l56.595,-0c2.498,0 8.955,0.732 12.105,3.739c3.267,3.119 3.13,8.524 3.13,11.043l-0,36.532c0,0.063 0.006,0.125 0.017,0.185c-2.564,0.975 -4.512,5.696 -4.512,11.367c0,6.376 2.462,11.552 5.494,11.552c3.035,0 5.497,-5.176 5.497,-11.552c0,-5.672 -1.948,-10.393 -4.514,-11.368c0.011,-0.06 0.017,-0.121 0.017,-0.184l0,-36.532c0,-2.861 -0.037,-8.946 -3.749,-12.489c-3.519,-3.359 -10.695,-4.292 -13.486,-4.292l-56.576,0c-0.871,-0.034 -30.019,-1.148 -49.596,0.023c-6.04,0.361 -11.179,0.946 -14.337,1.834c-1.534,0.431 -2.639,0.962 -3.251,1.531c-5.229,4.865 -4.619,8.73 -4.399,9.584l-0,14.38Zm-91.829,129.272l0,-118.937l179.024,0l0,118.937l-179.024,0Zm109.444,17.357c0,2.11 -1.606,3.822 -3.586,3.822l-32.691,0c-1.98,0 -3.587,-1.713 -3.587,-3.822c0,-2.108 1.607,-3.821 3.587,-3.821l32.691,0c1.98,0 3.586,1.713 3.586,3.821Zm129.271,-82.503l0,20.417c0,1.206 -0.959,2.184 -2.14,2.184c-1.181,0 -2.14,-0.979 -2.14,-2.184l0,-20.492c-5.267,-1.104 -9.23,-5.864 -9.23,-11.562l0,-28.292c0,-1.616 0.317,-3.158 0.895,-4.562c-16.185,4.651 -28.064,19.84 -28.064,37.838l0,29.316c0,21.693 17.255,39.305 38.509,39.305c21.251,0 38.506,-17.612 38.506,-39.305l0,-29.316c0,-17.808 -11.628,-32.866 -27.553,-37.689c0.537,1.365 0.836,2.854 0.836,4.412l0,28.292c0,5.835 -4.162,10.689 -9.618,11.637Z" style="fill:#952ebe;"/></svg>