<?xml version="1.0" encoding="UTF-8" standalone="no"?><!DOCTYPE svg PUBLIC "-//W3C//DTD SVG 1.1//EN" "http://www.w3.org/Graphics/SVG/1.1/DTD/svg11.dtd"><svg width="100%" height="100%" viewBox="0 0 144 245" version="1.1" xmlns="http://www.w3.org/2000/svg" xmlns:xlink="http://www.w3.org/1999/xlink" xml:space="preserve" xmlns:serif="http://www.serif.com/" style="fill-rule:evenodd;clip-rule:evenodd;stroke-linejoin:round;stroke-miterlimit:2;"><g><path d="M18.96,173.285l0,-114.147c0,-32.639 26.499,-59.138 59.138,-59.138c32.639,0 59.138,26.499 59.138,59.138l0,22.867l-19.429,0l0,-23.766c0,-22.015 -17.874,-39.889 -39.889,-39.889c-22.015,0 -39.889,17.874 -39.889,39.889l0,115.047l17.059,0c3.421,0 6.198,2.777 6.198,6.198l0,64.546l-61.286,0l0,-64.546c0,-3.421 2.777,-6.198 6.198,-6.198l12.763,0Z" style="fill:#fff;"/><path d="M143.102,84.172c0,-1.394 -1.132,-2.527 -2.527,-2.527l-26.486,0c-1.394,0 -2.527,1.132 -2.527,2.527l0,13.206c0,1.394 1.132,2.527 2.527,2.527l26.486,0c1.394,0 2.527,-1.132 2.527,-2.527l0,-13.206Z" style="fill:#fff;"/></g></svg>