<?xml version="1.0" encoding="UTF-8" standalone="no"?>
<!DOCTYPE svg PUBLIC "-//W3C//DTD SVG 1.1//EN" "http://www.w3.org/Graphics/SVG/1.1/DTD/svg11.dtd">
<svg width="100%" height="100%" viewBox="0 0 967 1184" version="1.1" xmlns="http://www.w3.org/2000/svg" xmlns:xlink="http://www.w3.org/1999/xlink" xml:space="preserve" xmlns:serif="http://www.serif.com/" style="fill-rule:evenodd;clip-rule:evenodd;stroke-linejoin:round;stroke-miterlimit:2;">
    <g transform="matrix(1,0,0,1,-465.3779,-549.639706)">
        <g transform="matrix(1.499042,0,0,1.499042,-508.067005,-780.969712)">
            <path d="M874,1390C870.328,1387.101 874.333,1380.5 875,1376C875.652,1371.601 876.989,1367.331 878,1363C879.167,1358 881.22,1351.769 882,1346C882.833,1339.833 884.833,1330.5 883,1326C881.253,1321.711 875.485,1320.153 871,1319C865.167,1317.5 855.681,1317.48 848,1317C840,1316.5 831.167,1316.667 823,1316C814.964,1315.344 805.5,1314.833 799,1313C793.546,1311.462 788,1309 784,1305C780,1301 776.167,1294.333 775,1289C773.851,1283.749 775.661,1278.205 777,1273C778.5,1267.167 782.617,1260.606 784,1254C785.5,1246.833 787.637,1237.859 786,1230C784.333,1222 777.87,1214.063 774,1206C770,1197.667 765.453,1188.899 762,1180C757.667,1168.833 750.449,1153.232 748,1139C745.333,1123.5 745.667,1103.667 746,1087C746.321,1070.948 746.833,1053.167 750,1039C752.903,1026.012 759.048,1013.903 765,1002C771,990 777.667,977.333 786,967C794.291,956.719 804.686,948.251 815,940C825.833,931.333 837.933,921.534 851,915C866.667,907.167 888.687,896.862 909,893C932.667,888.5 968.667,886.833 993,888C1014.026,889.008 1035.208,892.831 1055,900C1076.167,907.667 1101.833,921.333 1120,934C1136.632,945.597 1153.333,962.667 1164,976C1172.942,987.177 1179.715,1000.342 1184,1014C1189.333,1031 1194.5,1056.833 1196,1078C1197.486,1098.971 1195.333,1124.167 1193,1141C1191.189,1154.062 1187.104,1166.841 1182,1179C1176.333,1192.5 1162.833,1210.833 1159,1222C1156.403,1229.567 1157.706,1238.105 1159,1246C1160.667,1256.167 1168.5,1273.167 1169,1283C1169.391,1290.686 1168.105,1300.315 1162,1305C1154.833,1310.5 1138.381,1313.959 1126,1316C1110.833,1318.5 1081.833,1317.333 1071,1320C1065.944,1321.245 1061.506,1326.818 1061,1332C1060.333,1338.833 1065.5,1352.333 1067,1361C1068.319,1368.618 1074.707,1377.866 1070,1384C1064.5,1391.167 1047.063,1399.782 1034,1404C1018,1409.167 994.167,1414.667 974,1415C953.833,1415.333 929.667,1410.167 913,1406C899.368,1402.592 880.333,1395 874,1390ZM1083.461,1151.793C1049.202,1137.161 1012.48,1146.133 1001.51,1171.818C990.54,1197.503 1009.448,1230.236 1043.708,1244.869C1077.967,1259.502 1114.689,1250.529 1125.659,1224.844C1136.629,1199.159 1117.721,1166.426 1083.461,1151.793ZM968.5,1244C960.32,1244.454 959.459,1254.531 959.459,1254.531L941.608,1288.741C941.608,1288.741 932.638,1309.29 933,1312C933.362,1314.71 948.777,1313 948.777,1313L993.714,1315C993.714,1315 1004.058,1317.094 1006,1312C1008.16,1306.332 1000.067,1295.268 1000.067,1295.268L978.815,1253.995C978.815,1253.995 976.882,1243.535 968.5,1244ZM858.708,1153.793C824.448,1168.426 805.54,1201.159 816.51,1226.844C827.48,1252.529 864.202,1261.502 898.461,1246.869C932.721,1232.236 951.629,1199.503 940.659,1173.818C929.689,1148.133 892.967,1139.161 858.708,1153.793Z"/>
            <g transform="matrix(0.962561,-0.367563,0.30582,0.800872,-460.775859,647.751321)">
                <path d="M789.924,1528L1209.415,1528C1214.007,1521.356 1219.244,1514.738 1222.636,1510.408C1227.011,1504.825 1232.133,1500.02 1237.589,1496.044C1243.898,1491.448 1253.525,1485.669 1260.488,1482.829C1266.53,1480.365 1273.44,1478.577 1279.364,1479.006C1285.185,1479.428 1291.008,1482.685 1296.03,1485.407C1300.831,1488.008 1305.809,1491.143 1309.499,1495.334C1313.188,1499.525 1316.337,1505.964 1318.169,1510.551C1319.684,1514.343 1319.963,1519.074 1320.493,1522.856C1320.974,1526.285 1321.904,1529.824 1321.35,1533.238C1320.628,1537.693 1318.182,1545.935 1316.157,1549.584C1314.613,1552.367 1311.7,1553.661 1309.2,1555.132C1306.219,1556.885 1300.345,1557.935 1298.27,1560.104C1296.544,1561.909 1296.208,1565.478 1296.753,1568.149C1297.363,1571.134 1300.529,1574.511 1301.929,1578.016C1303.762,1582.603 1306.182,1590.789 1307.748,1595.67C1308.985,1599.527 1311.364,1603.365 1311.325,1607.301C1311.286,1611.237 1309.635,1615.852 1307.517,1619.288C1305.016,1623.343 1300.254,1629.066 1296.323,1631.632C1292.616,1634.051 1287.258,1634.547 1283.925,1634.682C1281.319,1634.788 1278.795,1633.452 1276.326,1632.443C1272.188,1630.752 1264.25,1627.942 1259.099,1624.537C1254.076,1621.217 1249.759,1616.512 1245.416,1612.014C1240.726,1607.156 1234.404,1599.26 1230.959,1595.39C1228.94,1593.121 1227.116,1590.498 1224.744,1588.791C1224.317,1588.484 1223.861,1588.226 1223.386,1588L793.471,1588C792.718,1589.543 792.029,1590.968 791.474,1592.22C789.775,1596.058 787.822,1599.729 785.853,1603.375C783.33,1608.044 780.645,1615.839 776.34,1620.236C771.982,1624.687 765.825,1629.353 759.706,1630.083C753.587,1630.812 745.196,1627.794 739.627,1624.613C734.359,1621.605 729.541,1616.03 726.29,1611.001C723.203,1606.224 721.425,1599.611 720.125,1594.436C718.954,1589.772 718.757,1584.028 718.494,1579.953C718.28,1576.64 718.549,1572.694 718.544,1569.986C718.539,1567.892 719.856,1564.961 718.461,1563.705C716.577,1562.008 710.874,1561.472 707.235,1559.802C703.155,1557.929 698.255,1555.259 693.981,1552.47C689.678,1549.663 684.958,1547.08 681.419,1542.959C677.88,1538.837 674.163,1532.553 672.748,1527.742C671.487,1523.451 672.155,1518.545 672.93,1514.09C673.768,1509.272 675.311,1503.399 677.777,1498.834C680.3,1494.164 684.737,1488.917 688.065,1486.074C690.867,1483.679 694.427,1482.878 697.742,1481.775C701.421,1480.55 705.927,1478.452 710.139,1478.724C714.889,1479.031 721.017,1481.423 726.245,1483.619C731.592,1485.865 736.951,1489.191 742.219,1492.199C747.788,1495.379 754.039,1498.773 759.66,1502.701C766.603,1507.552 777.489,1515.254 783.877,1521.307C785.872,1523.198 787.953,1525.562 789.924,1528Z"/>
            </g>
            <g transform="matrix(-0.962561,-0.367563,-0.30582,0.800872,2403.963374,647.751321)">
                <path d="M789.924,1528L1209.415,1528C1214.007,1521.356 1219.244,1514.738 1222.636,1510.408C1227.011,1504.825 1232.133,1500.02 1237.589,1496.044C1243.898,1491.448 1253.525,1485.669 1260.488,1482.829C1266.53,1480.365 1273.44,1478.577 1279.364,1479.006C1285.185,1479.428 1291.008,1482.685 1296.03,1485.407C1300.831,1488.008 1305.809,1491.143 1309.499,1495.334C1313.188,1499.525 1316.337,1505.964 1318.169,1510.551C1319.684,1514.343 1319.963,1519.074 1320.493,1522.856C1320.974,1526.285 1321.904,1529.824 1321.35,1533.238C1320.628,1537.693 1318.182,1545.935 1316.157,1549.584C1314.613,1552.367 1311.7,1553.661 1309.2,1555.132C1306.219,1556.885 1300.345,1557.935 1298.27,1560.104C1296.544,1561.909 1296.208,1565.478 1296.753,1568.149C1297.363,1571.134 1300.529,1574.511 1301.929,1578.016C1303.762,1582.603 1306.182,1590.789 1307.748,1595.67C1308.985,1599.527 1311.364,1603.365 1311.325,1607.301C1311.286,1611.237 1309.635,1615.852 1307.517,1619.288C1305.016,1623.343 1300.254,1629.066 1296.323,1631.632C1292.616,1634.051 1287.258,1634.547 1283.925,1634.682C1281.319,1634.788 1278.795,1633.452 1276.326,1632.443C1272.188,1630.752 1264.25,1627.942 1259.099,1624.537C1254.076,1621.217 1249.759,1616.512 1245.416,1612.014C1240.726,1607.156 1234.404,1599.26 1230.959,1595.39C1228.94,1593.121 1227.116,1590.498 1224.744,1588.791C1224.317,1588.484 1223.861,1588.226 1223.386,1588L793.471,1588C792.718,1589.543 792.029,1590.968 791.474,1592.22C789.775,1596.058 787.822,1599.729 785.853,1603.375C783.33,1608.044 780.645,1615.839 776.34,1620.236C771.982,1624.687 765.825,1629.353 759.706,1630.083C753.587,1630.812 745.196,1627.794 739.627,1624.613C734.359,1621.605 729.541,1616.03 726.29,1611.001C723.203,1606.224 721.425,1599.611 720.125,1594.436C718.954,1589.772 718.757,1584.028 718.494,1579.953C718.28,1576.64 718.549,1572.694 718.544,1569.986C718.539,1567.892 719.856,1564.961 718.461,1563.705C716.577,1562.008 710.874,1561.472 707.235,1559.802C703.155,1557.929 698.255,1555.259 693.981,1552.47C689.678,1549.663 684.958,1547.08 681.419,1542.959C677.88,1538.837 674.163,1532.553 672.748,1527.742C671.487,1523.451 672.155,1518.545 672.93,1514.09C673.768,1509.272 675.311,1503.399 677.777,1498.834C680.3,1494.164 684.737,1488.917 688.065,1486.074C690.867,1483.679 694.427,1482.878 697.742,1481.775C701.421,1480.55 705.927,1478.452 710.139,1478.724C714.889,1479.031 721.017,1481.423 726.245,1483.619C731.592,1485.865 736.951,1489.191 742.219,1492.199C747.788,1495.379 754.039,1498.773 759.66,1502.701C766.603,1507.552 777.489,1515.254 783.877,1521.307C785.872,1523.198 787.953,1525.562 789.924,1528Z"/>
            </g>
        </g>
    </g>
</svg>
