<?xml version="1.0" encoding="UTF-8" standalone="no"?>
<!DOCTYPE svg PUBLIC "-//W3C//DTD SVG 1.1//EN" "http://www.w3.org/Graphics/SVG/1.1/DTD/svg11.dtd">
<svg width="100%" height="100%" viewBox="0 0 1048 640" version="1.1" xmlns="http://www.w3.org/2000/svg" xmlns:xlink="http://www.w3.org/1999/xlink" xml:space="preserve" xmlns:serif="http://www.serif.com/" style="fill-rule:evenodd;clip-rule:evenodd;stroke-linejoin:round;stroke-miterlimit:2;">
    <g transform="matrix(1,0,0,1,-669.692159,-620.86588)">
        <g>
            <path d="M1370.266,1175.871L1073.53,1175.871C1071.146,1116.087 1021.859,1068.282 961.494,1068.282C901.13,1068.282 851.843,1116.087 849.459,1175.871L669.692,1175.871L669.692,1062.253L724.091,1062.253L815.674,708.317L1093.865,708.317L1093.865,1055.367L1606.177,1055.367L1606.177,1175.871L1590.202,1175.871C1587.819,1117.228 1539.458,1070.348 1480.234,1070.348C1421.01,1070.348 1372.649,1117.228 1370.266,1175.871ZM1011.922,753.779L853.03,754.33L808.96,957.052L1011.922,957.052L1011.922,753.779Z" style="fill:rgb(228,89,111);"/>
            <path d="M1011.922,620.866L1174.43,621.554L1174.43,735.172L1649.558,735.172L1709.744,807.281C1711.703,809.629 1716.434,814.911 1716.712,820.726C1717.04,827.58 1712.577,835.067 1710.383,837.804L1566.927,1016.806L1125.54,1016.806L1125.54,664.936L1011.922,662.87L1011.922,620.866ZM1429.028,783.662C1429.028,773.779 1421.005,765.755 1411.122,765.755L1397.513,765.755C1387.63,765.755 1379.607,773.779 1379.607,783.662L1379.607,940.261C1379.607,950.144 1387.63,958.168 1397.513,958.168L1411.122,958.168C1421.005,958.168 1429.028,950.144 1429.028,940.261L1429.028,783.662ZM1240.157,783.662C1240.157,773.779 1232.134,765.755 1222.251,765.755L1208.642,765.755C1198.759,765.755 1190.736,773.779 1190.736,783.662L1190.736,940.261C1190.736,950.144 1198.759,958.168 1208.642,958.168L1222.251,958.168C1232.134,958.168 1240.157,950.144 1240.157,940.261L1240.157,783.662ZM1523.857,783.662C1523.857,773.779 1515.834,765.755 1505.951,765.755L1492.342,765.755C1482.459,765.755 1474.436,773.779 1474.436,783.662L1474.436,940.261C1474.436,950.144 1482.459,958.168 1492.342,958.168L1505.951,958.168C1515.834,958.168 1523.857,950.144 1523.857,940.261L1523.857,783.662ZM1334.199,783.662C1334.199,773.779 1326.176,765.755 1316.293,765.755L1302.684,765.755C1292.801,765.755 1284.778,773.779 1284.778,783.662L1284.778,940.261C1284.778,950.144 1292.801,958.168 1302.684,958.168L1316.293,958.168C1326.176,958.168 1334.199,950.144 1334.199,940.261L1334.199,783.662Z" style="fill:rgb(228,89,111);"/>
            <g transform="matrix(1,0,0,1,-26.166492,-16.067144)">
                <path d="M987.661,1116.484C1031.809,1116.484 1067.652,1152.327 1067.652,1196.475C1067.652,1240.624 1031.809,1276.467 987.661,1276.467C943.512,1276.467 907.67,1240.624 907.67,1196.475C907.67,1152.327 943.512,1116.484 987.661,1116.484ZM987.661,1166.98C971.382,1166.98 958.166,1180.197 958.166,1196.475C958.166,1212.754 971.382,1225.97 987.661,1225.97C1003.939,1225.97 1017.156,1212.754 1017.156,1196.475C1017.156,1180.197 1003.939,1166.98 987.661,1166.98Z" style="fill:rgb(228,89,111);"/>
            </g>
            <g transform="matrix(1,0,0,1,492.572743,-16.067144)">
                <path d="M987.661,1116.484C1031.809,1116.484 1067.652,1152.327 1067.652,1196.475C1067.652,1240.624 1031.809,1276.467 987.661,1276.467C943.512,1276.467 907.67,1240.624 907.67,1196.475C907.67,1152.327 943.512,1116.484 987.661,1116.484ZM987.661,1168.358C972.142,1168.358 959.543,1180.957 959.543,1196.475C959.543,1211.994 972.142,1224.593 987.661,1224.593C1003.179,1224.593 1015.778,1211.994 1015.778,1196.475C1015.778,1180.957 1003.179,1168.358 987.661,1168.358Z" style="fill:rgb(228,89,111);"/>
            </g>
        </g>
    </g>
</svg>
