<?xml version="1.0" encoding="UTF-8" standalone="no"?>
<!DOCTYPE svg PUBLIC "-//W3C//DTD SVG 1.1//EN" "http://www.w3.org/Graphics/SVG/1.1/DTD/svg11.dtd">
<svg width="100%" height="100%" viewBox="0 0 915 526" version="1.1" xmlns="http://www.w3.org/2000/svg" xmlns:xlink="http://www.w3.org/1999/xlink" xml:space="preserve" xmlns:serif="http://www.serif.com/" style="fill-rule:evenodd;clip-rule:evenodd;stroke-linejoin:round;stroke-miterlimit:2;">
    <g transform="matrix(1,0,0,1,-359,-1037)">
        <g transform="matrix(1.026667,0,0,1.026667,-57.933333,-68.373333)">
            <path d="M568.931,1478.498C570.925,1473.423 573.036,1468.346 574.61,1465.299C578.672,1457.44 586.318,1449.811 591.169,1444.844C596.019,1439.877 603.655,1435.038 613.571,1430.234C623.488,1425.43 634.026,1425.364 634.026,1425.364L789.87,1425.364C808.437,1429.736 820.141,1441.171 828.831,1451.662C837.521,1462.154 844.305,1483.98 844.416,1483.805C844.526,1483.631 851.234,1484.779 851.234,1484.779L854.156,1484.779C854.156,1484.779 841.894,1454.398 829.805,1437.052C817.716,1419.706 785.974,1412.701 785.974,1412.701L635.974,1412.701C635.974,1412.701 619.307,1414.956 610.649,1418.545C601.992,1422.135 595.67,1426.263 590.195,1431.208C584.72,1436.153 577.176,1446.416 571.688,1453.61C566.201,1460.805 560.065,1476.982 559.026,1480.883C557.987,1484.784 556.327,1493.118 555.13,1495.494C553.932,1497.869 549.286,1497.442 549.286,1497.442C549.286,1497.442 527.522,1497.989 524.935,1497.442C522.349,1496.894 524.935,1493.545 524.935,1493.545L586.299,1384.455L822.013,1384.455L822.013,1368.87L574.61,1368.87L504.481,1497.442C504.481,1497.442 504.095,1499.418 498.636,1501.338C493.178,1503.258 424.61,1501.338 424.61,1501.338C424.61,1501.338 423.338,1500.959 421.688,1500.364C420.039,1499.769 419.74,1498.416 419.74,1498.416L419.74,1473.091C419.74,1473.091 418.51,1472.255 420.714,1470.169C422.919,1468.083 422.662,1470.169 422.662,1470.169L469.416,1470.169L469.416,1461.403L406.104,1329.909L406.104,1259.779C406.104,1259.779 431.588,1209.006 437.273,1197.442C442.958,1185.877 468.732,1142.549 474.286,1133.156C479.84,1123.763 492.98,1108.938 499.61,1100.039C506.241,1091.14 519.091,1087.377 519.091,1087.377C519.091,1087.377 536.95,1084.392 563.896,1080.558C590.842,1076.725 606.753,1076.662 606.753,1076.662L908.701,1076.662C908.701,1076.662 921.092,1084.938 929.156,1092.247C937.22,1099.555 935.562,1099.277 945.714,1109.779C955.866,1120.282 967.143,1140.948 967.143,1140.948L967.143,1429.26L994.416,1429.26L994.416,1166.273C994.416,1166.273 995.498,1160.199 997.338,1157.506C999.177,1154.814 1000.205,1152.995 1006.104,1147.766C1012.003,1142.537 1022.662,1126.338 1022.662,1126.338L1128.831,1126.338C1128.831,1126.338 1141.164,1131.428 1148.312,1137.052C1155.46,1142.676 1159.026,1148.74 1159.026,1148.74L1178.506,1148.74C1178.506,1148.74 1182.587,1149.934 1185.325,1150.688C1188.063,1151.443 1192.122,1154.665 1194.091,1156.532C1196.06,1158.4 1204.234,1168.926 1205.779,1172.117C1207.324,1175.308 1206.978,1176.071 1206.753,1178.935C1206.529,1181.799 1204.805,1182.831 1204.805,1182.831L1238.896,1291.922C1238.896,1291.922 1266.201,1310.121 1273.961,1318.221C1281.721,1326.321 1279.805,1335.753 1279.805,1335.753L1280.779,1358.156C1280.779,1358.156 1283.884,1357.835 1287.597,1360.104C1291.311,1362.373 1289.545,1366.922 1289.545,1366.922C1289.545,1366.922 1291.127,1402.692 1286.623,1413.675C1285.276,1416.96 1282.727,1418.545 1282.727,1418.545L1282.727,1438.026L1290.519,1438.026C1290.519,1438.026 1292.069,1438.782 1294.416,1440.948C1296.763,1443.114 1297.338,1446.792 1297.338,1446.792L1297.338,1483.805C1297.338,1483.805 1296.081,1489.006 1293.442,1492.571C1290.802,1496.137 1283.701,1498.416 1283.701,1498.416L1274.935,1498.416C1274.935,1498.416 1268.097,1504.047 1265.195,1505.234C1262.293,1506.421 1258.675,1508.218 1252.532,1509.13C1246.39,1510.042 1242.481,1509.271 1239.87,1509.13C1237.259,1508.989 1238.121,1509.26 1235,1507.182C1231.879,1505.104 1230.13,1497.442 1230.13,1497.442L1204.714,1497.442C1205.916,1502.769 1206.551,1508.311 1206.551,1514C1206.551,1555.394 1172.945,1589 1131.551,1589C1090.157,1589 1056.551,1555.394 1056.551,1514C1056.551,1512.868 1056.576,1511.741 1056.626,1510.621L1042.143,1511.078L998.312,1511.078C998.312,1511.078 996.081,1511.561 993.442,1511.078C990.803,1510.595 992.468,1508.156 992.468,1508.156L992.468,1498.416L970.065,1498.416L970.065,1503.286C970.065,1503.286 970.376,1504.236 968.117,1507.182C965.857,1510.128 950.584,1510.104 950.584,1510.104L857.143,1510.104L857.112,1509.986L850.26,1509.13L850.088,1508.884C850.202,1510.575 850.26,1512.281 850.26,1514C850.26,1555.394 816.653,1589 775.26,1589C743.24,1589 715.879,1568.891 705.13,1540.623C694.38,1568.891 667.02,1589 635,1589C593.606,1589 560,1555.394 560,1514C560,1501.16 563.234,1489.069 568.931,1478.498ZM635,1474.946C613.445,1474.946 595.946,1492.445 595.946,1514C595.946,1535.555 613.445,1553.054 635,1553.054C656.555,1553.054 674.054,1535.555 674.054,1514C674.054,1492.445 656.555,1474.946 635,1474.946ZM635,1493.681C646.214,1493.681 655.319,1502.786 655.319,1514C655.319,1525.214 646.214,1534.319 635,1534.319C623.786,1534.319 614.681,1525.214 614.681,1514C614.681,1502.786 623.786,1493.681 635,1493.681ZM600.81,1232.328L590.225,1232.328L590.225,1271.362L600.81,1271.362C603.231,1271.362 605.515,1270.851 607.663,1269.828C609.81,1268.805 611.677,1267.413 613.262,1265.652C614.847,1263.89 616.1,1261.826 617.021,1259.459C617.941,1257.091 618.401,1254.563 618.401,1251.873C618.401,1249.184 617.941,1246.646 617.021,1244.26C616.1,1241.873 614.847,1239.8 613.262,1238.038C611.677,1236.277 609.81,1234.885 607.663,1233.862C605.515,1232.839 603.231,1232.328 600.81,1232.328ZM607.56,1259.373C606.674,1260.396 605.651,1261.135 604.492,1261.589C603.333,1262.044 602.106,1262.271 600.81,1262.271L598.663,1262.271L598.663,1241.419L600.81,1241.419C602.106,1241.419 603.333,1241.656 604.492,1242.129C605.651,1242.603 606.674,1243.332 607.56,1244.317C608.481,1245.339 609.112,1246.523 609.453,1247.868C609.793,1249.212 609.964,1250.604 609.964,1252.044C609.964,1253.483 609.793,1254.818 609.453,1256.05C609.112,1257.281 608.481,1258.389 607.56,1259.373ZM944.703,1213.57L929.617,1213.57L929.617,1183.627L921.18,1183.627L921.18,1222.661L944.703,1222.661L944.703,1213.57ZM509.583,1213.57L494.498,1213.57L494.498,1208.683L508.203,1208.683L508.203,1199.593L494.498,1199.593L494.498,1192.718L509.174,1192.718L509.174,1183.627L486.06,1183.627L486.06,1222.661L509.583,1222.661L509.583,1213.57ZM605.566,1205.843C606.657,1204.593 607.501,1203.172 608.097,1201.581C608.694,1199.99 608.992,1198.324 608.992,1196.581C608.992,1192.983 607.833,1189.896 605.515,1187.32C604.458,1186.146 603.256,1185.255 601.91,1184.649C600.563,1184.043 599.14,1183.702 597.64,1183.627L581.685,1183.627L581.685,1222.661L590.123,1222.661L590.123,1209.536L592.987,1209.536L599.072,1222.718L608.583,1222.718L601.987,1208.456C602.668,1208.153 603.299,1207.784 603.879,1207.348C604.458,1206.913 605.021,1206.411 605.566,1205.843ZM590.123,1200.445L590.123,1192.718L597.231,1192.718C598.151,1192.718 598.935,1193.106 599.583,1193.882C600.231,1194.659 600.555,1195.558 600.555,1196.581C600.555,1197.604 600.231,1198.504 599.583,1199.28C598.935,1200.057 598.151,1200.445 597.231,1200.445L590.123,1200.445ZM548.958,1222.661L548.958,1183.627L539.856,1183.627L530.549,1202.604L521.191,1183.627L512.14,1183.627L512.14,1222.661L520.578,1222.661L520.578,1202.831L530.549,1223.115L540.521,1202.831L540.521,1222.661L548.958,1222.661ZM635.072,1213.57L619.987,1213.57L619.987,1208.683L633.691,1208.683L633.691,1199.593L619.987,1199.593L619.987,1192.718L634.663,1192.718L634.663,1183.627L611.549,1183.627L611.549,1222.661L635.072,1222.661L635.072,1213.57ZM775.26,1474.946C753.705,1474.946 736.205,1492.445 736.205,1514C736.205,1535.555 753.705,1553.054 775.26,1553.054C796.814,1553.054 814.314,1535.555 814.314,1514C814.314,1492.445 796.814,1474.946 775.26,1474.946ZM775.26,1493.681C786.474,1493.681 795.579,1502.786 795.579,1514C795.579,1525.214 786.474,1534.319 775.26,1534.319C764.045,1534.319 754.941,1525.214 754.941,1514C754.941,1502.786 764.045,1493.681 775.26,1493.681ZM1131.551,1474.946C1109.996,1474.946 1092.497,1492.445 1092.497,1514C1092.497,1535.555 1109.996,1553.054 1131.551,1553.054C1153.106,1553.054 1170.606,1535.555 1170.606,1514C1170.606,1492.445 1153.106,1474.946 1131.551,1474.946ZM1131.551,1493.681C1142.765,1493.681 1151.87,1502.786 1151.87,1514C1151.87,1525.214 1142.765,1534.319 1131.551,1534.319C1120.337,1534.319 1111.232,1525.214 1111.232,1514C1111.232,1502.786 1120.337,1493.681 1131.551,1493.681ZM724.97,1260.282L721.083,1267.782C721.799,1268.351 722.617,1268.881 723.538,1269.373C724.458,1269.866 725.413,1270.292 726.401,1270.652C727.39,1271.012 728.396,1271.296 729.418,1271.504C730.441,1271.712 731.43,1271.817 732.384,1271.817C734.089,1271.817 735.7,1271.504 737.217,1270.879C738.734,1270.254 740.055,1269.373 741.18,1268.237C742.305,1267.101 743.2,1265.756 743.864,1264.203C744.529,1262.65 744.862,1260.926 744.862,1259.032C744.862,1258.426 744.819,1257.678 744.734,1256.788C744.649,1255.898 744.427,1254.979 744.069,1254.032C743.711,1253.085 743.166,1252.176 742.433,1251.305C741.7,1250.434 740.668,1249.695 739.339,1249.089L734.276,1246.817C733.322,1246.4 732.512,1245.926 731.847,1245.396C731.183,1244.866 730.85,1244.127 730.85,1243.18C730.85,1242.764 730.944,1242.385 731.131,1242.044C731.319,1241.703 731.558,1241.419 731.847,1241.192C732.137,1240.964 732.453,1240.784 732.793,1240.652C733.134,1240.519 733.458,1240.453 733.765,1240.453C734.958,1240.453 736.1,1240.718 737.191,1241.248C738.282,1241.779 739.271,1242.366 740.157,1243.01L744.043,1235.51C742.578,1234.373 740.984,1233.483 739.262,1232.839C737.541,1232.195 735.708,1231.873 733.765,1231.873C732.333,1231.873 730.953,1232.139 729.623,1232.669C728.293,1233.199 727.117,1233.976 726.095,1234.998C725.072,1236.021 724.254,1237.281 723.64,1238.777C723.026,1240.273 722.72,1241.987 722.72,1243.919C722.72,1246.495 723.163,1248.644 724.049,1250.368C724.935,1252.091 726.265,1253.351 728.038,1254.146L733.049,1256.419C734.276,1256.987 735.137,1257.536 735.631,1258.067C736.126,1258.597 736.373,1259.335 736.373,1260.282C736.373,1260.737 736.245,1261.125 735.989,1261.447C735.734,1261.769 735.41,1262.034 735.018,1262.243C734.626,1262.451 734.191,1262.593 733.714,1262.669C733.237,1262.745 732.793,1262.782 732.384,1262.782C731.737,1262.782 731.038,1262.688 730.288,1262.498C729.538,1262.309 728.822,1262.082 728.14,1261.817C727.458,1261.551 726.828,1261.277 726.248,1260.993C725.668,1260.709 725.242,1260.472 724.97,1260.282ZM710.498,1268.919L711.674,1271.362L721.134,1271.362L703.237,1232.328L685.339,1271.362L694.237,1271.362L695.362,1268.919L710.498,1268.919ZM706.356,1259.828L699.555,1259.828L702.93,1250.567L706.356,1259.828ZM686.771,1220.218L687.947,1222.661L697.407,1222.661L679.509,1183.627L661.612,1222.661L670.509,1222.661L671.634,1220.218L686.771,1220.218ZM682.629,1211.127L675.828,1211.127L679.203,1201.865L682.629,1211.127ZM1051.883,1191.597L1051.883,1280.234C1051.883,1280.234 1052.435,1284.092 1054.805,1286.078C1057.176,1288.064 1059.675,1289.974 1059.675,1289.974L1176.558,1292.896C1176.558,1292.896 1182.516,1290.947 1184.351,1288.026C1186.185,1285.105 1186.299,1280.234 1186.299,1280.234L1164.87,1192.571C1164.87,1192.571 1163.336,1188.988 1160,1186.727C1156.664,1184.467 1153.182,1182.831 1153.182,1182.831L1058.701,1182.831C1058.701,1182.831 1057.951,1182.283 1054.805,1185.753C1051.66,1189.223 1051.883,1191.597 1051.883,1191.597ZM841.97,1214.024C840.674,1214.024 839.43,1213.75 838.237,1213.2C837.043,1212.651 835.97,1211.865 835.015,1210.843C834.095,1209.82 833.43,1208.646 833.021,1207.32C832.612,1205.994 832.407,1204.611 832.407,1203.172C832.407,1201.733 832.612,1200.341 833.021,1198.996C833.43,1197.651 834.095,1196.468 835.015,1195.445C835.97,1194.422 837.043,1193.636 838.237,1193.087C839.43,1192.538 840.674,1192.263 841.97,1192.263C843.163,1192.263 844.305,1192.433 845.396,1192.774C846.487,1193.115 847.475,1193.608 848.362,1194.252L852.248,1186.752C850.782,1185.615 849.188,1184.735 847.467,1184.11C845.745,1183.485 843.913,1183.172 841.97,1183.172C839.481,1183.172 837.146,1183.693 834.964,1184.735C832.782,1185.776 830.873,1187.206 829.237,1189.024C827.6,1190.843 826.313,1192.964 825.376,1195.388C824.438,1197.812 823.97,1200.407 823.97,1203.172C823.97,1205.937 824.438,1208.532 825.376,1210.956C826.313,1213.38 827.6,1215.492 829.237,1217.291C830.873,1219.091 832.782,1220.511 834.964,1221.553C837.146,1222.594 839.481,1223.115 841.97,1223.115C843.913,1223.115 845.745,1222.803 847.467,1222.178C849.188,1221.553 850.782,1220.672 852.248,1219.536L848.362,1212.036C846.282,1213.361 844.151,1214.024 841.97,1214.024ZM1201.883,1182.831L1188.247,1182.831C1188.247,1182.831 1186.058,1183.528 1186.299,1184.779C1186.539,1186.03 1187.273,1188.675 1187.273,1188.675L1210.649,1286.078C1210.649,1286.078 1210.928,1287.991 1212.597,1289C1214.267,1290.009 1216.494,1290.948 1216.494,1290.948L1233.052,1290.948L1201.883,1182.831ZM776.464,1183.627L768.026,1183.627L768.026,1207.831C768.026,1208.702 767.89,1209.507 767.617,1210.246C767.345,1210.985 766.961,1211.629 766.467,1212.178C765.972,1212.727 765.393,1213.163 764.728,1213.485C764.063,1213.807 763.356,1213.968 762.606,1213.968C761.822,1213.968 761.106,1213.807 760.458,1213.485C759.81,1213.163 759.239,1212.727 758.745,1212.178C758.251,1211.629 757.867,1210.985 757.595,1210.246C757.322,1209.507 757.185,1208.702 757.185,1207.831L757.185,1183.627L748.748,1183.627L748.748,1207.831C748.748,1209.877 749.123,1211.827 749.873,1213.683C750.623,1215.54 751.646,1217.187 752.941,1218.627C754.237,1220.066 755.711,1221.165 757.364,1221.922C759.018,1222.68 760.765,1223.058 762.606,1223.058C764.447,1223.058 766.203,1222.67 767.873,1221.894C769.543,1221.117 771.026,1220.009 772.322,1218.57C773.617,1217.13 774.631,1215.492 775.364,1213.655C776.097,1211.818 776.464,1209.877 776.464,1207.831L776.464,1183.627ZM644.328,1262.271L629.242,1262.271L629.242,1257.385L642.947,1257.385L642.947,1248.294L629.242,1248.294L629.242,1241.419L643.918,1241.419L643.918,1232.328L620.805,1232.328L620.805,1271.362L644.328,1271.362L644.328,1262.271ZM810.214,1222.661L810.214,1183.627L801.776,1183.627L801.776,1206.524L788.685,1183.627L779.43,1183.627L779.43,1222.661L787.867,1222.661L787.867,1199.706L801.009,1222.661L810.214,1222.661ZM579.231,1197.718C579.06,1193.21 578.012,1189.735 576.086,1187.291C574.16,1184.848 571.424,1183.627 567.879,1183.627L551.924,1183.627L551.924,1222.661L560.362,1222.661L560.362,1211.808L567.725,1211.808C569.021,1211.808 570.35,1211.515 571.714,1210.928C573.078,1210.341 574.313,1209.45 575.421,1208.257C576.529,1207.064 577.441,1205.596 578.157,1203.854C578.873,1202.111 579.231,1200.066 579.231,1197.718ZM566.958,1202.718L560.362,1202.718L560.362,1192.718L566.958,1192.718C567.674,1192.718 568.279,1192.879 568.774,1193.2C569.268,1193.522 569.66,1193.939 569.95,1194.45C570.239,1194.962 570.453,1195.511 570.589,1196.098C570.725,1196.685 570.793,1197.225 570.793,1197.718C570.793,1198.248 570.725,1198.797 570.589,1199.365C570.453,1199.933 570.239,1200.473 569.95,1200.985C569.66,1201.496 569.268,1201.913 568.774,1202.235C568.279,1202.557 567.674,1202.718 566.958,1202.718ZM821.617,1222.661L821.617,1183.627L813.18,1183.627L813.18,1222.661L821.617,1222.661ZM447.013,1302.636L485.974,1377.636L495.714,1377.636L522.013,1303.61L447.013,1302.636ZM862.271,1222.661L862.271,1183.627L853.833,1183.627L853.833,1222.661L862.271,1222.661ZM1090.844,1332.344C1090.844,1329.387 1088.444,1326.987 1085.487,1326.987L1058.214,1326.987C1055.258,1326.987 1052.857,1329.387 1052.857,1332.344C1052.857,1335.301 1055.258,1337.701 1058.214,1337.701L1085.487,1337.701C1088.444,1337.701 1090.844,1335.301 1090.844,1332.344ZM685.39,1258.862C685.39,1257.195 685.024,1255.548 684.291,1253.919C683.558,1252.29 682.697,1250.983 681.708,1249.998C682.22,1249.203 682.714,1248.265 683.191,1247.186C683.668,1246.106 683.907,1244.998 683.907,1243.862C683.907,1242.271 683.634,1240.775 683.089,1239.373C682.543,1237.972 681.793,1236.75 680.839,1235.709C679.884,1234.667 678.768,1233.843 677.489,1233.237C676.211,1232.631 674.856,1232.328 673.424,1232.328L657.776,1232.328L657.776,1271.362L673.424,1271.362C675.64,1271.362 677.506,1270.993 679.024,1270.254C680.541,1269.515 681.776,1268.55 682.731,1267.356C683.685,1266.163 684.367,1264.818 684.776,1263.322C685.185,1261.826 685.39,1260.339 685.39,1258.862ZM673.424,1262.271L666.214,1262.271L666.214,1255.396L673.424,1255.396C673.731,1255.396 674.029,1255.51 674.319,1255.737C674.609,1255.964 674.864,1256.248 675.086,1256.589C675.308,1256.93 675.478,1257.3 675.597,1257.697C675.717,1258.095 675.776,1258.483 675.776,1258.862C675.776,1259.241 675.717,1259.629 675.597,1260.027C675.478,1260.425 675.308,1260.794 675.086,1261.135C674.864,1261.476 674.609,1261.75 674.319,1261.959C674.029,1262.167 673.731,1262.271 673.424,1262.271ZM666.214,1246.305L666.214,1241.419L673.424,1241.419C674.004,1241.419 674.489,1241.665 674.881,1242.157C675.274,1242.65 675.47,1243.218 675.47,1243.862C675.47,1244.506 675.274,1245.074 674.881,1245.567C674.489,1246.059 674.004,1246.305 673.424,1246.305L666.214,1246.305ZM775.799,1232.328L767.362,1232.328L767.362,1256.532C767.362,1257.404 767.225,1258.209 766.953,1258.947C766.68,1259.686 766.296,1260.33 765.802,1260.879C765.308,1261.428 764.728,1261.864 764.063,1262.186C763.399,1262.508 762.691,1262.669 761.941,1262.669C761.157,1262.669 760.441,1262.508 759.793,1262.186C759.146,1261.864 758.575,1261.428 758.08,1260.879C757.586,1260.33 757.203,1259.686 756.93,1258.947C756.657,1258.209 756.521,1257.404 756.521,1256.532L756.521,1232.328L748.083,1232.328L748.083,1256.532C748.083,1258.578 748.458,1260.529 749.208,1262.385C749.958,1264.241 750.981,1265.889 752.276,1267.328C753.572,1268.767 755.046,1269.866 756.7,1270.623C758.353,1271.381 760.1,1271.76 761.941,1271.76C763.782,1271.76 765.538,1271.371 767.208,1270.595C768.879,1269.818 770.362,1268.71 771.657,1267.271C772.953,1265.832 773.967,1264.193 774.7,1262.356C775.433,1260.519 775.799,1258.578 775.799,1256.532L775.799,1232.328ZM910.032,1220.218L911.208,1222.661L920.668,1222.661L902.771,1183.627L884.873,1222.661L893.771,1222.661L894.896,1220.218L910.032,1220.218ZM905.89,1211.127L899.089,1211.127L902.464,1201.865L905.89,1211.127ZM892.543,1197.718C892.373,1193.21 891.325,1189.735 889.399,1187.291C887.472,1184.848 884.737,1183.627 881.191,1183.627L865.237,1183.627L865.237,1222.661L873.674,1222.661L873.674,1211.808L881.038,1211.808C882.333,1211.808 883.663,1211.515 885.026,1210.928C886.39,1210.341 887.626,1209.45 888.734,1208.257C889.842,1207.064 890.754,1205.596 891.47,1203.854C892.185,1202.111 892.543,1200.066 892.543,1197.718ZM880.271,1202.718L873.674,1202.718L873.674,1192.718L880.271,1192.718C880.987,1192.718 881.592,1192.879 882.086,1193.2C882.58,1193.522 882.972,1193.939 883.262,1194.45C883.552,1194.962 883.765,1195.511 883.901,1196.098C884.038,1196.685 884.106,1197.225 884.106,1197.718C884.106,1198.248 884.038,1198.797 883.901,1199.365C883.765,1199.933 883.552,1200.473 883.262,1200.985C882.972,1201.496 882.58,1201.913 882.086,1202.235C881.592,1202.557 880.987,1202.718 880.271,1202.718ZM745.782,1222.661L745.782,1183.627L736.68,1183.627L727.373,1202.604L718.015,1183.627L708.964,1183.627L708.964,1222.661L717.401,1222.661L717.401,1202.831L727.373,1223.115L737.345,1202.831L737.345,1222.661L745.782,1222.661ZM831.333,1268.919L832.509,1271.362L841.97,1271.362L824.072,1232.328L806.174,1271.362L815.072,1271.362L816.197,1268.919L831.333,1268.919ZM827.191,1259.828L820.39,1259.828L823.765,1250.567L827.191,1259.828ZM1038.247,1497.442C1039.708,1491.76 1042.305,1474.39 1046.039,1463.351C1049.773,1452.312 1055.942,1439 1060.649,1431.208C1064.094,1425.506 1069.578,1420.169 1074.286,1416.597C1078.567,1413.349 1083.691,1411.118 1088.896,1409.779C1094.578,1408.318 1101.865,1408.265 1108.377,1407.831C1115.682,1407.344 1124.604,1406.857 1132.727,1406.857C1141.006,1406.857 1150.422,1406.532 1158.052,1407.831C1165.137,1409.037 1172.396,1410.866 1178.506,1414.649C1185.325,1418.87 1193.496,1425.762 1198.961,1433.156C1204.481,1440.623 1208.539,1450.688 1211.623,1459.455C1214.604,1467.926 1216.331,1481.37 1217.468,1485.753C1217.549,1486.068 1218.117,1485.753 1218.442,1485.753L1222.338,1485.753C1223.312,1485.753 1224.952,1486.677 1225.26,1485.753C1225.584,1484.779 1224.61,1481.857 1224.286,1479.909C1223.799,1476.987 1223.355,1472.037 1222.338,1468.221C1221.039,1463.351 1218.442,1456.045 1216.494,1450.688C1214.701,1445.759 1213.309,1440.599 1210.649,1436.078C1207.403,1430.558 1201.234,1422.279 1197.013,1417.571C1193.627,1413.795 1189.634,1410.506 1185.325,1407.831C1180.617,1404.909 1173.799,1401.662 1168.766,1400.039C1164.396,1398.629 1159.709,1398.434 1155.13,1398.091C1148.636,1397.604 1138.252,1397.27 1129.805,1397.117C1120.877,1396.955 1108.377,1396.63 1101.558,1397.117C1097.238,1397.426 1092.468,1399.065 1088.896,1400.039C1085.924,1400.849 1082.969,1401.766 1080.13,1402.961C1077.045,1404.26 1073.149,1406.045 1070.39,1407.831C1067.876,1409.457 1065.765,1411.638 1063.571,1413.675C1061.299,1415.786 1058.719,1417.95 1056.753,1420.494C1053.994,1424.065 1049.574,1429.841 1047.013,1435.104C1044.091,1441.11 1041.169,1450.039 1039.221,1456.532C1037.501,1462.267 1036.461,1469.195 1035.325,1474.065C1034.412,1477.976 1033.214,1481.857 1032.403,1485.753C1031.597,1489.62 1030.617,1495.494 1030.455,1497.442C1030.428,1497.765 1031.104,1497.442 1031.429,1497.442L1037.273,1497.442C1037.597,1497.442 1038.166,1497.756 1038.247,1497.442ZM802.646,1254.544C803.737,1253.294 804.58,1251.873 805.177,1250.282C805.774,1248.692 806.072,1247.025 806.072,1245.282C806.072,1241.684 804.913,1238.597 802.595,1236.021C801.538,1234.847 800.336,1233.957 798.989,1233.351C797.643,1232.745 796.22,1232.404 794.72,1232.328L778.765,1232.328L778.765,1271.362L787.203,1271.362L787.203,1258.237L790.066,1258.237L796.151,1271.419L805.663,1271.419L799.066,1257.157C799.748,1256.854 800.379,1256.485 800.958,1256.05C801.538,1255.614 802.1,1255.112 802.646,1254.544ZM787.203,1249.146L787.203,1241.419L794.31,1241.419C795.231,1241.419 796.015,1241.807 796.663,1242.584C797.31,1243.36 797.634,1244.26 797.634,1245.282C797.634,1246.305 797.31,1247.205 796.663,1247.981C796.015,1248.758 795.231,1249.146 794.31,1249.146L787.203,1249.146ZM640.953,1211.581L637.066,1219.081C637.782,1219.649 638.6,1220.18 639.521,1220.672C640.441,1221.165 641.396,1221.591 642.384,1221.95C643.373,1222.31 644.379,1222.594 645.401,1222.803C646.424,1223.011 647.413,1223.115 648.367,1223.115C650.072,1223.115 651.683,1222.803 653.2,1222.178C654.717,1221.553 656.038,1220.672 657.163,1219.536C658.288,1218.399 659.183,1217.055 659.847,1215.502C660.512,1213.949 660.845,1212.225 660.845,1210.331C660.845,1209.725 660.802,1208.977 660.717,1208.087C660.631,1207.197 660.41,1206.278 660.052,1205.331C659.694,1204.384 659.149,1203.475 658.416,1202.604C657.683,1201.733 656.651,1200.994 655.322,1200.388L650.259,1198.115C649.305,1197.699 648.495,1197.225 647.83,1196.695C647.166,1196.165 646.833,1195.426 646.833,1194.479C646.833,1194.062 646.927,1193.683 647.114,1193.343C647.302,1193.002 647.541,1192.718 647.83,1192.49C648.12,1192.263 648.435,1192.083 648.776,1191.95C649.117,1191.818 649.441,1191.752 649.748,1191.752C650.941,1191.752 652.083,1192.017 653.174,1192.547C654.265,1193.077 655.254,1193.665 656.14,1194.308L660.026,1186.808C658.56,1185.672 656.967,1184.782 655.245,1184.138C653.524,1183.494 651.691,1183.172 649.748,1183.172C648.316,1183.172 646.935,1183.437 645.606,1183.968C644.276,1184.498 643.1,1185.274 642.078,1186.297C641.055,1187.32 640.237,1188.579 639.623,1190.075C639.009,1191.572 638.703,1193.286 638.703,1195.218C638.703,1197.793 639.146,1199.943 640.032,1201.666C640.918,1203.39 642.248,1204.649 644.021,1205.445L649.032,1207.718C650.259,1208.286 651.12,1208.835 651.614,1209.365C652.109,1209.896 652.356,1210.634 652.356,1211.581C652.356,1212.036 652.228,1212.424 651.972,1212.746C651.717,1213.068 651.393,1213.333 651.001,1213.541C650.609,1213.75 650.174,1213.892 649.697,1213.968C649.22,1214.043 648.776,1214.081 648.367,1214.081C647.72,1214.081 647.021,1213.986 646.271,1213.797C645.521,1213.608 644.805,1213.38 644.123,1213.115C643.441,1212.85 642.81,1212.575 642.231,1212.291C641.651,1212.007 641.225,1211.771 640.953,1211.581Z"/>
        </g>
    </g>
</svg>
