<?xml version="1.0" encoding="UTF-8" standalone="no"?>
<!DOCTYPE svg PUBLIC "-//W3C//DTD SVG 1.1//EN" "http://www.w3.org/Graphics/SVG/1.1/DTD/svg11.dtd">
<svg width="100%" height="100%" viewBox="0 0 1408 1408" version="1.1" xmlns="http://www.w3.org/2000/svg" xmlns:xlink="http://www.w3.org/1999/xlink" xml:space="preserve" xmlns:serif="http://www.serif.com/" style="fill-rule:evenodd;clip-rule:evenodd;stroke-linejoin:round;stroke-miterlimit:2;">
    <g transform="matrix(1,0,0,1,-207,-384)">
        <path d="M911,384C1299.548,384 1615,699.452 1615,1088C1615,1476.548 1299.548,1792 911,1792C522.452,1792 207,1476.548 207,1088C207,699.452 522.452,384 911,384ZM1125,681L1123,647C1123,647 1128.902,637.574 1103,598C1077.098,558.426 1038,562 1038,562L794,562C794,562 761.331,561.053 739,586C716.669,610.947 708,642 708,642L708,681L582,681C582,681 559.741,682.239 545,697C530.259,711.761 526,725 526,725C526,725 521.855,738.615 522,753C522.145,767.385 525,773 525,773C525,773 526.263,779.313 532,782C537.737,784.687 544,788 544,788L1278,788C1278,788 1287.695,785.183 1292,780C1296.305,774.817 1299,768 1299,768L1299,739C1299,739 1295.257,723.719 1285,707C1274.455,689.813 1242,680 1242,680L1125,681ZM1068,681L764,681L764,651C764,651 762.816,640.779 774,631C785.184,621.221 798,619 798,619L1034,619C1034,619 1045.655,619.906 1056,631C1066.345,642.094 1068,651 1068,651L1068,681ZM1241,834L580,834C580,834 576.002,831.946 567,840C557.998,848.054 559,852 559,852L608,1523C608,1523 606.551,1551.273 634,1574C661.449,1596.727 692,1600 692,1600L1136,1600C1136,1600 1172.204,1594.67 1193,1567C1213.796,1539.33 1214,1522 1214,1522L1263,855C1263,855 1266.595,852.325 1256,842C1245.405,831.675 1241,834 1241,834ZM1116.72,931.699L1103.168,1472.3C1102.876,1483.954 1093.177,1493.178 1081.524,1492.886L1079.771,1492.842C1068.117,1492.549 1058.893,1482.851 1059.185,1471.197L1072.737,930.596C1073.029,918.942 1082.728,909.718 1094.382,910.01L1096.135,910.054C1107.788,910.346 1117.013,920.045 1116.72,931.699ZM744.421,929.504L761.46,1470.006C761.827,1481.658 752.666,1491.415 741.014,1491.783L739.261,1491.838C727.61,1492.205 717.852,1483.044 717.485,1471.392L700.446,930.89C700.078,919.238 709.24,909.48 720.891,909.113L722.644,909.058C734.296,908.691 744.054,917.852 744.421,929.504ZM931.951,931.062L931.951,1471.833C931.951,1483.491 922.487,1492.955 910.83,1492.955L909.076,1492.955C897.419,1492.955 887.954,1483.491 887.954,1471.833L887.954,931.062C887.954,919.405 897.419,909.941 909.076,909.941L910.83,909.941C922.487,909.941 931.951,919.405 931.951,931.062Z" style="fill:rgb(233,187,0);"/>
    </g>
</svg>
