<?xml version="1.0" encoding="UTF-8" standalone="no"?>
<!DOCTYPE svg PUBLIC "-//W3C//DTD SVG 1.1//EN" "http://www.w3.org/Graphics/SVG/1.1/DTD/svg11.dtd">
<svg width="100%" height="100%" viewBox="0 0 1408 1408" version="1.1" xmlns="http://www.w3.org/2000/svg" xmlns:xlink="http://www.w3.org/1999/xlink" xml:space="preserve" xmlns:serif="http://www.serif.com/" style="fill-rule:evenodd;clip-rule:evenodd;stroke-linejoin:round;stroke-miterlimit:2;">
    <g transform="matrix(1,0,0,1,-207,-384)">
        <g transform="matrix(1,0,0,1,-141,-22)">
            <path d="M1052,406C1440.548,406 1756,721.452 1756,1110C1756,1498.548 1440.548,1814 1052,1814C663.452,1814 348,1498.548 348,1110C348,721.452 663.452,406 1052,406ZM1300.047,1243.172C1294.825,1236.812 1284.381,1224.093 1277.047,1214.172C1268.547,1202.672 1257.399,1188.141 1249.047,1174.172C1239.881,1158.838 1231.381,1137.672 1222.047,1122.172C1213.412,1107.831 1203.214,1094.005 1193.047,1081.172C1183.078,1068.587 1171.605,1055.097 1161.047,1045.172C1151.525,1036.22 1141.538,1027.162 1129.702,1021.619C1117.533,1015.921 1102.22,1013.056 1088.036,1010.983C1073.272,1008.825 1056.771,1008.343 1041.115,1008.669C1024.481,1009.015 1003.44,1008.806 988.232,1013.059C974.172,1016.991 961.661,1025.584 949.866,1034.187C938.03,1042.82 926.648,1053.279 917.219,1064.855C903.882,1081.229 883.311,1112.356 869.843,1132.429C858.225,1149.744 847.395,1167.575 836.406,1185.295C824.316,1204.79 808.357,1232.719 797.301,1249.4C788.992,1261.937 778.115,1272.671 770.072,1285.38C761.399,1299.085 751.132,1318.264 745.263,1331.627C740.506,1342.458 736.755,1354.812 734.861,1365.556C733.092,1375.584 732.922,1385.953 733.897,1396.088C735.08,1408.394 737.24,1428.079 741.96,1439.388C746.046,1449.18 754.549,1456.606 762.213,1463.942C771.977,1473.29 789.322,1487.722 800.545,1495.473C809.499,1501.656 819.606,1506.529 829.553,1510.444C839.427,1514.33 849.696,1517.651 860.226,1518.961C871.138,1520.319 883.487,1519.791 895.025,1518.592C906.952,1517.352 919.869,1515.222 931.786,1511.522C944.279,1507.644 957.555,1500.115 969.983,1495.324C981.949,1490.711 995.905,1486.172 1006.353,1482.777C1015.058,1479.949 1023.588,1476.057 1032.674,1474.956C1042.323,1473.787 1053.955,1474.268 1064.251,1475.763C1074.546,1477.258 1084.622,1480.439 1094.448,1483.928C1107.539,1488.577 1126.914,1497.562 1142.8,1503.659C1158.329,1509.619 1176.537,1517.61 1189.769,1520.511C1200.327,1522.826 1211.382,1521.154 1222.191,1521.067C1234.506,1520.968 1252.563,1522.181 1263.661,1519.917C1272.814,1518.049 1281.132,1512.851 1288.775,1507.48C1298.246,1500.825 1311.014,1490.284 1320.484,1479.988C1330.739,1468.838 1342.952,1452.699 1350.307,1440.581C1356.576,1430.254 1361.578,1418.974 1364.616,1407.281C1367.839,1394.875 1370.124,1378.279 1369.643,1366.15C1369.212,1355.287 1365.508,1344.703 1361.729,1334.51C1357.398,1322.829 1350.628,1307.569 1343.658,1296.067C1336.97,1285.032 1325.594,1272.011 1319.906,1265.501L1300.047,1243.172ZM662.047,917.172L630.581,931.78C630.581,931.78 609.97,952.583 602.6,964.427C595.255,976.229 590.624,990.653 586.359,1002.839C582.402,1014.148 577.916,1025.599 577.01,1037.546C575.973,1051.217 576.883,1070.422 580.139,1084.871C583.264,1098.738 588.431,1112.562 596.545,1124.235C606.689,1138.826 627.4,1160.745 641,1172.422C651.902,1181.782 665.479,1189.61 678.143,1194.297C690.442,1198.848 704.552,1200.506 716.985,1200.542C729.073,1200.578 741.919,1198.686 752.744,1194.517C763.57,1190.349 774.154,1184.141 781.939,1175.53C790.767,1165.765 799.939,1149.888 805.712,1135.932C811.486,1121.976 816.187,1106.942 816.582,1091.796C817.006,1075.54 813.891,1055.506 808.256,1038.395C802.46,1020.798 791.42,1000.542 781.808,986.217C773.264,973.485 759.425,961.111 750.579,952.445C743.804,945.807 736.415,939.481 728.729,934.217C721.112,928.999 712.09,923.967 704.464,920.859C697.631,918.075 687.858,916.404 682.971,915.569L662.047,917.172ZM816.62,757.172L808.549,768.036C806.307,771.904 801.824,779.64 799.424,785.873C795.375,796.387 785.832,816.042 784.253,831.122C782.675,846.201 786.144,861.639 789.951,876.349C793.972,891.886 799.189,909.88 808.379,924.345C819.095,941.213 840.903,966.373 854.252,977.555C863.687,985.459 876.325,989.432 888.47,991.435C901.868,993.644 921.085,994.071 934.644,990.811C947.592,987.697 959.547,979.688 969.821,971.874C980.034,964.107 989.53,954.832 996.291,943.927C1003.87,931.703 1012.627,914.713 1015.295,898.526C1018.119,881.393 1014.629,856.778 1013.232,841.133C1012.134,828.844 1011.343,816.177 1006.914,804.661C1001.708,791.125 989.934,772.383 981.995,759.917C975.248,749.326 967.917,738.865 959.275,729.869C950.632,720.873 940.74,710.924 930.139,705.939C919.585,700.977 905.546,699.753 895.666,699.961C887.056,700.142 878.361,702.953 870.862,707.187C863.095,711.573 849.067,726.273 849.067,726.273L816.62,757.172ZM1425.047,915.569C1414.992,916.338 1389,924.052 1389,924.052C1389,924.052 1369.105,936.623 1361.058,943.036C1353.713,948.888 1346.831,955.401 1340.716,962.529C1334.446,969.837 1328.379,979.437 1323.439,986.883C1319.055,993.49 1314.471,1000.517 1311.075,1007.204C1307.851,1013.553 1304.97,1020.147 1303.063,1027.007C1300.437,1036.453 1297.164,1051.831 1295.318,1063.879C1293.523,1075.599 1291.167,1087.465 1291.989,1099.294C1292.894,1112.315 1294.401,1128.931 1300.749,1142.004C1307.64,1156.196 1321.45,1174.644 1333.336,1184.446C1344.149,1193.363 1358.25,1198.448 1372.063,1200.814C1386.244,1203.243 1403.567,1203.061 1418.42,1199.022C1433.273,1194.984 1448.536,1186.235 1461.181,1176.583C1473.826,1166.93 1485.32,1153.826 1494.291,1141.108C1503.088,1128.636 1509.602,1112.397 1515.007,1100.275C1519.619,1089.929 1525.578,1079.645 1526.717,1068.375C1528.14,1054.294 1527.444,1031.451 1523.545,1015.789C1519.837,1000.892 1509.279,984.971 1503.326,974.409C1498.923,966.596 1493.606,959.274 1487.828,952.415C1481.85,945.317 1473.873,937.318 1467.456,931.822C1461.899,927.061 1456.164,922.056 1449.331,919.437C1442.262,916.728 1433.22,914.943 1425.047,915.569ZM1187.047,699.939C1179.325,701.907 1163.631,710.584 1163.631,710.584C1163.631,710.584 1146.383,723.8 1138.886,731.606C1131.021,739.792 1122.43,749.319 1116.446,759.705C1109.465,771.822 1101.438,791.101 1097,804.309C1093.243,815.487 1091.11,827.229 1089.816,838.951C1088.488,850.968 1088.252,863.945 1089.034,876.409C1089.879,889.869 1089.875,906.036 1094.885,919.713C1099.994,933.657 1108.282,949.152 1119.686,960.074C1131.498,971.388 1153.432,982.3 1165.762,987.597C1174.407,991.31 1184.263,992.164 1193.667,991.851C1204.008,991.507 1217.098,989.913 1227.812,985.533C1238.54,981.147 1249.043,973.602 1258.035,965.535C1268.785,955.889 1283.76,940.327 1292.316,927.657C1300.111,916.114 1305.258,902.197 1309.372,889.511C1313.355,877.232 1315.833,863.383 1317.002,851.544C1318.085,840.575 1318.163,829.36 1316.386,818.481C1314.578,807.406 1310.9,794.955 1306.15,785.091C1301.578,775.599 1294.368,767.07 1287.884,759.297C1281.62,751.789 1274.272,745.142 1267.244,738.454C1260.265,731.813 1252.963,724.729 1245.717,719.169C1238.823,713.879 1229.729,708.497 1223.77,705.098C1219.374,702.591 1214.978,699.48 1209.967,698.776C1203.846,697.916 1194.46,698.05 1187.047,699.939Z" style="fill:rgb(138,227,140);"/>
        </g>
    </g>
</svg>
